<svg width="37" height="41" viewBox="0 0 37 41" fill="none" xmlns="http://www.w3.org/2000/svg">
<g clip-path="url(#clip0_967_7035)">
<rect width="40.72" height="36.3" transform="translate(36.3 0.139999) rotate(90)" fill="#973C35"/>
<path d="M31.3801 39.48C31.7176 39.4922 32.055 39.4517 32.3801 39.36C33.3525 39.1282 34.1979 38.5299 34.7401 37.69C36.4701 35.14 35.9701 32.06 36.0501 29.2C36.2301 22.81 36.4101 16.56 36.2101 10.14C36.1301 7.39 36.3601 4.14 34.7201 1.8C34.1823 0.962285 33.3394 0.366896 32.3701 0.139999C28.6601 0.619999 25.4301 2.44 22.2401 4.3C20.3001 5.43 18.4001 6.57 16.4901 7.73C15.7676 8.04982 15.0942 8.4707 14.4901 8.98C13.8801 9.74 14.2401 10.74 13.0801 10.98C10.8001 11.5439 8.69235 12.6561 6.94008 14.22C5.82008 15.14 2.46008 17.94 2.94008 19.71C4.00008 24.03 9.81008 27.06 13.0601 29.56C13.2401 29.69 13.4401 29.84 13.6201 29.99C14.9851 31.0404 16.4605 31.939 18.0201 32.67C19.3701 33.33 20.4501 33 21.7801 33.33C22.1447 33.4678 22.4396 33.7448 22.6001 34.1C23.5954 36.0091 25.2736 37.473 27.3001 38.2C28.5785 38.853 29.9578 39.2857 31.3801 39.48Z" fill="url(#paint0_linear_967_7035)"/>
<path d="M29.3001 34.66L28.9301 34.48C28.2794 34.301 27.6748 33.9842 27.1572 33.5512C26.6396 33.1181 26.2211 32.5789 25.9301 31.97L25.8801 31.89C25.7416 31.6695 25.5879 31.459 25.4201 31.26C24.7723 30.4238 23.876 29.8146 22.8601 29.52C22.8053 29.4974 22.7483 29.4806 22.6901 29.47C21.9473 29.3024 21.1909 29.202 20.4301 29.17C20.1907 29.1788 19.9514 29.1518 19.7201 29.09L19.5301 29C18.3193 28.4361 17.1755 27.7384 16.1201 26.92C15.8901 26.73 15.6501 26.55 15.4701 26.41C14.6901 25.81 13.8401 25.24 12.9501 24.62C11.6001 23.69 7.77007 21.71 7.78007 19.93C7.79007 18.15 10.7101 16.5 11.9301 15.64C13.4401 14.57 15.7301 15.23 17.0201 14C17.6701 13.37 17.4001 12.5 17.8301 11.85C18.3346 11.3124 18.9438 10.8836 19.6201 10.59C21.1601 9.66 22.7201 8.75 24.2701 7.84L25.9601 6.84C26.7781 6.32286 27.6225 5.84888 28.4901 5.42C28.9072 5.15854 29.384 5.00757 29.8757 4.98133C30.3673 4.95509 30.8575 5.05443 31.3001 5.27C32.4701 5.99 32.3001 8.67 32.5601 9.97C33.5601 14.8 32.4501 20.08 32.1601 24.97C32.0801 26.33 31.9901 27.73 31.9401 29.12L31.9401 32.06C32.0001 33.85 31.3901 35.55 29.3001 34.66Z" fill="url(#paint1_linear_967_7035)"/>
<g style="mix-blend-mode:multiply">
<path d="M26.53 9.36C27.1373 9.83032 27.6212 10.4412 27.94 11.14C28.1112 11.5225 28.1801 11.9429 28.14 12.36C28.0686 13.0083 27.8194 13.6243 27.42 14.14C26.6164 15.2029 25.5375 16.0259 24.3 16.52C23.8381 16.7219 23.3281 16.7878 22.83 16.71C22.4636 16.6255 22.1219 16.4569 21.832 16.2173C21.5421 15.9778 21.312 15.674 21.16 15.33C21.0619 15.109 20.9784 14.8819 20.91 14.65C20.79 14.53 20.67 14.41 20.56 14.28C20.3368 14.0097 20.164 13.7015 20.05 13.37C19.8927 13.0047 19.8275 12.6064 19.86 12.21C20.0257 11.4305 20.444 10.7275 21.05 10.21C21.855 9.38066 22.8774 8.79494 24 8.52C24.4579 8.45555 24.9246 8.49783 25.3635 8.64355C25.8023 8.78926 26.2016 9.03446 26.53 9.36Z" fill="#E8E6E8"/>
</g>
<g style="mix-blend-mode:multiply">
<path d="M21.1 17.88L21.24 17.99C21.24 17.99 21.3 17.99 21.31 18.05L21.31 18.15L21.39 18.29L21.46 18.49L21.53 18.68C21.53 18.74 21.53 18.81 21.45 18.85C21.3863 18.929 21.3038 18.9909 21.21 19.03C20.9762 19.108 20.7349 19.1617 20.49 19.19C20.4 19.19 20.31 19.19 20.21 19.19C20.137 19.2 20.063 19.2 19.99 19.19C19.9484 19.1777 19.9081 19.1609 19.87 19.14C19.7906 19.1094 19.7137 19.0726 19.64 19.03C19.5902 19.0093 19.5431 18.9825 19.5 18.95C19.4887 18.9358 19.4825 18.9182 19.4825 18.9C19.4825 18.8818 19.4887 18.8642 19.5 18.85L19.5 18.78C19.49 18.5901 19.49 18.3999 19.5 18.21C19.5 18.07 19.66 17.92 19.76 17.85C19.871 17.7359 20.0211 17.668 20.18 17.66C20.3489 17.6866 20.5192 17.7033 20.69 17.71C20.8 17.71 20.91 17.71 21 17.78L21.1 17.88Z" fill="#E8E6E8"/>
</g>
<g style="mix-blend-mode:multiply">
<path d="M28.3 26.8L28.3 26.86C28.3 26.86 28.3 26.86 28.3 26.91L28.3 26.97L28.25 27.46C28.241 27.547 28.2021 27.6283 28.14 27.69C28.0676 27.7742 27.9872 27.8512 27.9 27.92C27.819 27.9822 27.7276 28.0295 27.63 28.06C27.63 28.06 27.48 28.12 27.44 28.06L27.3 27.78C27.3 27.78 27.3 27.78 27.3 27.69L27.3 27.59L27.3 27.45L27.42 27.14L27.42 27.07L27.52 26.95C27.5837 26.8763 27.6579 26.8123 27.74 26.76C27.7958 26.7222 27.8563 26.6919 27.92 26.67C27.9477 26.6551 27.9786 26.6473 28.01 26.6473C28.0415 26.6473 28.0724 26.6551 28.1 26.67L28.3 26.8Z" fill="#E8E6E8"/>
</g>
<g style="mix-blend-mode:multiply">
<path d="M21.9601 25.75C22.2079 25.5707 22.445 25.3771 22.6701 25.17C22.7652 25.0782 22.8553 24.9814 22.9401 24.88C23.0463 24.7057 23.1271 24.5171 23.1801 24.32L23.3001 24.14C23.3001 24.01 23.3001 23.88 23.3001 23.76C23.3001 23.64 23.3001 23.9 23.3001 23.68C23.3422 23.3705 23.2972 23.0553 23.1701 22.77C23.0805 22.4675 22.9113 22.1947 22.6801 21.98C22.6201 21.92 22.6001 21.91 22.6301 21.98C22.558 21.8895 22.4776 21.8058 22.3901 21.73C22.3301 21.68 22.2501 21.64 22.1901 21.59C21.9959 21.4438 21.7799 21.3291 21.5501 21.25C21.2187 21.199 20.8815 21.199 20.5501 21.25C20.4138 21.2352 20.2764 21.2352 20.1401 21.25C19.9385 21.3138 19.7563 21.4273 19.6101 21.58C19.5668 21.6448 19.5331 21.7156 19.5101 21.79C19.4663 21.8791 19.4127 21.9629 19.3501 22.04L19.2301 22.22C19.1581 22.3566 19.114 22.5062 19.1001 22.66C19.0607 22.8504 19.0072 23.0376 18.9401 23.22C18.8429 23.57 18.8429 23.94 18.9401 24.29C18.9951 24.5613 19.104 24.8187 19.2604 25.0472C19.4167 25.2756 19.6172 25.4704 19.8501 25.62C19.9824 25.6867 20.1194 25.7435 20.2601 25.79C20.3833 25.8898 20.5325 25.9523 20.6901 25.97C20.8224 25.9696 20.954 25.9898 21.0801 26.03C21.2381 26.0744 21.4056 26.0715 21.562 26.0218C21.7184 25.972 21.8568 25.8775 21.9601 25.75Z" fill="#E8E6E8"/>
</g>
<path d="M29.3001 34.66L28.9301 34.48C28.2794 34.301 27.6748 33.9842 27.1572 33.5512C26.6396 33.1181 26.2211 32.5789 25.9301 31.97L25.8801 31.89C25.7416 31.6695 25.5879 31.459 25.4201 31.26C24.7723 30.4238 23.876 29.8146 22.8601 29.52C22.8053 29.4974 22.7483 29.4806 22.6901 29.47C21.9473 29.3024 21.1909 29.202 20.4301 29.17C20.1907 29.1788 19.9514 29.1518 19.7201 29.09L19.5301 29C21.141 28.7515 22.789 29.0396 24.2201 29.82C25.1891 30.6774 26.0886 31.6103 26.9101 32.61C27.8501 33.5 29.3501 34.09 30.4201 33.35C31.9001 32.35 30.8201 28.58 30.9401 27.05C31.0601 25.52 31.2501 24.14 31.3901 22.64C31.5301 21.14 31.6701 19.64 31.7001 18.17C31.7601 14.88 30.9001 11.74 30.9701 8.46C30.9701 7.76 30.9701 6.91 30.3901 6.52C28.7101 5.42 27.4901 6.52 25.9701 6.79C26.7859 6.29018 27.627 5.8329 28.4901 5.42C28.9072 5.15854 29.384 5.00757 29.8757 4.98133C30.3673 4.95509 30.8575 5.05443 31.3001 5.27C32.4701 5.99 32.3001 8.67 32.5601 9.97C33.5601 14.8 32.4501 20.08 32.1601 24.97C32.0801 26.33 31.9901 27.73 31.9401 29.12L31.9401 32.06C32.0001 33.85 31.3901 35.55 29.3001 34.66Z" fill="#EB924D"/>
</g>
<defs>
<linearGradient id="paint0_linear_967_7035" x1="57.865" y1="19.5" x2="19.365" y2="19.5" gradientUnits="userSpaceOnUse">
<stop stop-color="#CF5C2B"/>
<stop offset="1" stop-color="#59173E"/>
</linearGradient>
<linearGradient id="paint1_linear_967_7035" x1="38.8701" y1="19.82" x2="-24.7199" y2="20.56" gradientUnits="userSpaceOnUse">
<stop stop-color="#CF5C2B"/>
<stop offset="1" stop-color="#59173E"/>
</linearGradient>
<clipPath id="clip0_967_7035">
<rect width="40.72" height="36.3" fill="white" transform="translate(36.3 0.139999) rotate(90)"/>
</clipPath>
</defs>
</svg>
