<svg width="264" height="97" viewBox="0 0 264 97" fill="none" xmlns="http://www.w3.org/2000/svg">
<g clip-path="url(#clip0_967_1533)">
<path d="M258.35 38.3233C256.384 35.952 254.217 33.7551 251.873 31.7571L248.615 28.8175L242.367 23.1802C241.506 22.2035 240.517 21.3475 239.427 20.6351C238.444 20.053 237.527 19.3661 236.692 18.5863C232.621 15.2025 228.373 12.0379 223.966 9.10595C220.561 6.6044 216.739 4.72596 212.679 3.5577C210.867 3.16256 209.03 2.89467 207.181 2.756L199.19 1.99248L195.156 1.598C194.628 1.55339 194.104 1.46399 193.591 1.33076C192.725 1.07626 191.847 1.44529 190.944 1.33076C189.253 1.15477 187.553 1.08676 185.854 1.12716L180.229 1.03808C172.764 0.936279 165.302 0.859927 157.845 0.809025C150.388 0.758124 142.952 0.728431 135.538 0.719948C128.132 0.719948 120.725 0.719948 113.319 0.719948C105.913 0.719948 98.5579 0.800542 91.2535 0.961729C83.8559 1.03808 76.4836 1.14413 69.1369 1.27986C61.7901 1.4156 54.4688 1.57255 47.1729 1.7507C39.8855 1.92886 32.5982 2.13246 25.3108 2.36152L13.858 2.73055C13.5449 2.69856 13.2294 2.69856 12.9163 2.73055C12.5854 2.81963 12.2673 2.93416 11.9619 3.04869C11.3123 3.27329 10.6751 3.53241 10.0531 3.82493C8.81118 4.37736 7.73609 5.2462 6.93538 6.34455C6.48999 6.98082 6.17186 7.69344 5.76465 8.35515C5.52174 8.6438 5.30056 8.95004 5.10293 9.27138C4.32196 10.9786 3.37126 12.6029 2.26518 14.1197C1.22839 15.759 0.779663 17.702 0.992641 19.6298C1.1708 22.0349 1.2217 24.4654 1.43803 26.8705C1.78161 30.6881 1.43803 34.5057 1.88342 38.3997C1.8753 38.9565 2.07492 39.4964 2.44333 39.914C2.75582 40.1405 3.11798 40.2888 3.49953 40.3467L7.13898 41.1356C5.63739 42.1028 3.39773 42.1791 2.60876 43.7825C2.35455 44.3127 2.20752 44.8878 2.1761 45.475C2.06157 47.5238 1.87069 49.5725 1.73071 51.6213C1.66708 52.5376 1.61618 53.4665 1.59073 54.3955C1.56528 55.3244 1.4762 56.1134 1.39985 56.9405C1.20897 58.9766 0.687233 61.6362 1.31077 63.6341C1.93432 65.6319 4.31396 65.6828 5.9937 66.1537C5.56377 66.2533 5.15891 66.4403 4.80428 66.703C4.44964 66.9657 4.1528 67.2985 3.9322 67.6807C3.67769 68.037 3.49953 68.4315 3.25775 68.8005C3.03887 69.1236 2.83917 69.4593 2.65966 69.8058C2.29961 70.5006 2.00973 71.2296 1.79434 71.9819C1.66349 72.4471 1.58244 72.9248 1.55256 73.4071C1.55256 73.8652 1.55256 74.3361 1.55256 74.8069C1.55256 75.7359 1.55256 76.6648 1.46348 77.5938C1.46348 79.4644 1.46348 81.335 1.46348 83.1929C1.46348 85.0508 0.96719 86.7433 1.73071 88.5248C2.49625 90.3001 3.78899 91.7972 5.43379 92.8133C6.75974 93.6108 8.26522 94.0616 9.81131 94.124C27.9195 95.1166 46.0913 95.5365 64.2249 95.9564C82.6851 96.3976 101.145 96.6478 119.606 96.7072C138.21 96.7666 156.806 96.6436 175.394 96.3382C181.68 96.2491 187.979 95.8801 194.24 96.3382C200.01 96.6669 205.796 96.6074 211.559 96.16C216.56 95.8165 221.039 95.8292 224.984 92.2152C233.688 84.2364 242.876 76.8175 251.58 68.8514C253.994 66.7654 256.205 64.4561 258.185 61.9543C260.266 59.4105 261.799 56.4647 262.689 53.3011C263.088 51.887 263.209 50.4091 263.046 48.949C262.941 48.3494 262.779 47.7613 262.562 47.1929C262.312 46.7095 262.124 46.1964 262.002 45.6659C261.852 44.6034 261.521 43.5746 261.022 42.6245C260.309 41.0881 259.411 39.6438 258.35 38.3233Z" fill="url(#paint0_linear_967_1533)"/>
<path d="M261.608 51.774C261.391 52.194 261.15 52.5885 260.933 52.9575C260.857 53.0847 260.781 53.2374 260.704 53.352C260.591 53.4975 260.453 53.6224 260.297 53.721C259.96 53.8651 259.589 53.9093 259.228 53.8483H259.114C253.387 53.3647 247.495 51.8504 241.998 53.5429C243.505 54.1122 245.096 54.4262 246.706 54.4718L259.203 55.5153L259.088 55.6171C258.655 56.037 258.21 56.4315 257.816 56.826C257.078 57.5004 256.454 58.3149 255.741 59.0275C254.685 60.071 253.578 61.0763 252.484 62.0688L251.542 62.9087L250.575 63.774C247.767 66.3191 244.925 68.8642 242.049 71.4092C241.107 72.2237 240.153 73.0254 239.211 73.8016C238.269 74.5779 237.188 75.4941 236.157 76.3467C231.087 80.4928 225.719 84.2611 220.098 87.6213L219.5 87.9776C219.128 88.2195 218.731 88.4201 218.316 88.5757C218.124 88.6171 217.928 88.6384 217.731 88.6394H216.458C213.519 88.6394 210.528 88.7921 207.55 88.8939L194.163 89.212C189.005 89.3308 183.843 89.4241 178.677 89.492C174.07 89.5683 169.455 89.6319 164.831 89.6828C160.899 89.6828 156.967 89.7592 153.035 89.7719H145.489C141.366 89.7719 137.243 89.7719 133.133 89.7719H123.143H118.868H117.188C112.976 89.7719 108.789 89.7719 104.59 89.6828H100.327C97.438 89.6828 94.5367 89.6828 91.648 89.5556L86.4815 89.4792C82.0658 89.4792 77.6883 89.3265 73.2853 89.2374L68.0298 89.1229C65.8283 89.1229 63.6014 89.0211 61.3999 88.9448C59.4402 88.9448 57.5059 88.843 55.5462 88.7921C51.3044 88.6818 47.0626 88.5503 42.8209 88.3976L40.5939 88.3339L37.8071 88.0922L28.683 87.7613L24.5982 87.5832C21.0351 87.405 17.4465 87.1505 13.8834 87.1505C12.1221 87.0816 10.4177 86.5075 8.97365 85.4967C7.52959 84.4858 6.4068 83.0809 5.7392 81.4495C5.20192 80.03 4.98887 78.5082 5.11565 76.9957C5.12591 76.7285 5.16864 76.4636 5.24291 76.2067C5.39074 75.8172 5.50983 75.4174 5.59922 75.0105C5.67557 74.5015 5.71375 73.967 5.75192 73.4453L5.86645 71.9055C5.86645 71.511 5.93008 71.1166 5.95553 70.7221C5.99198 70.2051 6.05998 69.6909 6.15913 69.1823C6.15913 69.0169 6.24821 68.8387 6.28639 68.686C6.32456 68.5333 6.36274 68.4188 6.41364 68.2915C6.48684 68.0588 6.58947 67.8365 6.71905 67.6298C6.80722 67.4623 6.9186 67.3081 7.04991 67.1717C7.1729 67.0277 7.30924 66.8956 7.45712 66.7772C10.0785 64.8302 15.1687 64.8557 18.9099 64.7793C19.648 64.7793 20.3352 64.7793 20.9587 64.6903C22.613 64.5885 24.2673 64.5503 25.9216 64.563C22.0012 64.5511 18.089 64.2063 14.227 63.5323C12.3818 63.2268 10.5621 62.8324 8.76783 62.3742C8.32979 62.2632 7.9036 62.1098 7.49529 61.9161C6.93797 61.7014 6.48308 61.2829 6.22276 60.7454C6.03469 60.2729 5.95637 59.7638 5.9937 59.2565C5.9937 58.7603 5.9937 58.264 5.9937 57.7804C5.9937 56.7369 6.15913 55.7189 6.27366 54.6881C6.37546 53.8483 6.46454 53.0084 6.51544 52.1431C6.65542 49.9034 6.7954 47.6765 6.97355 45.4368C6.94641 44.7584 7.15806 44.0919 7.57165 43.5535C7.86567 43.2845 8.21873 43.0884 8.6024 42.9808C9.60392 42.6085 10.6397 42.3357 11.6947 42.1664C12.1909 42.0646 12.7127 42.0646 13.1962 41.9373C13.7126 41.7636 14.2458 41.6442 14.7869 41.581L32.1316 39.5577L34.2058 39.3286C25.4889 38.2724 16.7721 37.1781 8.05521 36.1219L6.90993 35.9819C6.7245 35.9867 6.53998 35.9543 6.36731 35.8865C6.19463 35.8187 6.0373 35.717 5.90463 35.5874C5.75282 35.3477 5.6733 35.0694 5.67557 34.7857C5.28108 30.0646 5.67557 25.2035 5.45924 20.4442C5.45924 20.317 5.45924 19.9225 5.45924 19.3626C5.45924 19.0826 5.45924 18.7772 5.45924 18.4336C5.45924 18.3064 5.45924 18.1664 5.45924 18.0264V17.3902V16.7157V16.0158C5.45924 15.2523 5.35744 14.5015 5.31926 13.9161C5.31926 13.7253 5.31926 13.5471 5.31926 13.3944C5.31926 13.2417 5.31926 13.2417 5.31926 13.1908C5.31926 13.1399 5.31926 12.9108 5.31926 12.8218C5.31926 12.7327 5.31926 12.72 5.31926 12.72C5.22773 11.478 5.38791 10.2303 5.79018 9.05167C6.19246 7.87307 6.82855 6.78782 7.66034 5.86097C8.49213 4.93412 9.50249 4.18475 10.6309 3.65777C11.7592 3.1308 12.9824 2.83706 14.227 2.79418L22.3076 2.53967C25.8198 2.41242 29.3193 2.31062 32.8315 2.22154C43.894 1.83978 55.1135 1.54286 66.49 1.33077L75.3978 1.17806C87.2747 0.974457 99.1517 0.842962 111.029 0.783577H120.267H131.338C138.473 0.783577 145.62 0.783577 152.781 0.783577H154.88C161.133 0.783577 167.377 0.834478 173.612 0.936281L187.063 1.12716L198.248 1.30532C200.272 1.30532 202.269 1.41984 204.293 1.43257H206.482C207.22 1.43257 207.958 1.43257 208.696 1.43257H209.319C210.224 1.36295 211.135 1.43595 212.017 1.6489H212.144C213.595 2.08267 214.984 2.69839 216.28 3.48135C216.407 3.57043 216.56 3.63405 216.687 3.71041C227.702 9.7524 237.84 17.2704 246.821 26.0561C247.152 26.3742 247.47 26.7051 247.788 27.0232C250.893 30.1282 253.845 33.3859 256.785 36.5927C257.281 37.1272 257.765 37.6744 258.236 38.2215C259.328 39.4442 260.3 40.7696 261.137 42.1791C261.705 43.1715 262.134 44.2378 262.409 45.3477C262.537 45.8695 262.588 46.4294 262.728 46.9511C262.867 47.7892 262.84 48.6465 262.648 49.474C262.456 50.3016 262.102 51.0832 261.608 51.774Z" fill="url(#paint1_linear_967_1533)"/>
<path d="M256.759 36.5291C253.82 33.2968 250.868 30.0646 247.763 26.9596C247.445 26.6415 247.126 26.3106 246.796 25.9925C235.801 25.878 224.806 25.3562 213.837 24.58C188.679 22.7984 163.572 20.4442 138.401 18.5354C113.23 16.6266 88.0977 15.0105 62.8634 14.8833C50.138 14.8833 37.4127 15.2268 24.7764 16.1558C18.2992 16.6266 11.7838 16.7793 5.30664 17.3265C5.38299 18.8408 5.44662 20.177 5.47207 20.4315C5.7393 25.1908 5.29392 30.0519 5.6884 34.773C5.68613 35.0567 5.76565 35.335 5.91746 35.5747C11.3193 36.2578 16.7613 36.5725 22.2059 36.5163C34.9312 36.6181 47.5548 35.9055 60.2547 35.9691C63.6015 35.9691 66.9482 36.0328 70.3077 36.1091L75.3215 36.2237C76.2947 36.1768 77.2702 36.2194 78.2356 36.3509C79.4455 36.559 80.6768 36.6146 81.9005 36.5163C84.6619 36.4527 87.4106 36.1855 90.172 35.9437C92.9334 35.7019 95.3512 35.4983 97.9472 35.4729C107.847 35.3583 117.595 38.0179 127.483 38.107C130.134 38.0173 132.789 38.1322 135.423 38.4506C136.963 38.7305 138.465 39.2014 139.992 39.5704C142.586 40.2147 145.247 40.5563 147.92 40.5884C149.262 40.6223 150.606 40.567 151.941 40.423C153.256 40.3341 154.575 40.3596 155.886 40.4994C161.485 40.7963 167.088 41.0423 172.696 41.2374C177.099 41.4029 181.489 41.5174 185.892 41.581C165.676 43.3371 145.455 45.0338 125.23 46.6712C114.846 47.4983 104.424 48.4145 93.9896 48.4145C82.7149 48.4145 71.453 47.0784 60.1529 47.7019C50.1635 48.2491 40.085 49.1017 30.1847 50.5142C22.4604 51.6213 14.2526 53.9501 6.23559 54.6118C6.17196 55.7062 5.99381 56.7115 5.99381 57.7677C5.99381 58.2512 5.99381 58.7475 5.99381 59.2438C5.94238 59.7523 6.00766 60.2659 6.18469 60.7454C6.44501 61.2829 6.8999 61.7014 7.45722 61.9161C7.86553 62.1098 8.29172 62.2632 8.72976 62.3742C10.524 62.8323 12.3438 63.2268 14.1889 63.5322C17.2176 63.4177 20.2589 63.2141 23.2367 62.8451C31.9917 61.7761 41.6375 61.4071 50.558 59.6128L56.2844 59.2565C66.642 58.3447 76.9317 56.7806 87.0925 54.5736C93.646 53.3011 100.276 52.3212 106.906 51.545C107.758 51.4304 108.573 51.2014 109.451 51.125L111.525 50.9596C114.299 50.7475 117.078 50.5778 119.86 50.4506C125.408 50.1834 130.982 50.0561 136.543 50.0052C142.104 49.9543 147.678 50.0052 153.252 50.0052C158.825 50.0052 164.386 50.0052 169.96 49.9161C175.534 49.827 181.095 49.6489 186.643 49.3053C188.399 49.2035 190.142 49.0763 191.886 48.9363C187.213 47.829 182.473 47.0257 177.697 46.5312C186.443 45.7931 195.143 44.703 203.797 43.2608C209.192 42.3445 214.562 41.3138 220.009 40.7157C222.721 40.3932 225.448 40.2106 228.178 40.1685C229.54 40.1685 230.902 40.1685 232.263 40.2576C233.501 40.444 234.753 40.5291 236.004 40.5121C236.87 40.4103 237.671 40.0667 238.55 39.9904C239.937 39.8631 241.324 39.7613 242.723 39.6468C245.498 39.4007 248.276 39.1335 251.059 38.8451L253.298 38.6033C254.914 38.4124 256.556 38.2724 258.197 38.1197C257.739 37.6234 257.256 37.0635 256.759 36.5291ZM239.491 57.5513C225.627 56.7179 211.727 56.6414 197.854 57.3223C194.965 57.4495 192.14 57.5132 189.264 57.8695C187.89 58.0476 186.503 58.2258 185.116 58.3785C179.593 59.0402 174.049 59.5789 168.484 59.9946C166.308 60.16 164.144 60.3127 161.981 60.44L178.829 60.3255L195.691 60.1982L204.115 60.1346H208.327C208.922 60.1691 209.519 60.1392 210.108 60.0455C210.465 59.9691 210.808 59.8164 211.165 59.7655C212.481 59.6852 213.802 59.7321 215.109 59.9055L219.283 60.1346C222.066 60.3127 224.853 60.5079 227.644 60.7199C232.021 61.0508 236.412 61.4198 240.789 61.8016C244.378 62.1325 247.941 62.5142 251.504 62.9342L252.42 62.1197C253.515 61.1272 254.622 60.1219 255.678 59.0784C250.32 58.4548 244.912 57.984 239.491 57.5513ZM147.869 68.6478C123.207 68.1643 98.6343 66.739 73.9981 66.8917C61.0182 66.8917 48.0468 67.0996 35.084 67.5153C25.5272 67.7952 15.8305 67.7443 6.28649 68.7878C6.1322 69.4184 6.03425 70.0614 5.99381 70.7093C5.87928 71.9055 5.84111 73.1399 5.71385 74.3361C16.3522 74.7687 27.1052 74.0434 37.7181 74.0179C50.6895 74.0179 63.6608 74.1537 76.6322 74.4251C101.205 75.0105 125.765 76.3721 150.337 76.8048C175.343 77.2629 200.31 75.4559 225.264 74.2597C229.896 74.0179 234.541 73.8779 239.262 73.7634C240.204 72.9872 241.158 72.1855 242.1 71.3711C244.976 68.8854 247.818 66.3403 250.626 63.7358C241.349 64.6266 232.047 65.4919 222.732 66.001C197.727 67.4007 172.785 69.1314 147.818 68.6478H147.869Z" fill="url(#paint2_linear_967_1533)"/>
<path d="M185.027 63.9013C179.937 61.0254 171.385 61.9161 167.326 65.7719C166.703 66.3863 166.208 67.1184 165.871 67.9256C165.533 68.7328 165.359 69.599 165.359 70.4739C165.359 71.3489 165.533 72.2151 165.871 73.0223C166.208 73.8295 166.703 74.5615 167.326 75.1759C173.243 80.4951 183.64 78.23 187.394 71.6256L187.61 71.4347C190.511 68.8387 188.437 64.5376 185.027 63.9013Z" fill="#EB924D"/>
<path d="M186.248 61.3689C181.158 58.5057 172.594 59.3838 168.535 63.2523C167.912 63.8656 167.418 64.5966 167.08 65.4027C166.743 66.2089 166.569 67.074 166.569 67.9479C166.569 68.8218 166.743 69.687 167.08 70.4931C167.418 71.2993 167.912 72.0303 168.535 72.6436C174.452 77.9755 184.849 75.6977 188.602 69.1059L188.819 68.9151C191.695 66.3191 189.646 62.0179 186.248 61.3689Z" fill="url(#paint3_linear_967_1533)"/>
<path d="M185.027 62.9978C179.936 60.1346 171.385 61.0126 167.326 64.8811C166.703 65.4944 166.209 66.2254 165.871 67.0316C165.534 67.8377 165.36 68.7029 165.36 69.5768C165.36 70.4507 165.534 71.3159 165.871 72.122C166.209 72.9281 166.703 73.6591 167.326 74.2724C173.243 79.6171 183.64 77.3265 187.394 70.7093L187.61 70.5057C190.511 67.9479 188.437 63.6468 185.027 62.9978Z" fill="url(#paint4_linear_967_1533)"/>
<path d="M62.736 12.3509C61.2381 11.6247 59.5666 11.3327 57.9112 11.5082C56.2558 11.6836 54.6826 12.3194 53.3702 13.3435C53.0397 13.668 52.7771 14.0552 52.5979 14.4824C52.4187 14.9095 52.3264 15.3681 52.3264 15.8313C52.3264 16.2945 52.4187 16.7531 52.5979 17.1802C52.7771 17.6074 53.0397 17.9945 53.3702 18.3191C56.5006 21.1441 61.998 19.9352 63.9831 16.4485L64.0976 16.3467C64.4076 16.0356 64.6243 15.644 64.7234 15.2162C64.8224 14.7884 64.7999 14.3414 64.6582 13.9258C64.5166 13.5101 64.2615 13.1424 63.9218 12.8641C63.5822 12.5858 63.1714 12.408 62.736 12.3509Z" fill="#EB924D"/>
<path d="M63.3851 11.0148C61.8844 10.2877 60.2098 9.99647 58.5518 10.1742C56.8938 10.3519 55.319 10.9915 54.0065 12.0201C53.678 12.3444 53.4171 12.7308 53.239 13.1567C53.0609 13.5827 52.9692 14.0398 52.9692 14.5015C52.9692 14.9632 53.0609 15.4203 53.239 15.8463C53.4171 16.2722 53.678 16.6586 54.0065 16.9829C57.1497 19.808 62.647 18.5991 64.6322 15.1123L64.7467 15.0105C65.0519 14.6975 65.2645 14.3061 65.3608 13.8797C65.4571 13.4532 65.4335 13.0085 65.2925 12.5947C65.1515 12.1809 64.8986 11.8142 64.5619 11.5353C64.2253 11.2565 63.8179 11.0763 63.3851 11.0148Z" fill="url(#paint5_linear_967_1533)"/>
<path d="M62.736 11.8801C61.2381 11.1538 59.5666 10.8619 57.9112 11.0373C56.2558 11.2128 54.6826 11.8486 53.3702 12.8727C53.0397 13.1972 52.7771 13.5844 52.5979 14.0115C52.4187 14.4387 52.3264 14.8972 52.3264 15.3605C52.3264 15.8237 52.4187 16.2822 52.5979 16.7094C52.7771 17.1365 53.0397 17.5237 53.3702 17.8483C56.5006 20.6606 61.9852 19.4644 63.9831 15.9904L64.0976 15.8886C64.4113 15.5779 64.6313 15.1854 64.7326 14.7557C64.8339 14.326 64.8123 13.8765 64.6703 13.4585C64.5283 13.0405 64.2716 12.6709 63.9296 12.3918C63.5876 12.1127 63.174 11.9354 62.736 11.8801Z" fill="url(#paint6_linear_967_1533)"/>
<path d="M37.5906 21.0805C33.3404 18.6627 26.3541 19.388 22.931 22.5948C22.4143 23.1018 22.0038 23.7068 21.7236 24.3743C21.4434 25.0418 21.2991 25.7585 21.2991 26.4824C21.2991 27.2063 21.4434 27.923 21.7236 28.5905C22.0038 29.258 22.4143 29.863 22.931 30.37C27.8303 34.773 36.4326 32.9151 39.5503 27.4304L39.7285 27.2777C42.0954 25.1272 40.352 21.5641 37.5906 21.0805Z" fill="#EB924D"/>
<path d="M38.596 18.9426C34.3585 16.5757 27.2959 17.2629 23.9364 20.4951C23.4209 21.0041 23.0115 21.6104 22.7321 22.2789C22.4527 22.9473 22.3088 23.6646 22.3088 24.3891C22.3088 25.1136 22.4527 25.8309 22.7321 26.4993C23.0115 27.1677 23.4209 27.7741 23.9364 28.283C28.8357 32.686 37.438 30.8281 40.5557 25.3435L40.7339 25.1908C43.1008 23.0402 41.4083 19.4771 38.596 18.9426Z" fill="url(#paint7_linear_967_1533)"/>
<path d="M37.5906 20.2915C33.3404 17.9119 26.3541 18.65 22.931 21.844C22.4143 22.351 22.0038 22.956 21.7236 23.6235C21.4434 24.291 21.2991 25.0077 21.2991 25.7316C21.2991 26.4555 21.4434 27.1722 21.7236 27.8397C22.0038 28.5072 22.4143 29.1122 22.931 29.6192C27.8303 34.0349 36.4326 32.1643 39.5503 26.6924L39.7285 26.5269C42.0954 24.3891 40.352 20.826 37.5906 20.2915Z" fill="url(#paint8_linear_967_1533)"/>
<path d="M7.26624 59.0402C7.17814 60.0106 7.26433 60.9889 7.52075 61.9289C6.96587 61.7037 6.51303 61.2825 6.24821 60.7454C6.05718 60.2732 5.97037 59.7654 5.99371 59.2565C5.99371 58.773 5.99371 58.264 5.99371 57.7804C6.07006 55.8843 6.41364 54.0392 6.51545 52.1685C6.65542 49.9161 6.7954 47.6892 6.97356 45.4495C6.94641 44.7711 7.15806 44.1047 7.57165 43.5662C7.86976 43.303 8.22144 43.1076 8.6024 42.9936C9.60392 42.6212 10.6397 42.3484 11.6947 42.1791C12.1947 42.1296 12.6917 42.0531 13.1835 41.9501C13.7047 41.7777 14.2418 41.6584 14.7869 41.5938L32.1316 39.5832L13.5144 43.3117C12.3055 43.5535 10.6894 43.5407 9.69678 44.3424C9.31752 44.6812 8.97229 45.0563 8.66603 45.4623C8.56423 45.5895 7.6989 47.3202 8.04249 47.3329L21.7095 47.8037C18.3246 48.3509 14.9651 48.9745 11.6056 49.6362C9.91311 49.9798 7.99159 50.5015 7.24079 52.0667C6.83379 53.1425 6.73679 54.3108 6.96083 55.4389C6.96083 55.7952 7.13899 56.1261 7.21534 56.4824C7.32488 57.3307 7.34195 58.1883 7.26624 59.0402Z" fill="#EB924D"/>
<path d="M261.621 51.774C261.536 51.9263 261.472 52.0888 261.43 52.2576C261.406 52.4897 261.363 52.7195 261.302 52.9448C261.086 53.5938 260.564 54.2173 259.839 54.1028C259.477 54.0899 259.119 54.0344 258.77 53.9373C258.9 53.5746 259.08 53.2319 259.304 52.9193C259.432 52.6266 259.559 52.334 259.674 52.0413C259.925 51.3789 260.125 50.6982 260.272 50.0052C260.534 48.677 260.658 47.3251 260.641 45.9713C260.749 44.414 260.347 42.8638 259.495 41.5556C257.816 39.3923 254.622 39.3286 251.86 39.4686L244.747 39.8377L255.118 38.6415L250.906 32.5333C249.747 30.5262 248.113 28.8349 246.146 27.6086C244.367 26.8564 242.454 26.467 240.522 26.4633L226.346 25.5216C231.47 25.4173 236.577 24.8938 241.616 23.9564C239.975 22.3149 238.27 20.7369 236.526 19.2226C233.981 17.0466 231.436 14.9851 228.789 13.0381C226.142 11.0911 223.355 9.22048 220.53 7.55346C219.118 6.71359 217.68 5.88644 216.229 5.09747C215.529 4.71571 214.766 4.38485 214.104 3.95219C213.911 3.80517 213.702 3.6813 213.481 3.58315C213.303 3.56439 213.124 3.56439 212.946 3.58315C212.017 3.58315 211.075 3.58315 210.134 3.58315C207.351 3.58315 204.56 3.58315 201.76 3.58315H186.592H175.419H169.833C168.952 3.66615 168.066 3.66615 167.186 3.58315C166.385 3.28925 165.57 3.03862 164.742 2.83236C163.926 2.80919 163.108 2.85602 162.299 2.97234C160.263 3.13777 158.227 3.32865 156.204 3.54498C155.27 3.5424 154.366 3.87675 153.659 4.48665C153.479 4.74708 153.269 4.98615 153.035 5.19927C152.462 5.60648 151.674 5.33925 151.025 5.11019C149.701 4.64529 148.316 4.3794 146.914 4.32122C145.642 4.32122 144.369 4.49938 143.097 4.42303C142.346 4.26635 141.607 4.06234 140.882 3.81221C137.773 3.33244 134.636 3.04345 131.491 2.94689C129.201 2.78146 126.885 2.6542 124.581 2.57785C117.137 2.31062 109.68 2.4506 102.223 2.76873C98.4943 2.92143 94.7785 3.12504 91.05 3.34137C89.2962 3.58022 87.5245 3.66114 85.7562 3.58315C85.2599 3.58315 84.8145 3.31592 84.331 3.22684C83.8211 3.15486 83.3053 3.13355 82.7912 3.16322L76.5303 3.26502C74.1125 3.26502 71.682 3.26502 69.2514 3.26502C68.4243 3.26502 67.6353 3.43045 66.8464 3.43045C66.0574 3.43045 65.3702 3.26502 64.6449 3.26502C63.1053 3.28153 61.5822 3.58356 60.1528 4.15579C59.6254 4.41126 59.0463 4.54188 58.4603 4.53755C57.366 4.53755 56.6152 3.48135 55.6226 3.01051C53.2811 1.89068 50.876 4.01581 48.4837 3.16322C47.3017 2.8267 46.0703 2.69754 44.8442 2.78146H40.0849C34.6767 2.78146 29.2811 2.98506 23.8983 3.53225C21.226 3.81221 18.5537 4.16852 15.8941 4.63936C14.6215 4.86841 13.349 5.25017 12.0765 5.39015C11.7036 5.38456 11.337 5.48615 11.0203 5.68284C9.44232 6.80267 5.0648 12.9999 8.18251 15.1887C9.27548 15.7803 10.5229 16.0245 11.7583 15.8886L35.6311 15.5577L9.81135 17.5938C9.24939 17.5967 8.69436 17.7181 8.18251 17.9501C6.52821 18.8536 7.10085 20.9405 6.90997 22.4421C6.74495 24.4771 6.83472 26.5248 7.1772 28.5376C7.43171 31.0826 7.73712 33.6277 8.11888 36.1728L6.9736 36.0328C6.78817 36.0376 6.60365 36.0052 6.43098 35.9374C6.2583 35.8696 6.10097 35.7679 5.9683 35.6383C5.81649 35.3986 5.73697 35.1203 5.73924 34.8366C5.34475 30.1155 5.73924 25.2544 5.52291 20.4951C5.52291 20.3679 5.52291 19.9734 5.52291 19.4135C5.52291 19.1335 5.52291 18.8281 5.52291 18.4845C5.52291 18.3573 5.52291 18.2173 5.52291 18.0773V17.4411V16.7666V16.0667C5.52291 15.3032 5.42111 14.5524 5.38293 13.967C5.38293 13.7762 5.38293 13.598 5.38293 13.4453C5.38293 13.2926 5.38293 13.2926 5.38293 13.2417C5.38293 13.1908 5.38293 12.9617 5.38293 12.8727C5.38293 12.7836 5.38293 12.7709 5.38293 12.7709C5.2914 11.5289 5.45158 10.2812 5.85385 9.10257C6.25613 7.92397 6.89222 6.83872 7.72401 5.91187C8.5558 4.98502 9.56616 4.23565 10.6945 3.70867C11.8229 3.1817 13.0461 2.88797 14.2907 2.84508L22.3713 2.59058C25.8835 2.46332 29.3829 2.36152 32.8951 2.27244C43.9153 1.85675 55.1136 1.54286 66.49 1.33077L75.3978 1.17806C87.2748 0.974457 99.1518 0.842962 111.029 0.783577H120.267C131.075 0.783577 141.913 0.783577 152.781 0.783577H154.88C161.133 0.783577 167.377 0.834478 173.612 0.936281L187.063 1.12716L198.248 1.30532L203.338 1.40712C203.648 1.38804 203.958 1.38804 204.267 1.40712H204.496C204.727 1.47819 204.968 1.51255 205.209 1.50892C205.616 1.50892 206.036 1.41984 206.482 1.36894C206.901 1.29101 207.327 1.24845 207.754 1.24169C208.085 1.24169 208.416 1.24169 208.747 1.30532H209.447C210.325 1.38167 211.19 1.43257 212.068 1.44529H212.144C213.595 1.87907 214.984 2.49478 216.28 3.27774C216.407 3.36682 216.56 3.43045 216.687 3.5068C227.702 9.54879 237.841 17.0668 246.821 25.8525C247.152 26.1706 247.47 26.5015 247.788 26.8196C250.893 29.9246 253.845 33.1823 256.785 36.3891C257.281 36.9236 257.765 37.4707 258.236 38.0179C259.328 39.2406 260.3 40.5659 261.137 41.9755C261.705 42.9679 262.134 44.0342 262.409 45.1441C262.537 45.6659 262.588 46.2258 262.728 46.7475C263.015 48.3111 262.687 49.9252 261.811 51.2523C261.773 51.5195 261.684 51.6213 261.621 51.774Z" fill="#EB924D"/>
<path d="M259.088 55.6044C258.655 56.0243 258.21 56.4188 257.816 56.8133C257.078 57.4877 256.454 58.3021 255.741 59.0148C254.685 60.0582 253.578 61.0635 252.484 62.0561L251.542 62.896L250.575 63.7613C247.767 66.3064 244.925 68.8514 242.049 71.3965C241.107 72.2109 240.153 73.0126 239.211 73.7889C238.269 74.5651 237.188 75.4813 236.157 76.3339C231.087 80.48 225.719 84.2484 220.098 87.6086L219.5 87.9649C219.128 88.2068 218.731 88.4074 218.316 88.563C218.124 88.6044 217.928 88.6257 217.731 88.6266H217.527H217.438C217.112 88.5951 216.784 88.5951 216.458 88.6266L207.55 88.8811L194.163 89.1993C184.365 89.3859 174.588 89.5429 164.831 89.6701C160.899 89.6701 156.967 89.7465 153.035 89.7592H145.489C141.366 89.7592 137.243 89.7592 133.133 89.7592H126.006H118.868H117.188C112.976 89.7592 108.789 89.7592 104.59 89.6701H100.327C97.438 89.6701 94.5367 89.6701 91.648 89.5429L86.4815 89.4665C82.0658 89.4665 77.6883 89.3138 73.2853 89.2247L61.3999 88.932C59.4402 88.932 57.5059 88.8302 55.5462 88.7793C51.3044 88.669 47.0626 88.5375 42.8209 88.3848L37.7307 88.2194L28.6066 87.8886L24.5218 87.7104C20.946 87.5831 17.3702 87.4304 13.8071 87.2777C12.0445 87.1839 10.3463 86.5843 8.9156 85.5507C7.48484 84.5171 6.38208 83.0933 5.7392 81.4495C5.20192 80.03 4.98887 78.5082 5.11565 76.9957C5.12591 76.7285 5.16864 76.4635 5.24291 76.2067C5.39074 75.8172 5.50983 75.4174 5.59922 75.0105C5.67557 74.5015 5.71375 73.967 5.75192 73.4453C5.7901 72.9236 5.82827 72.4273 5.86645 71.9055C5.90463 71.3838 5.9937 71.1166 5.9937 70.7093C6.03016 70.1924 6.09815 69.6782 6.19731 69.1696C6.19731 69.0041 6.28639 68.826 6.32456 68.6733C6.36274 68.5206 6.40091 68.4061 6.45182 68.2788C6.52502 68.0461 6.62765 67.8237 6.75722 67.6171C6.84539 67.4496 6.95678 67.2953 7.08808 67.159C7.21108 67.0149 7.34742 66.8828 7.49529 66.7645C10.1167 64.8175 15.2069 64.843 18.9481 64.7666C22.0531 64.7666 25.1454 64.7666 28.3012 64.9957C27.3723 64.9957 26.5579 65.441 25.6798 65.5174C24.4073 65.6319 23.2111 65.6574 22.0022 65.721L14.7615 66.1664C13.0868 66.191 11.4226 66.4348 9.81131 66.8917C9.19196 67.0447 8.62504 67.3611 8.16974 67.808C7.71432 68.3445 7.40335 68.9883 7.26624 69.6786C6.81441 71.0301 6.62438 72.4553 6.70632 73.878C6.76995 74.2724 6.92265 74.6542 6.97355 75.0614C7.00896 75.4848 7.00896 75.9105 6.97355 76.3339C6.85737 77.8339 7.08815 79.3405 7.648 80.7369C9.12414 84.0328 12.9926 85.4707 16.5557 86.1325C20.9078 86.9214 24.56 87.685 28.9502 87.0869L48.1655 87.2777C51.9831 87.2777 55.6607 87.3795 59.402 87.3923C60.0255 87.3923 60.6109 87.2014 61.2217 87.1887C62.1125 87.1887 63.0542 87.3541 63.9449 87.4177C65.7859 87.5619 67.631 87.6637 69.4805 87.7231C73.998 87.8631 78.5282 87.7995 83.0457 87.5068C84.0933 87.3158 85.1667 87.3158 86.2143 87.5068C87.7441 87.8681 89.3127 88.0391 90.8845 88.0158C94.5876 88.1812 98.3161 88.194 102.032 88.0158L104.717 87.9013C106.145 87.8944 107.563 87.6581 108.916 87.2014C109.603 86.9342 110.189 86.5524 110.952 86.3488C112.963 85.8016 115.037 86.8069 117.01 87.6213C119.555 88.5503 122.342 88.1049 125.014 88.283C128.594 88.6393 132.2 88.6393 135.78 88.283H135.881C137.602 88.1255 139.289 87.7049 140.882 87.036C141.65 86.5478 142.522 86.247 143.427 86.1579C144.495 86.3265 145.503 86.7645 146.354 87.4304C149.307 89.1865 152.946 89.1484 156.356 88.7793C159.231 88.2964 162.149 88.1257 165.061 88.2703C166.333 88.3976 167.44 88.2703 168.662 88.2703H173.205H178.091C181.82 88.2703 185.561 88.2703 189.302 88.2703C193.044 88.2703 196.772 88.2703 200.513 88.1685L206.113 88.054L208.912 87.9776C209.383 87.9776 209.841 87.9776 210.312 87.9776C210.783 87.9776 210.872 88.1049 211.164 88.1176C212.889 88.1608 214.608 87.92 216.255 87.405C217.881 86.9367 219.458 86.3102 220.963 85.5344C224.063 83.8121 227.013 81.8327 229.782 79.6171L233.599 76.7666L235.534 75.3286C235.823 75.1725 236.081 74.9656 236.297 74.7178C236.641 74.1579 235.597 73.7125 235.19 73.6744C233.841 73.5216 232.441 73.4835 231.067 73.4071C236.806 73.5598 242.113 70.1494 245.981 65.9119L244.708 65.6701C245.836 65.3058 246.938 64.8636 248.004 64.3467C249.341 63.6516 250.618 62.8472 251.822 61.9416C253.047 61.0454 254.192 60.0448 255.245 58.9511C255.78 58.4039 256.276 57.844 256.759 57.2459C256.939 57.0407 257.105 56.8239 257.256 56.5969L257.536 56.177C257.555 56.1236 257.555 56.065 257.536 56.0116C257.536 56.0116 257.472 55.9352 257.408 55.9098C256.861 55.6425 256.136 55.808 255.64 55.4262C255.703 55.4262 256.059 55.4262 256.161 55.4262H256.734C257.128 55.4262 257.497 55.5153 257.879 55.5789C258.116 55.6046 258.355 55.6046 258.592 55.5789C258.758 55.5686 258.924 55.5772 259.088 55.6044Z" fill="#EB924D"/>
<path d="M258.935 55.4389L258.655 55.7952C258.21 56.3424 257.752 56.8769 257.256 57.3986C252.165 56.0243 246.668 54.739 241.349 53.721C247.228 54.0773 253.082 54.6627 258.935 55.4389Z" fill="#EB924D"/>
<path d="M113.472 16.3721C104.794 17.8595 95.9184 17.7733 87.2705 16.1176C96.0001 15.6468 104.742 16.0794 113.472 16.3721Z" fill="#EB924D"/>
<path d="M184.148 23.4983C179.76 24.065 175.324 24.1673 170.914 23.8037C158.812 23.2438 146.456 22.633 135.207 18.4591C142.066 18.4591 148.861 19.5789 155.656 20.457C165.06 21.6786 174.744 22.6075 184.148 23.4983Z" fill="#EB924D"/>
<path d="M189.671 23.1166C186.452 23.0148 183.309 22.6584 180.064 22.3149L136.798 17.5683C121.145 15.8631 105.391 14.1452 89.7137 15.2268C87.6268 15.2268 85.3999 15.4559 83.3511 15.4304C92.9787 16.4991 102.674 16.8309 112.352 16.423C116.165 16.1482 119.992 16.1482 123.805 16.423C126.833 16.8212 129.836 17.3862 132.802 18.1155C138.401 19.388 144.064 20.2915 149.739 21.0805C165.605 23.1604 181.598 24.1172 197.599 23.9437C194.545 23.5492 192.624 23.2056 189.671 23.1166Z" fill="url(#paint9_linear_967_1533)"/>
<path d="M62.6596 37.1526C54.9979 38.0179 47.2631 38.0179 39.6013 37.1526C47.2726 36.4782 54.9883 36.4782 62.6596 37.1526Z" fill="#EB924D"/>
<path d="M68.7043 37.2162C57.8623 37.0041 47.0118 36.9617 36.1528 37.089C37.4714 37.0067 38.7842 36.8495 40.085 36.6181C41.4339 36.4527 42.7827 36.2746 44.1316 36.1473C46.8353 35.8399 49.5613 35.7803 52.2758 35.9691C52.7028 35.9733 53.129 35.9349 53.5484 35.8546C54.1894 35.8122 54.8331 35.8335 55.4699 35.9182C56.8612 36.0116 58.2483 36.1134 59.6311 36.2237C62.3925 36.4527 65.1666 36.7581 67.9153 37.1272L68.7043 37.2162Z" fill="url(#paint10_linear_967_1533)"/>
<path d="M89.7392 54.879L80.8315 58.353C78.9899 59.1288 77.098 59.7793 75.1687 60.3C72.6561 60.843 70.1018 61.1708 67.5335 61.2799C61.069 61.7252 54.4773 62.1197 48.1782 60.5545C62.227 60.4145 75.9831 57.6659 89.7392 54.879Z" fill="#EB924D"/>
<path d="M102.923 51.6213L80.4496 57.5004C76.8834 58.4938 73.269 59.305 69.6203 59.931C65.0864 60.5414 60.5154 60.8348 55.9406 60.809C51.8854 60.8599 47.8303 60.8599 43.7751 60.809C45.3404 60.5672 46.9056 60.3636 48.4835 60.1982C49.1198 60.1982 49.7561 60.1982 50.4432 60.0582C53.7026 59.7265 56.9787 59.5863 60.2545 59.6383C63.7772 59.3114 67.2754 58.7588 70.7274 57.984C76.1993 57.0932 81.6585 56.0497 87.105 54.9426C92.5514 53.8355 97.6161 52.7666 102.923 51.6213Z" fill="url(#paint11_linear_967_1533)"/>
<path d="M233.51 66.2936C227.3 68.5206 220.505 68.1261 213.913 67.7062C212.537 67.5917 211.154 67.5917 209.777 67.7062C208.896 67.8134 208.021 67.9663 207.156 68.1643C203.262 69.0575 199.306 69.6489 195.321 69.9331C191.328 70.2283 187.317 69.7177 183.525 68.4315C193.922 70.0985 204.649 66.8536 215.173 66.6245C217.794 66.6245 220.428 66.7009 223.05 66.6245C226.626 66.3445 229.96 66.3445 233.51 66.2936Z" fill="#EB924D"/>
<path d="M179.504 67.9861C185.189 68.991 190.967 69.3707 196.734 69.1187C200.437 68.826 204.089 68.0116 207.78 67.6044C212.17 67.1335 216.598 67.2353 221.014 67.159C228.937 67.0323 236.841 66.3563 244.67 65.1357C242.482 65.1357 240.28 65.1357 238.091 65.1357C236.17 65.1993 234.274 65.1357 232.314 65.1357C228.013 65.2247 223.724 65.5047 219.449 65.861C215.173 66.2173 210.91 66.65 206.634 67.0317C202.359 67.4135 198.108 67.7825 193.833 67.9861C189.551 68.2024 185.262 68.2024 180.98 67.9861C180.496 68.0498 179.987 68.0498 179.504 67.9861Z" fill="url(#paint12_linear_967_1533)"/>
</g>
<defs>
<linearGradient id="paint0_linear_967_1533" x1="188.793" y1="-118.02" x2="147.194" y2="-6.07539" gradientUnits="userSpaceOnUse">
<stop stop-color="#CF5C2B"/>
<stop offset="1" stop-color="#59173E"/>
</linearGradient>
<linearGradient id="paint1_linear_967_1533" x1="146.049" y1="-34.1729" x2="106.524" y2="174.268" gradientUnits="userSpaceOnUse">
<stop stop-color="#CF5C2B"/>
<stop offset="1" stop-color="#59173E"/>
</linearGradient>
<linearGradient id="paint2_linear_967_1533" x1="144.051" y1="-30.9662" x2="92.4371" y2="232.627" gradientUnits="userSpaceOnUse">
<stop stop-color="#CF5C2B"/>
<stop offset="1" stop-color="#59173E"/>
</linearGradient>
<linearGradient id="paint3_linear_967_1533" x1="187.381" y1="42.6372" x2="174.465" y2="77.1738" gradientUnits="userSpaceOnUse">
<stop stop-color="#CF5C2B"/>
<stop offset="1" stop-color="#59173E"/>
</linearGradient>
<linearGradient id="paint4_linear_967_1533" x1="214.46" y1="-18.2536" x2="122.189" y2="195.863" gradientUnits="userSpaceOnUse">
<stop stop-color="#CF5C2B"/>
<stop offset="1" stop-color="#59173E"/>
</linearGradient>
<linearGradient id="paint5_linear_967_1533" x1="63.9832" y1="1.11444" x2="57.1497" y2="19.3753" gradientUnits="userSpaceOnUse">
<stop stop-color="#CF5C2B"/>
<stop offset="1" stop-color="#59173E"/>
</linearGradient>
<linearGradient id="paint6_linear_967_1533" x1="94.9566" y1="-69.7403" x2="2.68515" y2="144.364" gradientUnits="userSpaceOnUse">
<stop stop-color="#CF5C2B"/>
<stop offset="1" stop-color="#59173E"/>
</linearGradient>
<linearGradient id="paint7_linear_967_1533" x1="39.5377" y1="3.44317" x2="28.8484" y2="32.0243" gradientUnits="userSpaceOnUse">
<stop stop-color="#CF5C2B"/>
<stop offset="1" stop-color="#59173E"/>
</linearGradient>
<linearGradient id="paint8_linear_967_1533" x1="75.3976" y1="-78.1772" x2="-16.8738" y2="135.939" gradientUnits="userSpaceOnUse">
<stop stop-color="#CF5C2B"/>
<stop offset="1" stop-color="#59173E"/>
</linearGradient>
<linearGradient id="paint9_linear_967_1533" x1="173.612" y1="-43.2079" x2="151.864" y2="-2.06689" gradientUnits="userSpaceOnUse">
<stop stop-color="#CF5C2B"/>
<stop offset="1" stop-color="#59173E"/>
</linearGradient>
<linearGradient id="paint10_linear_967_1533" x1="105.29" y1="-93.3331" x2="72.9164" y2="-13.4052" gradientUnits="userSpaceOnUse">
<stop stop-color="#CF5C2B"/>
<stop offset="1" stop-color="#59173E"/>
</linearGradient>
<linearGradient id="paint11_linear_967_1533" x1="129.9" y1="-83.3564" x2="97.527" y2="-3.44125" gradientUnits="userSpaceOnUse">
<stop stop-color="#CF5C2B"/>
<stop offset="1" stop-color="#59173E"/>
</linearGradient>
<linearGradient id="paint12_linear_967_1533" x1="255.606" y1="-31.7694" x2="220.822" y2="47.1869" gradientUnits="userSpaceOnUse">
<stop stop-color="#CF5C2B"/>
<stop offset="1" stop-color="#59173E"/>
</linearGradient>
<clipPath id="clip0_967_1533">
<rect width="262.193" height="96" fill="white" transform="translate(0.903564 0.719971)"/>
</clipPath>
</defs>
</svg>
