<svg width="37" height="41" viewBox="0 0 37 41" fill="none" xmlns="http://www.w3.org/2000/svg">
<g clip-path="url(#clip0_967_7047)">
<path d="M8.23998 39.48C7.90244 39.4922 7.56505 39.4517 7.23998 39.36C6.26884 39.1253 5.42439 38.5277 4.87998 37.69C3.12998 35.15 3.62998 32.06 3.54998 29.2C3.45998 26.1 3.11998 22.9 3.11998 19.87L3.11998 19.63C3.11998 18.87 3.11998 18.12 3.11998 17.36L3.11998 17.26C3.19555 15.8911 3.76802 14.5968 4.72998 13.62C4.8412 13.51 4.91173 13.3654 4.92998 13.21C4.91299 13.0563 4.84627 12.9123 4.73998 12.8C4.25058 12.3616 3.82928 11.8527 3.48998 11.29C3.37924 11.0073 3.34141 10.7012 3.37998 10.4C3.67998 7.56 3.20998 4.32 4.92998 1.82C5.45922 0.98317 6.2898 0.381716 7.24998 0.139998C10.96 0.619998 14.19 2.44 17.38 4.3C21.38 6.64 25.38 9.01 29.13 11.69C32.02 13.69 35.83 16.05 36.73 19.75C35.67 24.07 29.86 27.14 26.61 29.6C26.43 29.73 26.23 29.88 26.05 30.03C24.6849 31.0804 23.2096 31.979 21.65 32.71C20.3 33.37 19.23 33.04 17.89 33.37C17.5254 33.5078 17.2304 33.7848 17.07 34.14C16.0548 36.0435 14.3583 37.4936 12.32 38.2C11.0416 38.853 9.66225 39.2857 8.23998 39.48Z" fill="url(#paint0_linear_967_7047)"/>
<path d="M7.61 32.02L7.61 29.08C7.61 27.69 7.48 26.29 7.4 24.93C7.29 23.15 7.19 21.48 7.19 19.87L7.19 17.41C7.19 17.05 7.27 16.84 7.78 16.22C8.52015 15.3993 8.93478 14.3364 8.94583 13.2314C8.95688 12.1263 8.56359 11.0553 7.84 10.22L7.44 9.77L7.53 8.25C7.53 7.41 7.18 5.33 7.77 4.66C8.36 3.99 9.38 4.66 10.13 4.98C10.48 5.11 10.8 5.26 11.13 5.42C12.59 6.11 13.91 6.97 15.34 7.81C19.1 9.98 23.08 12.37 26.79 15L27.67 15.61C28.9 16.47 31.81 18.02 31.83 19.9C31.85 21.78 28.01 23.66 26.66 24.59C25.77 25.21 24.92 25.78 24.14 26.38C23.96 26.52 23.71 26.7 23.49 26.89C22.3734 27.7435 21.1661 28.4712 19.89 29.06C19.6586 29.1218 19.4193 29.1488 19.18 29.14C18.4192 29.172 17.6628 29.2724 16.92 29.44C16.8617 29.4506 16.8047 29.4674 16.75 29.49C15.7305 29.7827 14.8304 30.3921 14.18 31.23C14.0181 31.4312 13.8679 31.6416 13.73 31.86L13.73 31.94C13.4379 32.5481 13.019 33.0867 12.5016 33.5196C11.9842 33.9526 11.3801 34.2698 10.73 34.45L10.36 34.63C8.23 35.55 7.61 33.85 7.61 32.02Z" fill="url(#paint1_linear_967_7047)"/>
<path d="M16.92 29.44C16.8617 29.4506 16.8047 29.4674 16.75 29.49C17.4657 29.0842 18.2192 28.7493 19 28.49C19.698 28.3101 20.3829 28.0829 21.05 27.81C21.9524 27.3751 22.7877 26.8127 23.53 26.14L30.18 20.32C30.3742 20.1919 30.5134 19.9957 30.57 19.77C30.5745 19.5607 30.5075 19.3561 30.38 19.19C29.1865 17.6191 27.6904 16.3032 25.98 15.32C24.11 14.08 22.27 12.8 20.42 11.54C19.8556 11.1009 19.2196 10.7626 18.54 10.54C17.92 10.36 17.2 10.54 16.73 9.96C16.5343 9.67847 16.3763 9.37254 16.26 9.05C15.8462 8.35749 15.2228 7.81463 14.48 7.5C13.743 7.1909 13.0422 6.80191 12.39 6.34C12.87 5.97 14.89 7.58 15.34 7.85C19.1 10.02 23.08 12.41 26.79 15.04L27.67 15.65C28.9 16.51 31.81 18.06 31.83 19.94C31.85 21.82 28.01 23.7 26.66 24.63C25.77 25.25 24.92 25.82 24.14 26.42C23.96 26.56 23.71 26.74 23.49 26.93C22.3734 27.7835 21.1661 28.5112 19.89 29.1C19.6586 29.1618 19.4193 29.1888 19.18 29.18C18.4204 29.1988 17.664 29.2858 16.92 29.44Z" fill="#EB924D"/>
<path d="M13.7299 31.89C13.3962 32.0932 13.0874 32.3349 12.8099 32.61C13.2286 32.123 13.6868 31.6714 14.1799 31.26C14.018 31.4612 13.8678 31.6716 13.7299 31.89Z" fill="#EB924D"/>
<g style="mix-blend-mode:multiply">
<path d="M15.02 27.49C15.7888 27.3923 16.5228 27.1111 17.16 26.67C17.5136 26.4141 17.7931 26.069 17.97 25.67C18.2067 25.098 18.2928 24.4748 18.22 23.86C18.0943 22.5216 17.6069 21.2426 16.81 20.16C16.5165 19.7449 16.1106 19.4223 15.64 19.23C15.282 19.1166 14.9026 19.0874 14.5314 19.1446C14.1602 19.2019 13.8072 19.344 13.5 19.56C13.3005 19.6933 13.1131 19.8439 12.94 20.01C12.7709 20.0474 12.6039 20.0941 12.44 20.15C12.1116 20.2641 11.8066 20.4369 11.54 20.66C11.2122 20.8882 10.9501 21.1986 10.78 21.56C10.53 22.3063 10.53 23.1137 10.78 23.86C11.0311 24.9953 11.5999 26.0358 12.42 26.86C12.7751 27.159 13.1947 27.3715 13.6459 27.4809C14.097 27.5902 14.5674 27.5933 15.02 27.49Z" fill="#E8E6E8"/>
</g>
<g style="mix-blend-mode:multiply">
<path d="M14.73 17.39C14.79 17.39 14.85 17.39 14.9 17.39C14.9325 17.4007 14.9676 17.4007 15 17.39C15.0281 17.3756 15.0548 17.3589 15.08 17.34L15.22 17.25C15.2791 17.2064 15.3359 17.1596 15.39 17.11C15.4388 17.0613 15.4924 17.0177 15.55 16.98C15.6 16.98 15.55 16.85 15.55 16.79C15.5328 16.6885 15.4917 16.5925 15.43 16.51C15.271 16.3226 15.0934 16.1518 14.9 16L14.73 15.84C14.6691 15.7937 14.6017 15.7567 14.53 15.73C14.53 15.73 14.45 15.73 14.41 15.73C14.3234 15.7251 14.2366 15.7251 14.15 15.73C14.1002 15.725 14.0499 15.725 14 15.73C13.9895 15.727 13.9785 15.7262 13.9677 15.7277C13.9569 15.7291 13.9464 15.7327 13.9371 15.7384C13.9277 15.744 13.9196 15.7515 13.9132 15.7603C13.9068 15.7692 13.9024 15.7793 13.9 15.79C13.8958 15.8064 13.8958 15.8236 13.9 15.84C13.7934 16 13.6934 16.16 13.6 16.32C13.54 16.4675 13.54 16.6325 13.6 16.78C13.65 16.91 13.72 17.09 13.86 17.15C14 17.21 14.17 17.29 14.33 17.37C14.4111 17.4378 14.5144 17.4735 14.62 17.47C14.64 17.42 14.73 17.4 14.73 17.39Z" fill="#E8E6E8"/>
</g>
<g style="mix-blend-mode:multiply">
<path d="M21.73 23.33L21.82 23.33C21.8361 23.3362 21.8539 23.3362 21.87 23.33L22.09 22.88C22.1097 22.7944 22.1097 22.7055 22.09 22.62C22.0693 22.5109 22.0392 22.4039 22 22.3C21.9598 22.208 21.9095 22.1208 21.85 22.04C21.85 22.04 21.74 21.92 21.68 21.94L21.33 22.09C21.33 22.09 21.33 22.09 21.28 22.17L21.28 22.27L21.28 22.4L21.19 22.65L21.19 22.73L21.19 22.88C21.2082 22.978 21.242 23.0726 21.29 23.16C21.3192 23.2242 21.3561 23.2847 21.4 23.34C21.4149 23.3661 21.4369 23.3874 21.4635 23.4016C21.49 23.4157 21.52 23.4221 21.55 23.42L21.73 23.33Z" fill="#E8E6E8"/>
</g>
</g>
<defs>
<linearGradient id="paint0_linear_967_7047" x1="46.365" y1="5.5" x2="20.365" y2="28.5" gradientUnits="userSpaceOnUse">
<stop stop-color="#CF5C2B"/>
<stop offset="1" stop-color="#59173E"/>
</linearGradient>
<linearGradient id="paint1_linear_967_7047" x1="37.44" y1="19.31" x2="-37.635" y2="19.31" gradientUnits="userSpaceOnUse">
<stop stop-color="#CF5C2B"/>
<stop offset="1" stop-color="#59173E"/>
</linearGradient>
<clipPath id="clip0_967_7047">
<rect width="40.72" height="36.43" fill="white" transform="translate(36.73 0.139999) rotate(90)"/>
</clipPath>
</defs>
</svg>
