<svg width="1034" height="760" viewBox="0 0 1034 760" fill="none" xmlns="http://www.w3.org/2000/svg">
<g clip-path="url(#clip0_967_1449)">
<path d="M1032.98 700.08C1032.7 694.96 1032.46 689.88 1032.22 684.76C1031.82 676.333 1031.43 667.867 1031.06 659.36C1031.06 657.32 1031.06 655.36 1030.78 653.24C1030.46 645.48 1031.42 637.24 1027.42 630.36C1026.99 629.362 1026.32 628.49 1025.46 627.831C1024.59 627.172 1023.57 626.748 1022.5 626.6C1023.79 625.985 1024.91 625.061 1025.77 623.91C1026.62 622.759 1027.17 621.416 1027.38 620C1028.33 615.743 1028.84 611.401 1028.9 607.04C1028.9 603.4 1028.62 599.72 1028.5 596.08C1028.38 592.44 1028.18 587.72 1028.06 583.52C1027.74 575.16 1027.5 566.76 1027.22 558.4C1026.94 550.04 1026.7 541.68 1026.5 533.36V528.76C1026.5 524.48 1026.26 520.2 1026.26 515.92C1026.34 512.673 1025.25 509.505 1023.18 507C1022.28 505.843 1021.1 504.934 1019.74 504.36C1018.39 503.786 1016.92 503.566 1015.46 503.72C1017.82 503.278 1020.01 502.184 1021.78 500.56C1026.3 496.04 1025.54 489.24 1025.42 483.48C1025.42 475.2 1025.1 466.92 1024.94 458.64L1024.58 433.92C1024.58 425.68 1024.49 417.453 1024.3 409.24C1024.3 401.24 1024.3 392.84 1024.3 384.64C1024.3 376.44 1024.3 368.32 1024.3 360.16C1024.3 347.36 1024.39 334.587 1024.58 321.84C1024.58 316.8 1025.22 312.24 1021.7 308.24C1021.19 307.633 1020.61 307.084 1019.98 306.6C1019.7 306.36 1018.38 305.24 1018.06 305.36C1019.22 304.862 1020.28 304.139 1021.17 303.233C1022.05 302.327 1022.75 301.256 1023.22 300.08C1023.75 298.909 1024.05 297.645 1024.1 296.36C1024.1 293.24 1024.34 290.12 1024.38 286.96C1024.38 276.76 1024.7 266.12 1024.94 255.76C1024.94 250.28 1025.22 244.76 1025.42 239.24C1025.17 234.368 1023.64 229.648 1020.98 225.56C1021.98 225.135 1022.86 224.478 1023.56 223.643C1024.26 222.809 1024.74 221.82 1024.98 220.76C1025.34 218.755 1025.46 216.714 1025.34 214.68C1025.7 206.68 1025.82 198.88 1026.1 191L1026.46 179C1026.4 178.041 1026.4 177.079 1026.46 176.12C1026.62 175.559 1026.71 174.982 1026.74 174.4C1026.56 172.438 1026.06 170.518 1025.26 168.72C1024.42 166.592 1022.84 164.834 1020.82 163.76C1021.06 163.12 1021.82 162.88 1022.42 162.6C1023.8 161.983 1024.98 161.001 1025.84 159.76C1026.7 158.519 1027.21 157.067 1027.3 155.56C1027.3 154.84 1027.3 154.16 1027.3 153.44C1027.3 151.08 1027.5 148.64 1027.58 146.28C1027.66 143.92 1027.78 141.2 1027.86 138.68C1028.3 128.16 1028.74 117.6 1029.22 107.08C1030.18 86.4133 1031.27 65.7333 1032.5 45.0399C1032.89 38.7755 1030.81 32.6084 1026.7 27.8604C1022.6 23.1124 1016.79 20.1614 1010.54 19.6399C685.481 -6.58009 358.839 -6.58009 33.7798 19.6399C32.1987 19.7633 30.6322 20.0311 29.0998 20.4399C25.2114 21.8966 21.5793 23.9624 18.3398 26.5599C16.5789 28.1551 15.0804 30.018 13.8998 32.0799C12.3798 34.2399 10.8598 36.4399 9.45982 38.6799C4.97982 45.3999 0.699821 52.7599 0.979821 61.1599C1.51315 71.4799 1.97982 81.7866 2.37982 92.0799C2.61982 97.3999 2.81982 102.72 3.01982 108.08C3.01982 110.88 3.21982 113.68 3.33982 116.48C3.33982 118.52 3.33982 120.68 3.57982 122.72C3.73907 124.583 3.73907 126.457 3.57982 128.32C3.56568 130.475 3.71276 132.627 4.01982 134.76C4.11618 135.919 4.44253 137.048 4.97982 138.08C6.81982 141.36 11.4198 141.72 14.3398 144.08C11.4828 144.452 8.69428 145.234 6.05982 146.4C5.67548 146.541 5.33194 146.774 5.05982 147.08C4.75881 147.556 4.63162 148.121 4.69982 148.68C4.69982 154.32 4.69982 159.96 4.69982 165.6C4.51014 168.007 4.64467 170.429 5.09982 172.8C5.49306 175.206 5.60048 177.649 5.41982 180.08C5.68649 191.12 5.95315 202.133 6.21982 213.12C6.21982 219.88 6.53982 226.64 6.65982 233.4C6.65982 236.6 6.89982 239.8 6.85982 242.96C6.85225 243.42 6.78502 243.877 6.65982 244.32C6.40021 245.488 6.39074 246.698 6.63204 247.87C6.87333 249.042 7.35992 250.149 8.05982 251.12C9.41977 253.209 11.2491 254.952 13.402 256.209C15.5549 257.466 17.9718 258.203 20.4598 258.36L13.2198 260.96C11.495 261.492 10.0007 262.591 8.97982 264.08C8.50274 264.957 8.21648 265.925 8.13982 266.92C6.7279 280.208 6.52707 293.596 7.53982 306.92C8.05982 320.12 8.09982 333.32 8.13982 346.52C8.13982 357.64 8.13982 368.76 8.13982 379.88C8.13982 391 8.13982 402.16 8.13982 413.28C8.13982 421.28 7.89982 429.28 8.13982 437.28C8.30119 438.408 8.30119 439.552 8.13982 440.68C7.31071 443.706 7.40825 446.91 8.41982 449.88C9.05124 451.621 10.118 453.171 11.5185 454.382C12.9189 455.593 14.6063 456.426 16.4198 456.8C14.026 457.092 11.8141 458.227 10.1798 460C9.32887 461.389 8.84696 462.972 8.77982 464.6C8.49697 467.257 8.35011 469.927 8.33982 472.6C8.61982 474.965 8.61982 477.355 8.33982 479.72C7.55121 484.517 7.28299 489.385 7.53982 494.24C7.53982 500.72 7.33982 507.2 7.21982 513.72C7.01982 524.92 6.81982 536.16 6.57982 547.36C6.33982 558.56 6.05982 569.88 5.77982 581.12C5.77982 583.6 5.77982 586.12 5.77982 588.64C5.93375 590.734 5.86671 592.839 5.57982 594.92C5.57982 595.72 5.09982 596.4 4.97982 597.24C4.45082 599.178 4.45082 601.222 4.97982 603.16C5.45012 604.279 6.20188 605.258 7.16209 606.001C8.1223 606.744 9.25832 607.226 10.4598 607.4C8.29982 606.92 6.45982 609.12 5.89982 611.4C5.33982 613.68 5.69982 615.4 5.29982 617.24C5.29982 618.08 5.05982 618.88 4.93982 619.72C4.69982 621.32 4.53982 622.92 4.37982 624.52C4.09982 627.72 3.93982 630.96 3.93982 634.2C3.90444 634.757 3.9862 635.316 4.17982 635.84C4.45128 636.277 4.80439 636.657 5.21982 636.96C8.07211 639.231 11.3914 640.843 14.9398 641.68L6.53982 644.44C5.86584 644.606 5.23733 644.921 4.69982 645.36C4.30409 645.857 4.01174 646.427 3.84 647.039C3.66826 647.65 3.6206 648.29 3.69982 648.92C3.69982 651.72 3.69982 654.56 3.69982 657.36C3.69982 658.4 3.33982 659.28 3.29982 660.28C3.25982 661.28 3.29982 663.12 3.29982 664.52L2.69982 681.44V682.64C2.25982 693.96 1.77982 705.28 1.33982 716.6C1.06213 722.829 3.21981 728.922 7.35601 733.589C11.4922 738.255 17.2821 741.128 23.4998 741.6C348.652 766.121 675.188 766.121 1000.34 741.6C1005.62 741.182 1010.61 739.031 1014.54 735.48C1015.34 734.72 1016.42 734.04 1017.18 733.2C1022.63 727.286 1027.08 720.533 1030.38 713.2C1032.18 709.064 1033.07 704.589 1032.98 700.08Z" fill="url(#paint0_linear_967_1449)"/>
<path d="M1010.9 725.2C685.748 749.721 359.211 749.721 34.0597 725.2C27.8131 724.738 21.9947 721.852 17.8468 717.159C13.699 712.465 11.5503 706.336 11.8597 700.08C11.8597 697.2 11.8597 694.32 11.8597 691.44C11.7716 689.023 11.8652 686.603 12.1397 684.2C12.1397 683.36 12.6997 682.68 12.8197 681.84C12.9397 681 13.0197 680.24 13.0997 679.4C13.0997 677.4 13.4597 675.4 13.6197 673.4C14.1397 667.76 14.6997 662.12 15.2197 656.48V654.96C15.2198 654.064 15.4842 653.187 15.9797 652.44C16.507 651.835 17.2038 651.403 17.9797 651.2C27.283 647.425 37.22 645.457 47.2597 645.4C57.8989 645.276 68.5143 644.366 79.0197 642.68L91.9797 640.88H87.9797C78.2997 640.88 68.5797 640.48 58.9397 639.72C53.3797 639.28 47.8197 638.72 42.2997 638C34.5203 637.718 26.7886 636.659 19.2197 634.84C17.1397 634.08 15.7397 633.16 15.6997 631.96C15.6997 627.48 15.6997 623.04 15.6997 618.56C15.5283 616.386 15.7038 614.199 16.2197 612.08C17.2997 610.16 16.7397 611.16 18.8997 610.28C20.94 609.231 23.0851 608.399 25.2997 607.8C27.7397 607.32 30.2597 607.08 32.7797 606.84L59.5797 604.16L52.7397 603.72L21.3797 601.68L16.3797 601.36C15.6997 601.36 14.8997 601.36 14.5797 600.6C14.5182 600.283 14.5182 599.957 14.5797 599.64L15.5397 579.12C16.2997 562.32 17.0197 545.48 17.3797 528.68C17.3797 526.36 17.3797 524.08 17.3797 521.8C17.0058 507.416 17.393 493.023 18.5397 478.68C18.5397 477.36 19.7397 463.08 19.6597 463.08C52.113 460.707 84.633 459.547 117.22 459.6H125.22L122.66 459.36C109.86 458.12 97.0197 456.8 84.2597 455.36C77.3797 454.6 70.5397 453.84 63.7397 452.84C58.1797 452.04 52.7397 450.72 47.2197 449.84C45.5055 449.64 43.7739 449.64 42.0597 449.84C36.7665 449.431 31.5347 448.439 26.4597 446.88L24.9797 446.6C24.0105 446.38 23.089 445.987 22.2597 445.44C21.46 444.678 20.8268 443.758 20.4 442.74C19.9731 441.721 19.762 440.624 19.7797 439.52C19.7398 438.76 19.7398 437.999 19.7797 437.24C19.7797 431.24 19.1797 425.48 18.8197 419.52C18.4197 412.6 18.8197 405.72 18.8197 398.84C18.8197 382.12 18.8197 365.413 18.8197 348.72C18.8197 344.72 18.8197 340.96 18.8197 337.08C18.8197 324.28 18.7397 311.507 18.5797 298.76C18.9102 294.354 18.6139 289.923 17.6997 285.6C16.7807 280.898 16.7807 276.062 17.6997 271.36C17.737 270.272 18.0839 269.217 18.6997 268.32C19.3973 267.634 20.2684 267.15 21.2197 266.92C28.5817 265.096 36.1587 264.289 43.7397 264.52C51.1591 264.24 58.5435 263.357 65.8197 261.88C66.8197 261.88 67.8597 261.52 68.8597 261.28C57.1767 260.5 45.5777 258.761 34.1797 256.08C30.5414 255.329 27.0536 253.977 23.8597 252.08C23.2674 251.712 22.7056 251.298 22.1797 250.84C20.7475 249.675 19.5765 248.222 18.7426 246.575C17.9088 244.928 17.4308 243.124 17.3397 241.28C17.2784 240.869 17.2784 240.451 17.3397 240.04C17.3852 239.647 17.4655 239.259 17.5797 238.88C17.9003 236.437 17.9003 233.963 17.5797 231.52V220.08C17.5797 213.12 17.3397 206.16 17.1797 199.2C17.2008 192.408 16.8001 185.622 15.9797 178.88C15.6526 175.49 15.5057 172.085 15.5397 168.68C15.3062 164.476 15.4401 160.26 15.9397 156.08C16.0959 153.796 16.6651 151.56 17.6197 149.48C18.0401 148.365 18.7731 147.394 19.7308 146.685C20.6885 145.975 21.8304 145.557 23.0197 145.48C26.8105 145.452 30.5941 145.144 34.3397 144.56C42.713 143.733 51.0997 143.053 59.4997 142.52C76.6997 141.4 93.9397 140.8 111.22 140.52C119.62 140.52 128.06 140.52 136.46 140.52H137.7C145.26 140.52 152.9 140.24 160.46 140.52C144.22 139.667 128.006 138.56 111.82 137.2C103.42 136.44 94.9797 135.64 86.5797 134.76C72.2197 133.24 57.3397 133.4 43.2997 132.04C35.2997 131.24 27.5797 130.8 19.7397 130.68H18.4597C17.9477 130.719 17.4383 130.577 17.0197 130.28C16.7379 129.925 16.5705 129.492 16.5397 129.04C15.1966 120.484 14.3685 111.855 14.0597 103.2C14.0597 96.16 13.6597 89.08 13.3797 82.04C12.9797 69.64 12.4997 57.24 11.9397 44.84C11.6498 38.6231 13.7862 32.5366 17.8982 27.8649C22.0103 23.1932 27.7763 20.3015 33.9797 19.8C359.052 -6.41997 685.708 -6.41997 1010.78 19.8C1017.03 20.3215 1022.84 23.2724 1026.94 28.0204C1031.05 32.7684 1033.13 38.9355 1032.74 45.2C1031.7 62.3733 1030.77 79.56 1029.94 96.76C1029.58 104.24 1029.26 111.76 1028.9 119.28C1028.7 123.8 1028.54 128.36 1028.34 132.92C1028.32 135.163 1028.01 137.395 1027.42 139.56C1026.18 143.56 1026.46 147.56 1025.5 151.8C1025.25 153.118 1024.66 154.346 1023.78 155.36C1022.75 156.17 1021.52 156.694 1020.22 156.88H1019.86C1005.12 160.352 990.126 162.613 975.02 163.64C972.22 163.64 969.46 163.96 966.66 164.08L1019.02 169.24C1020.65 169.234 1022.24 169.768 1023.54 170.76C1024.34 171.704 1024.87 172.854 1025.06 174.08C1025.38 175.32 1025.58 176.52 1025.78 177.76C1026.36 182.067 1026.6 186.414 1026.5 190.76C1026.09 198.94 1025.1 207.081 1023.54 215.12C1022.74 219.12 1020.3 219.12 1017.66 218.8C1015.98 218.48 1014.18 217.88 1012.7 217.68C1008.7 217.12 1004.42 216.68 1000.26 216.36C991.94 215.68 983.58 215.52 975.22 215.48C969.78 215.48 964.34 215.48 958.9 215.48L890.9 216.4L891.78 216.6C917.18 222.08 943.78 219.12 969.58 222.48C979.886 224.492 990.359 225.537 1000.86 225.6C1004.74 224.94 1008.7 224.94 1012.58 225.6C1014.18 226.138 1015.67 226.987 1016.94 228.099C1018.22 229.211 1019.27 230.564 1020.02 232.08C1021.85 235.388 1022.83 239.1 1022.86 242.88C1023.06 245.08 1023.1 247.28 1023.22 249.32C1023.6 261.542 1023.28 273.775 1022.26 285.96C1022.26 288.12 1021.98 290.28 1021.86 292.44C1021.94 294.009 1021.49 295.56 1020.58 296.84C1019.76 297.594 1018.75 298.107 1017.66 298.32C1015.32 299.004 1012.89 299.314 1010.46 299.24C1009.71 299.202 1008.97 299.202 1008.22 299.24C1005.38 299.52 1002.46 300.48 999.58 300.88C996.782 301.28 993.964 301.521 991.14 301.6L994.5 302.4L1017.86 307.84C1018.89 308.004 1019.86 308.416 1020.7 309.04C1023.74 311.88 1023.02 321.56 1023.34 325.04C1023.9 332.12 1024.18 339.24 1024.26 346.36C1024.26 349.76 1024.26 353.12 1024.26 356.52C1024.26 362.4 1024.26 368.28 1024.26 374.16V386.48C1024.26 403.68 1023.9 420.84 1023.78 438.04C1023.78 445.68 1023.78 453.36 1023.78 461C1023.78 468.64 1024.86 483.28 1020.62 490.64C1019.33 492.667 1017.28 494.104 1014.94 494.64C1012.8 495.226 1010.6 495.575 1008.38 495.68C973.02 498 937.673 500.36 902.34 502.76H903.62C943.62 503.56 983.42 505.893 1023.02 509.76C1024.9 509.76 1025.46 514.04 1025.78 515.36C1026.64 519.542 1027.2 523.779 1027.46 528.04C1027.46 528.76 1027.46 529.52 1027.66 530.24C1028.7 543.84 1028.98 557.48 1029.14 571.08V572.08V576.08V580.56C1029.54 588.651 1029.46 596.759 1028.9 604.84C1028.64 607.263 1028.11 609.65 1027.34 611.96C1027.05 613.12 1026.57 614.227 1025.94 615.24C1024 617.466 1021.46 619.079 1018.62 619.88C1017.66 620.228 1016.69 620.522 1015.7 620.76C1009.11 622.517 1002.43 623.932 995.7 625L997.7 625.4C1004.74 626.68 1011.82 628.04 1018.9 629.4C1021.52 629.77 1024.02 630.757 1026.18 632.28C1027.26 633.161 1028.13 634.267 1028.74 635.52C1029.49 637.063 1030.02 638.707 1030.3 640.4L1030.54 642.16C1031.22 647.88 1030.3 653.52 1030.94 659.2C1031.3 662.12 1031.5 665 1031.62 667.96C1031.9 673.6 1032.14 679.28 1032.42 684.92L1032.98 700.08C1033.29 706.317 1031.16 712.429 1027.04 717.119C1022.91 721.809 1017.12 724.708 1010.9 725.2Z" fill="url(#paint1_linear_967_1449)"/>
<path d="M1028.98 119.2C1028.78 123.72 1028.62 128.28 1028.42 132.84C1028.4 135.083 1028.09 137.315 1027.5 139.48C1026.26 143.48 1026.54 147.48 1025.58 151.72C1025.33 153.038 1024.74 154.266 1023.86 155.28C1022.83 156.09 1021.6 156.614 1020.3 156.8H1019.94C1005.2 160.272 990.206 162.533 975.1 163.56C972.3 163.56 969.54 163.88 966.74 164L1019.1 169.16C1020.73 169.154 1022.32 169.688 1023.62 170.68C1024.43 171.624 1024.95 172.774 1025.14 174C1025.46 175.24 1025.66 176.44 1025.86 177.68C1003.14 176.2 980.34 175.52 957.1 175.36C790.792 174.338 624.573 183.301 459.34 202.2C376.7 211.52 294.22 221.32 211.34 227.96C147.5 233.16 82.0199 240.48 17.4599 240.08C17.5054 239.687 17.5857 239.299 17.6999 238.92C18.0205 236.477 18.0205 234.003 17.6999 231.56L17.5799 220.08C44.1399 217.72 70.7399 216.32 97.5799 214.36C144.7 210.893 191.767 206.787 238.78 202.04C406.34 185.12 572.98 161.56 741.38 153.36C753.66 152.8 765.94 152.24 778.26 151.76C746.82 150 715.34 148.32 683.9 147C641.74 145.2 599.46 143 557.26 143.2C513.26 143.6 469.26 146.8 425.5 147.96C338.18 150.32 251.02 155.36 163.62 156.48C120.42 157.04 75.6199 159.64 32.8599 152.48C27.7799 151.6 22.6999 150.68 17.6599 149.68C18.0803 148.565 18.8132 147.594 19.7709 146.885C20.7287 146.175 21.8705 145.757 23.0599 145.68C26.8507 145.652 30.6343 145.344 34.3799 144.76C42.7532 143.933 51.1399 143.253 59.5399 142.72C76.7399 141.6 93.9799 141 111.26 140.72C119.66 140.72 128.1 140.72 136.5 140.72H137.74C145.3 140.72 152.94 140.44 160.5 140.72C144.26 139.867 128.047 138.76 111.86 137.4C103.46 136.64 95.0199 135.84 86.6199 134.96C72.2599 133.44 57.3799 133.6 43.3399 132.24C35.3399 131.44 27.6199 131 19.7799 130.88H18.4599C17.9479 130.919 17.4385 130.777 17.0199 130.48C16.7381 130.125 16.5707 129.692 16.5399 129.24C15.1968 120.684 14.3686 112.055 14.0599 103.4C14.0599 96.36 13.6599 89.28 13.3799 82.24C28.2999 80.32 43.2599 78.76 58.2999 78.24C107.66 75.92 157.22 76.44 206.62 74.04C292.18 70.04 378.9 63.48 464.54 68.64C549.54 73.76 634.14 84.2 718.9 92.12C807.34 100.4 895.86 107.92 984.34 115.64L1028.98 119.2ZM1025.38 515.68C1025.06 514.36 1024.5 510.28 1022.62 510.08C982.94 506.24 943.14 503.907 903.22 503.08H901.94C937.3 500.707 972.647 498.347 1007.98 496C1010.2 495.895 1012.4 495.546 1014.54 494.96C1016.88 494.424 1018.93 492.987 1020.22 490.96C1024.46 483.6 1023.38 469.52 1023.38 461.32C1023.38 453.12 1023.38 446 1023.38 438.36C860.5 433.4 697.7 426.36 535.38 414.76C542.313 413.08 549.233 411.44 556.14 409.84C617.676 395.88 680.341 387.473 743.38 384.72C836.98 380.08 931.02 384.08 1024.02 374.32C1024.02 368.44 1024.02 362.56 1024.02 356.68C928.02 359.72 831.5 355.84 735.34 358.84C674.898 360.638 614.702 367.326 555.34 378.84C510.74 387.52 466.46 398.16 421.7 405.88C364.873 401.16 308.047 395.827 251.22 389.88C208.34 385.373 165.46 380.373 122.58 374.88L115.78 374.12C140.38 367.84 165.46 363.12 190.34 359.28C258.34 348.68 327.62 343.96 396.22 337.92C543.34 324.96 690.74 314.68 838.14 305.56C900.06 301.56 961.82 298.44 1022.14 286.08C1023.16 273.895 1023.48 261.662 1023.1 249.44C1023.1 247.4 1023.1 245.2 1022.74 243C969.54 236.08 915.74 236.72 861.7 239C786.66 242.2 711.62 245.92 636.66 251C488.9 261.36 339.98 271 193.18 291C132.98 299.76 74.4999 313.6 18.9799 337.08C18.9799 341.08 18.9799 344.84 18.9799 348.72C18.9799 365.44 18.9799 382.147 18.9799 398.84C18.9799 405.72 18.4999 412.6 18.9799 419.52C19.3399 425.48 19.9399 431.24 19.9399 437.24C19.9 437.999 19.9 438.76 19.9399 439.52C33.6599 443 47.9399 445.28 61.3799 448.08C99.8599 456.08 138.54 461.68 177.38 466.96C256.607 477.627 336.02 486.96 415.62 494.96C572.26 510.2 729.86 517.8 887.1 523.84C933.66 525.6 980.247 527.16 1026.86 528.52C1026.65 524.208 1026.13 519.917 1025.3 515.68H1025.38ZM1028.66 635.4C1028.05 634.147 1027.18 633.042 1026.1 632.16C1023.94 630.637 1021.44 629.65 1018.82 629.28C1011.74 627.92 1004.66 626.56 997.62 625.28L995.62 624.88C1002.36 623.812 1009.03 622.397 1015.62 620.64C1016.61 620.402 1017.58 620.108 1018.54 619.76C1021.38 618.959 1023.92 617.346 1025.86 615.12C1026.5 614.107 1026.97 613 1027.26 611.84C1028.03 609.53 1028.56 607.143 1028.82 604.72C1029.38 596.639 1029.46 588.531 1029.06 580.44V575.96C899.3 580.72 769.78 583.4 639.94 576.96C497.42 569.92 354.9 556.4 212.82 543.52C172.22 539.84 131.74 535.52 91.0999 532.76C67.5799 531.08 42.2999 528.76 17.5399 528.76C17.1799 545.56 16.4599 562.4 15.6999 579.2C33.0999 583.88 51.0199 587.2 67.6999 589.92C104.26 596 140.74 600.8 177.62 604.4C249.62 611.52 321.9 617.36 394.1 623.48C435.3 627 476.5 630.347 517.7 633.52C487.7 636.08 457.7 638.44 427.62 640.12C350.18 644.48 272.86 651.44 195.34 655.16C135.34 658.08 75.7399 656.64 15.9799 655.16V656.68C15.4599 662.32 14.8999 667.96 14.3799 673.6C14.3799 675.6 14.0599 677.6 13.8599 679.6C70.9399 689.56 130.06 689.08 187.78 686.56C265.38 683.16 342.26 675.2 419.1 664.12C500.06 652.4 583.1 648.12 664.78 643.32L669.26 643.08C722.62 645.6 776.06 647.08 829.62 647.08C896.78 647.08 963.82 645.4 1030.7 640.4C1030.25 638.635 1029.54 636.948 1028.58 635.4H1028.66Z" fill="url(#paint2_linear_967_1449)"/>
<path d="M232.22 684.72C227.184 687.43 221.538 688.807 215.82 688.72C217.453 689.715 218.824 691.087 219.82 692.72C220.76 694.299 221.257 696.102 221.257 697.94C221.257 699.778 220.76 701.581 219.82 703.16C215.82 709.72 207.1 709.28 200.5 707.16C197.156 705.914 194.259 703.7 192.179 700.8C190.098 697.9 188.929 694.447 188.82 690.88C188.897 688.555 189.844 686.345 191.474 684.685C193.104 683.026 195.297 682.039 197.62 681.92C193.402 679.211 189.474 676.074 185.9 672.56C176.42 663.2 169.9 646.92 174.22 634.08C176.3 628.16 183.38 622.68 190.22 625.24C198.347 628.644 206.107 632.866 213.38 637.84C215.42 639.12 217.38 640.4 219.54 641.52C220.58 642.04 224.54 643.68 221.58 642.48C229.276 644.952 235.778 650.199 239.82 657.2C244.74 666.24 242.3 679.76 232.22 684.72ZM160.98 607.2C160.579 606.604 160.231 605.975 159.94 605.32C158.701 603.282 156.967 601.589 154.9 600.4C152.751 599.191 150.326 598.557 147.86 598.56C145.562 598.645 143.304 599.189 141.22 600.16C139.211 600.838 137.482 602.16 136.3 603.92C135.105 605.65 134.309 607.624 133.97 609.7C133.631 611.775 133.758 613.899 134.34 615.92C135.213 618.761 136.981 621.244 139.38 623C141.777 624.936 144.778 625.97 147.86 625.92C149.761 625.833 151.649 625.565 153.5 625.12C155.343 624.683 157.056 623.816 158.5 622.59C159.943 621.364 161.076 619.814 161.806 618.066C162.535 616.318 162.841 614.422 162.697 612.534C162.554 610.645 161.965 608.817 160.98 607.2ZM855.46 514.96C854.418 511.619 852.341 508.695 849.531 506.611C846.72 504.526 843.319 503.388 839.82 503.36C837.34 503.36 835.18 502.68 832.42 502.68C828.125 502.992 823.935 504.162 820.1 506.12C813.443 508.25 807.768 512.691 804.1 518.64C802.413 521.685 801.795 525.208 802.346 528.645C802.897 532.082 804.585 535.235 807.14 537.6C806.3 538.44 805.46 539.24 804.5 540.04C803.637 540.94 803.058 542.074 802.835 543.301C802.612 544.528 802.754 545.793 803.244 546.94C803.734 548.087 804.551 549.064 805.592 549.75C806.633 550.436 807.853 550.801 809.1 550.8C810.985 550.789 812.868 550.896 814.74 551.12C817.33 551.124 819.902 550.677 822.34 549.8C824.401 549.182 826.43 548.461 828.42 547.64C829.783 547.085 830.981 546.19 831.9 545.04C832.22 544.64 834.46 541.32 833.06 542.72C833.675 542.104 834.105 541.328 834.3 540.48C838.575 539.425 842.521 537.321 845.78 534.36L847.94 532.8C850.935 531.022 853.279 528.327 854.626 525.115C855.973 521.903 856.251 518.343 855.42 514.96H855.46ZM834.7 483.68C833.266 483.154 831.747 482.896 830.22 482.92C828.573 483.323 826.995 483.97 825.54 484.84C824.789 485.277 824.224 485.974 823.951 486.8C823.678 487.625 823.717 488.521 824.06 489.32C824.419 490.118 825.052 490.762 825.844 491.136C826.635 491.51 827.535 491.589 828.38 491.36C829.908 491.215 831.405 490.837 832.82 490.24C833.955 489.405 834.919 488.359 835.66 487.16C835.918 486.897 836.101 486.571 836.192 486.214C836.282 485.857 836.276 485.482 836.175 485.128C836.073 484.774 835.879 484.454 835.613 484.199C835.347 483.945 835.018 483.766 834.66 483.68H834.7ZM868.98 441.16C868.58 440.16 868.18 439.2 867.74 438.24C858.54 431.96 851.18 431.28 845.62 436.28C844.476 437.316 843.492 438.515 842.7 439.84C841.875 441.232 841.332 442.773 841.103 444.374C840.874 445.976 840.962 447.607 841.364 449.175C841.765 450.742 842.471 452.215 843.441 453.51C844.412 454.805 845.628 455.895 847.02 456.72C850.2 458.491 853.946 458.951 857.46 458C859.296 457.374 861.098 456.653 862.86 455.84L865.54 453.8C866.832 452.683 867.787 451.229 868.3 449.6C869.598 446.977 869.841 443.957 868.98 441.16ZM832.42 177.52C831.961 174.729 830.881 172.077 829.26 169.76C827.082 167.432 824.509 165.509 821.66 164.08C819.466 162.58 817.103 161.345 814.62 160.4C811.817 159.725 808.943 159.389 806.06 159.4C804.017 159.253 801.987 159.83 800.327 161.029C798.667 162.229 797.482 163.974 796.98 165.96C789.323 159.991 780.333 155.969 770.78 154.24C761.66 152.28 738.78 153.16 740.74 167.52C742.22 178.76 750.66 185.52 760.14 191.28C769.62 197.04 777.46 201.16 787.06 200.04C795.06 200.96 804.54 202.08 808.3 193.36C809.254 191.215 809.573 188.841 809.22 186.52C811.085 188.042 813.213 189.208 815.5 189.96C818.842 190.493 822.257 190.344 825.54 189.52C830.94 188.76 833.54 182.12 832.46 177.52H832.42ZM722.82 184.88C720.884 182.871 718.798 181.012 716.58 179.32C713.853 177.699 710.784 176.74 707.62 176.52C704.801 175.778 701.894 175.429 698.98 175.48C696.338 176.066 693.946 177.465 692.14 179.48C691.602 179.977 691.22 180.62 691.043 181.331C690.865 182.041 690.899 182.788 691.14 183.48C691.575 185.775 692.61 187.914 694.14 189.68C696.764 191.533 699.706 192.888 702.82 193.68C705.42 195 708.268 195.763 711.18 195.92C714.282 195.692 717.351 195.142 720.34 194.28C721.321 194.065 722.224 193.584 722.95 192.89C723.677 192.196 724.198 191.316 724.458 190.346C724.718 189.376 724.707 188.353 724.425 187.389C724.143 186.425 723.602 185.557 722.86 184.88H722.82ZM826.58 250.44C826.02 247.6 824.493 245.041 822.26 243.2C819.273 240.778 815.699 239.191 811.9 238.6C810.372 238.211 808.766 238.267 807.27 238.764C805.774 239.26 804.451 240.175 803.46 241.4C802.527 242.631 801.97 244.105 801.856 245.645C801.742 247.186 802.077 248.726 802.82 250.08L804.46 253.28C805.615 255.56 807.354 257.492 809.5 258.88C811.593 260.445 814.093 261.375 816.7 261.56C818.219 261.582 819.725 261.267 821.108 260.638C822.492 260.009 823.718 259.08 824.7 257.92C825.52 256.874 826.111 255.668 826.435 254.38C826.759 253.091 826.808 251.749 826.58 250.44ZM626.58 502.16C613.5 494.88 591.86 497.12 581.54 506.92C579.943 508.484 578.675 510.351 577.809 512.412C576.943 514.472 576.497 516.685 576.497 518.92C576.497 521.155 576.943 523.368 577.809 525.428C578.675 527.489 579.943 529.356 581.54 530.92C596.58 544.48 623.02 538.68 632.58 521.92L633.1 521.4C640.54 514.76 635.34 503.8 626.7 502.16H626.58ZM555.34 491.48C552.138 489.243 548.204 488.313 544.34 488.88C541.484 489.521 538.666 490.322 535.9 491.28C534.196 491.754 532.716 492.819 531.726 494.285C530.737 495.752 530.302 497.522 530.5 499.28C530.79 501.044 531.689 502.65 533.041 503.82C534.393 504.989 536.112 505.647 537.9 505.68C540.844 506.067 543.81 506.254 546.78 506.24C550.564 505.843 554.068 504.062 556.62 501.24C557.299 500.576 557.817 499.765 558.133 498.869C558.449 497.974 558.555 497.017 558.443 496.074C558.331 495.131 558.003 494.226 557.486 493.43C556.969 492.633 556.276 491.966 555.46 491.48H555.34ZM155.1 122.56C149.26 114.28 136.74 115.88 129.26 120.92C126.008 123.041 122.943 125.436 120.1 128.08C117.984 130.278 116.589 133.069 116.1 136.08L115.62 139.72C115.9 138.36 115.9 138.48 115.62 140.12C115.244 141.644 115.219 143.234 115.548 144.769C115.877 146.304 116.55 147.745 117.517 148.981C118.484 150.218 119.72 151.219 121.13 151.908C122.541 152.597 124.09 152.957 125.66 152.96H126.62H127.06C131.048 153.891 135.238 153.351 138.86 151.44C141.34 150.2 143.9 148.64 146.26 147.16C154.06 142.12 161.5 131.6 155.1 122.56ZM105.98 127.84C102.68 128.496 99.6704 130.175 97.3798 132.64C95.4775 134.88 93.7649 137.275 92.2597 139.8C91.6698 140.797 91.2854 141.902 91.1291 143.049C90.9729 144.197 91.0479 145.365 91.3499 146.483C91.6518 147.601 92.1746 148.648 92.8873 149.561C93.6 150.474 94.4882 151.235 95.4997 151.8C97.557 152.921 99.9622 153.222 102.232 152.644C104.503 152.065 106.47 150.649 107.74 148.68C108.3 147.84 108.9 147.04 109.46 146.24C109.86 145.84 110.22 145.4 110.62 144.96C112.078 143.462 113.185 141.659 113.86 139.68C114.18 138.76 114.46 137.8 114.86 136.88C116.98 131.48 110.98 126.4 105.98 127.84ZM203.22 88.9599C200.774 88.2713 198.162 88.4842 195.86 89.5599C194.466 90.606 193.216 91.8297 192.14 93.1999C191.241 94.08 190.663 95.2351 190.496 96.4816C190.329 97.7282 190.584 98.9947 191.22 100.08C191.914 101.136 192.914 101.955 194.086 102.427C195.259 102.899 196.548 103.001 197.78 102.72C199.555 102.58 201.289 102.119 202.9 101.36C204.898 99.9572 206.375 97.9315 207.1 95.5999C207.292 94.909 207.343 94.1866 207.251 93.4754C207.159 92.7643 206.925 92.0788 206.564 91.4596C206.202 90.8405 205.719 90.3002 205.145 89.8708C204.571 89.4415 203.916 89.1317 203.22 88.9599ZM443.22 285.28C443.47 284.839 443.697 284.385 443.9 283.92C445.458 281.178 445.875 277.932 445.059 274.886C444.243 271.839 442.26 269.236 439.54 267.64C438.684 267.178 437.802 266.764 436.9 266.4C433.812 263.997 430.275 262.236 426.497 261.219C422.719 260.202 418.776 259.951 414.9 260.48C406.62 261.12 399.3 265.2 391.82 268.48C381.46 273 378.46 287.08 382.46 296.48C383.647 299.233 385.39 301.712 387.58 303.76C381.663 306.319 375.998 309.425 370.66 313.04C368.379 314.543 366.41 316.471 364.86 318.72C359.34 323.48 356.86 329.88 362.38 338.72C372.42 355.08 401.38 350.72 416.5 345.16C425.62 341.76 436.06 336.92 440.86 328.12C443.369 323.432 443.936 317.946 442.44 312.843C440.944 307.741 437.503 303.43 432.86 300.84C435.492 299.04 437.744 296.74 439.487 294.07C441.231 291.401 442.431 288.414 443.02 285.28H443.22ZM341.26 323.52C338.74 322.96 337.26 324.16 335.18 325.16H334.74L334.06 325.4C333.325 325.642 332.577 325.842 331.82 326C331.067 326.196 330.365 326.552 329.763 327.045C329.16 327.537 328.671 328.154 328.329 328.853C327.987 329.552 327.801 330.317 327.782 331.095C327.763 331.872 327.912 332.645 328.22 333.36C328.545 334.082 329.017 334.729 329.607 335.258C330.197 335.787 330.891 336.186 331.644 336.431C332.397 336.676 333.194 336.761 333.982 336.68C334.77 336.598 335.532 336.353 336.22 335.96C337.901 335.181 339.496 334.229 340.98 333.12C342.74 331.72 344.74 330 344.5 327.6C344.471 326.662 344.14 325.758 343.556 325.023C342.972 324.288 342.167 323.761 341.26 323.52ZM308.74 304.08L307.38 303.52C300.3 298.2 289.7 301.28 283.62 306.76C278.923 310.664 275.67 316.03 274.38 322C273.834 324.055 273.844 326.219 274.409 328.269C274.974 330.32 276.074 332.183 277.596 333.669C279.118 335.154 281.008 336.208 283.071 336.723C285.135 337.238 287.298 337.196 289.34 336.6C298.86 333.4 311.78 326.92 312.98 316.6C312.98 316.24 313.26 315.84 313.38 315.48C314.025 313.336 313.917 311.035 313.073 308.961C312.228 306.886 310.699 305.164 308.74 304.08ZM969.5 683.04C968.973 681.178 968.084 679.438 966.882 677.921C965.681 676.404 964.192 675.139 962.5 674.2C959.572 672.628 956.227 672.006 952.929 672.422C949.632 672.838 946.546 674.27 944.1 676.52L936.38 683.36C934.001 685.693 932.573 688.826 932.373 692.152C932.173 695.478 933.216 698.76 935.3 701.36C937.425 703.983 940.406 705.773 943.719 706.417C947.033 707.061 950.467 706.516 953.42 704.88L962.5 699.8C965.305 698.153 967.503 695.642 968.765 692.643C970.026 689.644 970.284 686.318 969.5 683.16V683.04Z" fill="#EB924D"/>
<path d="M235.3 678.28C230.274 681.018 224.621 682.396 218.9 682.28C220.517 683.295 221.885 684.662 222.9 686.28C223.853 687.854 224.357 689.659 224.357 691.5C224.357 693.34 223.853 695.146 222.9 696.72C218.9 703.28 210.22 702.84 203.58 700.72C200.234 699.469 197.338 697.248 195.264 694.34C193.19 691.432 192.033 687.97 191.94 684.4C192.016 682.082 192.958 679.877 194.579 678.218C196.201 676.56 198.384 675.569 200.7 675.44C196.468 672.781 192.538 669.67 188.98 666.16C179.54 656.84 172.98 640.56 177.34 627.72C179.38 621.8 186.46 616.28 193.34 618.88C201.463 622.293 209.222 626.514 216.5 631.48C218.5 632.76 220.5 634.04 222.62 635.12C223.66 635.68 227.62 637.28 224.66 636.08C232.354 638.556 238.855 643.802 242.9 650.8C247.82 659.84 245.42 673.32 235.3 678.28ZM164.02 600.76C163.626 600.16 163.278 599.532 162.98 598.88C161.755 596.855 160.034 595.175 157.98 594C155.817 592.783 153.381 592.136 150.9 592.12C148.605 592.229 146.352 592.772 144.26 593.72C142.278 594.428 140.57 595.744 139.38 597.48C138.17 599.203 137.363 601.176 137.017 603.253C136.671 605.329 136.795 607.457 137.38 609.48C138.243 612.326 140.013 614.812 142.42 616.56C144.82 618.496 147.816 619.541 150.9 619.52C152.812 619.413 154.712 619.146 156.58 618.72C158.425 618.28 160.14 617.409 161.584 616.178C163.028 614.948 164.159 613.392 164.885 611.639C165.611 609.887 165.911 607.987 165.761 606.096C165.61 604.204 165.014 602.376 164.02 600.76ZM856.98 511.52C855.932 508.182 853.855 505.262 851.045 503.178C848.235 501.094 844.838 499.954 841.34 499.92C838.82 499.92 836.7 499.24 833.9 499.24C829.617 499.551 825.441 500.721 821.62 502.68C814.956 504.797 809.277 509.241 805.62 515.2C803.928 518.241 803.304 521.761 803.848 525.198C804.391 528.635 806.072 531.79 808.62 534.16C807.78 535 806.94 535.8 806.02 536.6C805.14 537.491 804.545 538.623 804.31 539.852C804.074 541.082 804.21 542.354 804.698 543.506C805.187 544.659 806.006 545.641 807.054 546.327C808.101 547.013 809.328 547.372 810.58 547.36C812.465 547.347 814.348 547.454 816.22 547.68C818.824 547.684 821.408 547.238 823.86 546.36C825.908 545.742 827.924 545.021 829.9 544.2C831.267 543.632 832.475 542.739 833.42 541.6C833.7 541.2 835.94 537.88 834.54 539.28C835.165 538.665 835.607 537.89 835.82 537.04C840.083 535.983 844.015 533.88 847.26 530.92L849.42 529.36C852.425 527.589 854.782 524.899 856.143 521.687C857.504 518.475 857.797 514.911 856.98 511.52ZM836.34 480.08C834.889 479.56 833.361 479.289 831.82 479.28C830.192 479.722 828.632 480.381 827.18 481.24C826.415 481.664 825.836 482.358 825.555 483.186C825.274 484.015 825.311 484.918 825.66 485.72C826.019 486.518 826.652 487.162 827.444 487.536C828.236 487.91 829.135 487.989 829.98 487.76C831.521 487.614 833.031 487.237 834.46 486.64C835.583 485.803 836.533 484.757 837.26 483.56C837.518 483.303 837.704 482.982 837.799 482.63C837.895 482.278 837.896 481.907 837.803 481.555C837.709 481.202 837.525 480.881 837.269 480.622C837.012 480.363 836.691 480.176 836.34 480.08ZM870.7 437.56C870.3 436.56 869.86 435.6 869.42 434.64C860.26 428.36 852.86 427.68 847.34 432.68C846.196 433.716 845.212 434.915 844.42 436.24C843.588 437.628 843.039 439.167 842.804 440.768C842.569 442.369 842.652 444.001 843.05 445.57C843.448 447.138 844.152 448.613 845.121 449.909C846.091 451.204 847.307 452.296 848.7 453.12C851.88 454.891 855.626 455.351 859.14 454.4C860.978 453.78 862.781 453.059 864.54 452.24L867.26 450.2C868.499 449.117 869.447 447.742 870.02 446.2C871.274 443.551 871.516 440.535 870.7 437.72V437.56ZM835.54 170.92C835.081 168.129 834.001 165.477 832.38 163.16C830.202 160.805 827.613 158.867 824.74 157.44C822.545 155.953 820.182 154.731 817.7 153.8C814.902 153.091 812.026 152.741 809.14 152.76C807.074 152.605 805.021 153.187 803.344 154.403C801.667 155.618 800.475 157.389 799.98 159.4C792.346 153.393 783.346 149.367 773.78 147.68C764.66 145.72 741.78 146.56 743.78 160.92C745.22 172.2 753.66 178.92 763.18 184.68C772.7 190.44 780.46 194.6 790.06 193.48C798.06 194.36 807.54 195.52 811.3 186.76C812.247 184.613 812.579 182.245 812.26 179.92C814.103 181.462 816.22 182.642 818.5 183.4C821.842 183.933 825.257 183.784 828.54 182.96C831.025 182.283 833.147 180.662 834.455 178.443C835.763 176.224 836.152 173.582 835.54 171.08V170.92ZM725.94 178.32C724.024 176.278 721.937 174.404 719.7 172.72C716.966 171.116 713.901 170.158 710.74 169.92C707.921 169.178 705.014 168.829 702.1 168.88C699.461 169.446 697.076 170.849 695.3 172.88C694.755 173.372 694.366 174.013 694.181 174.724C693.996 175.435 694.024 176.184 694.26 176.88C694.703 179.173 695.737 181.31 697.26 183.08C699.893 184.917 702.832 186.272 705.94 187.08C708.551 188.372 711.392 189.133 714.3 189.32C717.399 189.071 720.467 188.522 723.46 187.68C724.397 187.437 725.253 186.95 725.941 186.269C726.629 185.588 727.124 184.736 727.376 183.801C727.628 182.867 727.628 181.882 727.376 180.947C727.124 180.012 726.628 179.161 725.94 178.48V178.32ZM829.66 244.08C829.099 241.261 827.588 238.719 825.38 236.88C822.395 234.395 818.808 232.739 814.98 232.08C813.453 231.691 811.846 231.747 810.35 232.244C808.854 232.74 807.531 233.655 806.54 234.88C805.605 236.119 805.05 237.602 804.944 239.151C804.837 240.699 805.183 242.245 805.94 243.6L807.54 246.76C808.695 249.04 810.434 250.972 812.58 252.36C814.678 253.917 817.174 254.846 819.78 255.04C821.301 255.074 822.811 254.764 824.196 254.134C825.581 253.504 826.806 252.569 827.78 251.4C828.591 250.381 829.178 249.202 829.502 247.941C829.826 246.679 829.88 245.364 829.66 244.08ZM629.66 495.8C616.62 488.52 594.94 490.76 584.62 500.6C583.013 502.158 581.736 504.024 580.864 506.085C579.992 508.146 579.543 510.362 579.543 512.6C579.543 514.838 579.992 517.054 580.864 519.115C581.736 521.176 583.013 523.041 584.62 524.6C599.66 538.16 626.1 532.36 635.66 515.6L636.22 515.12C643.62 508.32 638.42 497.36 629.78 495.72L629.66 495.8ZM558.42 485.12C555.23 482.892 551.306 481.975 547.46 482.56C544.581 483.163 541.748 483.965 538.98 484.96C537.276 485.434 535.796 486.499 534.807 487.965C533.817 489.432 533.382 491.202 533.58 492.96C533.872 494.727 534.778 496.333 536.14 497.497C537.501 498.661 539.229 499.306 541.02 499.32C543.948 499.727 546.903 499.914 549.86 499.88C553.66 499.5 557.183 497.717 559.74 494.88C560.425 494.21 560.947 493.39 561.265 492.486C561.582 491.581 561.687 490.615 561.571 489.663C561.455 488.712 561.121 487.8 560.595 486.998C560.07 486.196 559.366 485.526 558.54 485.04L558.42 485.12ZM156.98 118.68C151.14 110.4 138.62 112 131.14 117.04C127.872 119.111 124.793 121.467 121.94 124.08C119.836 126.286 118.443 129.073 117.94 132.08L117.42 135.72C117.74 134.36 117.74 134.48 117.42 136.12C117.044 137.644 117.02 139.234 117.348 140.769C117.677 142.304 118.35 143.745 119.317 144.981C120.284 146.218 121.52 147.219 122.93 147.908C124.341 148.597 125.89 148.957 127.46 148.96H128.42H128.86C132.91 149.965 137.188 149.423 140.86 147.44C143.384 146.139 145.84 144.71 148.22 143.16C155.94 138.24 163.38 127.72 156.98 118.68ZM107.82 124.08C104.519 124.709 101.506 126.377 99.2198 128.84C97.3398 131.117 95.6413 133.538 94.1398 136.08C93.5537 137.076 93.1714 138.178 93.0152 139.323C92.8589 140.468 92.9317 141.633 93.2295 142.749C93.5272 143.866 94.0439 144.912 94.7496 145.827C95.4552 146.742 96.3357 147.508 97.3398 148.08C99.401 149.213 101.816 149.521 104.095 148.942C106.375 148.363 108.349 146.939 109.62 144.96C110.18 144.12 110.74 143.32 111.34 142.52C111.74 142.12 112.1 141.68 112.46 141.28C113.937 139.774 115.058 137.956 115.74 135.96C116.033 135.053 116.353 134.133 116.7 133.2C118.9 127.6 112.98 122.52 107.82 124.08ZM204.98 85.0799C202.532 84.4089 199.926 84.6214 197.62 85.6799C196.215 86.7258 194.951 87.9493 193.86 89.3199C193.013 90.2063 192.471 91.3399 192.312 92.5558C192.154 93.7716 192.388 95.0062 192.98 96.0799C193.686 97.1322 194.695 97.9445 195.874 98.409C197.053 98.8734 198.346 98.9679 199.58 98.6799C201.441 98.6074 203.273 98.1868 204.98 97.4399C206.919 96.0205 208.327 93.9927 208.98 91.6799C209.164 90.9835 209.206 90.2571 209.104 89.5441C209.001 88.8311 208.756 88.1461 208.382 87.53C208.009 86.9139 207.515 86.3794 206.931 85.9585C206.346 85.5375 205.682 85.2387 204.98 85.0799ZM446.1 278.88L446.82 277.52C448.375 274.773 448.785 271.524 447.962 268.477C447.138 265.429 445.147 262.829 442.42 261.24C441.582 260.757 440.713 260.33 439.82 259.96C436.721 257.565 433.176 255.811 429.392 254.802C425.607 253.792 421.66 253.547 417.78 254.08C409.5 254.68 402.18 258.8 394.7 262.08C384.34 266.64 381.34 280.68 385.34 290.08C386.537 292.816 388.279 295.279 390.46 297.32C384.547 299.887 378.883 302.994 373.54 306.6C371.286 308.055 369.32 309.913 367.74 312.08C362.22 316.84 359.98 323.28 365.26 332.08C375.3 348.48 404.3 344.08 419.38 338.52C428.54 335.12 438.94 330.52 443.74 321.48C446.247 316.798 446.813 311.318 445.317 306.222C443.82 301.126 440.381 296.823 435.74 294.24C438.398 292.494 440.683 290.237 442.462 287.6C444.24 284.963 445.477 281.999 446.1 278.88ZM343.06 319.8C340.54 319.24 339.06 320.44 336.98 321.44H336.54L335.86 321.68C335.124 321.909 334.376 322.096 333.62 322.24C332.867 322.436 332.165 322.792 331.563 323.285C330.96 323.777 330.471 324.394 330.129 325.093C329.787 325.792 329.601 326.557 329.582 327.335C329.563 328.112 329.712 328.885 330.02 329.6C330.341 330.326 330.811 330.976 331.399 331.509C331.987 332.043 332.68 332.446 333.434 332.695C334.188 332.944 334.985 333.032 335.775 332.954C336.565 332.875 337.33 332.632 338.02 332.24C339.719 331.398 341.316 330.365 342.78 329.16C344.54 327.8 346.54 326.04 346.3 323.64C346.228 322.742 345.876 321.889 345.295 321.2C344.714 320.512 343.933 320.022 343.06 319.8ZM310.54 300.48L308.98 300.08C301.94 294.76 291.34 297.8 285.26 303.32C280.541 307.206 277.283 312.579 276.02 318.56C275.49 320.585 275.499 322.714 276.046 324.735C276.593 326.756 277.66 328.599 279.14 330.08C280.694 331.6 282.621 332.685 284.728 333.226C286.834 333.767 289.045 333.744 291.14 333.16C300.66 329.96 313.58 323.44 314.78 313.16C314.78 312.76 315.06 312.4 315.18 312C315.856 309.839 315.763 307.511 314.918 305.411C314.072 303.311 312.525 301.569 310.54 300.48ZM972.58 676.76C972.075 674.888 971.199 673.138 970.003 671.612C968.807 670.086 967.317 668.817 965.62 667.88C962.687 666.299 959.334 665.672 956.028 666.088C952.723 666.504 949.629 667.941 947.18 670.2L939.5 677.08C937.109 679.396 935.67 682.521 935.463 685.843C935.255 689.165 936.296 692.445 938.38 695.04C940.5 697.669 943.481 699.465 946.797 700.109C950.113 700.753 953.549 700.204 956.5 698.56L965.62 693.48C968.448 691.837 970.66 689.313 971.917 686.293C973.174 683.273 973.407 679.924 972.58 676.76Z" fill="url(#paint3_linear_967_1449)"/>
<path d="M232.22 682.44C227.184 685.151 221.538 686.527 215.82 686.44C217.453 687.435 218.824 688.807 219.82 690.44C220.76 692.019 221.257 693.822 221.257 695.66C221.257 697.498 220.76 699.301 219.82 700.88C215.82 707.44 207.1 707 200.5 704.88C197.156 703.634 194.259 701.42 192.179 698.52C190.098 695.62 188.929 692.167 188.82 688.6C188.897 686.275 189.844 684.065 191.474 682.405C193.104 680.746 195.297 679.759 197.62 679.64C193.402 676.931 189.475 673.794 185.9 670.28C176.42 660.92 169.9 644.64 174.22 631.8C176.3 625.88 183.38 620.4 190.22 622.96C198.347 626.364 206.107 630.586 213.38 635.56C215.42 636.84 217.38 638.12 219.54 639.24C220.58 639.76 224.54 641.4 221.58 640.2C229.276 642.672 235.778 647.919 239.82 654.92C244.74 664.08 242.3 677.48 232.22 682.44ZM160.98 604.92C160.58 604.325 160.232 603.696 159.94 603.04C158.701 601.002 156.967 599.309 154.9 598.12C152.751 596.911 150.326 596.277 147.86 596.28C145.562 596.365 143.304 596.909 141.22 597.88C139.211 598.558 137.482 599.88 136.3 601.64C135.105 603.37 134.31 605.344 133.971 607.42C133.632 609.495 133.758 611.619 134.34 613.64C135.214 616.481 136.981 618.964 139.38 620.72C141.777 622.656 144.779 623.69 147.86 623.64C149.761 623.553 151.65 623.285 153.5 622.84C155.343 622.403 157.056 621.536 158.5 620.31C159.944 619.084 161.077 617.534 161.806 615.786C162.536 614.038 162.841 612.142 162.698 610.254C162.554 608.365 161.965 606.537 160.98 604.92ZM855.46 513.76C854.429 510.413 852.355 507.482 849.542 505.395C846.729 503.309 843.323 502.175 839.82 502.16C837.34 502.16 835.18 501.44 832.42 501.44C828.122 501.766 823.933 502.949 820.1 504.92C813.446 507.033 807.77 511.461 804.1 517.4C802.41 520.451 801.791 523.98 802.342 527.424C802.893 530.869 804.582 534.029 807.14 536.4C806.3 537.2 805.46 538.04 804.5 538.84C803.632 539.735 803.047 540.867 802.821 542.094C802.595 543.32 802.737 544.586 803.229 545.732C803.72 546.879 804.54 547.854 805.585 548.535C806.63 549.216 807.853 549.572 809.1 549.56C810.986 549.563 812.869 549.683 814.74 549.92C817.331 549.924 819.902 549.477 822.34 548.6C824.34 547.88 826.34 547.32 828.42 546.44C829.786 545.871 830.984 544.962 831.9 543.8C832.22 543.44 834.46 540.12 833.06 541.48C833.681 540.885 834.113 540.12 834.3 539.28C838.569 538.208 842.51 536.107 845.78 533.16L847.94 531.6C850.931 529.817 853.271 527.122 854.617 523.911C855.963 520.701 856.245 517.143 855.42 513.76H855.46ZM834.7 482.44C833.261 481.933 831.746 481.676 830.22 481.68C828.571 482.097 826.994 482.758 825.54 483.64C824.792 484.07 824.228 484.76 823.955 485.578C823.682 486.397 823.72 487.287 824.06 488.08C824.425 488.875 825.057 489.518 825.845 489.898C826.634 490.278 827.53 490.37 828.38 490.16C829.908 490.015 831.406 489.637 832.82 489.04C833.937 488.184 834.897 487.142 835.66 485.96C835.916 485.693 836.098 485.363 836.187 485.004C836.276 484.645 836.27 484.269 836.169 483.913C836.068 483.557 835.875 483.234 835.611 482.976C835.346 482.717 835.018 482.532 834.66 482.44H834.7ZM868.98 440.08C868.58 439.12 868.18 438.16 867.74 437.2C858.54 430.88 851.167 430.227 845.62 435.24C844.477 436.261 843.493 437.448 842.7 438.76C841.87 440.151 841.323 441.692 841.091 443.294C840.859 444.897 840.946 446.53 841.348 448.099C841.749 449.668 842.457 451.142 843.43 452.436C844.404 453.73 845.624 454.819 847.02 455.64C850.194 457.425 853.941 457.899 857.46 456.96C859.297 456.32 861.099 455.586 862.86 454.76L865.54 452.72C866.797 451.654 867.75 450.274 868.3 448.72C869.638 446.037 869.882 442.939 868.98 440.08ZM832.42 175.4C831.961 172.609 830.881 169.957 829.26 167.64C827.074 165.294 824.487 163.357 821.62 161.92C819.426 160.42 817.063 159.185 814.58 158.24C811.777 157.565 808.903 157.229 806.02 157.24C804 157.097 801.993 157.661 800.343 158.836C798.693 160.011 797.504 161.724 796.98 163.68C789.288 157.742 780.27 153.762 770.7 152.08C761.58 150.12 738.7 151 740.66 165.36C742.14 176.6 750.58 183.36 760.06 189.12C769.54 194.88 777.38 199 786.98 197.88C794.98 198.8 804.46 199.92 808.22 191.2C809.175 188.955 809.44 186.476 808.98 184.08C810.845 185.602 812.974 186.768 815.26 187.52C818.602 188.053 822.017 187.904 825.3 187.08C830.94 186.48 833.54 179.84 832.46 175.24L832.42 175.4ZM722.82 182.76C720.884 180.751 718.798 178.892 716.58 177.2C713.853 175.579 710.784 174.62 707.62 174.4C704.801 173.659 701.894 173.309 698.98 173.36C696.338 173.947 693.946 175.345 692.14 177.36C691.602 177.857 691.22 178.5 691.043 179.211C690.865 179.921 690.899 180.668 691.14 181.36C691.575 183.655 692.61 185.794 694.14 187.56C696.764 189.413 699.706 190.768 702.82 191.56C705.42 192.88 708.268 193.643 711.18 193.8C714.279 193.551 717.347 193.002 720.34 192.16C721.355 191.966 722.295 191.489 723.051 190.784C723.807 190.078 724.348 189.174 724.612 188.174C724.875 187.174 724.851 186.12 724.541 185.134C724.231 184.148 723.648 183.269 722.86 182.6L722.82 182.76ZM826.58 248.08C826.02 245.24 824.494 242.681 822.26 240.84C819.274 238.418 815.699 236.831 811.9 236.24C810.373 235.851 808.766 235.907 807.27 236.404C805.774 236.9 804.452 237.815 803.46 239.04C802.527 240.271 801.97 241.745 801.856 243.285C801.743 244.826 802.077 246.366 802.82 247.72L804.46 250.92C805.615 253.2 807.354 255.132 809.5 256.52C811.594 258.085 814.093 259.015 816.7 259.2C818.22 259.222 819.725 258.907 821.109 258.278C822.492 257.649 823.718 256.72 824.7 255.56C825.52 254.515 826.111 253.308 826.435 252.02C826.759 250.731 826.808 249.389 826.58 248.08ZM626.58 499.8C613.5 492.52 591.86 494.76 581.54 504.56C579.943 506.124 578.675 507.991 577.809 510.052C576.943 512.112 576.497 514.325 576.497 516.56C576.497 518.795 576.943 521.008 577.809 523.068C578.675 525.129 579.943 526.996 581.54 528.56C596.58 542.12 623.02 536.32 632.58 519.56L633.1 519.04C640.54 512.48 635.34 501.52 626.7 500.08L626.58 499.8ZM555.34 489.12C552.139 486.883 548.204 485.953 544.34 486.52C541.484 487.161 538.666 487.962 535.9 488.92C534.196 489.394 532.716 490.459 531.727 491.925C530.737 493.392 530.302 495.162 530.5 496.92C530.79 498.684 531.689 500.29 533.041 501.46C534.393 502.629 536.113 503.287 537.9 503.32C540.844 503.707 543.811 503.894 546.78 503.88C550.564 503.483 554.068 501.702 556.62 498.88C557.284 498.216 557.788 497.41 558.095 496.523C558.402 495.636 558.504 494.69 558.392 493.758C558.28 492.826 557.958 491.931 557.45 491.142C556.942 490.352 556.262 489.688 555.46 489.2L555.34 489.12ZM154.98 121.12C149.14 112.84 136.62 114.44 129.14 119.44C125.898 121.56 122.834 123.941 119.98 126.56C117.87 128.762 116.476 131.551 115.98 134.56L115.5 138.2C115.78 136.8 115.78 136.92 115.5 138.6C115.124 140.124 115.1 141.714 115.428 143.249C115.757 144.784 116.43 146.225 117.397 147.462C118.365 148.698 119.6 149.699 121.011 150.388C122.421 151.078 123.97 151.437 125.54 151.44H126.5H126.94C130.922 152.406 135.12 151.879 138.74 149.96C141.22 148.68 143.78 147.12 146.14 145.68C154.06 140.72 161.5 130.24 155.1 121.2L154.98 121.12ZM105.98 126.48C102.685 127.125 99.6761 128.79 97.3799 131.24C95.4869 133.488 93.7748 135.882 92.2599 138.4C91.6809 139.4 91.3053 140.504 91.1547 141.649C91.0042 142.795 91.0818 143.959 91.3829 145.074C91.6841 146.19 92.2029 147.234 92.9094 148.148C93.616 149.062 94.4964 149.828 95.4999 150.4C97.5592 151.512 99.9614 151.808 102.229 151.23C104.497 150.652 106.464 149.242 107.74 147.28C108.3 146.44 108.9 145.64 109.46 144.84C109.86 144.4 110.22 143.96 110.62 143.56C112.07 142.056 113.176 140.254 113.86 138.28C114.18 137.32 114.46 136.4 114.86 135.48C116.98 130.12 110.98 125.04 105.98 126.48ZM203.22 87.56C200.769 86.8838 198.157 87.1109 195.86 88.2C194.459 89.2211 193.206 90.4328 192.14 91.8C191.254 92.6873 190.683 93.8413 190.517 95.0845C190.351 96.3276 190.598 97.5909 191.22 98.68C191.915 99.7332 192.917 100.547 194.091 101.012C195.264 101.477 196.552 101.571 197.78 101.28C199.545 101.192 201.28 100.786 202.9 100.08C204.898 98.6772 206.375 96.6516 207.1 94.32C207.305 93.6213 207.366 92.8884 207.281 92.1653C207.195 91.4423 206.964 90.7441 206.601 90.1126C206.239 89.4811 205.753 88.9295 205.171 88.4908C204.59 88.0521 203.927 87.7355 203.22 87.56ZM443.22 283C443.47 282.559 443.697 282.105 443.9 281.64C445.459 278.898 445.875 275.652 445.059 272.606C444.243 269.559 442.26 266.956 439.54 265.36C438.684 264.898 437.802 264.484 436.9 264.12C433.818 261.707 430.282 259.94 426.502 258.923C422.722 257.905 418.777 257.66 414.9 258.2C406.62 258.84 399.3 262.92 391.82 266.2C381.46 270.72 378.46 284.8 382.46 294.2C383.647 296.953 385.39 299.432 387.58 301.48C381.663 304.039 375.998 307.146 370.66 310.76C368.379 312.263 366.41 314.191 364.86 316.44C359.34 321.2 356.86 327.6 362.38 336.44C372.42 352.8 401.38 348.44 416.5 342.88C425.62 339.48 436.06 334.64 440.86 325.84C443.369 321.152 443.936 315.666 442.44 310.564C440.944 305.461 437.503 301.151 432.86 298.56C435.492 296.761 437.744 294.46 439.487 291.79C441.231 289.121 442.431 286.134 443.02 283H443.22ZM341.46 322.2C338.94 321.64 337.46 322.84 335.38 323.84H334.94L334.26 324.08C333.524 324.309 332.777 324.496 332.02 324.64C331.266 324.841 330.563 325.202 329.961 325.698C329.358 326.195 328.87 326.815 328.528 327.517C328.187 328.219 328 328.986 327.981 329.767C327.963 330.547 328.112 331.322 328.42 332.04C328.745 332.762 329.217 333.409 329.807 333.938C330.397 334.467 331.091 334.867 331.844 335.111C332.598 335.356 333.394 335.441 334.182 335.36C334.97 335.278 335.732 335.033 336.42 334.64C338.04 333.848 339.569 332.883 340.98 331.76C342.74 330.4 344.74 328.68 344.5 326.24C344.469 325.307 344.136 324.409 343.552 323.681C342.968 322.952 342.164 322.433 341.26 322.2H341.46ZM308.74 302.88L307.38 302.32C300.3 297 289.7 300.08 283.62 305.56C278.916 309.458 275.661 314.826 274.38 320.8C273.834 322.855 273.844 325.019 274.409 327.07C274.974 329.12 276.074 330.983 277.596 332.469C279.119 333.954 281.008 335.008 283.072 335.523C285.135 336.038 287.298 335.996 289.34 335.4C298.86 332.2 311.78 325.72 312.98 315.4C312.98 315 313.26 314.64 313.38 314.24C314.015 312.101 313.902 309.809 313.058 307.744C312.214 305.678 310.691 303.962 308.74 302.88ZM969.5 680.88C968.973 679.018 968.084 677.278 966.883 675.761C965.681 674.244 964.192 672.979 962.5 672.04C959.572 670.468 956.227 669.846 952.93 670.262C949.632 670.678 946.546 672.11 944.1 674.36L936.38 681.2C934.001 683.533 932.573 686.666 932.373 689.992C932.174 693.318 933.217 696.6 935.3 699.2C937.425 701.823 940.406 703.613 943.719 704.257C947.033 704.901 950.468 704.357 953.42 702.72L962.5 697.64C965.329 695.986 967.543 693.456 968.806 690.432C970.069 687.408 970.313 684.055 969.5 680.88Z" fill="url(#paint4_linear_967_1449)"/>
<path d="M19.2197 617.76C18.8371 619.846 18.6231 621.96 18.5797 624.08C18.5198 625.159 18.5198 626.241 18.5797 627.32C18.5606 627.693 18.5606 628.067 18.5797 628.44C18.6993 629.61 18.6993 630.79 18.5797 631.96C18.5797 632.88 18.5797 633.84 18.8197 634.76C16.7397 634 15.3397 633.08 15.2997 631.88C15.2997 627.4 15.2997 622.96 15.2997 618.48C15.2669 616.311 15.5774 614.151 16.2197 612.08C17.2997 610.16 16.7397 611.16 18.8997 610.28C20.94 609.231 23.0852 608.399 25.2997 607.8C27.7397 607.32 30.2597 607.08 32.7797 606.84L59.5797 604.16L52.7397 603.72H58.4597L63.9397 603.48C65.4891 603.513 67.039 603.446 68.5797 603.28C56.1797 605.36 43.7397 607.28 31.6197 610.68C28.358 611.464 25.1924 612.604 22.1797 614.08C21.3513 614.466 20.6252 615.042 20.0597 615.76C19.6605 616.37 19.3759 617.048 19.2197 617.76Z" fill="#EB924D"/>
<path d="M20.3397 286.84V287.08C20.3397 288.16 20.8197 289.12 20.9397 290.2C21.2997 293.24 20.6997 296.52 20.9397 299.64C20.8142 305.739 22.8711 311.683 26.7397 316.4C31.8597 321.88 39.7397 323.48 47.0997 324.76L29.8197 325.04C28.6411 324.955 27.4597 325.161 26.3797 325.64C25.5685 326.245 24.8931 327.013 24.397 327.895C23.901 328.777 23.5953 329.753 23.4997 330.76C20.861 342.567 19.8649 354.681 20.5397 366.76C23.1474 368.305 26.0028 369.388 28.9797 369.96C27.9836 370.154 27.0387 370.552 26.2049 371.131C25.3711 371.709 24.6667 372.454 24.1363 373.32C23.606 374.185 23.2613 375.151 23.1241 376.156C22.987 377.161 23.0604 378.184 23.3397 379.16C24.7019 383.115 27.4046 386.468 30.9797 388.64C25.9797 388.64 22.6997 394.08 21.8597 399C21.1797 403 21.3797 407 20.6997 411C20.5262 412.328 20.5262 413.672 20.6997 415C20.6997 416.76 20.6997 418.52 20.6997 420.28C20.6203 425.055 21.0223 429.826 21.8997 434.52C22.3845 437.126 23.0121 439.703 23.7797 442.24C24.1797 443.52 24.5797 444.76 25.0597 446.24C25.1707 446.5 25.2642 446.767 25.3397 447.04C24.3705 446.82 23.449 446.427 22.6197 445.88C21.636 444.813 20.8973 443.545 20.4551 442.163C20.0129 440.781 19.8779 439.319 20.0597 437.88C20.0597 431.88 19.4597 426.12 19.0997 420.16C18.6997 413.24 19.0997 406.36 19.0997 399.48C19.0997 382.76 19.0997 366.053 19.0997 349.36C19.0997 332.667 18.9797 315.8 18.7397 298.76C19.0701 294.354 18.7738 289.923 17.8597 285.6C16.9407 280.898 16.9407 276.062 17.8597 271.36C17.897 270.272 18.2439 269.217 18.8597 268.32C19.5573 267.634 20.4283 267.15 21.3797 266.92C28.7417 265.096 36.3186 264.289 43.8997 264.52C51.3191 264.24 58.7034 263.357 65.9797 261.88C67.8551 261.795 69.7245 261.608 71.5797 261.32C59.5797 263.88 47.3397 266.12 35.0997 268.16C32.5593 268.475 30.0632 269.079 27.6597 269.96C25.232 270.846 23.1837 272.541 21.8597 274.76C20.8814 276.906 20.3897 279.242 20.4197 281.6C20.2925 283.344 20.2658 285.093 20.3397 286.84Z" fill="#EB924D"/>
<path d="M117.3 459.6C93.2999 460.84 69.2999 464.88 45.2999 465.76C39.3029 465.606 33.3199 466.416 27.5799 468.16C23.5799 469.64 19.7799 477.56 24.3799 480.4C25.0948 480.765 25.8653 481.008 26.6599 481.12C31.0211 481.959 35.4605 482.321 39.8999 482.2C34.235 483.428 28.8231 485.62 23.8999 488.68C22.9818 489.104 22.1639 489.717 21.4999 490.48C20.9555 491.313 20.6005 492.255 20.4599 493.24C19.6081 495.709 19.2018 498.309 19.2599 500.92C19.44 502.662 19.44 504.418 19.2599 506.16C18.9 513.115 18.9 520.085 19.2599 527.04C19.2472 527.848 19.3968 528.651 19.6999 529.4C20.2698 530.329 21.051 531.11 21.9799 531.68L27.8999 535.68C27.9814 535.712 28.0554 535.761 28.1173 535.823C28.1792 535.885 28.2278 535.958 28.2599 536.04C28.2599 536.4 28.2599 536.76 27.8999 537C24.5496 539.977 21.8294 543.595 19.8999 547.64C18.9344 549.497 18.2214 551.474 17.7799 553.52C17.3763 558.731 17.8221 563.972 19.0999 569.04C19.4719 571.043 20.4007 572.901 21.7799 574.4C23.1084 575.454 24.651 576.205 26.2999 576.6C33.1092 578.647 40.0264 580.316 47.0199 581.6L19.7799 582.44C19.7799 582.44 18.8999 592.84 18.6599 593.8C18.2186 594.987 18.2186 596.293 18.6599 597.48C19.2671 599.024 20.242 600.397 21.4999 601.48L16.4999 601.16C15.8199 601.16 15.0199 601.16 14.6999 600.4C14.6384 600.083 14.6384 599.757 14.6999 599.44C15.8999 573.6 17.1799 547.44 17.6999 521.6C17.326 507.216 17.7132 492.823 18.8599 478.48C18.8599 477.16 20.0599 462.88 19.9799 462.88C52.2733 460.667 84.7133 459.573 117.3 459.6Z" fill="#EB924D"/>
<path d="M122.54 459.4C122.726 459.42 122.914 459.42 123.1 459.4H122.54Z" fill="#EB924D"/>
<path d="M137.74 140.48C123.3 142.28 108.42 140.28 94.0597 142.72C89.2997 143.52 84.6197 144.8 79.8197 145.28C75.0197 145.76 70.9397 145.28 66.5397 145.56C55.3936 146.029 44.3734 148.104 33.8197 151.72C30.1348 152.587 26.7249 154.36 23.8997 156.88C22.939 157.92 22.131 159.092 21.4997 160.36C20.2021 162.83 19.5033 165.57 19.4597 168.36C19.5204 169.092 19.5204 169.828 19.4597 170.56C19.2197 172.84 18.9397 175.08 18.8997 177.36C18.8449 181.912 19.3555 186.454 20.4197 190.88C20.6068 192.166 21.1785 193.365 22.0597 194.32C23.1229 195.091 24.3878 195.536 25.6997 195.6L41.9397 198.08L19.5397 199.76C20.0197 199.76 19.8997 217.68 19.9797 219.28C20.3797 225.32 20.5397 231.48 20.9797 237.56C21.1495 241.523 21.7667 245.455 22.8197 249.28C23.0997 250.16 23.4197 251.08 23.7797 251.92C23.1874 251.552 22.6256 251.138 22.0997 250.68C20.7015 249.526 19.557 248.095 18.7379 246.477C17.9188 244.86 17.4428 243.09 17.3397 241.28C17.337 240.466 17.4584 239.657 17.6997 238.88C18.0203 236.437 18.0203 233.963 17.6997 231.52C17.4864 220.853 17.273 210.093 17.0597 199.24C17.0809 192.448 16.6801 185.662 15.8597 178.92C15.5326 175.53 15.3857 172.125 15.4197 168.72C15.2237 164.499 15.3977 160.27 15.9397 156.08C16.0959 153.796 16.6651 151.56 17.6197 149.48C18.0514 148.364 18.7927 147.395 19.7564 146.687C20.7201 145.978 21.8662 145.559 23.0597 145.48C26.8505 145.452 30.6341 145.144 34.3797 144.56C42.753 143.733 51.1397 143.053 59.5397 142.52C76.7397 141.4 93.9797 140.8 111.26 140.52C119.66 140.52 128.1 140.52 136.5 140.52L137.74 140.48Z" fill="#EB924D"/>
<path d="M891.9 216.76C917.3 222.24 943.9 219.28 969.7 222.64C980.006 224.652 990.479 225.697 1000.98 225.76C1004.86 225.1 1008.82 225.1 1012.7 225.76C1015.87 226.836 1018.49 229.102 1020.02 232.08C1023.1 236.92 1022.9 243.8 1023.22 249.32C1023.55 263.707 1023.09 278.102 1021.86 292.44C1021.94 294.009 1021.49 295.56 1020.58 296.84C1019.76 297.594 1018.75 298.107 1017.66 298.32C1017.66 298 1017.66 297.76 1017.66 297.48C1017.53 295.13 1017.63 292.773 1017.94 290.44C1018.56 287.3 1018.95 284.118 1019.1 280.92C1019.1 279.72 1019.1 278.68 1019.1 277.48C1019.14 277.134 1019.14 276.785 1019.1 276.44C1018.97 275.025 1018.75 273.622 1018.42 272.24C1018.16 270.331 1018.07 268.404 1018.14 266.48C1018.14 262.48 1017.62 258.48 1017.1 254.2C1017.07 253.476 1016.77 252.789 1016.26 252.28C1015.77 252.01 1015.21 251.898 1014.66 251.96C1000.57 252.127 986.496 253.034 972.5 254.68C984.659 254.1 996.725 252.25 1008.5 249.16C1009.57 249.148 1010.62 248.87 1011.55 248.351C1012.49 247.832 1013.28 247.088 1013.85 246.187C1014.43 245.286 1014.77 244.256 1014.85 243.19C1014.93 242.124 1014.74 241.055 1014.3 240.08C1014.12 237.769 1013.09 235.606 1011.42 234C1010.22 233.224 1008.84 232.745 1007.42 232.6L1004.98 232.08C996.98 230.52 988.54 229.32 980.26 228.48C976.26 228.04 971.94 227.72 967.78 227.48C963.62 227.24 959.78 226.36 955.54 226.08L948.06 225.6L922.7 224.08C918.5 223.8 914.22 223.76 910.06 223.28C908.874 223.089 907.726 222.711 906.66 222.16C906.025 221.893 905.37 221.679 904.7 221.52C900.98 220.72 897.14 220.28 893.38 219.6L885.38 218.12L881.66 217.4C880.692 217.116 879.702 216.915 878.7 216.8C883.1 216.84 887.5 216.76 891.9 216.76Z" fill="#EB924D"/>
<path d="M1023.9 386.64C1023.9 411.48 1023.34 436.32 1023.3 461.16C1023.3 469.16 1024.38 483.44 1020.14 490.8C1018.85 492.827 1016.8 494.264 1014.46 494.8C1014.74 494.2 1014.94 493.56 1015.18 492.92C1016.47 489.395 1017.41 485.751 1017.98 482.04C1018.1 480.34 1018.37 478.654 1018.78 477C1019.26 475.295 1019.5 473.532 1019.5 471.76L1020.82 455.76L1021.9 443.04C1022.1 440.92 1022.26 438.8 1022.46 436.68C1022.58 435.75 1022.58 434.809 1022.46 433.88C1022.36 433.605 1022.28 433.325 1022.22 433.04C1021.98 432 1022.22 430.8 1021.38 429.96C1020.85 429.486 1020.2 429.18 1019.5 429.08C1012.96 427.449 1006.24 426.616 999.5 426.6C1002.34 425.973 1005.26 425.825 1008.14 426.16C1011.03 426.498 1013.96 426.225 1016.74 425.36C1018.61 424.663 1020.18 423.333 1021.18 421.6C1021.57 420.743 1021.87 419.844 1022.06 418.92C1022.24 417.245 1022.24 415.555 1022.06 413.88C1022.06 410.8 1022.06 407.72 1022.06 404.6C1022.06 396.04 1022.06 387.48 1021.26 378.92C1020.82 372.4 1020.22 365.92 1019.82 359.4C1019.82 357.28 1018.42 356.2 1017.94 354.28C1017.46 352.36 1018.62 349.2 1017.14 347.08C1016.41 346.347 1015.52 345.795 1014.54 345.469C1013.56 345.142 1012.52 345.05 1011.5 345.2L971.26 344.68C983.835 345.005 996.398 343.66 1008.62 340.68C1010.17 340.429 1011.67 339.971 1013.1 339.32C1015.29 337.931 1016.98 335.868 1017.9 333.44C1018.42 332.24 1018.78 331 1019.22 329.8C1019.42 329.393 1019.57 328.963 1019.66 328.52C1019.74 326.916 1019.66 325.308 1019.42 323.72L1019.06 318.04C1019.16 315.905 1018.66 313.785 1017.62 311.92C1015.67 309.695 1012.96 308.27 1010.02 307.92L988.42 302.64C990.298 302.315 992.195 302.115 994.1 302.04L1017.46 307.48C1018.49 307.644 1019.46 308.056 1020.3 308.68C1023.34 311.52 1022.62 321.2 1022.94 324.68C1023.5 331.76 1023.78 338.88 1023.86 346C1024.34 360.08 1023.98 373.28 1023.9 386.64Z" fill="#EB924D"/>
<path d="M975.02 163.64C972.22 163.64 969.46 163.96 966.66 164.08L1019.02 169.24C1020.65 169.234 1022.24 169.768 1023.54 170.76C1024.34 171.704 1024.87 172.854 1025.06 174.08C1026.22 179.56 1026.7 185.162 1026.5 190.76C1026.09 198.94 1025.1 207.081 1023.54 215.12C1022.74 219.12 1020.3 219.12 1017.66 218.8C1018.41 218.303 1019.03 217.648 1019.5 216.88C1019.96 216.112 1020.25 215.252 1020.34 214.36C1020.92 204.182 1020.92 193.978 1020.34 183.8C1020.26 181.864 1019.9 179.949 1019.26 178.12C1018.77 176.918 1017.97 175.868 1016.94 175.08C1016.45 174.721 1015.93 174.413 1015.38 174.16L1014.74 173.84C1014.38 173.84 1014.1 173.52 1013.74 173.36C1013.15 173.147 1012.53 173.012 1011.9 172.96C1009.3 172.52 1006.74 172.04 1004.14 171.64C993.9 169.92 983.58 168.6 973.26 167.64C966.532 167.259 959.845 166.349 953.26 164.92C958.18 164.64 962.46 164.12 967.38 163.92L975.02 163.64Z" fill="#EB924D"/>
<path d="M1022.58 610.8C1023.11 608.441 1023.49 606.049 1023.7 603.64C1024.02 599.64 1024.02 595.64 1023.98 591.64C1024.28 588.149 1024.08 584.633 1023.38 581.2C1022.48 578.784 1022.04 576.218 1022.1 573.64C1022.64 570.356 1021.9 566.988 1020.02 564.24C1018.55 563.041 1016.85 562.15 1015.03 561.621C1013.21 561.092 1011.3 560.935 1009.42 561.16L989.9 560.96C998.5 559.92 1007.1 558.52 1015.62 556.96C1016.27 556.995 1016.92 556.869 1017.52 556.594C1018.11 556.318 1018.63 555.902 1019.02 555.381C1019.41 554.86 1019.68 554.25 1019.78 553.605C1019.88 552.96 1019.83 552.299 1019.62 551.68C1019.26 543.08 1019.06 534.48 1018.58 525.88C1018.3 521.12 1017.42 516.96 1012.42 515.36C1006.8 513.931 1001.07 512.942 995.3 512.4C985.113 510.88 974.9 509.547 964.66 508.4C944.18 506 923.66 504.4 903.06 503.44C943.06 504.24 982.86 506.573 1022.46 510.44C1024.34 510.44 1024.9 514.72 1025.22 516.04C1026.19 520.951 1026.81 525.923 1027.1 530.92C1028.14 544.52 1028.42 558.16 1028.58 571.76V572.08C1028.58 574.88 1028.78 577.64 1028.82 580.44C1029.22 588.531 1029.14 596.638 1028.58 604.72C1028.32 607.143 1027.79 609.53 1027.02 611.84C1026.73 613 1026.25 614.106 1025.62 615.12C1023.68 617.346 1021.14 618.959 1018.3 619.76C1019.61 618.198 1020.65 616.427 1021.38 614.52C1021.85 613.302 1022.25 612.06 1022.58 610.8Z" fill="#EB924D"/>
<path d="M14.0597 103.2C13.553 83.7333 12.8463 64.28 11.9397 44.84C11.6497 38.6231 13.7862 32.5366 17.8982 27.8649C22.0102 23.1932 27.7762 20.3015 33.9797 19.8C359.052 -6.41997 685.708 -6.41997 1010.78 19.8C1017.03 20.3215 1022.84 23.2724 1026.94 28.0204C1031.05 32.7684 1033.13 38.9355 1032.74 45.2C1031.7 62.3733 1030.77 79.56 1029.94 96.76C1029.38 108.76 1028.82 120.76 1028.34 132.76C1028.32 135.003 1028.01 137.235 1027.42 139.4C1026.18 143.4 1026.46 147.4 1025.5 151.64C1025.25 152.958 1024.66 154.186 1023.78 155.2C1022.75 156.01 1021.52 156.534 1020.22 156.72H1019.86C1019.88 156.587 1019.88 156.453 1019.86 156.32C1020.51 151.009 1020.88 145.669 1020.98 140.32C1020.75 138.57 1020.65 136.805 1020.7 135.04C1021.08 132.481 1020.96 129.873 1020.34 127.36C1019.32 124.186 1017.16 121.499 1014.28 119.81C1011.41 118.121 1008.01 117.548 1004.74 118.2C1009.54 114 1018.46 116.16 1021.86 110.76C1022.56 109.2 1022.95 107.517 1023 105.808C1023.04 104.099 1022.75 102.396 1022.14 100.8C1002.04 98.7071 981.824 97.8921 961.62 98.36C979.031 99.3093 996.479 97.3766 1013.26 92.64C1016.05 92.0838 1018.6 90.6882 1020.58 88.64C1022.04 86.4496 1022.88 83.9076 1023.02 81.28C1023.62 76.96 1024.02 72.56 1024.86 68.32C1025.1 67.04 1025.74 65.92 1026.02 64.68C1026.31 62.6262 1026.37 60.5479 1026.22 58.48C1026.25 53.634 1025.71 48.8011 1024.62 44.08C1023.94 41.2817 1022.87 38.5901 1021.46 36.08C1020.81 34.4109 1019.81 32.8972 1018.53 31.6365C1017.26 30.3758 1015.74 29.3959 1014.06 28.76C1011.47 27.9099 1008.78 27.4121 1006.06 27.28C997.06 26.48 990.9 26.36 982.06 25.32C969.66 23.88 957.18 22.6 944.74 21.32C927.886 19.72 911.033 18.3866 894.18 17.32L868.9 15.68C867.066 15.4603 865.213 15.4603 863.38 15.68C862.059 15.9398 860.7 15.9398 859.38 15.68C855.445 14.7479 851.422 14.2384 847.38 14.16C844.748 14.0312 842.147 14.7722 839.978 16.2687C837.809 17.7651 836.193 19.9338 835.38 22.44C834.017 20.4319 833.382 18.0185 833.58 15.6C831.273 17.7466 829.375 20.2946 827.98 23.12C825.006 20.0937 823.001 16.2504 822.22 12.08C812.024 13.2738 801.719 13.2066 791.54 11.88L787.22 22.96C784.349 18.9748 780.634 15.6719 776.34 13.2866C772.047 10.9013 767.28 9.49226 762.38 9.15996C752.591 8.56051 742.767 8.96259 733.06 10.36C720.346 11.4601 707.558 11.3798 694.86 10.12C693.339 9.77299 691.743 10.001 690.38 10.76C689.594 11.442 689.013 12.328 688.7 13.32C687.466 16.3524 686.541 19.5017 685.94 22.72C685.186 20.1213 683.861 17.7239 682.061 15.7031C680.262 13.6822 678.034 12.0891 675.54 11.04C670.545 8.94811 665.149 7.99175 659.74 8.23996C649.82 8.23996 639.98 10.28 630.06 10.36C624.591 10.3136 619.13 9.96642 613.7 9.31996C605.753 8.16742 597.73 7.61918 589.7 7.67996C587.732 7.75393 585.77 7.92748 583.82 8.19996C582.096 8.5929 580.344 8.84704 578.58 8.95996C577.449 8.86805 576.326 8.69426 575.22 8.43996C572.969 8.27962 570.71 8.27962 568.46 8.43996H553.5L502.46 7.83996L451.38 7.23996L425.86 6.95996C423.94 6.95996 422.14 6.51996 420.22 6.59996L388.22 8.03996L361.9 9.19996C358.4 9.04507 354.921 8.59007 351.5 7.83996C347.482 7.22581 343.377 7.54053 339.5 8.75996C333.98 10.76 329.46 16.76 331.5 22.4C331.98 16.16 326.3 10.8 320.22 9.23996C314.01 8.18154 307.649 8.42673 301.54 9.95996C285.811 12.5246 269.865 13.5161 253.94 12.92L252.42 26.32C251.237 21.5281 249.335 16.9428 246.78 12.72C244.032 18.7906 243.398 25.6069 244.98 32.08C240.98 25.96 241.54 16.08 235.02 12.72C228.5 9.35996 220.38 15.28 212.98 14.48L213.82 27.32C213.576 25.0961 212.839 22.9547 211.662 21.0518C210.486 19.1488 208.9 17.5323 207.02 16.32C201.78 12.84 197.02 14.08 191.02 14.52L172.06 16.08L138.18 18.64C135.694 19.039 133.172 19.1597 130.66 19C128.998 18.5656 127.295 18.3108 125.58 18.24C97.9254 18.5305 70.3252 20.7492 42.9797 24.88C37.9403 25.4895 33.0351 26.9219 28.4597 29.12C25.5795 30.6627 23.1212 32.8875 21.2997 35.6C20.1641 37.6196 19.4051 39.8289 19.0597 42.12C18.5499 43.6339 17.9213 45.1051 17.1797 46.52C15.7797 49.6213 14.9012 52.9325 14.5797 56.32C14.2949 58.9221 14.7433 61.552 15.8742 63.9127C17.0051 66.2735 18.7735 68.2711 20.9797 69.68C26.3397 72.64 33.4197 70.4 38.8997 73.2C32.5083 72.4005 26.0202 72.9594 19.8597 74.84C18.9067 75.0351 18.0391 75.5249 17.3797 76.24C16.9203 76.957 16.6708 77.7884 16.6597 78.64C16.1998 82.5331 16.1998 86.4668 16.6597 90.36C16.8997 92.24 17.4197 94.12 17.5797 96C17.7397 97.88 17.5797 100.24 17.9397 102.32C18.4197 110.72 18.9797 119.08 19.4197 127.44C19.4197 128.84 19.8197 129.68 19.7797 130.72H18.4597C17.9477 130.759 17.4383 130.617 17.0197 130.32C16.7378 129.965 16.5705 129.532 16.5397 129.08C15.195 120.511 14.3668 111.869 14.0597 103.2Z" fill="#EB924D"/>
<path d="M1010.9 725.2C685.748 749.721 359.211 749.721 34.0597 725.2C27.8131 724.738 21.9947 721.852 17.8468 717.159C13.699 712.465 11.5503 706.336 11.8597 700.08C11.8597 697.2 11.8597 694.32 11.8597 691.44C11.7716 689.023 11.8652 686.603 12.1397 684.2C12.1397 683.36 12.6997 682.68 12.8197 681.84C13.2197 679.04 13.3797 676.2 13.6197 673.4C14.1397 667.76 14.6997 662.12 15.2197 656.48V654.96C15.2198 654.064 15.4842 653.187 15.9797 652.44C16.507 651.835 17.2038 651.403 17.9797 651.2C27.283 647.425 37.22 645.457 47.2597 645.4C57.8989 645.276 68.5143 644.366 79.0197 642.68L91.9797 640.88H95.6197C96.3117 640.94 97.0077 640.94 97.6997 640.88C76.0597 645.56 54.0997 648.44 32.2197 651.84C29.3271 652.112 26.5009 652.869 23.8597 654.08L23.2597 654.44C21.7098 655.224 20.3878 656.394 19.4211 657.837C18.4543 659.281 17.8753 660.948 17.7397 662.68C17.7397 664.28 17.3797 665.88 17.2997 667.52C17.0862 669.078 17.2192 670.664 17.6894 672.164C18.1596 673.664 18.9553 675.043 20.0197 676.2C21.5373 677.388 23.2785 678.259 25.1397 678.76C37.0759 682.563 49.4953 684.638 62.0197 684.92L31.7397 684.68C28.6597 684.68 25.5397 684.48 22.4597 684.68C20.4197 684.68 16.6997 684.68 15.2197 686.36C14.6365 687.016 14.2852 687.845 14.2197 688.72C14.1672 693.369 14.3943 698.018 14.8997 702.64C14.6563 705.421 14.9 708.223 15.6197 710.92C16.6894 713.423 18.333 715.64 20.4175 717.391C22.5021 719.142 24.9692 720.378 27.6197 721C30.2486 721.679 32.9218 722.174 35.6197 722.48L39.6197 722.92L41.6197 723.2C42.2407 723.319 42.8686 723.399 43.4997 723.44C43.8327 723.418 44.1667 723.418 44.4997 723.44C45.4997 723.44 46.5397 723.44 47.5797 723.44H52.0597C57.4997 723.44 62.9397 723.44 68.4197 723.44C71.1397 723.44 73.8197 723.8 76.4197 724.16C77.0117 724.286 77.6146 724.353 78.2197 724.36C78.5794 724.379 78.94 724.379 79.2997 724.36H80.1797C82.6858 724.598 85.172 725.012 87.6197 725.6C89.1485 726.041 90.7709 726.041 92.2997 725.6C93.4762 724.975 94.4969 724.093 95.2863 723.02C96.0757 721.946 96.6134 720.709 96.8597 719.4C97.2972 716.786 98.0077 714.225 98.9797 711.76C99.1593 714.557 99.1593 717.363 98.9797 720.16C98.8946 721.569 99.1693 722.976 99.7781 724.25C100.387 725.524 101.31 726.621 102.46 727.44C103.98 728.115 105.639 728.416 107.3 728.32H115.58C117.379 728.23 119.17 728.016 120.94 727.68C123.614 727.588 126.291 727.735 128.94 728.12L137.38 728.68C148.7 729.48 160.02 730.16 171.3 730.84C174.34 730.84 177.42 731.36 180.46 731.36C208.646 732.907 236.86 734.133 265.1 735.04C273.58 735.28 282.14 735.04 290.58 735.76C291.622 735.888 292.652 736.102 293.66 736.4C296.173 736.714 298.722 736.268 300.98 735.12C306.246 733.051 310.753 729.422 313.9 724.72C316.66 733.88 326.74 738.84 336.22 739.8C345.7 740.76 355.26 738.76 364.82 739.12C367.58 739.12 370.26 739.12 372.82 739.12C374.62 739.12 376.5 739.88 378.38 740.04C382.422 740.428 386.502 740.007 390.38 738.8C390.86 730.8 391.38 722.8 391.9 714.8C392.429 722.624 393.77 730.373 395.9 737.92C396.112 739.185 396.746 740.341 397.7 741.2C398.839 741.848 400.166 742.088 401.46 741.88L435.82 740.36C435.973 736.439 436.784 732.572 438.22 728.92C439.326 733.83 441.762 738.341 445.26 741.96C447.108 736.106 450.084 730.671 454.02 725.96C455.02 731.36 456.82 737.72 462.02 739.4C464.558 739.999 467.201 739.999 469.74 739.4C475.259 738.553 480.835 738.125 486.42 738.12C488.485 738.222 490.555 738.061 492.58 737.64C495.119 737.36 497.681 737.36 500.22 737.64H512.74C529.753 737.64 546.766 737.64 563.78 737.64H578.06H585.18C602.193 737.64 619.193 737.813 636.18 738.16C653.166 738.507 670.166 738.8 687.18 739.04L712.66 739.6L725.42 739.92C728.475 740.17 731.55 739.872 734.5 739.04C735.797 738.616 737.139 738.347 738.5 738.24C741.3 738 744.06 737.88 746.86 737.72C747.747 737.759 748.635 737.679 749.5 737.48C750.599 736.938 751.796 736.625 753.02 736.56C753.871 736.575 754.719 736.467 755.54 736.24C757.201 735.779 758.771 735.035 760.18 734.04C763.202 731.893 765.896 729.32 768.18 726.4C770.355 729.249 772.749 731.924 775.34 734.4C775.778 734.865 776.31 735.233 776.9 735.48C779.14 736.08 780.42 732.84 782.46 731.76C783.113 732.728 783.995 733.519 785.028 734.064C786.061 734.608 787.212 734.888 788.38 734.88C790.714 734.823 793.028 734.446 795.26 733.76C801.892 732.235 808.728 731.803 815.5 732.48L817.98 728.48C819.14 732.16 823.82 733.16 827.7 733.16C830.375 733.161 833.047 732.987 835.7 732.64C837.952 732.102 840.265 731.86 842.58 731.92C847.366 732.273 852.174 732.166 856.94 731.6C868.22 730.88 879.5 730.12 890.78 729.32C902.06 728.52 913.34 727.693 924.62 726.84C935.62 725.96 946.62 725.08 957.58 724.12C960.1 723.88 962.7 723.92 965.26 723.8C973.66 723.48 982.06 723.12 990.46 722.52C994.46 722.2 998.86 721.84 1003.02 721.4C1005.1 721.16 1007.22 721 1009.3 720.64C1009.91 720.476 1010.51 720.275 1011.1 720.04C1014.95 719.739 1018.66 718.443 1021.86 716.28C1023.92 714.328 1025.32 711.783 1025.86 709C1026.14 707.586 1026.34 706.157 1026.46 704.72C1026.78 702.065 1026.97 699.394 1027.02 696.72C1027.02 686.68 1026.82 676.72 1026.74 666.6C1026.74 665.6 1026.74 664.6 1026.74 663.64C1026.75 659.485 1026.53 655.332 1026.1 651.2C1025.69 649.346 1025.47 647.457 1025.42 645.56C1025.42 645.04 1025.42 644.48 1025.62 643.96C1025.56 641.703 1024.66 639.55 1023.1 637.92C1022.1 636.92 1020.98 636 1019.9 635.04C1019.1 634.326 1018.2 633.745 1017.22 633.32C1015.19 632.471 1013.07 631.841 1010.9 631.44L995.66 627.8C994.328 627.575 993.068 627.04 991.98 626.24C993.78 626 994.26 625.32 995.98 625.28H997.14C1004.18 626.56 1011.26 627.92 1018.34 629.28C1020.96 629.65 1023.46 630.637 1025.62 632.16C1026.7 633.041 1027.57 634.147 1028.18 635.4C1029.17 637.487 1029.78 639.737 1029.98 642.04C1030.66 647.76 1029.74 653.4 1030.38 659.08C1030.74 662 1030.94 664.88 1031.06 667.84C1031.34 673.48 1031.58 679.16 1031.86 684.8L1032.98 700.08C1033.29 706.317 1031.16 712.429 1027.04 717.119C1022.91 721.809 1017.12 724.708 1010.9 725.2Z" fill="#EB924D"/>
<path d="M436.22 69.2399C487.1 71.5999 538.1 73.9599 588.7 79.7999C630.62 84.6799 672.42 91.7999 714.62 92.2399C619.34 98.3199 531.66 72.0799 436.22 69.2399ZM637.78 188.4C634.66 188.4 631.5 188.16 628.42 188.08C611.58 187.64 594.74 187.84 577.94 188.56C561.14 189.28 544.34 190.52 527.62 192.16C519.22 192.96 510.86 193.88 502.5 194.84L489.94 196.4L483.66 197.2C482.14 197.2 480.62 197.2 479.14 197.2C477.151 197.581 475.197 198.13 473.3 198.84L467.26 200.6L455.26 204C447.26 206.2 439.06 208.28 430.9 210.12C424.1 211.64 417.3 213 410.42 214.12C394.071 217.02 377.56 218.917 360.98 219.8C352.687 220.2 344.407 220.36 336.14 220.28C334.249 220.14 332.351 220.14 330.46 220.28L319.42 221.88L306.9 223.68C305.34 223.92 304.1 224.6 302.62 224.92C301.14 225.24 298.62 225.56 296.54 225.76C288.54 226.52 280.3 226 272.18 226.28C249.78 227 228.18 233.56 205.9 236.92C189.304 239.153 172.6 240.488 155.86 240.92L161.46 240.72C178.34 240.053 195.22 239.133 212.1 237.96C228.98 236.787 245.833 235.373 262.66 233.72L287.9 231.08C292.7 230.52 297.54 230.32 302.38 230.04C312.54 229.4 322.7 228.587 332.86 227.6C353.22 225.6 373.58 222.92 393.82 219.92C474.9 208.08 555.58 190.48 637.78 188.4ZM323.14 487.32C341.561 493.319 360.602 497.21 379.9 498.92C389.66 500.04 399.38 501 409.14 502.16C411.62 502.48 414.14 502.88 416.62 503.16C419.1 503.44 420.62 503.48 422.26 503.72C422.845 503.832 423.421 503.993 423.98 504.2C425.699 504.514 427.436 504.728 429.18 504.84C432.9 505.44 436.5 506.52 440.14 507.48C444.687 508.937 449.447 509.613 454.22 509.48C457.677 509.031 461.108 508.404 464.5 507.6C468.468 506.976 472.485 506.722 476.5 506.84C484.739 507.005 492.945 507.915 501.02 509.56C504.66 510.24 508.3 511.12 511.86 512.08C515.42 513.04 519.62 514.36 523.5 515.56C525.956 516.254 528.522 516.471 531.06 516.2C534.557 516.226 538.043 516.614 541.46 517.36L553.46 519.04C569.46 521.16 585.7 522.64 601.86 523.6C618.02 524.56 634.42 525 650.7 524.96C666.98 524.92 682.94 524.4 699.06 523.44C705.18 523.08 711.26 522.48 717.38 522.2C696.554 523.114 675.689 522.566 654.94 520.56C644.46 519.64 633.98 518.44 623.5 517.16C621.701 516.833 619.884 516.605 618.06 516.48C617.767 516.458 617.473 516.458 617.18 516.48C616.351 516.654 615.507 516.748 614.66 516.76C607.167 516.973 599.687 516.893 592.22 516.52C551.86 514.56 512.22 504.52 471.78 503.2C464.38 502.92 456.98 503.2 449.58 503.52C444.581 503.688 439.578 503.312 434.66 502.4C429.66 501.48 424.74 500.4 419.74 499.52C412.14 498.2 404.42 497.84 396.74 497.24C388.42 496.52 380.14 495.76 371.86 494.8C363.58 493.84 355.3 492.8 347.06 491.52C338.82 490.24 331.1 488.96 323.14 487.32ZM540.66 420.08L550.94 419.84C553.611 419.698 556.289 419.806 558.94 420.16C559.868 420.298 560.812 420.298 561.74 420.16C563.837 420.082 565.936 420.283 567.98 420.76C568.881 420.9 569.799 420.9 570.7 420.76C573.855 420.8 577.005 421.001 580.14 421.36C583.5 421.56 586.82 421.8 590.14 422.08C597.1 422.6 604.06 423.2 610.98 423.84C666.26 428.96 721.82 436.56 777.42 432.08L582.94 418.8C586.272 418.533 589.561 417.876 592.74 416.84C596.06 416.16 599.42 415.44 602.74 414.68L612.22 412.48C613.98 412.04 615.9 411.76 617.58 411.2C618.73 410.731 619.852 410.197 620.94 409.6C623.18 408.52 625.42 407.52 627.7 406.56C632.26 404.68 636.94 403.04 641.62 401.56C651.098 398.692 660.76 396.473 670.54 394.92C680.46 393.32 690.54 392.28 700.38 391.48C710.22 390.68 720.38 390.12 730.54 389.56C735.62 389.28 740.74 389 745.82 388.64C747.565 388.653 749.299 388.355 750.94 387.76C752.14 387.28 753.22 386.56 754.42 386C756.733 385.103 759.18 384.602 761.66 384.52L780.38 382.96C791.243 381.768 802.181 381.394 813.1 381.84C823.42 382.52 833.62 384.64 843.94 385.12C855.995 385.331 868.044 384.447 879.94 382.48C855.874 380.048 831.683 379.073 807.5 379.56C795.18 379.8 782.9 380.4 770.62 381C759.86 381.56 749.14 382.08 738.38 382.8C727.62 383.52 716.82 384.44 706.06 385.72C695.3 387 684.7 388.6 674.06 390.8C668.78 391.88 663.54 393.08 658.3 394.48L653.82 395.8C653.205 396.032 652.557 396.167 651.9 396.2C651.297 396.271 650.705 396.418 650.14 396.64C644.94 398.4 639.66 399.84 634.14 401.08C628.62 402.32 623.5 403.44 618.14 404.52L615.9 404.96L599.22 408.36L582.54 411.72L574.18 413.44L570.18 414.28C569.607 414.438 569.015 414.519 568.42 414.52C567.02 414.52 565.74 415.12 564.42 415C562.04 414.907 559.659 415.135 557.34 415.68L548.98 416.84C543.42 417.64 537.86 418.36 532.26 418.96C521.121 420.278 509.916 420.959 498.7 421L540.66 420.08ZM379.5 624.48C372.86 625.08 366.06 625 359.5 624.96C352.94 624.92 345.58 624.64 338.58 624.2C324.62 623.32 310.58 621.8 296.82 619.96C289.86 619.04 282.9 618.08 275.98 617.04C272.66 616.56 269.34 616.12 266.06 615.56C265.526 615.488 265.002 615.354 264.5 615.16C262.295 614.719 260.025 614.719 257.82 615.16C249.126 616.075 240.347 615.766 231.74 614.24C227.196 612.977 222.59 611.949 217.94 611.16C213.62 610.64 209.22 611.16 204.9 610.48C201.332 609.889 197.805 609.075 194.34 608.04C170.1 601.8 144.5 603.72 119.9 608.24C156.86 603.84 194.02 611.56 230.78 617.2C237.26 618.16 243.74 619.12 250.26 619.64C255.54 620.04 260.82 620.2 266.06 620.96C271.3 621.72 276.58 623.12 282.06 624.04C284.704 624.502 287.377 624.782 290.06 624.88C291.392 624.96 292.728 624.96 294.06 624.88C295.183 624.867 296.306 624.934 297.42 625.08C308.66 625.8 319.86 626.24 331.1 626.4C342.34 626.56 353.1 626.4 364.06 625.76C368.98 625.32 374.26 624.96 379.5 624.48ZM918.54 647.68C868.887 650.16 819.193 651.107 769.46 650.52C815.82 662.28 871.42 656.08 918.54 647.68Z" fill="#EB924D"/>
<path d="M436.46 65.7999C487.38 68.0799 538.34 70.4799 588.98 76.3599C630.9 81.1999 672.7 88.3599 714.9 88.7599C619.58 94.8399 531.9 68.4799 436.46 65.7999ZM638.02 184.96H635.46C618.58 184.32 601.7 184.36 584.78 184.96C567.86 185.56 551.1 186.68 534.26 188.2C532.662 188.317 531.08 188.599 529.54 189.04C527.909 189.372 526.238 189.467 524.58 189.32C520.47 189.38 516.369 189.7 512.3 190.28C504.3 191.36 496.3 193.12 488.3 194.28C467.719 197.073 446.939 198.13 426.18 197.44L449.74 200.56C439.711 204.838 429.17 207.796 418.38 209.36C407.06 211.4 395.74 213.36 384.34 214.76C367.753 217.053 351.087 218.827 334.34 220.08C325.967 220.72 317.607 221.213 309.26 221.56L302.94 221.84C301.42 221.84 300.1 221.6 298.62 221.52C295.5 221.52 292.5 222.52 289.42 222.36C288.607 222.317 287.793 222.317 286.98 222.36C284.22 222.36 281.38 222.96 278.62 223.28L261.78 225.2C250.553 226.48 239.327 227.813 228.1 229.2C205.673 231.867 183.247 234.68 160.82 237.64C138.393 240.6 115.993 243.653 93.6199 246.8L90.9399 247.2C142.62 243.2 194.38 239.52 245.54 231.4C258.54 228.798 271.73 227.259 284.98 226.8C290.3 226.8 295.62 227.24 300.98 226.8C303.267 226.389 305.579 226.135 307.9 226.04C310.204 226.199 312.516 226.199 314.82 226.04C325.7 225.213 336.58 224.173 347.46 222.92C369.3 220.48 391.06 217.32 412.78 213.92C434.5 210.52 456.38 206.8 478.18 203.24C499.98 199.68 521.54 196.08 543.38 193.12C565.22 190.16 586.82 187.8 608.66 186.32C618.46 185.68 628.22 185.2 638.02 184.96ZM717.7 518.72C701.572 519.567 685.406 519.393 669.3 518.2C657.1 517.64 645.1 515.04 632.94 514.64C620.78 514.24 608.66 515.16 596.5 514.64C568.22 513.48 540.5 505.16 512.5 502.64C504.86 501.92 497.22 501.68 489.58 501.4L469.78 500.68L464.42 500.44C460.4 500.274 456.393 499.873 452.42 499.24C450.26 498.84 448.1 498.12 445.94 497.88C435.74 496.72 425.5 495.96 415.26 495.28C405.02 494.6 394.5 493.76 384.14 492.76C373.78 491.76 363.46 490.52 353.14 489.04C347.78 488.28 342.46 487.44 337.14 486.48C334.66 486.08 332.22 485.6 329.74 485.16C327.597 484.953 325.471 484.592 323.38 484.08C359.38 496.88 398.3 495.76 435.38 502.8C438.68 503.176 441.911 504.011 444.98 505.28C446.058 505.88 447.238 506.273 448.46 506.44C452.656 506.7 456.864 506.7 461.06 506.44C469.5 506.44 477.94 505.64 486.38 505.64C493.363 506.096 500.302 507.073 507.14 508.56C513.42 509.52 519.74 510.28 526.06 510.88C529.772 511.037 533.452 511.641 537.02 512.68C538.434 513.243 539.912 513.633 541.42 513.84C543.38 514.04 545.42 514.44 547.38 514.72C555.38 515.88 563.38 516.84 571.38 517.68C587.593 519.36 603.847 520.467 620.14 521C636.433 521.533 652.727 521.627 669.02 521.28C685.02 520.88 701.02 520.04 717.02 518.76L717.7 518.72ZM623.22 406L628.02 404.44C636.02 401.8 644.58 399.96 652.9 397.88C657.46 396.76 661.82 395.2 666.42 394.28C674.214 392.55 682.091 391.215 690.02 390.28C691.244 390.16 692.476 390.16 693.7 390.28C697.083 390.387 700.464 390.01 703.74 389.16C711.928 387.835 720.179 386.927 728.46 386.44L733.9 386.2C734.857 386.1 735.823 386.1 736.78 386.2C737.537 386.299 738.303 386.299 739.06 386.2C740.581 386.051 742.083 385.743 743.54 385.28C746.169 384.572 748.841 384.037 751.54 383.68C752.575 383.59 753.596 383.376 754.58 383.04C755.716 382.653 756.901 382.424 758.1 382.36C763.54 381.64 768.94 380.96 774.38 380.64C782.38 380.2 790.38 379.88 798.38 379.68C806.249 379.36 814.13 379.52 821.98 380.16C824.22 380.16 826.5 380.64 828.74 380.96C839.285 383.066 849.99 384.271 860.74 384.56C863.42 384.56 865.98 384.04 868.74 383.8C870.363 383.839 871.981 383.999 873.58 384.28C878.022 384.447 882.469 384.353 886.9 384L906.9 383.36L948.5 381.92L863.06 378.88C834.5 377.88 805.9 376.88 777.34 378C771.527 378.24 765.767 378.56 760.06 378.96C737.9 380.48 716.06 383.2 693.98 386.96C683.02 388.747 672.1 390.747 661.22 392.96L657.22 393.88C656.889 393.938 656.551 393.938 656.22 393.88C655.621 393.974 655.032 394.122 654.46 394.32L650.46 395.4C647.54 396.2 644.62 397.08 641.62 397.68C636.38 398.72 631.06 399.32 625.82 400.28C620.58 401.24 616.42 402.28 611.78 403.52C607.14 404.76 601.38 406.36 596.18 407.52C593.58 408.16 590.94 408.76 588.18 409.24L584.18 409.96C583.623 410.039 583.057 410.039 582.5 409.96C580.953 409.941 579.41 410.103 577.9 410.44C572.5 411.12 567.06 411.72 561.62 412.12C556.18 412.52 550.7 412.84 545.22 412.96H539.06C538.581 412.919 538.099 412.919 537.62 412.96C537.3 412.96 537.02 413.16 536.7 413.2L533.5 413.56L525.06 414.6C524.034 414.709 523.018 414.896 522.02 415.16C519.886 415.639 517.721 415.96 515.54 416.12L501.06 418.24L477.74 421.44C492.591 422.62 507.518 422.459 522.34 420.96C528.66 420.08 534.94 418.76 541.22 417.68C545.677 416.862 550.178 416.301 554.7 416C564.661 415.707 574.628 416.376 584.46 418L609.58 421.28C612.373 421.76 615.227 421.76 618.02 421.28C621.502 420.934 625.015 421.068 628.46 421.68C645.34 423.36 662.22 425.08 679.1 426.52C695.98 427.96 712.82 429.08 729.74 429.48C737.74 429.48 745.74 429.48 753.74 429.48C757.74 429.48 761.74 429.24 765.74 429.04C769.74 428.84 773.74 428.28 777.74 428.28L583.26 415C586.593 414.741 589.884 414.083 593.06 413.04C595.7 412.48 598.34 411.8 601.06 411.36C601.511 411.3 601.969 411.3 602.42 411.36C603.244 411.46 604.076 411.46 604.9 411.36C607.5 410.8 610.1 409.96 612.62 409.2C616.22 408.36 619.74 407.16 623.22 406ZM379.78 621.04C371.26 621.52 362.74 621.6 354.22 621.44C348.58 621.44 342.94 621.04 337.34 620.68L328.98 620.08C326.295 619.991 323.62 619.697 320.98 619.2C318.337 618.707 315.665 618.386 312.98 618.24L304.54 617.28L287.66 615.36C295.18 610.6 304.38 609.72 313.22 608.56C327.684 606.687 341.99 603.746 356.02 599.76C332.02 601.333 308.02 604.08 284.02 608C277.54 609.08 271.02 610.24 264.46 610.84C263.105 610.91 261.762 611.138 260.46 611.52C258.211 611.993 255.9 612.088 253.62 611.8C248.06 611.8 242.54 611.48 236.98 611.24C225.9 610.72 214.86 609.92 203.86 608.4C200.34 607.88 196.86 607.32 193.38 606.68C186.54 605.36 179.74 603.72 172.82 602.96C159.182 601.974 145.474 602.916 132.1 605.76H151.38C159.74 605.76 168.1 605.76 176.42 606.4C181.98 606.84 187.5 607.64 192.98 608.6C198.46 609.56 203.66 610.84 208.98 611.68C219.74 613.28 230.5 614.8 241.3 616.16C252.1 617.52 263.02 618.72 273.9 619.76C284.78 620.8 295.58 621.56 306.42 622.12C317.26 622.68 327.86 623 338.42 622.96C348.98 622.92 359.42 622.64 369.9 621.96C372.98 621.6 376.42 621.24 379.78 621.04ZM918.82 644.08C869.14 646.56 819.433 647.507 769.7 646.92C816.06 658.84 871.66 652.44 918.82 644.08Z" fill="url(#paint5_linear_967_1449)"/>
</g>
<defs>
<linearGradient id="paint0_linear_967_1449" x1="740.423" y1="-940.054" x2="256.771" y2="-292.903" gradientUnits="userSpaceOnUse">
<stop stop-color="#CF5C2B"/>
<stop offset="1" stop-color="#59173E"/>
</linearGradient>
<linearGradient id="paint1_linear_967_1449" x1="748.82" y1="-135.72" x2="91.1398" y2="1341.04" gradientUnits="userSpaceOnUse">
<stop stop-color="#CF5C2B"/>
<stop offset="1" stop-color="#59173E"/>
</linearGradient>
<linearGradient id="paint2_linear_967_1449" x1="703.62" y1="-47.12" x2="45.8998" y2="1429.64" gradientUnits="userSpaceOnUse">
<stop stop-color="#CF5C2B"/>
<stop offset="1" stop-color="#59173E"/>
</linearGradient>
<linearGradient id="paint3_linear_967_1449" x1="872.26" y1="-495.96" x2="340.34" y2="926.04" gradientUnits="userSpaceOnUse">
<stop stop-color="#CF5C2B"/>
<stop offset="1" stop-color="#59173E"/>
</linearGradient>
<linearGradient id="paint4_linear_967_1449" x1="762.74" y1="-206.48" x2="230.82" y2="1215.52" gradientUnits="userSpaceOnUse">
<stop stop-color="#CF5C2B"/>
<stop offset="1" stop-color="#59173E"/>
</linearGradient>
<linearGradient id="paint5_linear_967_1449" x1="1007.22" y1="-842.56" x2="472.42" y2="528.56" gradientUnits="userSpaceOnUse">
<stop stop-color="#CF5C2B"/>
<stop offset="1" stop-color="#59173E"/>
</linearGradient>
<clipPath id="clip0_967_1449">
<rect width="1032.04" height="759.84" fill="white" transform="translate(0.97998 0.0799561)"/>
</clipPath>
</defs>
</svg>
