<svg width="199" height="204" viewBox="0 0 199 204" fill="none" xmlns="http://www.w3.org/2000/svg">
<g filter="url(#filter0_d_967_1480)">
<path d="M181.08 36.5411C180.589 30.3371 177.851 24.5279 173.382 20.21C168.914 15.8922 163.024 13.3645 156.824 13.1039C120.742 11.6603 84.8091 11.6462 49.024 13.0615C46.4286 13.1669 43.8652 13.6754 41.4253 14.5688C40.2325 15.0348 39.0788 15.5956 37.9752 16.2459C32.6237 19.5495 28.3384 24.3341 25.6352 30.0237C22.5549 35.1824 20.4054 40.8452 19.2853 46.7524C18.735 51.0904 18.4382 55.4569 18.3963 59.8297C18.3963 63.6085 17.5285 68.0879 19.0102 71.6544C19.4335 72.6608 20.0042 73.5981 20.7035 74.4355C20.894 74.6477 22.8201 76.707 23.0953 76.5584C21.3808 78.193 18.6503 78.8087 17.5285 80.9104C16.4067 83.0121 17.1264 86.8121 17.2534 89.4021C17.465 93.924 16.8724 99.4224 18.5233 103.668C18.8166 104.451 19.2664 105.166 19.8451 105.768C20.4239 106.371 21.1193 106.848 21.8888 107.171C20.809 108.036 19.9244 109.121 19.2932 110.354C18.662 111.588 18.2986 112.941 18.227 114.325C17.6418 118.88 17.5212 123.482 17.8672 128.061C18.0788 131.903 17.6555 136.552 19.1583 140.204C19.5511 141.265 20.2301 142.197 21.1196 142.894C22.009 143.591 23.074 144.027 24.1959 144.153C22.4361 144.404 20.8268 145.286 19.6663 146.636C18.2482 148.759 18.5022 153.366 18.7138 155.85C19.2132 162.862 22.0887 169.491 26.8629 174.638C29.7575 177.568 33.3158 179.754 37.2343 181.007C39.2759 181.737 41.418 182.145 43.5842 182.217C80.0523 184.472 116.622 184.543 153.099 182.429H153.543C157.744 182.093 161.799 180.729 165.352 178.456C168.906 176.184 171.85 173.072 173.926 169.394C176.074 165.047 177.647 160.436 178.604 155.68C178.921 154.364 179.239 153.048 179.493 151.71C180.318 147.592 182.075 140.374 179.98 136.404C179.817 136.041 179.557 135.731 179.227 135.51C178.898 135.288 178.513 135.164 178.117 135.151C178.636 135.069 179.125 134.854 179.537 134.527C179.948 134.2 180.269 133.771 180.467 133.283C181.18 130.997 181.516 128.609 181.461 126.214C181.842 121.777 181.991 117.34 182.16 112.903C182.35 107.022 182.499 101.121 182.604 95.2402C182.71 89.3597 182.604 83.6702 182.604 77.8958C182.886 71.6225 182.723 65.3369 182.118 59.0867C181.913 57.8175 181.468 56.5995 180.805 55.4989C180.467 54.9469 179.98 54.3737 179.324 54.395C180.294 52.9854 180.957 51.3869 181.271 49.7033C181.758 45.3252 181.694 40.9032 181.08 36.5411Z" fill="url(#paint0_linear_967_1480)"/>
<path d="M182.753 66.0923C182.753 70.5929 182.753 75.0723 182.753 79.5729C182.753 81.6959 182.753 83.8188 182.753 86.0479C182.753 87.2155 182.753 88.3619 182.753 89.5295C182.753 95.6435 182.604 101.758 182.435 107.872C182.435 110.907 182.287 113.943 182.16 116.979C182.217 118.742 182.002 120.504 181.525 122.201C181.02 124.238 180.736 126.324 180.678 128.422C180.665 129.067 180.434 129.688 180.022 130.184C179.547 130.56 178.955 130.756 178.35 130.736L175.344 131.054C165.305 132.401 155.15 132.657 145.055 131.818L154.834 133.283L177.546 136.68C178.156 136.726 178.741 136.939 179.239 137.295C179.502 137.65 179.688 138.057 179.783 138.489C179.877 138.921 179.88 139.368 179.789 139.801C179.723 141.145 179.581 142.484 179.366 143.813C179.006 146.467 178.498 149.099 178.392 151.795C178.424 152.347 178.424 152.899 178.392 153.451C177.91 155.162 177.066 156.748 175.916 158.1C173.717 161.169 170.869 163.712 167.576 165.547C164.283 167.382 160.625 168.464 156.866 168.715C120.954 170.808 84.9488 170.737 49.045 168.503C43.6027 168.181 38.4079 166.112 34.2286 162.601C31.6513 160.499 29.5392 157.882 28.0269 154.916C27.3919 153.557 27.2226 152.05 26.6088 150.67C26.4738 150.382 26.3606 150.084 26.2701 149.778C26.1208 149.342 26.1034 148.872 26.2202 148.426C26.3369 147.98 26.5826 147.579 26.9263 147.273C27.8385 146.707 28.9037 146.44 29.9742 146.509C41.8697 146.106 53.7651 145.363 65.6606 145.023C69.407 145.023 73.1746 144.853 76.921 144.853C75.5876 144.641 74.2541 144.471 72.8994 144.322C66.7612 143.579 60.5595 143.346 54.3789 143.112H54.1038C46.66 142.972 39.2314 142.383 31.858 141.35C30.4384 141.161 29.0503 140.783 27.7306 140.225C26.792 139.819 25.9802 139.166 25.3811 138.336L25.2753 138.102C24.4239 136.643 24.1023 134.932 24.3651 133.262C24.5772 131.513 24.5772 129.746 24.3651 127.997C24.1958 124.834 24.0265 121.628 23.8783 118.486C23.7725 116.745 23.6878 115.026 23.6031 113.285C23.4381 112.331 23.6263 111.35 24.1323 110.525C24.7189 109.986 25.459 109.645 26.2489 109.549C28.5772 108.954 30.9055 108.381 33.2761 108.02C34.326 107.83 35.3862 107.703 36.4511 107.638L28.2809 105.791C27.4519 105.639 26.6473 105.375 25.8891 105.006L25.2753 104.708C24.7085 104.257 24.2465 103.686 23.9212 103.038C23.5959 102.389 23.4152 101.677 23.3915 100.951C23.3915 100.463 23.2645 99.9743 23.1798 99.4861C22.9893 98.3609 22.8412 97.2357 22.7353 96.0894C22.5448 94.3486 22.4602 92.6077 22.3755 90.8882C22.2062 87.0881 22.0157 82.2054 24.4921 79.021C24.9916 78.5189 25.5857 78.1214 26.2398 77.8517C26.8939 77.582 27.5949 77.4455 28.3021 77.45C34.9906 76.6433 41.6862 75.971 48.3889 75.4332C54.0332 74.9945 59.6776 74.6407 65.3219 74.3718C54.2786 74.8356 43.216 74.3313 32.2602 72.8645C30.4166 72.6861 28.6147 72.2056 26.9263 71.4421H26.7993C26.3691 71.2433 25.9641 70.9939 25.5928 70.6991C24.7432 70.027 24.098 69.1298 23.7301 68.1091C23.4652 67.1146 23.4652 66.0678 23.7301 65.0733C23.7513 64.6773 23.7513 64.2805 23.7301 63.8845C23.7301 61.4856 23.7301 59.0442 23.8995 56.6453C23.8995 55.414 23.8995 54.1827 24.0476 52.9514C24.217 47.5733 24.4639 42.2164 24.7885 36.8808C25.1946 30.6159 27.8928 24.7221 32.3655 20.3301C36.8382 15.9381 42.7704 13.3572 49.0239 13.0827C84.7949 11.6674 120.728 11.6674 156.824 13.0827C162.521 13.3497 167.965 15.5194 172.292 19.2469C176.618 22.9743 179.577 28.0455 180.699 33.6539C181.453 37.2306 181.532 40.9174 180.932 44.5233C180.777 45.415 180.536 46.2895 180.213 47.1345C180.016 47.8055 179.692 48.4325 179.26 48.9815C178.921 49.1443 178.555 49.245 178.181 49.2787C176.064 49.7882 173.947 50.234 171.831 50.6161C167.597 51.3804 163.364 51.9111 158.962 52.2933C150.305 53.0575 141.605 53.1849 132.927 53.3335H132.673L139.806 53.7581L172.042 55.6475C174.651 55.6015 177.233 56.1763 179.578 57.3246C182.626 59.3414 182.795 62.823 182.753 66.0923Z" fill="url(#paint1_linear_967_1480)"/>
<path d="M182.753 66.0923C182.753 70.5929 182.753 75.0723 182.753 79.573C182.753 81.6959 182.753 83.8188 182.753 86.0479C182.753 87.2155 182.753 88.3619 182.753 89.5295C166.201 90.6122 149.627 92.0558 133.012 93.0748C113.687 94.2636 94.3411 95.5586 75.0163 96.7899C64.6025 97.448 54.2733 98.2548 43.9018 99.4224C37.1848 100.515 30.3866 101.026 23.5822 100.951C23.5822 100.463 23.4552 99.9743 23.3705 99.4861C23.18 98.3609 23.0319 97.2358 22.926 96.0894C29.7839 94.6458 36.6418 94.8793 43.9018 94.6458C53.6383 94.3273 63.2478 93.648 72.942 92.7564C92.288 90.9519 111.634 89.0625 130.959 86.8546C142.473 85.5172 154.009 84.3496 165.545 83.0546H164.402C145.352 82.0568 126.874 78.4478 107.93 76.7495C88.986 75.0511 70.529 73.6075 51.7757 72.5036C44.1982 72.0365 35.4988 72.1639 26.9265 71.5483H26.7995C26.3693 71.3495 25.9643 71.1 25.593 70.8052C24.7434 70.1331 24.0982 69.236 23.7303 68.2153C23.4654 67.2208 23.4654 66.174 23.7303 65.1795C23.7515 64.7835 23.7515 64.3866 23.7303 63.9906C23.7303 61.5917 23.7303 59.1503 23.8997 56.7514C23.8997 55.5201 23.8997 54.2888 24.0478 53.0575C33.5727 52.5268 43.3727 53.1637 51.818 53.2486C70.5714 53.4184 89.2612 54.3313 107.972 55.3715C126.683 56.4118 145.521 56.0296 164.296 56.9213C169.376 57.1548 174.477 57.3458 179.557 57.4732C182.626 59.3414 182.795 62.823 182.753 66.0923ZM120.651 110.143C88.7109 111.672 55.0353 110.249 23.8997 118.486C24.0478 121.649 24.2172 124.855 24.3865 127.997C24.5985 129.746 24.5985 131.513 24.3865 133.262C24.1173 134.93 24.4314 136.64 25.2755 138.102C34.746 140.525 44.3926 142.193 54.1251 143.091H54.4003C60.5385 143.707 66.7191 144.068 72.9208 144.301C88.9225 144.896 105.03 144.535 120.672 144.683C140.23 144.874 159.808 144.471 179.366 143.792C179.581 142.47 179.722 141.138 179.789 139.801C179.866 139.351 179.843 138.889 179.722 138.449C179.602 138.009 179.386 137.601 179.091 137.253C178.593 136.896 178.008 136.683 177.398 136.637L154.686 133.241L144.907 131.776C155.002 132.614 165.157 132.358 175.196 131.012L178.202 130.693C178.807 130.713 179.399 130.518 179.874 130.141C180.286 129.645 180.517 129.024 180.53 128.379C180.588 126.281 180.872 124.196 181.377 122.159C181.854 120.461 182.069 118.7 182.012 116.937C182.139 113.901 182.224 110.865 182.287 107.829C161.756 108.53 141.182 109.167 120.651 110.143Z" fill="url(#paint2_linear_967_1480)"/>
<path d="M25.3811 138.315C24.4322 136.814 24.0634 135.017 24.344 133.262C24.556 131.513 24.556 129.746 24.344 127.997C24.0688 123.093 23.836 118.189 23.582 113.285C23.4169 112.331 23.6051 111.35 24.1111 110.525C24.6977 109.986 25.4379 109.645 26.2278 109.549C28.556 108.954 30.8843 108.381 33.255 108.02C31.9388 109.049 30.5202 109.938 29.0217 110.674C28.452 110.91 27.9342 111.256 27.4977 111.693C27.1145 112.229 26.8608 112.846 26.7569 113.497C25.7639 119.738 25.8069 126.101 26.8839 132.328C27.2014 134.939 27.4977 137.571 27.7306 140.204C26.792 139.798 25.9802 139.145 25.3811 138.315Z" fill="#EB924D"/>
<path d="M23.1588 99.4861C22.7117 96.6398 22.443 93.7682 22.3545 90.8882C22.1852 87.0881 21.9947 82.2054 24.4711 79.021C24.9706 78.5189 25.5647 78.1214 26.2188 77.8517C26.8729 77.582 27.5739 77.4455 28.2811 77.45C34.9696 76.6433 41.6652 75.9711 48.3679 75.4332C42.018 77.5562 34.7156 77.5562 28.5562 80.1886C27.3927 80.576 26.379 81.3182 25.6564 82.3115C25.2685 83.0361 25.0241 83.8291 24.9368 84.6468C24.4976 87.1119 24.3202 89.6168 24.4076 92.1195C24.5064 93.7471 24.6334 95.3817 24.7886 97.0235C25.0426 99.6984 25.4025 102.352 25.8469 105.006L25.2755 104.708C23.5187 103.413 23.561 101.439 23.1588 99.4861Z" fill="#EB924D"/>
<path d="M153.585 132.795L154.411 133.156C154.113 133.096 153.832 132.973 153.585 132.795Z" fill="#EB924D"/>
<path d="M179.789 139.801C179.62 143.855 178.54 147.762 178.392 151.795C178.424 152.347 178.424 152.899 178.392 153.451C177.91 155.162 177.066 156.748 175.916 158.1C173.717 161.169 170.869 163.712 167.576 165.547C164.283 167.382 160.625 168.464 156.866 168.715C120.954 170.808 84.9488 170.737 49.0451 168.503C43.6028 168.181 38.408 166.112 34.2287 162.601C31.6514 160.499 29.5392 157.882 28.0269 154.916C27.3919 153.557 27.2226 152.05 26.6088 150.67C26.4738 150.382 26.3606 150.084 26.2701 149.778C26.1208 149.342 26.1034 148.872 26.2202 148.426C26.337 147.98 26.5826 147.579 26.9263 147.273C27.8385 146.707 28.9038 146.44 29.9742 146.509C41.8697 146.106 53.7651 145.363 65.6606 145.023C55.1994 145.698 44.788 147.002 34.4827 148.929C33.0579 149.101 31.6444 149.356 30.2494 149.693C29.9753 149.702 29.7129 149.807 29.5086 149.991C29.4107 150.139 29.3466 150.307 29.321 150.484C29.2954 150.66 29.3089 150.839 29.3604 151.01C29.5958 152.211 30.1518 153.327 30.969 154.236C33.1647 157.586 36.052 160.424 39.4356 162.558C47.9021 167.059 56.5803 166.401 66.1898 166.167C68.1431 166.187 70.0954 166.066 72.0317 165.806C73.0803 165.7 74.1368 165.7 75.1854 165.806L81.9375 165.998L95.4204 166.38L120.651 167.101C128.664 167.452 136.691 167.367 144.696 166.847C152.637 166.352 160.444 164.559 167.809 161.539C168.442 161.315 169.046 161.015 169.608 160.648C170.01 160.372 170.307 160.011 170.709 159.735C171.937 158.997 173.092 158.144 174.159 157.187C175.024 156.511 175.744 155.666 176.276 154.704C176.487 154.194 176.593 153.6 176.784 153.069C177.29 151.604 177.59 150.074 177.673 148.526C177.764 146.819 177.708 145.107 177.503 143.41C177.547 142.457 177.403 141.504 177.08 140.607C176.732 140.235 176.305 139.945 175.831 139.758C174.768 139.28 173.642 138.958 172.487 138.803C166.374 137.659 160.415 135.806 154.728 133.283L177.44 136.68C178.05 136.726 178.635 136.939 179.133 137.295C179.415 137.642 179.619 138.044 179.733 138.477C179.846 138.909 179.865 139.36 179.789 139.801Z" fill="#EB924D"/>
<path d="M23.8573 68.0879C23.603 66.8169 23.5176 65.5177 23.6033 64.2241C23.7726 57.8553 23.9419 51.6776 24.2806 45.3937C24.5981 39.6406 24.4922 33.569 26.8417 28.2192C28.7741 23.8799 31.8726 20.1656 35.7903 17.4923C39.7079 14.819 44.2902 13.2922 49.024 13.0827C84.795 11.6674 120.728 11.6674 156.824 13.0827C162.521 13.3497 167.965 15.5194 172.292 19.2469C176.618 22.9743 179.577 28.0455 180.699 33.6539C181.454 37.2306 181.533 40.9174 180.932 44.5233C180.777 45.415 180.536 46.2895 180.213 47.1345C180.016 47.8055 179.692 48.4325 179.26 48.9815C178.519 43.2283 179.916 36.902 177.863 31.4885C176.774 28.1201 174.774 25.1213 172.085 22.827C162.856 15.6939 149.31 16.2459 138.261 15.9699C107.824 15.4179 77.3868 14.4414 46.9497 17.2012C45.5527 17.3286 44.1769 16.8191 42.7164 17.0526C39.6783 17.8256 36.9059 19.4103 34.6944 21.6381C31.6625 24.4604 29.3351 27.9583 27.9 31.8494C27.4979 32.9746 27.138 34.121 26.8417 35.2886C23.8996 46.6463 25.1484 59.8084 26.5454 71.3784C25.9091 71.1231 25.3417 70.7209 24.8894 70.2045C24.4371 69.6881 24.1125 69.0721 23.9419 68.4063C23.9419 68.4063 23.8784 68.1728 23.8573 68.0879Z" fill="#EB924D"/>
<path d="M182.753 66.0923C182.753 70.5929 182.753 75.0723 182.753 79.573C182.753 81.6959 182.753 83.8188 182.753 86.0479C182.753 96.3654 182.541 106.683 182.139 116.979C182.196 118.742 181.981 120.504 181.504 122.201C180.999 124.238 180.715 126.324 180.657 128.422C180.644 129.067 180.413 129.688 180.001 130.184C179.526 130.56 178.934 130.756 178.329 130.736L175.323 131.054C175.911 130.642 176.384 130.087 176.699 129.441C177.126 128.418 177.356 127.323 177.376 126.214C178.713 108.039 179.066 89.8042 178.435 71.5907C178.435 69.1918 178.287 66.7717 178.181 64.3728C178.181 63.8208 178.181 63.2901 178.181 62.7593C178.068 62.0349 177.753 61.3575 177.271 60.8062C176.161 59.5951 174.74 58.7137 173.164 58.2587C162.073 54.5223 149.67 57.2397 138.452 53.8642H139.806L172.043 55.7536C174.651 55.7077 177.233 56.2824 179.578 57.4308C182.626 59.2989 182.795 62.8018 182.753 66.0923Z" fill="#EB924D"/>
</g>
<defs>
<filter id="filter0_d_967_1480" x="0.808838" y="0" width="197.965" height="204" filterUnits="userSpaceOnUse" color-interpolation-filters="sRGB">
<feFlood flood-opacity="0" result="BackgroundImageFix"/>
<feColorMatrix in="SourceAlpha" type="matrix" values="0 0 0 0 0 0 0 0 0 0 0 0 0 0 0 0 0 0 127 0" result="hardAlpha"/>
<feOffset dy="4"/>
<feGaussianBlur stdDeviation="8"/>
<feComposite in2="hardAlpha" operator="out"/>
<feColorMatrix type="matrix" values="0 0 0 0 0 0 0 0 0 0 0 0 0 0 0 0 0 0 0.32 0"/>
<feBlend mode="normal" in2="BackgroundImageFix" result="effect1_dropShadow_967_1480"/>
<feBlend mode="normal" in="SourceGraphic" in2="effect1_dropShadow_967_1480" result="shape"/>
</filter>
<linearGradient id="paint0_linear_967_1480" x1="135.728" y1="-200.67" x2="21.7778" y2="-92.3828" gradientUnits="userSpaceOnUse">
<stop stop-color="#CF5C2B"/>
<stop offset="1" stop-color="#59173E"/>
</linearGradient>
<linearGradient id="paint1_linear_967_1480" x1="157.057" y1="-35.0867" x2="-9.48584" y2="348.293" gradientUnits="userSpaceOnUse">
<stop stop-color="#CF5C2B"/>
<stop offset="1" stop-color="#59173E"/>
</linearGradient>
<linearGradient id="paint2_linear_967_1480" x1="138.854" y1="12.3184" x2="-27.7098" y2="395.72" gradientUnits="userSpaceOnUse">
<stop stop-color="#CF5C2B"/>
<stop offset="1" stop-color="#59173E"/>
</linearGradient>
</defs>
</svg>
