<svg width="37" height="41" viewBox="0 0 37 41" fill="none" xmlns="http://www.w3.org/2000/svg">
<g clip-path="url(#clip0_967_6995)">
<path d="M32.0151 39.4C32.3526 39.4123 32.69 39.3718 33.0151 39.28C33.9875 39.0482 34.8329 38.45 35.3751 37.61C37.1051 35.06 36.6051 31.98 36.6851 29.12C36.8651 22.73 37.0451 16.48 36.8451 10.06C36.7651 7.31004 36.9951 4.06004 35.3551 1.72004C34.8173 0.882329 33.9744 0.28694 33.0051 0.0600432C29.2951 0.540043 26.0651 2.36004 22.8751 4.22004C20.9351 5.35004 19.0351 6.49004 17.1251 7.65004C16.4026 7.96987 15.7292 8.39074 15.1251 8.90004C14.5151 9.66004 14.8751 10.66 13.7151 10.9C11.4351 11.4639 9.32736 12.5761 7.57509 14.14C6.45509 15.06 3.09509 17.86 3.57509 19.63C4.63509 23.95 10.4451 26.98 13.6951 29.48C13.8751 29.61 14.0751 29.76 14.2551 29.91C15.6202 30.9604 17.0955 31.859 18.6551 32.59C20.0051 33.25 21.0851 32.92 22.4151 33.25C22.7797 33.3878 23.0747 33.6648 23.2351 34.02C24.2304 35.9291 25.9086 37.3931 27.9351 38.12C29.2135 38.773 30.5928 39.2057 32.0151 39.4Z" fill="url(#paint0_linear_967_6995)"/>
<path d="M29.9351 34.58L29.5651 34.4C28.9144 34.221 28.3098 33.9042 27.7922 33.4712C27.2746 33.0381 26.8561 32.4989 26.5651 31.89L26.5151 31.81C26.3766 31.5896 26.2229 31.3791 26.0551 31.18C25.4073 30.3439 24.511 29.7347 23.4951 29.44C23.4403 29.4174 23.3833 29.4007 23.3251 29.39C22.5823 29.2224 21.8259 29.122 21.0651 29.09C20.8258 29.0988 20.5865 29.0718 20.3551 29.01L20.1651 28.92C18.9543 28.3562 17.8105 27.6585 16.7551 26.84C16.5251 26.65 16.2851 26.47 16.1051 26.33C15.3251 25.73 14.4751 25.16 13.5851 24.54C12.2351 23.61 8.40508 21.63 8.41508 19.85C8.42508 18.07 11.3451 16.42 12.5651 15.56C14.0751 14.49 16.3651 15.15 17.6551 13.92C18.3051 13.29 18.0351 12.42 18.4651 11.77C18.9697 11.2325 19.5788 10.8037 20.2551 10.51C21.7951 9.58004 23.3551 8.67004 24.9051 7.76004L26.5951 6.76004C27.4131 6.2429 28.2576 5.76892 29.1251 5.34004C29.5422 5.07858 30.0191 4.92761 30.5107 4.90137C31.0023 4.87513 31.4925 4.97447 31.9351 5.19004C33.1051 5.91004 32.9351 8.59004 33.1951 9.89004C34.1951 14.72 33.0851 20 32.7951 24.89C32.7151 26.25 32.6251 27.65 32.5751 29.04L32.5751 31.98C32.6351 33.77 32.0251 35.47 29.9351 34.58Z" fill="url(#paint1_linear_967_6995)"/>
<g style="mix-blend-mode:multiply">
<path d="M27.165 9.28004C27.7723 9.75036 28.2562 10.3612 28.575 11.06C28.7462 11.4425 28.8151 11.8629 28.775 12.28C28.7036 12.9284 28.4544 13.5444 28.055 14.06C27.2514 15.1229 26.1725 15.9459 24.935 16.44C24.4731 16.6419 23.9631 16.7078 23.465 16.63C23.0986 16.5456 22.7569 16.3769 22.467 16.1373C22.1771 15.8978 21.947 15.594 21.795 15.25C21.697 15.0291 21.6134 14.8019 21.545 14.57C21.425 14.45 21.305 14.33 21.195 14.2C20.9718 13.9298 20.799 13.6215 20.685 13.29C20.5277 12.9247 20.4625 12.5264 20.495 12.13C20.6608 11.3506 21.079 10.6476 21.685 10.13C22.49 9.3007 23.5124 8.71498 24.635 8.44004C25.093 8.37559 25.5596 8.41787 25.9985 8.56359C26.4373 8.7093 26.8366 8.9545 27.165 9.28004Z" fill="#E8E6E8"/>
</g>
<g style="mix-blend-mode:multiply">
<path d="M21.735 17.8L21.875 17.91C21.875 17.91 21.935 17.91 21.945 17.97L21.945 18.07L22.025 18.21L22.095 18.41L22.165 18.6C22.165 18.66 22.165 18.73 22.085 18.77C22.0213 18.8491 21.9388 18.911 21.845 18.95C21.6112 19.0281 21.3699 19.0817 21.125 19.11C21.035 19.11 20.945 19.11 20.845 19.11C20.772 19.12 20.698 19.12 20.625 19.11C20.5834 19.0977 20.5431 19.0809 20.505 19.06C20.4256 19.0294 20.3487 18.9927 20.275 18.95C20.2252 18.9294 20.1781 18.9025 20.135 18.87C20.1237 18.8558 20.1175 18.8382 20.1175 18.82C20.1175 18.8019 20.1237 18.7842 20.135 18.77L20.135 18.7C20.125 18.5102 20.125 18.3199 20.135 18.13C20.135 17.99 20.295 17.84 20.395 17.77C20.506 17.6559 20.6561 17.588 20.815 17.58C20.9839 17.6066 21.1542 17.6233 21.325 17.63C21.435 17.63 21.545 17.63 21.635 17.7L21.735 17.8Z" fill="#E8E6E8"/>
</g>
<g style="mix-blend-mode:multiply">
<path d="M28.9351 26.72L28.9351 26.78C28.9351 26.78 28.9351 26.78 28.9351 26.83L28.9351 26.89L28.8851 27.38C28.876 27.4671 28.8371 27.5483 28.7751 27.61C28.7026 27.6942 28.6223 27.7713 28.5351 27.84C28.454 27.9022 28.3626 27.9496 28.2651 27.98C28.2651 27.98 28.1151 28.04 28.0751 27.98L27.9351 27.7C27.9351 27.7 27.9351 27.7 27.9351 27.61L27.9351 27.51L27.9351 27.37L28.0551 27.06L28.0551 26.99L28.1551 26.87C28.2187 26.7963 28.2929 26.7323 28.3751 26.68C28.4308 26.6422 28.4913 26.6119 28.5551 26.59C28.5827 26.5752 28.6136 26.5674 28.6451 26.5674C28.6765 26.5674 28.7074 26.5752 28.7351 26.59L28.9351 26.72Z" fill="#E8E6E8"/>
</g>
<g style="mix-blend-mode:multiply">
<path d="M22.5951 25.67C22.8429 25.4908 23.08 25.2971 23.3051 25.09C23.4002 24.9983 23.4903 24.9015 23.5751 24.8C23.6813 24.6257 23.7621 24.4372 23.8151 24.24L23.9351 24.06C23.9351 23.93 23.9351 23.8 23.9351 23.68C23.9351 23.56 23.9351 23.82 23.9351 23.6C23.9772 23.2905 23.9322 22.9754 23.8051 22.69C23.7155 22.3876 23.5463 22.1147 23.3151 21.9C23.2551 21.84 23.2351 21.83 23.2651 21.9C23.193 21.8095 23.1126 21.7258 23.0251 21.65C22.9651 21.6 22.8851 21.56 22.8251 21.51C22.6309 21.3639 22.4149 21.2492 22.1851 21.17C21.8537 21.1191 21.5165 21.1191 21.1851 21.17C21.0488 21.1553 20.9114 21.1553 20.7751 21.17C20.5735 21.2338 20.3913 21.3473 20.2451 21.5C20.2018 21.5649 20.1682 21.6356 20.1451 21.71C20.1013 21.7991 20.0477 21.883 19.9851 21.96L19.8651 22.14C19.7932 22.2767 19.749 22.4262 19.7351 22.58C19.6957 22.7704 19.6422 22.9576 19.5751 23.14C19.4779 23.4901 19.4779 23.86 19.5751 24.21C19.6302 24.4813 19.7391 24.7388 19.8954 24.9672C20.0517 25.1957 20.2522 25.3905 20.4851 25.54C20.6174 25.6068 20.7544 25.6636 20.8951 25.71C21.0183 25.8099 21.1675 25.8724 21.3251 25.89C21.4574 25.8896 21.589 25.9098 21.7151 25.95C21.8731 25.9944 22.0406 25.9916 22.197 25.9418C22.3534 25.8921 22.4918 25.7976 22.5951 25.67Z" fill="#E8E6E8"/>
</g>
<path d="M29.9351 34.58L29.5651 34.4C28.9144 34.221 28.3098 33.9042 27.7922 33.4712C27.2746 33.0381 26.8561 32.4989 26.5651 31.89L26.5151 31.81C26.3766 31.5896 26.2229 31.3791 26.0551 31.18C25.4073 30.3439 24.511 29.7347 23.4951 29.44C23.4403 29.4174 23.3833 29.4007 23.3251 29.39C22.5823 29.2224 21.8259 29.122 21.0651 29.09C20.8258 29.0988 20.5865 29.0718 20.3551 29.01L20.1651 28.92C21.776 28.6715 23.424 28.9597 24.8551 29.74C25.8241 30.5975 26.7236 31.5304 27.5451 32.53C28.4851 33.42 29.9851 34.01 31.0551 33.27C32.5351 32.27 31.4551 28.5 31.5751 26.97C31.6951 25.44 31.8851 24.06 32.0251 22.56C32.1651 21.06 32.3051 19.56 32.3351 18.09C32.3951 14.8 31.5351 11.66 31.6051 8.38004C31.6051 7.68004 31.6051 6.83004 31.0251 6.44004C29.3451 5.34004 28.1251 6.44004 26.6051 6.71004C27.4209 6.21022 28.262 5.75294 29.1251 5.34004C29.5422 5.07858 30.0191 4.92761 30.5107 4.90137C31.0023 4.87513 31.4925 4.97447 31.9351 5.19004C33.1051 5.91004 32.9351 8.59004 33.1951 9.89004C34.1951 14.72 33.0851 20 32.7951 24.89C32.7151 26.25 32.6251 27.65 32.5751 29.04L32.5751 31.98C32.6351 33.77 32.0251 35.47 29.9351 34.58Z" fill="#CCA5B3"/>
</g>
<defs>
<linearGradient id="paint0_linear_967_6995" x1="51.9651" y1="20.61" x2="-8.91491" y2="17.85" gradientUnits="userSpaceOnUse">
<stop stop-color="#965485"/>
<stop offset="1" stop-color="#2F2959"/>
</linearGradient>
<linearGradient id="paint1_linear_967_6995" x1="39.5051" y1="19.74" x2="-24.0849" y2="20.48" gradientUnits="userSpaceOnUse">
<stop stop-color="#A66F94"/>
<stop offset="1" stop-color="#362C54"/>
</linearGradient>
<clipPath id="clip0_967_6995">
<rect width="40.72" height="36.3" fill="white" transform="translate(36.9351 0.0600433) rotate(90)"/>
</clipPath>
</defs>
</svg>
