<svg width="265" height="96" viewBox="0 0 265 96" fill="none" xmlns="http://www.w3.org/2000/svg">
<g clip-path="url(#clip0_967_3434)">
<path d="M261.234 84.2794C261.186 85.0701 260.946 85.8373 260.535 86.5145C258.222 90.1337 255.044 93.12 251.287 95.2037C250.402 95.7242 249.394 95.9991 248.368 96C244.749 96 241.131 96 237.513 96C224.354 95.9162 211.138 96.1956 198.035 95.7206C197.948 95.7484 197.856 95.7484 197.769 95.7206C197.68 95.6734 197.607 95.6004 197.56 95.5111C197.224 95.0221 196.722 94.6868 196.372 94.2119C195.902 93.5441 195.535 92.8095 195.283 92.0326C194.822 93.248 194.277 94.4494 193.746 95.6508C193.721 95.729 193.672 95.7974 193.606 95.8463C193.548 95.8677 193.483 95.8677 193.425 95.8463C191.121 95.972 188.813 95.972 186.51 95.8463H179.301C174.412 95.8463 169.532 95.7998 164.661 95.7066C151.278 95.525 137.895 95.2596 124.498 95.3434L60.5166 95.7346C59.2521 95.8393 57.9812 95.8393 56.7168 95.7346C55.0823 95.4831 53.6295 94.3376 51.9112 94.6729C49.3661 95.2848 46.7713 95.6682 44.158 95.8184H34.7284L15.8832 95.9301C14.8609 95.9295 13.8574 95.6545 12.9775 95.1339C9.21729 93.0505 6.0344 90.0645 3.71559 86.4447C3.31109 85.7646 3.07185 84.999 3.0171 84.2095C2.45831 77.0477 1.99266 69.8766 1.62013 62.6962C1.20104 56.0186 1.39661 49.0617 0.460642 42.3702C0.31641 41.5773 0.241621 40.7733 0.237126 39.9674C0.276229 38.9427 0.571644 37.9442 1.09635 37.0632C1.62105 36.1822 2.35829 35.4468 3.24062 34.9243C2.42641 35.2894 1.52784 35.4246 0.642248 35.3155C-0.307694 35.1898 0.0834587 17.7695 0.0694889 16.2189C0.074469 14.9985 0.504192 13.818 1.28486 12.8801C4.61728 8.8741 8.36331 5.23109 12.4606 2.01164C13.4577 1.2266 14.6986 0.816268 15.9671 0.852152L66.328 1.39697C70.5189 1.39697 74.7936 1.69034 79.0404 1.96973C79.3842 1.96524 79.7257 2.02689 80.0463 2.15134C81.1918 2.79394 81.5829 4.74971 82.5329 5.58789C82.1928 4.33921 82.0052 3.05396 81.9741 1.76018C85.229 0.922001 89.3641 1.67637 92.7447 1.76018L104.549 1.89988C116.815 2.03958 129.08 2.07218 141.345 1.99767C147.632 1.99767 153.909 1.95576 160.177 1.87194L169.592 1.77415C172.14 1.73871 174.674 2.15006 177.08 2.98952C177.23 3.03763 177.391 3.03763 177.541 2.98952C177.7 2.94526 177.842 2.85249 177.946 2.7241C179.902 0.768334 183.227 1.56461 185.867 1.5227L195.646 1.41094C213.178 1.27124 230.724 1.15949 248.27 0.852152C249.525 0.822571 250.75 1.23275 251.734 2.01164C255.832 5.23109 259.578 8.8741 262.91 12.8801C263.7 13.8291 264.13 15.0261 264.126 16.2608C264.126 20.8708 263.776 25.2992 263.427 29.8813C263.421 30.1188 263.364 30.3523 263.259 30.5658C263.064 30.8731 262.687 30.9988 262.393 31.2223C260.521 32.6193 263.958 35.2037 263.595 37.0198C263.433 37.501 263.232 37.9682 262.994 38.4168C262.393 39.9814 263.287 41.532 263.427 43.0687C263.473 45.0182 263.394 46.9687 263.19 48.908C263.022 52.8056 262.826 56.7171 262.631 60.6147C262.23 68.5308 261.765 76.4191 261.234 84.2794Z" fill="#2E82A6"/>
<path d="M261.234 83.4272C261.188 84.2183 260.948 84.9859 260.535 85.6624C258.226 89.285 255.047 92.2721 251.287 94.3516C250.403 94.8763 249.396 95.156 248.368 95.1618C244.749 95.1618 241.131 95.1618 237.513 95.092C224.354 95.0081 211.138 95.3015 198.035 94.8126C197.947 94.8339 197.856 94.8339 197.769 94.8126C197.68 94.7654 197.607 94.6923 197.56 94.603C197.224 94.1001 196.722 93.7648 196.372 93.3038C195.899 92.6329 195.531 91.8932 195.283 91.1106C194.822 92.326 194.277 93.5413 193.746 94.7287C193.725 94.8125 193.675 94.8865 193.606 94.9383C193.546 94.9462 193.485 94.9462 193.425 94.9383C191.121 95.057 188.813 95.057 186.51 94.9383C184.107 94.9383 181.704 94.9383 179.301 94.9383C174.412 94.9383 169.522 94.9383 164.661 94.7986C151.278 94.631 137.895 94.3655 124.498 94.4494L60.5165 94.8265C59.2518 94.9243 57.9815 94.9243 56.7168 94.8265C55.0823 94.5611 53.6295 93.4296 51.9112 93.7509C49.3645 94.3966 46.765 94.8127 44.144 94.9942H34.7144L15.8693 95.1059C14.8457 95.1003 13.8423 94.8206 12.9636 94.2957C9.20018 92.2167 6.01632 89.2297 3.70162 85.6065C3.29518 84.9272 3.05579 84.1612 3.00313 83.3714C2.44434 76.2189 1.96937 69.0384 1.60616 61.8719C1.20104 55.1665 1.39661 48.2235 0.460642 41.532C0.316164 40.7344 0.241377 39.9258 0.237126 39.1153C0.282063 38.0957 0.580161 37.1033 1.10452 36.2278C1.62888 35.3522 2.36299 34.621 3.24062 34.1001C2.42641 34.4652 1.52784 34.6004 0.642248 34.4913C-0.307694 34.3935 0.0834586 16.9593 0.0694889 15.3667C0.0753782 14.1508 0.505186 12.975 1.28486 12.0419C4.61306 8.02782 8.35947 4.37976 12.4606 1.15949C13.4605 0.379671 14.6994 -0.0300181 15.9671 -1.55086e-06L66.328 0.600697C70.5189 0.600697 74.7936 0.908031 79.0404 1.17346C79.3861 1.18919 79.7264 1.26482 80.0462 1.39697C81.1918 1.92782 81.5829 3.93946 82.5329 4.81956C82.1916 3.56638 82.0039 2.27635 81.9741 0.97788C85.215 0.125726 89.406 0.880092 92.7447 0.922001L104.549 1.0617C116.815 1.21537 129.08 1.22933 141.345 1.17346C147.632 1.17346 153.909 1.12689 160.177 1.03376L169.592 0.935971C172.141 0.905303 174.675 1.32137 177.08 2.16531C177.232 2.19953 177.389 2.19953 177.541 2.16531C177.699 2.1106 177.839 2.01403 177.946 1.88591C179.902 -0.0698501 183.227 0.726425 185.867 0.698485L195.646 0.572757C213.178 0.41909 230.724 0.307333 248.27 -1.55086e-06C249.524 -0.0226149 250.747 0.386794 251.734 1.15949C255.836 4.37976 259.582 8.02782 262.91 12.0419C263.699 12.986 264.129 14.1783 264.125 15.4086C264.125 20.0186 263.776 24.461 263.427 29.0291C263.423 29.2669 263.366 29.5008 263.259 29.7136C263.064 30.021 262.687 30.1467 262.393 30.3702C260.521 31.837 263.958 34.3655 263.595 36.1816C263.433 36.663 263.232 37.1303 262.994 37.5786C262.393 39.1432 263.287 40.6938 263.427 42.2305C263.473 44.18 263.394 46.1305 263.19 48.0698C263.022 51.9814 262.826 55.8789 262.631 59.7905C262.23 67.688 261.765 75.5669 261.234 83.4272Z" fill="url(#paint0_linear_967_3434)"/>
<path d="M258.565 19.5576C258.565 19.7392 258.565 19.9069 258.565 20.0885C258.565 21.1083 258.565 22.1141 258.565 23.1339C258.565 23.5669 258.565 24 258.565 24.4331C258.531 26.269 258.128 28.0792 257.378 29.7555C257.085 30.5099 256.735 31.2782 256.344 32.1164C256.344 32.2282 256.246 32.326 256.205 32.4377C256.058 32.6985 255.977 32.9908 255.967 33.2899C255.994 33.5202 256.065 33.7431 256.177 33.9464C257.191 35.6201 257.852 37.4838 258.118 39.4226C258.202 41.3783 257.979 43.39 257.909 45.3457C257.755 49.2573 257.56 53.1828 257.364 57.0943C257.364 57.248 257.364 57.4016 257.364 57.5553L257.238 60.0698L256.903 66.0768C256.833 67.1106 256.777 68.1583 256.721 69.1921C256.721 69.5274 256.721 69.8906 256.721 70.2258C256.721 70.5611 256.721 70.8126 256.721 71.1199C256.61 72.9918 256.484 74.8778 256.358 76.7078C256.274 78.1746 256.708 81.7229 255.953 82.9523C254.108 85.7296 251.615 88.0165 248.689 89.6158H248.591L227.106 89.4901L207.799 89.4063H203.804C201.208 89.5669 198.605 89.5669 196.009 89.4063C195.841 88.4122 195.841 87.3969 196.009 86.4028C196.109 85.6764 196.259 84.9577 196.456 84.2515C196.211 84.9542 195.932 85.6443 195.618 86.319C195.223 87.4542 194.556 88.4757 193.676 89.2945C193.477 89.375 193.262 89.4085 193.047 89.3923C174.57 89.1315 156.083 88.9918 137.588 88.9732C133.22 88.9732 128.852 88.9732 124.484 88.9732L114.412 89.0431L84.3768 89.2107L66.3 89.3225C62.355 89.506 58.4015 89.3564 54.4816 88.8754L53.6574 88.7078C52.6515 88.4424 51.5619 88.0373 50.5421 87.8137C50.0033 87.6809 49.4477 87.6292 48.8937 87.6601C47.6544 87.9373 46.5115 88.5401 45.5829 89.4063C44.591 90.1327 41.5735 89.4901 40.2744 89.5041H34.449H24.6702C21.7086 89.5041 18.761 89.5041 15.7994 89.5041H15.7295C12.7978 87.912 10.3066 85.6177 8.47923 82.8265C7.7109 81.5972 8.11602 78.0768 8.00426 76.596C8.00426 75.7299 7.8925 74.8778 7.85059 74.0116C7.85059 73.397 7.7528 72.7963 7.72487 72.1956C7.69693 71.5949 7.61311 70.6868 7.5712 69.9185C7.52929 69.1502 7.48738 68.7311 7.45944 68.1304C7.20798 64.2468 6.99844 60.3772 6.80286 56.4936C6.80286 54.8871 6.6492 53.2945 6.57935 51.674C6.57935 50.9616 6.57935 50.2771 6.48156 49.5506C6.38377 47.3714 6.29995 45.1921 6.21613 43.0268C6.21613 41.0989 5.51765 38.2771 5.99262 36.447C6.28741 35.5078 6.76185 34.6348 7.38959 33.8766C7.66899 33.5041 7.96235 33.1409 8.26969 32.787L8.98214 31.9208C9.17772 31.6694 9.38726 31.4179 9.5549 31.1804C9.23825 31.3946 8.91695 31.5902 8.59099 31.7672L7.69693 32.2701C7.07315 32.5766 6.4344 32.8517 5.78307 33.0943C6.00659 33.0244 6.03453 31.9907 6.00659 30.6915C6.00659 28.5262 5.68528 25.5646 5.67131 25.1036C5.59681 21.8626 5.55024 18.603 5.53162 15.3248C8.62152 11.6372 12.086 8.28046 15.8692 5.30849L35.3291 5.57392H39.0031L66.1882 5.92316L80.158 6.0908C81.0065 7.09388 81.9517 8.01099 82.9798 8.82887C83.1615 8.96856 83.3431 9.10826 83.4967 9.24796C83.4967 9.15017 83.4967 9.06635 83.4269 8.96856C83.1754 8.08847 82.9519 7.20838 82.7005 6.32829L104.479 6.59371L117.834 6.70547H129.01H129.192C137.071 6.70547 144.95 6.67287 152.829 6.60768L163.012 6.50989H164.843C166.239 6.50989 167.748 6.27241 169.187 6.31432C169.656 6.3099 170.124 6.35202 170.584 6.44004C171.981 6.73341 173.378 8.11641 174.901 7.33411C178.798 5.42025 184.177 6.28638 188.563 6.2305L195.548 6.14668L213.122 5.9511C224.619 5.83934 236.507 5.72759 248.214 5.51804C251.964 8.47341 255.4 11.8064 258.468 15.4645C259.04 15.9953 258.579 18.7753 258.565 19.5576Z" fill="url(#paint1_radial_967_3434)"/>
<path d="M9.54096 32.5634C6.9845 35.9721 6.9845 40.5122 7.15213 44.787C7.31977 51.2503 7.48275 57.695 7.64108 64.1211C7.67654 65.4873 7.62522 66.8545 7.48741 68.2142C7.23595 64.3306 7.02641 60.461 6.83083 56.5774C6.60731 52.0931 6.41174 47.5949 6.2441 43.1106C6.2441 41.1828 5.54561 38.3609 6.02059 36.5309C6.55183 35.1637 7.355 33.9185 8.38147 32.8708C8.4763 32.9321 8.58292 32.973 8.69447 32.9907C8.80602 33.0085 8.92005 33.0027 9.02923 32.9737C9.13842 32.9448 9.24034 32.8933 9.32847 32.8227C9.41659 32.752 9.48897 32.6637 9.54096 32.5634Z" fill="#E6C9C3"/>
<path d="M82.9799 8.82887C77.6295 7.27823 71.9577 7.18044 66.3838 7.08266L30.0625 6.53784C26.5561 6.53784 23.0776 6.53784 19.5293 6.21653C18.2956 5.98551 17.0206 6.14672 15.8832 6.67753C14.3605 7.58557 13.7179 9.47148 12.5025 10.7427C11.1056 12.1397 9.14979 13.0198 7.87855 14.6682C7.37904 15.2437 6.99063 15.9068 6.73303 16.624C6.58606 17.2933 6.54365 17.9813 6.6073 18.6636C6.73303 21.7509 6.71906 24.8382 6.69112 27.9255C6.55709 29.0098 6.65713 30.1102 6.98448 31.1525C7.18264 31.581 7.4312 31.9843 7.72488 32.3539C7.10111 32.6605 6.46235 32.9355 5.81103 33.1781C6.39775 32.9546 5.71324 25.9139 5.69927 25.2154C5.62476 21.9744 5.5782 18.7148 5.55957 15.4366C8.64947 11.749 12.1139 8.39222 15.8972 5.42026L66.1882 6.07683L80.158 6.24447C81.0139 7.19407 81.9589 8.05949 82.9799 8.82887Z" fill="#E6C9C3"/>
<path d="M258.565 19.5576C258.565 21.1781 258.496 22.7986 258.468 24.4331C258.303 27.2466 257.495 29.985 256.107 32.4377C255.96 32.6985 255.879 32.9908 255.869 33.2899C255.896 33.5202 255.967 33.7431 256.079 33.9464C257.093 35.6201 257.754 37.4838 258.021 39.4226C258.104 41.3783 257.881 43.39 257.811 45.3457C257.643 49.4249 257.453 53.4948 257.238 57.5553C257.043 61.4389 256.819 65.2945 256.596 69.1921C256.47 61.4808 256.414 53.7416 256.596 46.0303C256.707 42.5099 257.155 37.1595 253.802 34.8545C253.983 32.1583 256.596 30.2305 257.308 27.6321C257.566 26.6055 257.665 25.5455 257.602 24.4889C257.546 22.2561 257.378 20.0274 257.099 17.8114C257.057 17.126 256.891 16.4539 256.61 15.8277C256.225 15.1132 255.703 14.4818 255.073 13.9697L251.245 10.603C250.064 9.38306 248.635 8.43037 247.054 7.80908C245.932 7.52908 244.774 7.41611 243.618 7.4738C222.663 7.4738 201.499 7.36205 180.531 7.6135C179.162 7.62548 177.83 8.05968 176.717 8.85681C176.214 9.31652 175.625 9.67256 174.985 9.90454C173.923 10.142 172.917 9.44354 171.897 9.12223C171.245 8.93939 170.576 8.82699 169.9 8.78696L168.391 8.66123C155.161 7.44586 141.387 8.15832 128.06 7.94877L85.3966 7.26426C84.7978 7.18002 84.1892 7.32468 83.6923 7.66938C83.2732 8.03259 83.2872 8.87078 83.7621 9.06635L83.4269 8.96857C83.1754 8.08847 82.9519 7.20838 82.7004 6.32829L104.479 6.59371C112.246 6.67753 120.265 6.73341 128.954 6.73341C136.889 6.73341 144.805 6.70081 152.703 6.63562L164.843 6.52386C166.775 6.33557 168.721 6.33557 170.654 6.52386C172.051 6.81723 173.448 8.20023 174.971 7.41792C178.868 5.50407 184.246 6.37019 188.633 6.31432L195.618 6.2305L213.192 6.03492C224.689 5.92316 236.577 5.81141 248.284 5.60186C252.033 8.55723 255.469 11.8902 258.538 15.5483C259.04 15.9953 258.579 18.7753 258.565 19.5576Z" fill="#E6C9C3"/>
<path d="M252.125 74.4168C251.734 74.0396 251.329 73.6764 250.91 73.3411C249.219 72.0254 247.243 71.1258 245.141 70.7148C245.022 70.6459 244.885 70.6166 244.749 70.631C244.307 70.6689 243.885 70.8339 243.534 71.1059C241.8 72.5318 240.375 74.2951 239.343 76.2887C239.078 76.7637 238.868 77.1688 239.245 77.6857C239.594 78.0748 240.01 78.3967 240.475 78.6356C241.486 79.2438 242.541 79.7761 243.632 80.2282C244.146 80.352 244.689 80.2666 245.141 79.9907C246.157 79.3187 247.019 78.4376 247.669 77.4063C247.731 77.3306 247.77 77.2383 247.781 77.1409C247.763 77.0146 247.698 76.8998 247.599 76.8196L246.971 76.2049C246.927 76.1451 246.862 76.1049 246.789 76.0931C246.691 76.0931 246.621 76.0931 246.552 76.2189L244.149 78.5937C243.716 78.3003 243.283 78.0489 242.752 77.7835C242.304 77.5664 241.882 77.2993 241.494 76.9872C241.397 76.9123 241.321 76.8142 241.272 76.7018C241.223 76.5895 241.204 76.4666 241.215 76.3446C241.292 76.107 241.41 75.8848 241.564 75.688C242.054 74.8453 242.595 74.0335 243.185 73.2573C243.604 72.7125 244.065 72.1956 244.582 71.6787C246.281 72.0908 247.881 72.8363 249.29 73.8719C249.29 73.9558 249.89 74.3469 249.974 74.4307C250.058 74.5146 250.449 74.8498 250.673 75.0733C250.925 75.2962 251.155 75.5443 251.357 75.8137C251.526 76.0174 251.659 76.2491 251.748 76.4983C251.748 76.7357 251.273 77.2666 251.12 77.4482L250.072 78.5937C249.373 79.362 248.675 80.1024 247.907 80.8149C247.613 81.1083 247.306 81.4016 247.013 81.709C246.414 82.3989 245.759 83.0389 245.057 83.6228C244.313 84.1664 243.407 84.4421 242.486 84.4051H239.273H226.519H213.778C209.588 84.4051 205.313 84.4051 201.08 84.4051L156.461 84.3213C126.929 84.3772 97.4013 84.4284 67.8785 84.475H58.4629C51.059 84.475 43.669 84.475 36.265 84.475C32.5398 84.475 28.8424 84.5076 25.1731 84.5728H22.3791C21.6108 84.5728 20.7726 84.7264 20.0182 84.6845C19.2994 84.5377 18.619 84.2427 18.0205 83.8184C17.3531 83.4076 16.7221 82.9402 16.1346 82.4214C15.7129 82.0463 15.325 81.635 14.9751 81.1921C14.8842 81.0612 14.7863 80.9353 14.6818 80.8149C14.3046 80.3679 14.4722 78.482 14.4164 77.9092C14.2767 76.149 14.1649 74.3888 14.0392 72.6286C13.7179 67.8929 13.4105 63.1711 13.1172 58.4354C12.754 52.7497 12.5724 47.078 12.251 41.4063C12.1113 38.5099 11.967 35.6135 11.818 32.7171C11.7202 31.0966 12.2371 27.1292 11.1335 25.7322C10.7982 25.3271 10.0578 25.2433 9.82031 25.7322C10.1556 35.9302 10.7004 46.2258 11.3151 56.4657C11.7062 63.0314 11.7062 69.7788 12.6143 76.3027C12.8098 77.6997 12.9914 79.0966 13.187 80.4238C13.407 81.4547 13.9561 82.3863 14.7516 83.078C15.5652 83.8215 16.4442 84.4901 17.3779 85.0757C18.0422 85.4411 18.8048 85.5878 19.5572 85.4948H22.3512H27.9391H39.0171C46.3651 85.4948 53.7132 85.383 61.0613 85.369H105.625C135.166 85.369 164.707 85.3038 194.249 85.1735C211.012 85.1735 227.776 84.908 244.54 84.8522C245.196 84.8522 245.937 84.1397 246.44 83.7625C247.06 83.2797 247.652 82.762 248.214 82.2119C249.01 81.3917 249.761 80.5289 250.463 79.6275C251.162 78.7334 251.86 77.9092 252.656 77.0431C252.656 76.9593 252.656 76.9034 252.656 76.8615C252.807 76.7219 252.92 76.5458 252.984 76.3501C253.047 76.1544 253.06 75.9457 253.019 75.7439C252.841 75.2318 252.533 74.7746 252.125 74.4168Z" fill="#E6C9C3"/>
<path d="M251.776 14.1374C251.13 13.3937 250.404 12.7238 249.611 12.1397C248.98 11.7385 248.228 11.575 247.488 11.6787H244.694H239.106C235.418 11.6787 231.716 11.6787 228.014 11.6787C220.666 11.6787 208.456 11.7765 201.066 11.7904L156.503 11.8603C126.971 11.8603 97.4293 11.9255 67.8786 12.0559C51.115 12.0559 34.3513 12.3213 17.5876 12.3772C16.945 12.3772 16.1906 13.0896 15.6877 13.4668C15.0719 13.9498 14.4842 14.4675 13.9275 15.0175C13.1459 15.8151 12.4135 16.6595 11.7343 17.546C11.0497 18.44 10.3373 19.2503 9.55498 20.1164C9.47116 20.2142 9.55498 20.2701 9.55498 20.312C9.4038 20.4516 9.29101 20.6276 9.22741 20.8233C9.16381 21.019 9.15154 21.2278 9.19177 21.4296C9.39969 21.9246 9.72586 22.3611 10.1417 22.7008C10.5329 23.078 10.938 23.4412 11.3571 23.7765C13.0491 25.0899 15.0249 25.9893 17.1266 26.4028C17.2447 26.4716 17.3817 26.501 17.5177 26.4866C17.9601 26.4487 18.3822 26.2837 18.7331 26.0116C20.4589 24.578 21.8833 22.8165 22.924 20.8289C23.1755 20.3539 23.385 19.9488 23.0078 19.4319C22.665 19.0428 22.2529 18.7207 21.7925 18.482C20.7776 17.8709 19.7175 17.3385 18.6213 16.8894C18.1068 16.7656 17.5642 16.851 17.1126 17.1269C16.0969 17.7957 15.2388 18.6776 14.5981 19.7113C14.5314 19.7857 14.4877 19.8779 14.4723 19.9767C14.4805 20.041 14.5022 20.1029 14.5359 20.1582C14.5696 20.2136 14.6145 20.2612 14.6679 20.298L15.2826 20.9127C15.3306 20.9673 15.3938 21.0062 15.4642 21.0244C15.5557 21.0119 15.6398 20.9674 15.7017 20.8987L18.1603 18.5937C18.5813 18.89 19.0198 19.1606 19.4735 19.404C19.9207 19.6277 20.3423 19.8994 20.7308 20.2142C20.8275 20.29 20.9046 20.388 20.9557 20.4998C21.0067 20.6116 21.0302 20.734 21.0241 20.8568C20.9364 21.0925 20.814 21.3138 20.6609 21.5134C20.1712 22.3561 19.63 23.1679 19.0404 23.9441C18.6213 24.4889 18.1603 25.0058 17.6435 25.5227C15.9487 25.1106 14.3531 24.365 12.9496 23.3294C12.9496 23.2456 12.335 22.8545 12.2511 22.7707L11.5527 22.1281C11.3075 21.9018 11.0831 21.654 10.8821 21.3877C10.7843 21.248 10.477 20.8568 10.477 20.7031C10.477 20.5495 10.952 19.9348 11.1056 19.7532L12.1534 18.6077C12.8658 17.8393 13.5503 17.0989 14.3187 16.3725C14.626 16.0792 14.9194 15.7998 15.2127 15.4924C15.8153 14.8059 16.4691 14.1661 17.1685 13.5786C17.9124 13.035 18.8183 12.7593 19.7389 12.7963C20.8146 12.7963 21.8903 12.7963 22.952 12.7963C27.1429 12.7963 31.4595 12.7963 35.7063 12.7963H48.4607C52.6516 12.7963 56.9124 12.7963 61.1452 12.7963L105.737 12.7125C135.269 12.6566 164.796 12.6054 194.319 12.5588H203.748C211.138 12.5588 223.166 12.6286 230.57 12.5588C234.296 12.5588 238.021 12.5262 241.746 12.461H244.54C245.308 12.461 246.188 12.2934 246.929 12.3353C247.586 12.5457 248.181 12.9152 248.661 13.4109C249.234 13.8152 249.759 14.2839 250.226 14.8079C250.578 15.1725 250.874 15.5867 251.106 16.0372L251.315 16.4144C251.231 22.7008 251.036 27.227 251.12 32.5774C251.12 35.7904 251.218 39.0035 251.259 42.2165C251.259 45.1641 251.12 48.0559 251.134 51.0175C251.148 53.979 251.134 56.9546 250.994 59.9301C250.882 62.5984 250.435 65.1828 250.212 67.851C250.017 69.0023 250.017 70.1781 250.212 71.3294C250.212 71.4971 250.868 71.3294 250.924 71.1199C251.79 68.3213 252.201 65.4016 252.14 62.4726C252.279 59.078 252.307 55.6833 252.335 52.2887V51.4226C252.335 45.5739 252.382 39.7206 252.475 33.8626C252.475 28.2747 252.251 22.4354 252.754 16.8056C252.793 15.822 252.442 14.8629 251.776 14.1374Z" fill="#E6C9C3"/>
<path d="M251.972 73.6624C251.587 73.2815 251.181 72.9224 250.756 72.5867C249.07 71.2611 247.092 70.356 244.987 69.9464C244.869 69.8776 244.732 69.8482 244.596 69.8626C244.153 69.9006 243.731 70.0655 243.38 70.3376C241.649 71.7713 240.224 73.5386 239.19 75.5343C238.924 76.0093 238.729 76.4144 239.092 76.9313C239.444 77.3164 239.86 77.6378 240.321 77.8813C241.333 78.485 242.388 79.0127 243.478 79.4598C243.732 79.524 243.996 79.5372 244.255 79.4989C244.514 79.4605 244.763 79.3713 244.987 79.2363C246.007 78.5626 246.87 77.6762 247.516 76.6379C247.58 76.5637 247.619 76.4707 247.627 76.3725C247.61 76.2463 247.545 76.1314 247.446 76.0512L246.817 75.4366C246.765 75.3864 246.703 75.3482 246.635 75.3248C246.544 75.3373 246.46 75.3819 246.398 75.4505L243.995 77.8393C243.569 77.543 243.126 77.2724 242.668 77.0291C242.22 76.8072 241.798 76.5354 241.411 76.2189C241.315 76.1462 241.239 76.0504 241.19 75.9405C241.141 75.8306 241.121 75.7101 241.131 75.5902C241.211 75.3494 241.329 75.123 241.481 74.9197C241.968 74.0684 242.5 73.243 243.073 72.447C243.492 71.9022 243.967 71.3993 244.47 70.8824C246.17 71.2835 247.772 72.0248 249.178 73.0617C249.178 73.1455 249.779 73.5506 249.862 73.6205C249.946 73.6903 250.337 74.0396 250.561 74.2631C250.81 74.4893 251.039 74.737 251.245 75.0035C251.415 75.2072 251.547 75.4388 251.637 75.688C251.637 75.9395 251.162 76.4703 251.008 76.6519L249.96 77.7974C249.262 78.5518 248.563 79.2922 247.795 80.0186L246.901 80.8987C246.302 81.5886 245.648 82.2287 244.945 82.8126C244.202 83.3571 243.295 83.633 242.375 83.5949C241.313 83.5949 240.237 83.5949 239.162 83.5949H226.407L213.667 83.525H200.968L156.377 83.6088C126.864 83.6647 97.3408 83.7206 67.8088 83.7765H58.3094C50.9054 83.7765 43.5154 83.7765 36.1115 83.7765C32.3862 83.7765 28.6889 83.8091 25.0195 83.8743H22.2255C21.4572 83.8743 20.619 84.0419 19.8647 84C19.1314 83.8257 18.4419 83.5024 17.839 83.0501C17.1763 82.6387 16.5501 82.1713 15.9671 81.6531C15.5341 81.2853 15.1409 80.8733 14.7936 80.4237C14.6959 80.298 14.612 80.1723 14.5003 80.0466C14.1231 79.5995 14.2907 77.7136 14.2349 77.1409C14.0952 75.3946 13.9834 73.6345 13.8577 71.8743C13.5643 67.0547 13.2709 62.3748 12.9636 57.6391C12.6004 52.0512 12.3489 46.3097 12.0975 40.6519C11.9578 37.7648 11.8134 34.8684 11.6644 31.9627C11.5666 30.3283 12.0835 26.3748 10.9799 24.9779C10.6586 24.5728 9.90423 24.5029 9.66675 24.9779C10.002 35.1618 10.5468 45.4575 11.1615 55.7113C11.5527 62.2771 11.5527 69.0384 12.4607 75.5623C12.6563 76.9593 12.8518 78.3562 13.0335 79.7532C13.2534 80.7803 13.8028 81.7074 14.5981 82.3935C15.4117 83.137 16.2907 83.8056 17.2244 84.3911C17.8959 84.7799 18.6748 84.9416 19.4456 84.8522H22.2395H27.8274C31.5154 84.8522 35.2034 84.8522 38.9054 84.8522C46.2535 84.8522 53.6016 84.7404 60.9497 84.7264H105.513C135.054 84.7264 164.6 84.6566 194.151 84.5169C210.915 84.5169 227.678 84.2654 244.442 84.1956C245.099 84.1956 245.839 83.4831 246.342 83.1059C246.969 82.6307 247.561 82.1126 248.116 81.5553C248.936 80.7261 249.705 79.8492 250.421 78.929C251.12 78.0349 251.818 77.2247 252.614 76.3586C252.684 76.2608 252.614 76.2049 252.614 76.163C252.764 76.0255 252.877 75.8519 252.94 75.6586C253.004 75.4654 253.017 75.259 252.978 75.0594C252.779 74.5092 252.431 74.0254 251.972 73.6624Z" fill="#6D5873"/>
<path d="M251.623 13.369C250.977 12.6254 250.25 11.9554 249.457 11.3714C248.827 10.9702 248.074 10.8067 247.334 10.9104H244.54H238.952H227.874C220.512 10.9104 208.316 11.0221 200.912 11.0361H156.349C126.817 11.0361 97.2755 11.1059 67.7249 11.2456C50.9612 11.2456 34.1975 11.4971 17.4338 11.5669C16.7912 11.5669 16.0369 12.2794 15.5479 12.6426C14.9928 13.1193 14.4657 13.6277 13.9693 14.1653C13.1158 14.9727 12.322 15.8411 11.5945 16.7637C10.896 17.6438 10.1277 18.468 9.40124 19.3341C9.31742 19.4319 9.40124 19.4878 9.40124 19.5157C9.25011 19.6523 9.13715 19.8259 9.07346 20.0194C9.00978 20.2129 8.99757 20.4197 9.03803 20.6193C9.24629 21.118 9.57799 21.5555 10.0019 21.8906C10.3671 22.3025 10.7591 22.6899 11.1754 23.0501C12.8633 24.373 14.8404 25.2777 16.9449 25.6903C17.0656 25.7523 17.2006 25.7812 17.3361 25.7742C17.7781 25.7248 18.1983 25.5557 18.5514 25.2852C20.2812 23.8556 21.7064 22.0931 22.7423 20.1024C22.9938 19.6275 23.2033 19.2223 22.8262 18.7055C22.4859 18.3137 22.0732 17.9911 21.6108 17.7555C20.5947 17.1555 19.54 16.6235 18.4536 16.163C17.9346 16.0384 17.3874 16.1238 16.9309 16.4005C15.9215 17.0769 15.065 17.9573 14.4164 18.9849C14.3497 19.0593 14.306 19.1515 14.2906 19.2503C14.2986 19.3166 14.3201 19.3805 14.3537 19.4382C14.3874 19.4958 14.4325 19.546 14.4862 19.5856L15.1009 20.1863C15.124 20.2174 15.1532 20.2435 15.1869 20.2627C15.2206 20.282 15.2579 20.294 15.2965 20.298C15.3413 20.2977 15.3853 20.2859 15.4244 20.2639C15.4635 20.242 15.4964 20.2104 15.52 20.1723L17.9368 17.7974C18.3598 18.0907 18.7981 18.3611 19.2499 18.6077C19.7 18.8263 20.1221 19.0983 20.5072 19.4179C20.6066 19.4881 20.686 19.583 20.7374 19.6933C20.7889 19.8035 20.8106 19.9253 20.8005 20.0466C20.7214 20.2861 20.5982 20.5088 20.4373 20.7031C19.9476 21.5459 19.4064 22.3577 18.8168 23.1339C18.3978 23.6927 17.9368 24.1956 17.4199 24.7125C15.7259 24.3053 14.1302 23.5644 12.726 22.5332C12.726 22.4354 12.1114 22.0442 12.0276 21.9744L11.3291 21.3318C11.0839 21.1055 10.8595 20.8577 10.6585 20.5914C10.5607 20.4517 10.2534 20.0605 10.2674 19.8929C10.2813 19.7253 10.7284 19.1246 10.882 18.943L11.9298 17.7974C12.6422 17.0431 13.3267 16.3027 14.0951 15.5762L14.9891 14.6962C15.5915 14.0051 16.2453 13.3607 16.9449 12.7683C17.7094 12.2385 18.6284 11.978 19.5572 12.0279H22.7703H35.5247H48.279H60.9635L105.555 11.9441L194.179 11.9162H203.609C210.999 11.9162 223.026 11.986 230.43 11.9162C234.132 11.9162 237.834 11.9162 241.606 11.8184H244.4C245.169 11.8184 246.035 11.6647 246.775 11.7066C247.449 11.8598 248.07 12.1874 248.577 12.6566C249.114 13.0431 249.61 13.4831 250.058 13.9697C250.395 14.3435 250.685 14.7562 250.924 15.1991L251.134 15.5762C251.05 21.8766 250.854 26.3888 250.938 31.7392C250.938 34.9523 251.036 38.1653 251.078 41.3783C251.078 44.3399 250.938 47.2177 250.952 50.1932C250.966 53.1688 250.952 56.1304 250.812 59.092C250.701 61.7742 250.253 64.3586 250.03 67.0268C249.835 68.1781 249.835 69.354 250.03 70.5052C250.03 70.6589 250.687 70.5052 250.742 70.2957C251.609 67.4971 252.019 64.5774 251.958 61.6484C252.111 58.2538 252.125 54.8591 252.153 51.4645C252.153 51.1711 252.153 50.8778 252.153 50.5844L252.279 33.0384C252.279 27.3667 252.056 21.5972 252.559 15.9814C252.597 15.0222 252.261 14.0855 251.623 13.369Z" fill="#6D5873"/>
<g style="mix-blend-mode:multiply">
<path d="M41.9787 50.78C38.4583 50.9057 33.8623 52.7218 32.1999 56.0745C30.5375 59.4272 32.3675 63.4505 34.4769 66.0908C35.3724 67.2674 36.6448 68.1008 38.0811 68.4517L38.598 68.7451C41.9647 70.3376 46.9798 68.1583 49.6061 65.9511C55.7947 60.7544 48.8937 50.5565 41.9787 50.78Z" fill="#E8E6E8"/>
</g>
<g style="mix-blend-mode:multiply">
<path d="M60.2232 58.5751C59.8262 58.2219 59.3452 57.9765 58.8262 57.8626C58.0054 57.7144 57.1736 57.6349 56.3396 57.6252C55.9978 57.5876 55.6521 57.6371 55.3346 57.769C55.0171 57.9009 54.7381 58.1109 54.5235 58.3795C54.2301 58.9243 53.6714 59.2317 53.4758 59.7765C53.3572 60.1444 53.3572 60.5402 53.4758 60.908C53.7243 61.3483 54.08 61.7186 54.5098 61.9848C54.9396 62.251 55.4296 62.4044 55.9345 62.4307C57.4292 62.6822 60.4606 62.9337 60.5864 60.8103C60.783 60.4503 60.8541 60.0352 60.7883 59.6304C60.7225 59.2255 60.5236 58.8542 60.2232 58.5751Z" fill="#E8E6E8"/>
</g>
<g style="mix-blend-mode:multiply">
<path d="M27.4502 42.2584C27.1684 42.0595 26.8691 41.8865 26.5561 41.7416C26.3354 41.69 26.1045 41.7035 25.8913 41.7803C25.6782 41.8572 25.4918 41.9941 25.3547 42.1746C25.215 42.482 25.0194 42.7893 24.9077 43.1106C24.8643 43.2376 24.8506 43.3729 24.8675 43.5061C24.8845 43.6393 24.9317 43.7668 25.0055 43.8789C25.2988 44.4237 26.1091 44.4377 26.6399 44.2561C27.1708 44.0745 27.7575 43.5437 27.7296 42.9709C27.7453 42.8383 27.728 42.7039 27.6793 42.5796C27.6305 42.4553 27.5518 42.345 27.4502 42.2584Z" fill="#E8E6E8"/>
</g>
<g style="mix-blend-mode:multiply">
<path d="M225.471 58.5891C223.362 56.0605 219.213 56.4237 217.005 58.7427C212.912 63.0454 222.09 68.9127 225.695 65.1828C227.706 63.1572 227.092 60.5308 225.471 58.5891Z" fill="#E8E6E8"/>
</g>
<g style="mix-blend-mode:multiply">
<path d="M212.731 62.2491C212.318 61.6626 211.746 61.2068 211.082 60.936C210.803 60.7683 209.825 61.0757 209.839 61.4668C209.723 62.1045 209.864 62.7623 210.23 63.2969C210.455 63.5564 210.759 63.7342 211.095 63.8025C211.431 63.8707 211.78 63.8256 212.088 63.674C212.235 63.6383 212.371 63.5697 212.487 63.4734C212.603 63.3771 212.695 63.2556 212.757 63.1183C212.819 62.9809 212.849 62.8313 212.844 62.6807C212.84 62.5301 212.801 62.3825 212.731 62.2491Z" fill="#E8E6E8"/>
</g>
<g style="mix-blend-mode:multiply">
<path d="M238.114 21.2759C235.04 18.6775 230.137 19.6973 227.343 22.1839C225.359 23.9581 227.678 26.4866 229.075 27.6182C230.738 29.0151 233.336 29.0151 235.32 29.7416C235.804 29.8044 236.296 29.7395 236.747 29.5532C237.198 29.367 237.592 29.0659 237.89 28.6799C238.782 27.3811 239.435 25.9335 239.818 24.4051C239.814 23.7835 239.656 23.1725 239.359 22.6266C239.061 22.0806 238.634 21.6166 238.114 21.2759Z" fill="#E8E6E8"/>
</g>
<g style="mix-blend-mode:multiply">
<path d="M225.36 27.1851C225.323 27.007 225.229 26.8455 225.094 26.7241C224.908 26.6269 224.711 26.5519 224.507 26.5006C224.326 26.5006 224.13 26.3469 223.949 26.305C223.671 26.2578 223.391 26.2252 223.11 26.2072C222.923 26.1852 222.733 26.2122 222.559 26.2857C222.385 26.3592 222.233 26.4765 222.119 26.6263C222.006 26.8216 221.912 27.0275 221.839 27.241C221.818 27.4453 221.818 27.6513 221.839 27.8556C221.805 27.9553 221.805 28.0634 221.839 28.163C221.911 28.2594 222.001 28.3402 222.105 28.4005C222.376 28.5545 222.69 28.6135 222.999 28.5681C223.433 28.628 223.876 28.5751 224.284 28.4144C224.62 28.289 224.895 28.0389 225.052 27.7159C225.22 27.5902 225.429 27.3807 225.36 27.1851Z" fill="#E8E6E8"/>
</g>
<g style="mix-blend-mode:multiply">
<path d="M243.576 36.5309C243.345 36.1892 243.041 35.903 242.685 35.6929C242.33 35.4828 241.933 35.3539 241.522 35.3155C241.205 35.2792 240.883 35.3171 240.582 35.4261C240.282 35.5352 240.011 35.7125 239.79 35.9441C239.315 36.6007 238.784 37.4109 239.245 38.2352C239.456 38.5398 239.746 38.7813 240.084 38.9336C240.552 39.1875 241.064 39.3532 241.592 39.4226C241.922 39.4588 242.256 39.4097 242.562 39.2801C242.868 39.1505 243.135 38.9446 243.339 38.6822C243.55 38.3699 243.682 38.0108 243.724 37.6359C243.765 37.261 243.714 36.8817 243.576 36.5309Z" fill="#E8E6E8"/>
</g>
<g style="mix-blend-mode:multiply">
<path d="M76.4001 22.7148C75.1135 22.2343 73.7193 22.1183 72.371 22.3796C71.0227 22.6408 69.7727 23.2693 68.7587 24.1956C68.5989 24.3037 68.462 24.4422 68.3559 24.6033C68.2497 24.7644 68.1764 24.9448 68.14 25.1342C68.1037 25.3237 68.1051 25.5184 68.1441 25.7074C68.1832 25.8963 68.2591 26.0756 68.3675 26.2352C68.7797 26.7345 69.3525 27.0752 69.988 27.1991C71.4897 27.4718 73.0196 27.5562 74.5422 27.4505C74.9525 27.4544 75.3584 27.3646 75.7288 27.1879C76.0992 27.0111 76.4244 26.7522 76.6795 26.4307C77.0056 25.8384 77.2321 25.1966 77.3501 24.5309C77.4398 24.1644 77.3928 23.7778 77.2179 23.4435C77.043 23.1092 76.7523 22.8501 76.4001 22.7148Z" fill="#E8E6E8"/>
</g>
<g style="mix-blend-mode:multiply">
<path d="M117.667 71.3574C117.572 71.2347 117.447 71.1385 117.304 71.078L116.871 70.8126C116.633 70.6729 116.228 70.8126 116.018 70.9243C115.809 71.0361 115.432 71.1618 115.488 71.3993C115.543 71.6368 115.488 71.9721 115.711 72.1257C115.802 72.2169 115.9 72.301 116.004 72.3772C116.196 72.4829 116.416 72.5268 116.633 72.5029C116.809 72.5253 116.987 72.5067 117.154 72.4485C117.322 72.3904 117.473 72.2942 117.597 72.1676C117.695 72.0417 117.77 71.9 117.82 71.7485C117.796 71.6091 117.744 71.4761 117.667 71.3574Z" fill="#E8E6E8"/>
</g>
<g style="mix-blend-mode:multiply">
<path d="M128.996 74.9197C128.95 74.8224 128.877 74.7401 128.787 74.6822L128.284 74.2491C128.102 74.0955 127.236 74.5006 127.348 74.6403L127.753 75.1152C127.807 75.1949 127.873 75.2656 127.948 75.3248L128.326 75.4924C128.475 75.5469 128.638 75.5469 128.787 75.4924C128.787 75.4924 129.108 75.3527 129.066 75.227C129.052 75.1226 129.029 75.0197 128.996 74.9197Z" fill="#E8E6E8"/>
</g>
<g style="mix-blend-mode:multiply">
<path d="M173.769 46.8964C173.614 46.5181 173.427 46.1536 173.21 45.8068C172.858 45.4631 172.458 45.1715 172.023 44.9406C171.646 44.6892 170.905 44.9406 170.626 45.1641C170.347 45.3877 169.69 45.6671 170.039 45.9185C170.396 46.2594 170.801 46.5464 171.241 46.7707C171.799 46.9942 172.4 47.1339 172.959 47.3155C173.043 47.3714 173.881 47.1339 173.769 46.8964Z" fill="#E8E6E8"/>
</g>
<g style="mix-blend-mode:multiply">
<path d="M97.3408 41.0291L96.8519 40.5122C96.6982 40.3306 96.0975 40.4144 95.9438 40.4284C95.5553 40.4975 95.1758 40.61 94.8123 40.7637C94.4748 40.8821 94.1621 41.0621 93.8903 41.2945C93.7785 41.3923 93.3874 41.7136 93.541 41.8952L93.9741 42.44C94.1266 42.6699 94.3392 42.8535 94.5888 42.9709C95.2808 43.2845 96.0681 43.3146 96.782 43.0547C97.0924 42.9352 97.3566 42.7199 97.5364 42.44C97.6481 42.2445 97.6062 42.2305 97.6342 42.0349C97.6553 41.9101 97.6553 41.7826 97.6342 41.6577C97.69 41.3783 97.5224 41.2386 97.3408 41.0291Z" fill="#E8E6E8"/>
</g>
<path d="M49.5364 66.0349C48.3445 67.1085 46.9669 67.9559 45.4712 68.5355C41.7692 70.4913 36.7261 68.5355 34.2954 65.4901C32.822 63.417 31.8642 61.0225 31.5014 58.5052C31.2221 61.6903 32.8984 64.5122 35.0498 66.8871C37.2011 69.2619 39.6179 71.3155 43.1522 70.6589C44.6664 70.3973 46.1075 69.8159 47.3794 68.9536C48.6513 68.0912 49.7247 66.9676 50.5282 65.6577C51.1285 64.6356 51.5978 63.542 51.9252 62.4028C52.0413 61.4762 52.0693 60.5407 52.009 59.6088C51.9536 61.9725 51.0796 64.2437 49.5364 66.0349Z" fill="#E6C9C3"/>
<path d="M54.1044 59.3853C53.9004 59.464 53.7344 59.618 53.6408 59.8157C53.5472 60.0133 53.5331 60.2393 53.6015 60.447C53.7653 60.8595 54.08 61.1942 54.4816 61.383C55.3246 61.8082 56.23 62.0959 57.1638 62.2352C57.7534 62.3762 58.3609 62.428 58.9659 62.3888C60.6004 62.1932 60.754 60.5169 60.5026 59.1478C60.7886 59.8852 60.8894 60.6815 60.7959 61.4668C60.834 61.8017 60.7496 62.1391 60.5585 62.4168C60.2507 62.7268 59.8356 62.9068 59.399 62.9197C57.5201 63.1661 55.6099 62.9846 53.8111 62.3888C53.6431 62.3411 53.4864 62.2604 53.3501 62.1513C53.2258 61.9793 53.1499 61.7772 53.1302 61.5659C53.1106 61.3546 53.1479 61.1419 53.2383 60.9499C53.4747 60.4011 53.7648 59.877 54.1044 59.3853Z" fill="#E6C9C3"/>
<path d="M69.2337 24.0559C68.7447 24.475 68.1999 25.0477 68.3676 25.6764C68.5352 26.305 69.0241 26.4307 69.4991 26.6403C70.1892 26.9526 70.9103 27.1914 71.6504 27.3527C72.6387 27.4716 73.6377 27.4716 74.626 27.3527C75.113 27.3508 75.5923 27.2309 76.023 27.0035C76.2343 26.8532 76.4145 26.6634 76.5538 26.4447C77.1126 25.6645 77.3479 24.6983 77.2104 23.7485C77.2872 24.599 77.2872 25.4546 77.2104 26.305C77.2104 26.6755 77.0632 27.0308 76.8012 27.2928C76.5393 27.5548 76.1839 27.702 75.8134 27.702C73.7599 28.0093 71.413 28.4843 69.4991 27.5204C67.3338 26.5425 67.6411 25.5227 69.2337 24.0559Z" fill="#E6C9C3"/>
<path d="M97.7879 41.7416C97.6562 42.1003 97.3978 42.3984 97.0614 42.5797C96.8194 42.7519 96.5565 42.8927 96.2791 42.9988C95.8661 43.1187 95.4269 43.1137 95.0167 42.9844C94.6065 42.8551 94.2438 42.6074 93.9741 42.2724C94.3882 42.8307 94.905 43.3049 95.4968 43.6694C95.5887 43.7288 95.6948 43.7625 95.8042 43.7672C95.9097 43.7547 96.0105 43.7163 96.0975 43.6554C96.8285 43.1876 97.414 42.5247 97.7879 41.7416Z" fill="#E6C9C3"/>
<path d="M226.184 59.9301C226.771 60.7068 227.058 61.6689 226.994 62.6403C226.89 63.0384 226.72 63.4162 226.491 63.7578C226.049 64.7028 225.321 65.4847 224.41 65.993C224.02 66.1638 223.604 66.2677 223.18 66.3003C221.469 66.448 219.765 65.9496 218.403 64.9034C217.729 64.3859 217.164 63.7408 216.74 63.0049C216.315 62.2691 216.04 61.4569 215.93 60.6147C216.115 62.2268 216.791 63.7434 217.865 64.9599C218.939 66.1764 220.36 67.0343 221.937 67.4179C222.486 67.5643 223.064 67.5643 223.613 67.4179C224.23 67.2095 224.79 66.8604 225.248 66.3981C225.772 65.9955 226.242 65.5258 226.645 65.0012C227.135 64.2225 227.356 63.3041 227.273 62.3876C227.189 61.4711 226.807 60.6075 226.184 59.9301Z" fill="#E6C9C3"/>
<path d="M226.868 22.9662C226.705 23.2911 226.635 23.6544 226.665 24.0165C226.694 24.3786 226.823 24.7257 227.036 25.0198C227.31 25.6015 227.658 26.146 228.07 26.6403C229.507 28.0345 231.325 28.9725 233.294 29.3364C235.11 29.7276 237.094 30.1048 238.086 28.2189C238.843 26.913 239.399 25.5 239.734 24.0279C239.82 25.1964 239.613 26.3677 239.134 27.4366C239.02 28.0075 238.792 28.5495 238.463 29.0297C238.134 29.51 237.711 29.9185 237.22 30.2305C236.515 30.5142 235.74 30.5776 234.999 30.4121C232.343 30.108 229.875 28.8937 228.014 26.9756C226.966 25.8999 225.946 24.447 226.868 22.9662Z" fill="#E6C9C3"/>
<path d="M243.8 36.9499C243.562 37.4389 243.311 37.9278 243.073 38.4307C242.997 38.6048 242.894 38.7653 242.766 38.9057C242.579 39.047 242.363 39.1463 242.134 39.1969C241.905 39.2475 241.668 39.2482 241.439 39.1991C240.961 39.1805 240.49 39.0862 240.042 38.9197C239.826 38.8345 239.631 38.7045 239.47 38.5383C239.309 38.3722 239.185 38.1736 239.106 37.9558C239.2 38.3059 239.376 38.6288 239.619 38.8983C239.861 39.1677 240.164 39.3761 240.503 39.5064C241.174 39.7275 241.878 39.8314 242.584 39.8137C242.711 39.8563 242.848 39.8563 242.975 39.8137C243.105 39.726 243.203 39.5986 243.255 39.4505C243.644 38.6763 243.832 37.8161 243.8 36.9499Z" fill="#E6C9C3"/>
</g>
<defs>
<linearGradient id="paint0_linear_967_3434" x1="131.329" y1="-46.2398" x2="133.285" y2="127.907" gradientUnits="userSpaceOnUse">
<stop stop-color="#BFA0A2"/>
<stop offset="0.29" stop-color="#8B7588"/>
<stop offset="0.62" stop-color="#493E66"/>
<stop offset="0.84" stop-color="#224569"/>
<stop offset="1" stop-color="#0A4A6B"/>
</linearGradient>
<radialGradient id="paint1_radial_967_3434" cx="0" cy="0" r="1" gradientUnits="userSpaceOnUse" gradientTransform="translate(133.914 -29.3504) scale(411.339 411.339)">
<stop stop-color="#CCAAAC"/>
<stop offset="1" stop-color="#6C6778"/>
</radialGradient>
<clipPath id="clip0_967_3434">
<rect width="264.154" height="96" fill="white" transform="translate(-0.000366211)"/>
</clipPath>
</defs>
</svg>
