<svg width="263" height="96" viewBox="0 0 263 96" fill="none" xmlns="http://www.w3.org/2000/svg">
<g clip-path="url(#clip0_979_30209)">
<path d="M257.447 37.6034C255.481 35.2321 253.314 33.0351 250.969 31.0371L247.712 28.0976L241.463 22.4602C240.602 21.4836 239.614 20.6275 238.524 19.9152C237.541 19.3331 236.623 18.6461 235.788 17.8664C231.718 14.4825 227.47 11.3179 223.063 8.386C219.657 5.88446 215.836 4.00601 211.775 2.83775C209.964 2.44261 208.127 2.17472 206.278 2.03606L198.286 1.27253L194.252 0.878049C193.724 0.833439 193.2 0.74404 192.687 0.610817C191.822 0.35631 190.944 0.725345 190.04 0.610817C188.35 0.434819 186.65 0.366812 184.95 0.407211L179.326 0.318134C171.86 0.216331 164.399 0.139979 156.942 0.0890774C149.485 0.038176 142.049 0.00848356 134.634 0C127.228 0 119.822 0 112.416 0C105.01 0 97.6543 0.0805938 90.35 0.241782C82.9523 0.318134 75.5801 0.424178 68.2333 0.559915C60.8865 0.695652 53.5652 0.852598 46.2694 1.03075C38.982 1.20891 31.6946 1.41251 24.4072 1.64157L12.9544 2.0106C12.6413 1.97862 12.3258 1.97862 12.0127 2.0106C11.6819 2.09968 11.3637 2.21421 11.0583 2.32874C10.4087 2.55334 9.77153 2.81246 9.14952 3.10498C7.90761 3.65741 6.83253 4.52625 6.03181 5.6246C5.58643 6.26087 5.26829 6.97349 4.86108 7.63521C4.61818 7.92385 4.397 8.23009 4.19936 8.55143C3.4184 10.2586 2.4677 11.8829 1.36161 13.3998C0.324827 15.039 -0.123901 16.982 0.0890767 18.9099C0.267232 21.315 0.318133 23.7455 0.534464 26.1506C0.878048 29.9682 0.534464 33.7858 0.979851 37.6797C0.971733 38.2366 1.17135 38.7765 1.53977 39.1941C1.85226 39.4205 2.21442 39.5689 2.59597 39.6267L6.23542 40.4157C4.73383 41.3828 2.49417 41.4592 1.7052 43.0626C1.45098 43.5927 1.30395 44.1679 1.27253 44.755C1.15801 46.8038 0.967126 48.8526 0.827147 50.9014C0.76352 51.8176 0.712619 52.7466 0.687168 53.6755C0.661717 54.6045 0.57264 55.3934 0.496288 56.2206C0.305408 58.2566 -0.216332 60.9162 0.40721 62.9141C1.03075 64.912 3.41039 64.9629 5.09014 65.4337C4.6602 65.5334 4.25535 65.7203 3.90071 65.983C3.54608 66.2457 3.24924 66.5785 3.02863 66.9608C2.77413 67.3171 2.59597 67.7116 2.35419 68.0806C2.13531 68.4037 1.9356 68.7394 1.7561 69.0859C1.39604 69.7807 1.10617 70.5096 0.890774 71.2619C0.759921 71.7271 0.678872 72.2049 0.648992 72.6872C0.648992 73.1453 0.648992 73.6161 0.648992 74.087C0.648992 75.0159 0.648992 75.9449 0.559915 76.8738C0.559915 78.7444 0.559915 80.6151 0.559915 82.473C0.559915 84.3309 0.0636259 86.0233 0.827147 87.8049C1.59269 89.5802 2.88542 91.0773 4.53022 92.0933C5.85618 92.8909 7.36165 93.3417 8.90774 93.404C27.0159 94.3966 45.1877 94.8165 63.3213 95.2365C81.7816 95.6776 100.242 95.9279 118.702 95.9873C137.306 96.0467 155.902 95.9237 174.49 95.6182C180.776 95.5292 187.075 95.1601 193.336 95.6182C199.107 95.9469 204.893 95.8874 210.655 95.4401C215.656 95.0965 220.136 95.1092 224.081 91.4952C232.785 83.5164 241.972 76.0976 250.677 68.1315C253.09 66.0454 255.302 63.7361 257.281 61.2344C259.362 58.6906 260.896 55.7447 261.786 52.5811C262.185 51.1671 262.306 49.6891 262.142 48.2291C262.038 47.6295 261.876 47.0414 261.659 46.473C261.408 45.9895 261.22 45.4765 261.099 44.9459C260.949 43.8834 260.617 42.8546 260.119 41.9046C259.405 40.3681 258.508 38.9238 257.447 37.6034Z" fill="url(#paint0_linear_979_30209)"/>
<path d="M260.704 51.0542C260.488 51.4741 260.246 51.8686 260.03 52.2376C259.953 52.3649 259.877 52.5176 259.801 52.6321C259.687 52.7777 259.549 52.9025 259.393 53.0012C259.057 53.1452 258.686 53.1894 258.325 53.1284H258.21C252.484 52.6448 246.592 51.1305 241.094 52.823C242.601 53.3924 244.193 53.7063 245.803 53.752L258.299 54.7954L258.185 54.8972C257.752 55.3172 257.307 55.7117 256.912 56.1061C256.174 56.7806 255.55 57.595 254.838 58.3076C253.782 59.3511 252.674 60.3564 251.58 61.349L250.638 62.1889L249.671 63.0542C246.863 65.5992 244.021 68.1443 241.145 70.6894C240.204 71.5038 239.249 72.3055 238.308 73.0817C237.366 73.858 236.284 74.7742 235.253 75.6268C230.183 79.7729 224.816 83.5412 219.194 86.9015L218.596 87.2578C218.225 87.4997 217.828 87.7002 217.413 87.8559C217.22 87.8972 217.024 87.9185 216.827 87.9195H215.555C212.615 87.9195 209.625 88.0722 206.647 88.174L193.26 88.4921C188.102 88.6109 182.94 88.7042 177.773 88.7721C173.167 88.8484 168.551 88.9121 163.928 88.963C159.996 88.963 156.064 89.0393 152.132 89.0521H144.585C140.462 89.0521 136.339 89.0521 132.229 89.0521H122.24H117.964H116.284C112.072 89.0521 107.885 89.0521 103.686 88.963H99.4231C96.5345 88.963 93.6331 88.963 90.7444 88.8357L85.578 88.7594C81.1623 88.7594 76.7847 88.6067 72.3818 88.5176L67.1262 88.4031C64.9247 88.4031 62.6978 88.3013 60.4963 88.2249C58.5366 88.2249 56.6023 88.1231 54.6426 88.0722C50.4009 87.9619 46.1591 87.8304 41.9173 87.6777L39.6904 87.6141L36.9035 87.3723L27.7794 87.0415L23.6946 86.8633C20.1315 86.6851 16.543 86.4306 12.9799 86.4306C11.2185 86.3617 9.51414 85.7877 8.07009 84.7768C6.62603 83.766 5.50323 82.3611 4.83563 80.7297C4.29835 79.3101 4.08531 77.7884 4.21209 76.2758C4.22235 76.0086 4.26508 75.7437 4.33934 75.4868C4.48718 75.0974 4.60627 74.6976 4.69565 74.2907C4.77201 73.7816 4.81018 73.2472 4.84836 72.7254L4.96289 71.1857C4.96289 70.7912 5.02651 70.3967 5.05196 70.0022C5.08842 69.4853 5.15641 68.9711 5.25557 68.4624C5.25557 68.297 5.34465 68.1189 5.38282 67.9662C5.421 67.8135 5.45917 67.6989 5.51008 67.5717C5.58328 67.339 5.68591 67.1166 5.81548 66.91C5.90365 66.7424 6.01504 66.5882 6.14634 66.4519C6.26934 66.3078 6.40568 66.1757 6.55355 66.0574C9.17498 64.1104 14.2651 64.1358 18.0064 64.0595C18.7444 64.0595 19.4316 64.0595 20.0551 63.9704C21.7094 63.8686 23.3637 63.8304 25.018 63.8431C21.0977 63.8313 17.1854 63.4864 13.3234 62.8124C11.4783 62.507 9.65854 62.1125 7.86426 61.6544C7.42622 61.5434 7.00003 61.3899 6.59173 61.1963C6.0344 60.9816 5.57951 60.5631 5.31919 60.0255C5.13113 59.553 5.05281 59.0439 5.09014 58.5367C5.09014 58.0404 5.09014 57.5441 5.09014 57.0605C5.09014 56.0171 5.25557 54.999 5.3701 53.9683C5.4719 53.1284 5.56098 52.2885 5.61188 51.4232C5.75186 49.1836 5.89184 46.9566 6.06999 44.717C6.04285 44.0385 6.25449 43.3721 6.66808 42.8336C6.9621 42.5647 7.31516 42.3685 7.69884 42.261C8.70036 41.8886 9.73611 41.6159 10.7911 41.4465C11.2874 41.3447 11.8091 41.3447 12.2927 41.2175C12.8091 41.0438 13.3422 40.9243 13.8834 40.8612L31.228 38.8378L33.3022 38.6088C24.5854 37.5526 15.8685 36.4582 7.15164 35.402L6.00636 35.262C5.82093 35.2668 5.63642 35.2344 5.46374 35.1666C5.29107 35.0989 5.13374 34.9972 5.00106 34.8675C4.84926 34.6279 4.76973 34.3495 4.77201 34.0658C4.37752 29.3447 4.772 24.4837 4.55567 19.7244C4.55567 19.5971 4.55567 19.2026 4.55567 18.6427C4.55567 18.3628 4.55567 18.0574 4.55567 17.7138C4.55567 17.5865 4.55567 17.4465 4.55567 17.3066V16.6703V15.9959V15.296C4.55567 14.5324 4.45387 13.7816 4.4157 13.1963C4.4157 13.0054 4.4157 12.8272 4.4157 12.6745C4.4157 12.5218 4.4157 12.5218 4.4157 12.4709C4.4157 12.42 4.4157 12.191 4.4157 12.1019C4.4157 12.0128 4.4157 12.0001 4.4157 12.0001C4.32417 10.7581 4.48434 9.51041 4.88662 8.33181C5.28889 7.15321 5.92498 6.06796 6.75677 5.14111C7.58856 4.21426 8.59892 3.46489 9.72729 2.93792C10.8557 2.41094 12.0788 2.11721 13.3234 2.07433L21.404 1.81982C24.9162 1.69256 28.4157 1.59076 31.9279 1.50168C42.9905 1.11992 54.21 0.823 65.5864 0.61091L74.4942 0.458206C86.3712 0.254601 98.2482 0.123106 110.125 0.0637207H119.364H130.435C137.569 0.0637207 144.717 0.0637207 151.877 0.0637207H153.977C160.229 0.0637207 166.473 0.114622 172.708 0.216425L186.159 0.407305L197.345 0.58546C199.368 0.58546 201.366 0.699988 203.389 0.712713H205.578C206.316 0.712713 207.054 0.712713 207.792 0.712713H208.416C209.321 0.64309 210.231 0.71609 211.114 0.929044H211.241C212.691 1.36281 214.081 1.97853 215.376 2.76149C215.504 2.85057 215.656 2.9142 215.784 2.99055C226.799 9.03254 236.937 16.5506 245.917 25.3363C246.248 25.6544 246.566 25.9852 246.884 26.3034C249.989 29.4084 252.942 32.6661 255.881 35.8728C256.378 36.4073 256.861 36.9545 257.332 37.5017C258.424 38.7243 259.396 40.0497 260.233 41.4593C260.802 42.4516 261.23 43.518 261.506 44.6279C261.633 45.1496 261.684 45.7095 261.824 46.2313C261.963 47.0693 261.936 47.9266 261.744 48.7542C261.552 49.5817 261.199 50.3633 260.704 51.0542Z" fill="url(#paint1_linear_979_30209)"/>
<path d="M255.856 35.8091C252.916 32.5769 249.964 29.3447 246.859 26.2397C246.541 25.9215 246.223 25.5907 245.892 25.2726C234.897 25.158 223.903 24.6363 212.933 23.86C187.775 22.0785 162.668 19.7243 137.497 17.8155C112.327 15.9067 87.1942 14.2906 61.9598 14.1633C49.2345 14.1633 36.5091 14.5069 23.8729 15.4359C17.3957 15.9067 10.8803 16.0594 4.40308 16.6066C4.47943 18.1209 4.54305 19.4571 4.56851 19.7116C4.83574 24.4709 4.39035 29.3319 4.78484 34.053C4.78256 34.3367 4.86209 34.6151 5.01389 34.8547C10.4157 35.5379 15.8578 35.8525 21.3023 35.7964C34.0277 35.8982 46.6512 35.1856 59.3511 35.2492C62.6979 35.2492 66.0447 35.3129 69.4042 35.3892L74.4179 35.5037C75.3912 35.4569 76.3666 35.4995 77.332 35.631C78.542 35.8391 79.7732 35.8947 80.9969 35.7964C83.7583 35.7328 86.507 35.4656 89.2684 35.2238C92.0298 34.982 94.4476 34.7784 97.0436 34.7529C106.944 34.6384 116.692 37.298 126.579 37.3871C129.231 37.2974 131.886 37.4123 134.52 37.7307C136.06 38.0106 137.561 38.4815 139.088 38.8505C141.683 39.4947 144.343 39.8364 147.016 39.8685C148.359 39.9024 149.702 39.8471 151.037 39.7031C152.352 39.6141 153.672 39.6397 154.982 39.7794C160.581 40.0764 166.185 40.3224 171.792 40.5175C176.195 40.6829 180.585 40.7975 184.988 40.8611C164.772 42.6172 144.552 44.3139 124.327 45.9512C113.943 46.7784 103.521 47.6946 93.086 47.6946C81.8114 47.6946 70.5494 46.3584 59.2493 46.982C49.2599 47.5292 39.1814 48.3818 29.2811 49.7943C21.5568 50.9014 13.349 53.2301 5.33203 53.8918C5.2684 54.9862 5.09024 55.9915 5.09024 57.0477C5.09024 57.5313 5.09024 58.0276 5.09024 58.5239C5.03881 59.0324 5.1041 59.546 5.28113 60.0255C5.54144 60.563 5.99633 60.9815 6.55366 61.1962C6.96196 61.3898 7.38815 61.5433 7.82619 61.6543C9.62047 62.1124 11.4402 62.5069 13.2854 62.8123C16.314 62.6978 19.3554 62.4942 22.3331 62.1251C31.0881 61.0562 40.7339 60.6872 49.6544 58.8929L55.3808 58.5366C65.7384 57.6248 76.0282 56.0607 86.1889 53.8537C92.7424 52.5811 99.3723 51.6013 106.002 50.825C106.855 50.7105 107.669 50.4815 108.547 50.4051L110.622 50.2397C113.396 50.0276 116.174 49.8579 118.957 49.7307C124.505 49.4634 130.079 49.3362 135.64 49.2853C141.201 49.2344 146.774 49.2853 152.348 49.2853C157.922 49.2853 163.483 49.2853 169.056 49.1962C174.63 49.1071 180.191 48.929 185.739 48.5854C187.495 48.4836 189.239 48.3563 190.982 48.2163C186.309 47.1091 181.57 46.3057 176.793 45.8113C185.54 45.0732 194.24 43.9831 202.893 42.5408C208.289 41.6246 213.659 40.5939 219.105 39.9958C221.817 39.6733 224.544 39.4907 227.275 39.4486C228.636 39.4486 229.998 39.4486 231.36 39.5377C232.598 39.7241 233.849 39.8092 235.101 39.7922C235.966 39.6904 236.768 39.3468 237.646 39.2704C239.033 39.1432 240.42 39.0414 241.82 38.9268C244.594 38.6808 247.372 38.4136 250.155 38.1252L252.395 37.8834C254.011 37.6925 255.652 37.5525 257.294 37.3998C256.836 36.9035 256.352 36.3436 255.856 35.8091ZM238.588 56.8314C224.723 55.9979 210.823 55.9215 196.95 56.6023C194.062 56.7296 191.237 56.7932 188.361 57.1495C186.986 57.3277 185.599 57.5059 184.212 57.6586C178.689 58.3203 173.145 58.859 167.58 59.2747C165.404 59.4401 163.241 59.5928 161.078 59.7201L177.926 59.6055L194.787 59.4783L203.211 59.4146H207.423C208.019 59.4492 208.616 59.4193 209.205 59.3256C209.561 59.2492 209.905 59.0965 210.261 59.0456C211.577 58.9653 212.898 59.0121 214.206 59.1856L218.38 59.4146C221.162 59.5928 223.949 59.7879 226.74 60C231.118 60.3309 235.508 60.6999 239.886 61.0817C243.474 61.4125 247.037 61.7943 250.6 62.2142L251.517 61.3998C252.611 60.4072 253.718 59.4019 254.774 58.3584C249.417 57.7349 244.009 57.2641 238.588 56.8314ZM146.965 67.9279C122.303 67.4443 97.7308 66.0191 73.0945 66.1718C60.1146 66.1718 47.1433 66.3797 34.1804 66.7954C24.6237 67.0753 14.9269 67.0244 5.38293 68.0679C5.22863 68.6985 5.13069 69.3415 5.09024 69.9894C4.97572 71.1856 4.93754 72.4199 4.81029 73.6161C15.4487 74.0488 26.2016 73.3234 36.8145 73.298C49.7859 73.298 62.7573 73.4337 75.7286 73.7052C100.301 74.2906 124.861 75.6522 149.434 76.0849C174.439 76.543 199.406 74.736 224.361 73.5398C228.993 73.298 233.637 73.158 238.359 73.0435C239.3 72.2673 240.255 71.4656 241.196 70.6511C244.072 68.1654 246.914 65.6204 249.722 63.0159C240.446 63.9067 231.143 64.772 221.828 65.281C196.823 66.6808 171.881 68.4115 146.914 67.9279H146.965Z" fill="url(#paint2_linear_979_30209)"/>
<path d="M184.123 63.1812C179.033 60.3053 170.482 61.1961 166.422 65.0519C165.799 65.6663 165.305 66.3983 164.967 67.2055C164.629 68.0127 164.456 68.8789 164.456 69.7539C164.456 70.6288 164.629 71.495 164.967 72.3022C165.305 73.1094 165.799 73.8415 166.422 74.4559C172.339 79.7751 182.736 77.51 186.49 70.9055L186.706 70.7146C189.608 68.1187 187.534 63.8175 184.123 63.1812Z" fill="#EB924D"/>
<path d="M185.345 60.6491C180.255 57.7858 171.69 58.6639 167.631 62.5324C167.009 63.1457 166.514 63.8767 166.177 64.6828C165.839 65.489 165.666 66.3542 165.666 67.2281C165.666 68.102 165.839 68.9671 166.177 69.7733C166.514 70.5794 167.009 71.3104 167.631 71.9237C173.548 77.2556 183.945 74.9778 187.699 68.3861L187.915 68.1952C190.791 65.5992 188.742 61.298 185.345 60.6491Z" fill="url(#paint3_linear_979_30209)"/>
<path d="M184.123 62.2777C179.033 59.4145 170.481 60.2926 166.422 64.1611C165.8 64.7744 165.305 65.5054 164.968 66.3115C164.63 67.1176 164.457 67.9828 164.457 68.8567C164.457 69.7306 164.63 70.5958 164.968 71.4019C165.305 72.2081 165.8 72.939 166.422 73.5524C172.339 78.897 182.736 76.6065 186.49 69.9893L186.706 69.7857C189.608 67.2279 187.533 62.9267 184.123 62.2777Z" fill="url(#paint4_linear_979_30209)"/>
<path d="M61.8325 11.6309C60.3345 10.9047 58.6631 10.6127 57.0076 10.7881C55.3522 10.9636 53.779 11.5994 52.4666 12.6235C52.1361 12.948 51.8736 13.3352 51.6944 13.7623C51.5152 14.1895 51.4229 14.6481 51.4229 15.1113C51.4229 15.5745 51.5152 16.0331 51.6944 16.4602C51.8736 16.8874 52.1361 17.2745 52.4666 17.5991C55.597 20.4241 61.0944 19.2152 63.0795 15.7285L63.1941 15.6266C63.504 15.3156 63.7207 14.924 63.8198 14.4962C63.9189 14.0684 63.8963 13.6214 63.7547 13.2057C63.613 12.7901 63.358 12.4223 63.0183 12.144C62.6786 11.8657 62.2679 11.688 61.8325 11.6309Z" fill="#EB924D"/>
<path d="M62.4815 10.2949C60.9809 9.56782 59.3063 9.27658 57.6483 9.45431C55.9903 9.63203 54.4154 10.2716 53.103 11.3002C52.7744 11.6245 52.5135 12.0109 52.3354 12.4369C52.1574 12.8628 52.0657 13.3199 52.0657 13.7816C52.0657 14.2433 52.1574 14.7004 52.3354 15.1264C52.5135 15.5523 52.7744 15.9387 53.103 16.2631C56.2461 19.0881 61.7435 17.8792 63.7286 14.3924L63.8432 14.2906C64.1484 13.9776 64.3609 13.5862 64.4572 13.1598C64.5536 12.7334 64.5299 12.2886 64.3889 11.8748C64.2479 11.461 63.995 11.0943 63.6584 10.8154C63.3217 10.5366 62.9144 10.3564 62.4815 10.2949Z" fill="url(#paint5_linear_979_30209)"/>
<path d="M61.8325 11.1602C60.3345 10.4339 58.6631 10.142 57.0076 10.3174C55.3522 10.4929 53.779 11.1287 52.4666 12.1528C52.1361 12.4773 51.8736 12.8645 51.6944 13.2916C51.5152 13.7188 51.4229 14.1773 51.4229 14.6406C51.4229 15.1038 51.5152 15.5624 51.6944 15.9895C51.8736 16.4167 52.1361 16.8038 52.4666 17.1284C55.597 19.9407 61.0817 18.7445 63.0795 15.2705L63.1941 15.1687C63.5078 14.8581 63.7278 14.4655 63.829 14.0358C63.9303 13.6061 63.9087 13.1566 63.7667 12.7387C63.6247 12.3207 63.3681 11.951 63.0261 11.6719C62.684 11.3928 62.2704 11.2155 61.8325 11.1602Z" fill="url(#paint6_linear_979_30209)"/>
<path d="M36.6871 20.3606C32.4368 17.9428 25.4506 18.6681 22.0275 21.8749C21.5107 22.3819 21.1003 22.9869 20.82 23.6544C20.5398 24.3219 20.3955 25.0385 20.3955 25.7625C20.3955 26.4864 20.5398 27.2031 20.82 27.8706C21.1003 28.5381 21.5107 29.1431 22.0275 29.6501C26.9267 34.053 35.529 32.1951 38.6468 26.7105L38.8249 26.5578C41.1918 24.4072 39.4485 20.8441 36.6871 20.3606Z" fill="#EB924D"/>
<path d="M37.6925 18.2226C33.4549 15.8557 26.3923 16.5428 23.0329 19.7751C22.5173 20.2841 22.1079 20.8904 21.8285 21.5588C21.5491 22.2273 21.4053 22.9446 21.4053 23.669C21.4053 24.3935 21.5491 25.1108 21.8285 25.7793C22.1079 26.4477 22.5173 27.054 23.0329 27.563C27.9321 31.966 36.5344 30.1081 39.6522 24.6234L39.8303 24.4707C42.1972 22.3202 40.5048 18.7571 37.6925 18.2226Z" fill="url(#paint7_linear_979_30209)"/>
<path d="M36.6871 19.5716C32.4368 17.192 25.4506 17.93 22.0275 21.1241C21.5107 21.6311 21.1003 22.2361 20.82 22.9036C20.5398 23.5711 20.3955 24.2878 20.3955 25.0117C20.3955 25.7356 20.5398 26.4523 20.82 27.1198C21.1003 27.7873 21.5107 28.3923 22.0275 28.8993C26.9267 33.315 35.529 31.4443 38.6468 25.9724L38.8249 25.807C41.1918 23.6692 39.4485 20.1061 36.6871 19.5716Z" fill="url(#paint8_linear_979_30209)"/>
<path d="M6.36268 58.3203C6.27458 59.2907 6.36077 60.269 6.61718 61.209C6.06231 60.9838 5.60946 60.5626 5.34465 60.0255C5.15362 59.5533 5.0668 59.0455 5.09014 58.5367C5.09014 58.0531 5.09014 57.5441 5.09014 57.0605C5.16649 55.1644 5.51008 53.3193 5.61188 51.4486C5.75186 49.1963 5.89184 46.9693 6.06999 44.7297C6.04285 44.0512 6.25449 43.3848 6.66808 42.8463C6.9662 42.5831 7.31787 42.3877 7.69884 42.2737C8.70036 41.9014 9.73611 41.6286 10.7911 41.4593C11.2911 41.4097 11.7881 41.3332 12.28 41.2302C12.8011 41.0579 13.3383 40.9385 13.8834 40.8739L31.228 38.8633L12.6108 42.5918C11.4019 42.8336 9.78579 42.8209 8.79322 43.6226C8.41395 43.9613 8.06872 44.3364 7.76246 44.7424C7.66066 44.8696 6.79534 46.6003 7.13892 46.613L20.8059 47.0839C17.421 47.631 14.0615 48.2546 10.702 48.9163C9.00955 49.2599 7.08802 49.7816 6.33723 51.3468C5.93023 52.4226 5.83323 53.5909 6.05727 54.7191C6.05727 55.0754 6.23542 55.4062 6.31177 55.7625C6.42132 56.6108 6.43838 57.4684 6.36268 58.3203Z" fill="#EB924D"/>
<path d="M260.717 51.0542C260.633 51.2064 260.568 51.369 260.526 51.5377C260.502 51.7698 260.46 51.9996 260.399 52.2249C260.182 52.8739 259.661 53.4974 258.935 53.3829C258.574 53.3701 258.215 53.3145 257.866 53.2175C257.996 52.8548 258.176 52.5121 258.401 52.1995C258.528 51.9068 258.655 51.6141 258.77 51.3214C259.021 50.659 259.221 49.9783 259.368 49.2854C259.631 47.9572 259.754 46.6052 259.737 45.2514C259.846 43.6941 259.444 42.1439 258.592 40.8357C256.912 38.6724 253.718 38.6088 250.957 38.7488L243.843 39.1178L254.214 37.9216L250.002 31.8135C248.844 29.8063 247.209 28.115 245.243 26.8887C243.463 26.1365 241.551 25.7471 239.618 25.7435L225.442 24.8018C230.567 24.6975 235.674 24.174 240.713 23.2366C239.071 21.595 237.366 20.0171 235.623 18.5027C233.077 16.3267 230.532 14.2652 227.886 12.3182C225.239 10.3713 222.452 8.50062 219.627 6.8336C218.214 5.99373 216.776 5.16658 215.326 4.37761C214.626 3.99585 213.862 3.66499 213.2 3.23233C213.008 3.08531 212.799 2.96145 212.577 2.8633C212.399 2.84454 212.22 2.84454 212.042 2.8633C211.114 2.8633 210.172 2.8633 209.23 2.8633C206.448 2.8633 203.656 2.8633 200.857 2.8633H185.688H174.515H168.929C168.049 2.94629 167.162 2.94629 166.282 2.8633C165.482 2.56939 164.666 2.31877 163.839 2.1125C163.022 2.08934 162.205 2.13617 161.396 2.25248C159.36 2.41791 157.324 2.60879 155.3 2.82512C154.366 2.82255 153.463 3.15689 152.755 3.7668C152.575 4.02722 152.366 4.2663 152.132 4.47942C151.559 4.88663 150.77 4.61939 150.121 4.39034C148.797 3.92543 147.412 3.65954 146.011 3.60137C144.738 3.60137 143.466 3.77952 142.193 3.70317C141.443 3.54649 140.703 3.34248 139.979 3.09235C136.869 2.61258 133.733 2.3236 130.588 2.22703C128.297 2.0616 125.981 1.93435 123.678 1.85799C116.233 1.59076 108.776 1.73074 101.319 2.04887C97.5907 2.20158 93.8749 2.40518 90.1464 2.62152C88.3926 2.86036 86.6209 2.94128 84.8527 2.8633C84.3564 2.8633 83.911 2.59606 83.4274 2.50699C82.9175 2.43501 82.4017 2.41369 81.8876 2.44336L75.6268 2.54516C73.209 2.54516 70.7784 2.54516 68.3479 2.54516C67.5207 2.54516 66.7318 2.71059 65.9428 2.71059C65.1538 2.71059 64.4666 2.54516 63.7413 2.54516C62.2017 2.56167 60.6786 2.86371 59.2493 3.43594C58.7219 3.6914 58.1428 3.82203 57.5568 3.8177C56.4624 3.8177 55.7116 2.76149 54.719 2.29066C52.3776 1.17083 49.9725 3.29596 47.5801 2.44336C46.3981 2.10684 45.1668 1.97768 43.9407 2.0616H39.1814C33.7731 2.0616 28.3776 2.26521 22.9947 2.8124C20.3224 3.09235 17.6501 3.44866 14.9905 3.9195C13.718 4.14856 12.4454 4.53032 11.1729 4.6703C10.8001 4.66471 10.4335 4.76629 10.1167 4.96298C8.53875 6.08281 4.16123 12.2801 7.27894 14.4688C8.37192 15.0605 9.61938 15.3046 10.8548 15.1687L34.7275 14.8378L8.90779 16.8739C8.34582 16.8768 7.79079 16.9982 7.27894 17.2302C5.62465 18.1337 6.19729 20.2207 6.00641 21.7223C5.84138 23.7573 5.93115 25.8049 6.27364 27.8177C6.52815 30.3628 6.83356 32.9078 7.21532 35.4529L6.07003 35.3129C5.8846 35.3177 5.70009 35.2853 5.52741 35.2175C5.35474 35.1498 5.19741 35.0481 5.06473 34.9184C4.91293 34.6788 4.8334 34.4004 4.83568 34.1167C4.44119 29.3956 4.83568 24.5346 4.61935 19.7753C4.61935 19.648 4.61935 19.2535 4.61935 18.6936C4.61935 18.4137 4.61935 18.1083 4.61935 17.7647C4.61935 17.6374 4.61935 17.4974 4.61935 17.3575V16.7212V16.0468V15.3469C4.61935 14.5833 4.51754 13.8325 4.47937 13.2472C4.47937 13.0563 4.47937 12.8781 4.47937 12.7254C4.47937 12.5727 4.47937 12.5727 4.47937 12.5218C4.47937 12.4709 4.47937 12.2419 4.47937 12.1528C4.47937 12.0637 4.47937 12.051 4.47937 12.051C4.38784 10.809 4.54801 9.56131 4.95029 8.38271C5.35256 7.20411 5.98866 6.11887 6.82044 5.19202C7.65223 4.26516 8.66259 3.51579 9.79096 2.98882C10.9193 2.46184 12.1425 2.16811 13.3871 2.12523L21.4677 1.87072C24.9799 1.74347 28.4794 1.64166 31.9916 1.55259C43.0117 1.13689 54.21 0.823 65.5865 0.61091L74.4942 0.458206C86.3712 0.254601 98.2482 0.123106 110.125 0.0637207H119.364C130.172 0.0637207 141.01 0.0637207 151.877 0.0637207H153.977C160.229 0.0637207 166.473 0.114622 172.708 0.216425L186.159 0.407305L197.345 0.58546L202.435 0.687263C202.744 0.668185 203.054 0.668185 203.364 0.687263H203.593C203.824 0.758336 204.064 0.79269 204.305 0.789065C204.713 0.789065 205.133 0.699988 205.578 0.649087C205.998 0.571156 206.424 0.528589 206.851 0.521833C207.181 0.521833 207.512 0.521833 207.843 0.58546H208.543C209.421 0.661812 210.286 0.712713 211.164 0.725439H211.241C212.691 1.15921 214.081 1.77492 215.377 2.55789C215.504 2.64697 215.656 2.71059 215.784 2.78694C226.799 8.82893 236.937 16.347 245.917 25.1327C246.248 25.4508 246.566 25.7816 246.884 26.0998C249.989 29.2048 252.942 32.4625 255.881 35.6692C256.378 36.2037 256.861 36.7509 257.332 37.2981C258.424 38.5207 259.396 39.8461 260.233 41.2557C260.802 42.248 261.23 43.3144 261.506 44.4243C261.633 44.946 261.684 45.5059 261.824 46.0277C262.111 47.5912 261.783 49.2054 260.908 50.5324C260.87 50.7997 260.781 50.9015 260.717 51.0542Z" fill="#EB924D"/>
<path d="M258.185 54.8845C257.752 55.3044 257.307 55.6989 256.912 56.0934C256.174 56.7678 255.55 57.5822 254.838 58.2948C253.782 59.3383 252.674 60.3436 251.58 61.3362L250.638 62.1761L249.671 63.0414C246.863 65.5865 244.021 68.1315 241.145 70.6766C240.204 71.491 239.249 72.2927 238.308 73.069C237.366 73.8452 236.284 74.7614 235.253 75.614C230.183 79.7601 224.816 83.5285 219.194 86.8887L218.596 87.245C218.225 87.4869 217.828 87.6875 217.413 87.8431C217.22 87.8844 217.024 87.9058 216.827 87.9067H216.624H216.535C216.209 87.8752 215.881 87.8752 215.555 87.9067L206.647 88.1612L193.26 88.4794C183.461 88.666 173.684 88.8229 163.928 88.9502C159.996 88.9502 156.064 89.0266 152.132 89.0393H144.585C140.462 89.0393 136.339 89.0393 132.229 89.0393H125.103H117.964H116.284C112.072 89.0393 107.885 89.0393 103.686 88.9502H99.4231C96.5345 88.9502 93.6331 88.9502 90.7444 88.8229L85.578 88.7466C81.1623 88.7466 76.7847 88.5939 72.3818 88.5048L60.4963 88.2121C58.5366 88.2121 56.6023 88.1103 54.6426 88.0594C50.4009 87.9491 46.1591 87.8176 41.9173 87.6649L36.8272 87.4995L27.7031 87.1686L23.6182 86.9905C20.0424 86.8632 16.4666 86.7105 12.9035 86.5578C11.141 86.4639 9.44278 85.8644 8.01203 84.8308C6.58128 83.7972 5.47852 82.3734 4.83563 80.7296C4.29835 79.31 4.08531 77.7883 4.21209 76.2758C4.22235 76.0086 4.26508 75.7436 4.33934 75.4868C4.48718 75.0973 4.60627 74.6975 4.69565 74.2906C4.77201 73.7816 4.81018 73.2471 4.84836 72.7254C4.88653 72.2036 4.92471 71.7074 4.96289 71.1856C5.00106 70.6639 5.09014 70.3966 5.09014 69.9894C5.12659 69.4725 5.19459 68.9583 5.29374 68.4497C5.29374 68.2842 5.38282 68.1061 5.421 67.9534C5.45917 67.8007 5.49735 67.6861 5.54825 67.5589C5.62145 67.3262 5.72409 67.1038 5.85366 66.8972C5.94183 66.7297 6.05322 66.5754 6.18452 66.4391C6.30751 66.295 6.44386 66.1629 6.59173 66.0446C9.21315 64.0976 14.3033 64.1231 18.0445 64.0467C21.1495 64.0467 24.2418 64.0467 27.3977 64.2758C26.4687 64.2758 25.6543 64.7211 24.7762 64.7975C23.5037 64.912 22.3075 64.9375 21.0986 65.0011L13.8579 65.4465C12.1833 65.4711 10.519 65.7149 8.90774 66.1718C8.2884 66.3248 7.72147 66.6412 7.26617 67.0881C6.81076 67.6246 6.49978 68.2684 6.36267 68.9587C5.91085 70.3102 5.72081 71.7354 5.80276 73.158C5.86638 73.5525 6.01909 73.9343 6.06999 74.3415C6.1054 74.7649 6.1054 75.1906 6.06999 75.614C5.95381 77.114 6.18458 78.6206 6.74443 80.017C8.22057 83.3129 12.0891 84.7508 15.6522 85.4126C20.0042 86.2015 23.6564 86.965 28.0467 86.367L47.2619 86.5578C51.0795 86.5578 54.7572 86.6596 58.4984 86.6724C59.122 86.6724 59.7073 86.4815 60.3181 86.4688C61.2089 86.4688 62.1506 86.6342 63.0414 86.6978C64.8823 86.842 66.7275 86.9438 68.5769 87.0032C73.0944 87.1432 77.6246 87.0796 82.1421 86.7869C83.1897 86.5959 84.2632 86.5959 85.3107 86.7869C86.8406 87.1482 88.4092 87.3192 89.9809 87.2959C93.684 87.4613 97.4125 87.4741 101.128 87.2959L103.813 87.1814C105.242 87.1744 106.659 86.9381 108.013 86.4815C108.7 86.2142 109.285 85.8325 110.049 85.6289C112.059 85.0817 114.134 86.087 116.106 86.9014C118.651 87.8304 121.438 87.385 124.11 87.5631C127.69 87.9194 131.296 87.9194 134.876 87.5631H134.978C136.699 87.4056 138.385 86.985 139.979 86.3161C140.747 85.8279 141.618 85.5271 142.524 85.438C143.592 85.6066 144.599 86.0446 145.451 86.7105C148.403 88.4666 152.042 88.4285 155.453 88.0594C158.327 87.5765 161.246 87.4058 164.157 87.5504C165.43 87.6777 166.537 87.5504 167.758 87.5504H172.301H177.188C180.916 87.5504 184.658 87.5504 188.399 87.5504C192.14 87.5504 195.869 87.5504 199.61 87.4486L205.209 87.3341L208.009 87.2577C208.479 87.2577 208.937 87.2577 209.408 87.2577C209.879 87.2577 209.968 87.385 210.261 87.3977C211.985 87.4409 213.705 87.2001 215.351 86.6851C216.978 86.2168 218.555 85.5903 220.059 84.8145C223.159 83.0922 226.109 81.1128 228.878 78.8972L232.696 76.0467L234.63 74.6087C234.919 74.4526 235.178 74.2457 235.393 73.9979C235.737 73.438 234.694 72.9926 234.286 72.9544C232.937 72.8017 231.538 72.7636 230.163 72.6872C235.902 72.8399 241.209 69.4295 245.077 65.192L243.805 64.9502C244.933 64.5859 246.034 64.1437 247.101 63.6268C248.437 62.9317 249.714 62.1273 250.918 61.2217C252.144 60.3254 253.289 59.3249 254.342 58.2312C254.876 57.684 255.372 57.1241 255.856 56.526C256.035 56.3207 256.201 56.104 256.352 55.877L256.632 55.4571C256.652 55.4037 256.652 55.3451 256.632 55.2917C256.632 55.2917 256.568 55.2153 256.505 55.1899C255.958 54.9226 255.232 55.0881 254.736 54.7063C254.8 54.7063 255.156 54.7063 255.258 54.7063H255.83C256.225 54.7063 256.594 54.7954 256.976 54.859C257.213 54.8847 257.451 54.8847 257.688 54.859C257.854 54.8487 258.021 54.8573 258.185 54.8845Z" fill="#EB924D"/>
<path d="M258.032 54.7189L257.752 55.0752C257.306 55.6224 256.848 56.1569 256.352 56.6786C251.262 55.3043 245.765 54.019 240.445 53.001C246.324 53.3573 252.178 53.9427 258.032 54.7189Z" fill="#EB924D"/>
<path d="M112.568 15.6521C103.89 17.1395 95.0148 17.0533 86.3669 15.3976C95.0965 14.9268 103.839 15.3594 112.568 15.6521Z" fill="#EB924D"/>
<path d="M183.245 22.7782C178.856 23.3449 174.42 23.4473 170.011 23.0837C157.909 22.5237 145.552 21.9129 134.303 17.739C141.162 17.739 147.958 18.8588 154.753 19.7369C164.157 20.9585 173.841 21.8875 183.245 22.7782Z" fill="#EB924D"/>
<path d="M188.768 22.3966C185.548 22.2948 182.405 21.9384 179.16 21.5949L135.894 16.8483C120.242 15.1431 104.488 13.4252 88.8102 14.5068C86.7232 14.5068 84.4963 14.7359 82.4475 14.7104C92.0752 15.7791 101.77 16.1109 111.449 15.703C115.261 15.4282 119.089 15.4282 122.901 15.703C125.929 16.1012 128.933 16.6662 131.898 17.3955C137.497 18.668 143.16 19.5715 148.836 20.3605C164.702 22.4404 180.695 23.3972 196.696 23.2237C193.642 22.8292 191.72 22.4856 188.768 22.3966Z" fill="url(#paint9_linear_979_30209)"/>
<path d="M61.7561 36.4326C54.0943 37.2979 46.3595 37.2979 38.6978 36.4326C46.3691 35.7581 54.0848 35.7581 61.7561 36.4326Z" fill="#EB924D"/>
<path d="M67.8007 36.4963C56.9587 36.2842 46.1082 36.2418 35.2493 36.3691C36.5678 36.2868 37.8807 36.1296 39.1814 35.8982C40.5303 35.7328 41.8792 35.5546 43.2281 35.4274C45.9317 35.12 48.6578 35.0604 51.3723 35.2492C51.7992 35.2533 52.2255 35.215 52.6448 35.1347C53.2859 35.0923 53.9295 35.1136 54.5663 35.1983C55.9576 35.2917 57.3447 35.3935 58.7275 35.5037C61.4889 35.7328 64.2631 36.0382 67.0117 36.4072L67.8007 36.4963Z" fill="url(#paint10_linear_979_30209)"/>
<path d="M88.8356 54.1592L79.9279 57.6332C78.0863 58.409 76.1944 59.0594 74.2651 59.5802C71.7525 60.1231 69.1982 60.4509 66.6299 60.56C60.1654 61.0054 53.5737 61.3999 47.2747 59.8347C61.3234 59.6947 75.0795 56.946 88.8356 54.1592Z" fill="#EB924D"/>
<path d="M102.019 50.9014L79.546 56.7805C75.9798 57.7738 72.3654 58.5851 68.7168 59.211C64.1828 59.8214 59.6118 60.1148 55.037 60.0891C50.9819 60.14 46.9267 60.14 42.8716 60.0891C44.4368 59.8473 46.002 59.6437 47.58 59.4783C48.2162 59.4783 48.8525 59.4783 49.5397 59.3383C52.7991 59.0065 56.0751 58.8663 59.3509 58.9183C62.8737 58.5914 66.3719 58.0389 69.8239 57.264C75.2958 56.3733 80.7549 55.3298 86.2014 54.2227C91.6478 53.1156 96.7125 52.0466 102.019 50.9014Z" fill="url(#paint11_linear_979_30209)"/>
<path d="M232.606 65.5737C226.397 67.8007 219.601 67.4062 213.009 66.9862C211.633 66.8718 210.25 66.8718 208.874 66.9862C207.993 67.0935 207.118 67.2464 206.252 67.4444C202.359 68.3376 198.402 68.929 194.418 69.2132C190.425 69.5084 186.413 68.9978 182.621 67.7116C193.018 69.3786 203.745 66.1336 214.269 65.9046C216.891 65.9046 219.525 65.9809 222.146 65.9046C225.722 65.6246 229.056 65.6246 232.606 65.5737Z" fill="#EB924D"/>
<path d="M178.6 67.2663C184.285 68.2711 190.063 68.6509 195.83 68.3988C199.534 68.1061 203.186 67.2917 206.876 66.8845C211.266 66.4137 215.695 66.5155 220.11 66.4391C228.033 66.3125 235.938 65.6364 243.767 64.4158C241.578 64.4158 239.377 64.4158 237.188 64.4158C235.266 64.4794 233.37 64.4158 231.411 64.4158C227.109 64.5048 222.821 64.7848 218.545 65.1411C214.269 65.4974 210.006 65.9301 205.731 66.3118C201.455 66.6936 197.205 67.0626 192.929 67.2663C188.648 67.4825 184.358 67.4825 180.076 67.2663C179.593 67.3299 179.084 67.3299 178.6 67.2663Z" fill="url(#paint12_linear_979_30209)"/>
</g>
<defs>
<linearGradient id="paint0_linear_979_30209" x1="187.89" y1="-118.74" x2="146.291" y2="-6.79533" gradientUnits="userSpaceOnUse">
<stop stop-color="#CF5C2B"/>
<stop offset="1" stop-color="#59173E"/>
</linearGradient>
<linearGradient id="paint1_linear_979_30209" x1="145.145" y1="-34.8928" x2="105.62" y2="173.548" gradientUnits="userSpaceOnUse">
<stop stop-color="#CF5C2B"/>
<stop offset="1" stop-color="#59173E"/>
</linearGradient>
<linearGradient id="paint2_linear_979_30209" x1="143.148" y1="-31.6861" x2="91.5335" y2="231.907" gradientUnits="userSpaceOnUse">
<stop stop-color="#CF5C2B"/>
<stop offset="1" stop-color="#59173E"/>
</linearGradient>
<linearGradient id="paint3_linear_979_30209" x1="186.477" y1="41.9173" x2="173.561" y2="76.4539" gradientUnits="userSpaceOnUse">
<stop stop-color="#CF5C2B"/>
<stop offset="1" stop-color="#59173E"/>
</linearGradient>
<linearGradient id="paint4_linear_979_30209" x1="213.557" y1="-18.9736" x2="121.285" y2="195.143" gradientUnits="userSpaceOnUse">
<stop stop-color="#CF5C2B"/>
<stop offset="1" stop-color="#59173E"/>
</linearGradient>
<linearGradient id="paint5_linear_979_30209" x1="63.0796" y1="0.394551" x2="56.2461" y2="18.6554" gradientUnits="userSpaceOnUse">
<stop stop-color="#CF5C2B"/>
<stop offset="1" stop-color="#59173E"/>
</linearGradient>
<linearGradient id="paint6_linear_979_30209" x1="94.053" y1="-70.4602" x2="1.78158" y2="143.644" gradientUnits="userSpaceOnUse">
<stop stop-color="#CF5C2B"/>
<stop offset="1" stop-color="#59173E"/>
</linearGradient>
<linearGradient id="paint7_linear_979_30209" x1="38.6341" y1="2.72313" x2="27.9448" y2="31.3043" gradientUnits="userSpaceOnUse">
<stop stop-color="#CF5C2B"/>
<stop offset="1" stop-color="#59173E"/>
</linearGradient>
<linearGradient id="paint8_linear_979_30209" x1="74.4941" y1="-78.8971" x2="-17.7774" y2="135.22" gradientUnits="userSpaceOnUse">
<stop stop-color="#CF5C2B"/>
<stop offset="1" stop-color="#59173E"/>
</linearGradient>
<linearGradient id="paint9_linear_979_30209" x1="172.708" y1="-43.9279" x2="150.961" y2="-2.78689" gradientUnits="userSpaceOnUse">
<stop stop-color="#CF5C2B"/>
<stop offset="1" stop-color="#59173E"/>
</linearGradient>
<linearGradient id="paint10_linear_979_30209" x1="104.386" y1="-94.053" x2="72.0128" y2="-14.1251" gradientUnits="userSpaceOnUse">
<stop stop-color="#CF5C2B"/>
<stop offset="1" stop-color="#59173E"/>
</linearGradient>
<linearGradient id="paint11_linear_979_30209" x1="128.997" y1="-84.0764" x2="96.6234" y2="-4.1612" gradientUnits="userSpaceOnUse">
<stop stop-color="#CF5C2B"/>
<stop offset="1" stop-color="#59173E"/>
</linearGradient>
<linearGradient id="paint12_linear_979_30209" x1="254.702" y1="-32.4893" x2="219.919" y2="46.467" gradientUnits="userSpaceOnUse">
<stop stop-color="#CF5C2B"/>
<stop offset="1" stop-color="#59173E"/>
</linearGradient>
<clipPath id="clip0_979_30209">
<rect width="262.193" height="96" fill="white"/>
</clipPath>
</defs>
</svg>
