<svg width="990" height="360" viewBox="0 0 990 360" fill="none" xmlns="http://www.w3.org/2000/svg">
<g clip-path="url(#clip0_979_30171)">
<path d="M988.855 286.847C988.331 279.402 987.806 271.958 987.376 264.514C986.947 257.069 986.422 248.861 985.992 240.988C985.658 235.643 985.229 229.964 985.086 224.477C985.086 219.705 986.851 212.308 984.37 208.156C983.452 207.049 982.31 206.148 981.018 205.515C979.727 204.881 978.315 204.529 976.878 204.482L965.711 202.478C970.697 201.32 975.605 199.854 980.409 198.087C981.511 197.75 982.512 197.143 983.32 196.322C983.878 195.443 984.221 194.446 984.322 193.411C985.373 183.009 985.564 172.539 984.895 162.106V130.516C984.895 120.495 984.895 110.521 984.895 100.5C984.895 97.2072 986.279 90.0014 984.656 87.0428C983.034 84.0842 980.218 84.8 977.784 84.5136C975.307 84.3228 972.818 84.3228 970.34 84.5136C966.666 84.5136 962.991 85.3249 959.317 85.8975C964.089 84.5614 968.861 83.8933 973.919 82.748C977.066 82.0305 980.112 80.9244 982.986 79.4553C984.895 78.7845 986.558 77.5539 987.758 75.924C988.145 75.1229 988.418 74.2716 988.569 73.3949C988.909 71.5337 989.132 69.653 989.237 67.7639C989.523 62.5624 989.714 57.4087 989.81 52.2072C989.81 49.5826 989.81 46.958 989.81 44.3334C989.81 42.6154 989.094 40.993 988.951 39.275C988.248 30.8253 984.45 22.9325 978.285 17.1112C972.12 11.2899 964.023 7.94988 955.547 7.7321C647.435 -2.22548 345.446 -2.22548 49.582 7.7321C48.4079 7.61214 47.2247 7.61214 46.0507 7.7321C44.8328 8.05065 43.6372 8.44919 42.4717 8.9251C40.0279 9.74664 37.6373 10.7188 35.3137 11.836C30.5398 13.7971 26.3731 16.9921 23.2405 21.0937C21.5703 23.4797 20.3773 26.152 18.8503 28.5858C17.9496 29.6927 17.1207 30.8563 16.3688 32.0693C13.4306 38.4662 9.86603 44.5564 5.72727 50.2507C1.84287 56.3815 0.159988 63.6516 0.955266 70.8657C1.62335 79.9325 1.81423 89.047 2.62547 98.0661C3.91391 112.382 2.62547 126.698 4.29567 141.3C4.2743 143.387 5.02171 145.408 6.39535 146.979C7.5603 147.832 8.92348 148.374 10.3561 148.554L24.004 151.56C18.3731 155.187 9.97435 155.473 7.01571 161.486C6.0673 163.459 5.51602 165.599 5.39323 167.785C4.96375 175.516 4.24795 183.199 3.72303 190.882C3.48443 194.317 3.29355 197.801 3.19811 201.237C3.10267 204.673 2.76863 207.727 2.48231 210.781C1.76651 218.416 -0.190015 228.39 2.14827 235.834C4.48655 243.278 13.4102 243.374 19.6615 245.378C18.0493 245.752 16.5311 246.453 15.2012 247.438C13.8713 248.423 12.7582 249.671 11.9309 251.104C10.9765 252.44 10.3084 253.92 9.40171 255.304C8.58092 256.515 7.83201 257.774 7.15887 259.074C5.82506 261.681 4.75404 264.414 3.96163 267.234C3.44802 268.973 3.14365 270.767 3.05495 272.578C3.05495 274.296 3.05495 276.062 3.05495 277.78C3.05495 281.311 3.05495 284.795 2.72091 288.278C2.72091 295.293 2.72091 302.26 2.72091 309.275C2.72091 316.29 0.859826 322.541 3.72303 329.27C6.60692 335.919 11.4516 341.529 17.6096 345.351C22.6004 348.3 28.2351 349.987 34.0253 350.267C331.385 363.342 633.612 363.342 940.706 350.267C948.847 349.918 956.604 346.707 962.609 341.2C965.458 338.789 967.977 336.013 970.102 332.944C972.678 328.888 975.112 324.784 977.355 320.537C982.795 310.182 989.714 298.729 988.855 286.847Z" fill="url(#paint0_linear_979_30171)"/>
<path d="M955.786 324.069C648.819 337.017 346.592 337.017 49.1049 324.069C42.5383 323.779 36.1917 321.616 30.8141 317.837C25.4364 314.057 21.2521 308.818 18.755 302.738C16.7194 297.42 15.9198 291.709 16.4167 286.036C16.4315 285.032 16.5922 284.035 16.8939 283.077C17.4266 281.61 17.8727 280.112 18.2301 278.592L18.5164 276.11C18.9936 271.625 19.1367 266.996 19.5662 262.51C19.7388 259.932 20.1542 257.375 20.8069 254.875C21.4115 252.071 22.9616 249.561 25.1972 247.765C34.9798 240.416 54.1155 240.511 68.1452 240.225C70.913 240.225 73.4899 240.225 75.8281 239.939C82.0318 239.509 88.1876 239.366 94.439 239.414C79.7377 239.369 65.0667 238.076 50.5842 235.548C43.6648 234.403 36.8409 232.924 30.1124 231.206C28.4711 230.806 26.8729 230.246 25.3403 229.536C23.2596 228.691 21.5614 227.112 20.5683 225.098C19.8845 223.32 19.5916 221.416 19.7094 219.514C19.7094 217.653 19.7094 215.792 19.7094 213.979C19.7094 210.066 20.3297 206.248 20.7592 202.383C21.141 199.233 21.475 196.084 21.6659 192.839C22.1908 184.44 22.7157 176.089 23.3838 167.69C23.282 165.146 24.0757 162.647 25.6267 160.628C26.7446 159.641 28.0634 158.908 29.492 158.48C33.2477 157.084 37.1318 156.061 41.088 155.426C42.9631 155.24 44.8269 154.954 46.6712 154.567C48.6255 153.921 50.6399 153.473 52.6839 153.231L117.726 145.644L125.505 144.785C92.8165 140.824 60.1283 136.72 27.44 132.759L23.0975 132.234C21.8525 132.213 20.6542 131.757 19.7094 130.946C19.1754 130.034 18.8953 128.996 18.8981 127.94C17.4188 110.235 18.8981 92.0064 18.0869 74.1591C18.0869 73.2047 17.7529 68.1941 17.4665 62.5632C16.9893 54.3553 16.4644 44.9545 16.2258 44.9545C15.8757 40.2979 16.4718 35.6187 17.9783 31.1988C19.4848 26.7788 21.8705 22.7095 24.9916 19.2361C28.1128 15.7628 31.9047 12.9572 36.1391 10.9884C40.3734 9.01963 44.9625 7.92844 49.6298 7.78056C344.953 -2.6224 646.751 -2.67012 955.022 7.6374C959.702 7.7972 964.302 8.90294 968.544 10.888C972.785 12.873 976.581 15.6962 979.702 19.1875C982.823 22.6788 985.205 26.7659 986.705 31.2025C988.204 35.639 988.79 40.3332 988.426 45.0022C988.662 51.6793 988.375 58.3646 987.567 64.9969C987.343 66.6059 986.626 68.1061 985.515 69.2917C984.348 70.1492 982.988 70.7064 981.554 70.9142L970.34 73.6342C965.46 74.8941 960.502 75.8346 955.499 76.4497C925.786 79.631 896.088 82.8124 866.406 85.9937H864.068L861.157 86.28H868.267C905.441 85.6119 942.758 85.0393 979.932 84.4189C980.99 84.3056 982.056 84.5223 982.986 85.0393C983.805 85.8879 984.281 87.0099 984.322 88.1888C984.446 89.7771 984.446 91.3726 984.322 92.9608C984.322 97.7328 983.416 102.219 983.416 107.277C983.416 112.335 984.465 115.676 984.418 120.018C984.418 126.222 984.131 132.521 983.893 139.106C983.272 153.422 982.27 167.738 980.695 182.054C980.671 184.159 980.005 186.207 978.787 187.924C977.591 189.038 976.128 189.827 974.54 190.214C973.602 190.601 972.626 190.888 971.629 191.073C949.773 197.325 925.817 192.362 903.389 196.227C901.893 196.421 900.411 196.708 898.951 197.086L897.472 197.42L903.007 197.849C927.535 199.663 952.032 202.128 976.496 205.246C977.933 205.235 979.358 205.512 980.686 206.061C982.014 206.61 983.218 207.42 984.227 208.443C985.316 210.371 985.782 212.587 985.563 214.79V222.044C985.563 229.297 985.563 236.646 985.897 243.899C986.326 253.443 986.947 262.987 987.567 272.865C987.901 277.637 988.188 282.409 988.522 287.181C988.812 291.757 988.194 296.344 986.703 300.68C985.212 305.015 982.878 309.013 979.835 312.442C976.792 315.871 973.1 318.664 968.972 320.659C964.845 322.655 960.363 323.814 955.786 324.069Z" fill="url(#paint1_linear_979_30171)"/>
<path d="M984.752 119.826C984.752 126.03 984.465 132.329 984.227 138.914C971.629 140.06 959.221 141.062 947.148 142.398L938.702 143.305C928.299 144.418 917.88 145.404 907.445 146.263C902.244 146.74 897.042 147.122 891.841 147.552C888.5 147.838 885.494 149.174 882.297 149.556C877.587 149.593 872.881 149.274 868.219 148.602C863.161 148.268 858.055 148.172 852.949 148.268C842.707 148.401 832.481 149.086 822.313 150.319C801.888 152.658 781.751 156.523 761.517 159.863C729.068 165.272 696.443 169.36 663.643 172.128C681.502 173.89 699.227 176.807 716.708 180.86C710.171 181.385 703.585 181.862 697.048 182.244C676.194 183.533 655.34 184.201 634.487 184.535C613.633 184.869 592.732 184.917 571.83 184.869C550.929 184.821 530.075 184.869 509.174 184.869C488.272 184.869 467.419 185.537 446.565 186.491C436.162 187.016 425.759 187.637 415.356 188.448L407.578 189.068C404.381 189.354 401.374 190.261 398.034 190.643C373.124 193.506 348.31 197.181 323.734 202C285.661 210.253 247.106 216.102 208.299 219.514L187.207 220.85C153.803 227.578 117.583 228.962 84.7518 232.971C73.5853 234.354 62.1802 235.118 50.8229 235.547C43.9035 234.402 37.0795 232.923 30.351 231.205C28.7097 230.805 27.1115 230.245 25.579 229.535C23.4982 228.69 21.8 227.111 20.807 225.097C20.0416 223.337 19.6671 221.432 19.7094 219.514C19.7094 217.652 19.7094 215.791 19.7094 213.978C19.7094 210.065 20.3298 206.247 20.7592 202.382C50.8706 199.853 81.7454 191.12 110.377 186.968C147.742 181.672 185.537 178.474 222.949 176.566C265.372 174.227 307.604 179.238 349.884 179.238C389.015 179.238 428.097 175.802 466.989 172.7C542.864 166.528 618.707 160.166 694.518 153.612C678.007 153.612 661.496 152.896 645.033 152.324C624.004 151.592 602.991 150.669 581.995 149.556C577.096 149.056 572.164 148.96 567.249 149.27C562.21 149.811 557.141 150.018 552.074 149.89C542.069 149.759 532.112 148.494 522.392 146.12C516.666 144.689 511.035 142.923 505.213 141.873C495.353 140.654 485.412 140.223 475.483 140.585C438.405 140.107 401.804 130.277 364.725 130.659C355.181 130.659 345.255 131.566 335.568 132.424C325.881 133.283 314.906 134.333 304.55 134.62C299.945 134.987 295.313 134.779 290.759 133.999C287.157 133.481 283.513 133.322 279.879 133.522L260.791 133.045C248.257 132.79 235.706 132.631 223.14 132.568C175.42 132.329 128.034 135.001 80.4093 134.62C60.1162 134.766 39.8366 133.538 19.7094 130.945C19.1754 130.033 18.8953 128.995 18.8982 127.939C17.4188 110.235 18.8982 92.0056 18.0869 74.1583C18.0869 73.2039 17.7529 68.1933 17.4666 62.5623C41.7083 60.4627 66.1887 59.9377 90.4782 58.1244C138.198 54.5931 185.584 53.1138 233.304 53.3524C327.933 53.8296 422.276 59.8423 516.57 67.048C610.865 74.2538 705.064 83.0342 799.455 89.715C847.175 93.1032 894.895 95.1551 942.615 95.1551C956.644 95.1551 970.77 94.3439 984.943 93.2463C984.943 98.0183 984.036 102.504 984.036 107.562C984.036 112.621 984.799 115.484 984.752 119.826ZM986.231 243.898C985.897 236.645 985.897 229.296 985.897 222.043C955.786 218.75 925.626 215.41 895.229 213.31C843.252 210.184 791.144 209.898 739.137 212.451C728.304 212.88 717.663 213.119 706.973 214.503L691.417 216.412C670.642 218.893 649.836 220.913 628.999 222.472C620.886 223.093 612.726 223.665 604.614 224.142L667.795 223.665L731.024 223.236L762.615 222.997H778.41C780.659 223.125 782.914 223.013 785.139 222.663C786.475 222.377 787.716 221.852 789.052 221.613C793.972 221.312 798.911 221.488 803.797 222.138L819.497 223.045C829.932 223.649 840.383 224.349 850.849 225.145C867.265 226.385 883.728 227.769 900.144 229.248C918.087 230.871 935.934 232.971 953.734 235.166C913.219 239.031 872.61 243.04 832.095 245.235C738.612 250.388 645.128 256.878 551.501 255.065C459.211 252.918 367.111 247.573 274.725 248.146C226.051 248.146 177.408 248.925 128.797 250.484C92.9596 251.534 56.597 251.343 20.807 255.256C20.2284 257.621 19.8611 260.032 19.7094 262.462C19.2799 266.947 19.1368 271.576 18.6596 276.062C58.5058 277.732 98.8769 274.964 138.675 274.869C187.318 274.869 235.961 275.394 284.603 276.444C376.751 278.591 468.85 283.697 560.998 285.319C654.768 287.037 748.394 280.261 841.926 275.775C890.171 273.342 938.797 273.294 987.09 272.817H988.044C987.281 262.986 986.66 253.395 986.231 243.708V243.898Z" fill="url(#paint2_linear_979_30171)"/>
<path d="M735.796 74.207C716.422 63.4223 684.593 66.8104 669.37 81.1265C667.034 83.4305 665.179 86.1757 663.913 89.2027C662.647 92.2296 661.995 95.478 661.995 98.759C661.995 102.04 662.647 105.288 663.913 108.315C665.179 111.342 667.034 114.088 669.37 116.392C691.56 136.339 730.547 127.844 744.624 103.078L745.436 102.362C756.173 92.7224 748.537 76.5931 735.796 74.207Z" fill="#EB924D"/>
<path d="M740.282 64.7105C721.194 53.9735 689.174 57.2662 673.951 71.5822C671.605 73.8755 669.74 76.6145 668.468 79.6384C667.195 82.6623 666.539 85.91 666.539 89.1909C666.539 92.4717 667.195 95.7194 668.468 98.7433C669.74 101.767 671.605 104.506 673.951 106.8C696.141 126.794 735.128 118.252 749.205 93.5334L750.017 92.8176C760.754 83.2736 753.071 67.1442 740.282 64.7105Z" fill="url(#paint3_linear_979_30171)"/>
<path d="M735.796 70.8182C716.708 60.0812 684.592 63.3739 669.37 77.8808C667.035 80.1807 665.181 82.9219 663.916 85.9449C662.651 88.9679 661.999 92.2123 661.999 95.4895C661.999 98.7666 662.651 102.011 663.916 105.034C665.181 108.057 667.035 110.798 669.37 113.098C691.56 133.093 730.547 124.551 744.624 99.832L745.435 99.1162C756.172 89.3813 748.537 73.2519 735.796 70.8182Z" fill="url(#paint4_linear_979_30171)"/>
<path d="M374.937 234.355C355.849 223.618 323.782 226.959 308.511 241.418C306.177 243.718 304.323 246.459 303.057 249.482C301.792 252.505 301.14 255.749 301.14 259.027C301.14 262.304 301.792 265.548 303.057 268.571C304.323 271.594 306.177 274.335 308.511 276.635C330.749 296.63 369.736 288.088 383.813 263.369L384.625 262.653C395.362 252.918 387.679 236.789 374.937 234.355Z" fill="#EB924D"/>
<path d="M379.518 224.906C360.43 214.169 328.315 217.462 313.092 231.969C310.757 234.269 308.904 237.01 307.638 240.033C306.373 243.056 305.721 246.3 305.721 249.578C305.721 252.855 306.373 256.099 307.638 259.122C308.904 262.145 310.757 264.886 313.092 267.186C335.282 287.181 374.269 278.639 388.346 253.92L389.158 253.157C399.895 243.374 392.259 227.34 379.518 224.906Z" fill="url(#paint5_linear_979_30171)"/>
<path d="M374.937 231.014C355.849 220.277 323.782 223.57 308.511 238.077C306.177 240.377 304.323 243.118 303.057 246.141C301.792 249.164 301.14 252.408 301.14 255.686C301.14 258.963 301.792 262.207 303.057 265.23C304.323 268.253 306.177 270.994 308.511 273.294C330.749 293.241 369.736 284.747 383.813 260.028L384.625 259.265C395.362 249.577 387.679 233.448 374.937 231.014Z" fill="url(#paint6_linear_979_30171)"/>
<path d="M24.4813 218.703C24.1509 222.342 24.4741 226.01 25.4357 229.535C23.3549 228.691 21.6567 227.111 20.6636 225.097C19.9473 223.327 19.6217 221.422 19.7092 219.514C19.7092 217.653 19.7092 215.792 19.7092 213.979C19.9956 206.868 21.284 199.949 21.6658 192.886C22.1907 184.488 22.7156 176.137 23.3837 167.738C23.2819 165.194 24.0756 162.694 25.6265 160.675C26.7445 159.688 28.0632 158.956 29.4919 158.528C33.2476 157.132 37.1316 156.109 41.0878 155.474C42.963 155.288 44.8268 155.001 46.6711 154.615C48.6253 153.969 50.6398 153.521 52.6838 153.279L117.726 145.691L47.9118 159.721C43.3784 160.628 37.3179 160.58 33.5958 163.586C32.1621 164.845 30.8664 166.253 29.7305 167.786C29.3487 168.263 26.1037 174.705 27.3922 174.753L78.6435 176.566C65.95 178.618 53.3519 180.909 40.7538 183.438C34.407 184.726 27.2013 186.683 24.3858 192.552C22.8596 196.586 22.4958 200.968 23.336 205.198C23.336 206.534 24.0041 207.775 24.2904 209.111C24.7012 212.292 24.7652 215.508 24.4813 218.703Z" fill="#EB924D"/>
<path d="M885.59 194.461C891.65 195.033 897.663 195.606 903.723 196.035C902.228 196.229 900.746 196.516 899.286 196.894C894.704 196.035 890.076 195.176 885.59 194.461Z" fill="#EB924D"/>
<path d="M974.73 185.489C975.494 181.672 975.639 177.757 975.16 173.893C974.587 166.688 974.062 159.577 973.489 152.324C973.539 151.64 973.442 150.954 973.203 150.312C972.964 149.67 972.59 149.086 972.106 148.602C971.152 148.01 970.019 147.773 968.908 147.934L941.946 148.84C951.696 147.992 961.215 145.406 970.054 141.205C972.685 140.268 974.855 138.354 976.114 135.86C976.552 134.506 976.73 133.081 976.639 131.661C976.076 119.902 974.914 108.179 973.155 96.5391C968.414 93.1056 962.631 91.4194 956.787 91.7671L886.305 87.4723C880.674 87.0428 874.375 86.8519 868.41 86.6133C905.584 85.9452 942.901 85.3726 980.075 84.7522C981.132 84.6389 982.199 84.8556 983.129 85.3726C983.948 86.2212 984.424 87.3432 984.465 88.5221C984.609 94.7663 984.37 101.013 983.749 107.228C983.749 111.475 984.799 115.627 984.751 119.97C984.417 140.203 983.32 161.343 981.029 182.006C981.004 184.111 980.338 186.158 979.12 187.875C977.924 188.99 976.462 189.779 974.873 190.166C973.935 190.552 972.96 190.84 971.962 191.025C973.31 189.425 974.259 187.527 974.73 185.489Z" fill="#EB924D"/>
<path d="M17.7524 73.968C17.7524 71.582 16.2731 44.7633 15.8913 44.7633C15.5412 40.1068 16.1373 35.4276 17.6438 31.0076C19.1503 26.5876 21.536 22.5183 24.6571 19.045C27.7783 15.5716 31.5703 12.766 35.8046 10.7972C40.039 8.82847 44.628 7.73728 49.2954 7.58941C344.841 -2.68631 646.75 -2.6704 955.022 7.63713C959.702 7.79692 964.301 8.90266 968.543 10.8877C972.785 12.8727 976.58 15.696 979.702 19.1873C982.823 22.6786 985.205 26.7656 986.704 31.2022C988.203 35.6388 988.789 40.333 988.426 45.0019C988.662 51.679 988.374 58.3643 987.567 64.9966C987.342 66.6056 986.625 68.1058 985.515 69.2914C984.347 70.1489 982.987 70.7061 981.554 70.9139C977.832 71.8206 974.157 72.8227 970.435 73.6339C974.04 70.8111 976.932 67.1828 978.882 63.0401C979.61 60.3638 979.339 57.5137 978.118 55.0231C976.819 50.9349 976.174 46.6669 976.209 42.3773C975.971 36.8895 976.973 29.0634 972.63 24.7209C969.193 21.3949 965.246 18.6401 960.939 16.5608C950.497 12.1438 939.254 9.93421 927.917 10.0708H926.39C905.799 9.15586 885.171 9.60222 864.64 11.407C862.158 11.6933 859.868 12.3614 857.577 12.8386C854.395 13.0931 851.194 12.9971 848.033 12.5523C841.066 12.1705 834.099 11.8842 827.132 11.5979C813.15 11.073 799.168 10.6912 785.234 10.548C774.735 10.548 764.285 10.548 753.786 10.548H696.952H655.006H634.057C630.77 10.8342 627.465 10.8342 624.179 10.548C621.029 9.97541 618.404 8.06661 615.016 7.73256C611.953 7.66951 608.89 7.84501 605.854 8.25749C598.219 8.83013 590.631 9.59365 582.996 10.4049C579.49 10.3734 576.094 11.6299 573.452 13.9362C572.75 14.8918 571.968 15.7858 571.114 16.6085C568.967 18.1355 566.008 17.1334 563.526 16.2267C558.562 14.4941 553.367 13.5129 548.113 13.3158C543.341 13.3158 538.569 13.9362 533.797 13.6498C530.855 13.3863 527.936 12.9078 525.064 12.2182C513.421 10.3977 501.674 9.31393 489.894 8.97329C481.257 8.30521 472.572 7.87573 463.935 7.54169C435.971 6.58728 408.007 7.1122 380.091 8.25749C366.109 8.87785 352.174 9.64137 338.192 10.4526C331.616 11.3483 324.972 11.6517 318.341 11.3593C316.48 11.3593 314.81 10.3572 312.996 10.0231C311.083 9.761 309.152 9.6652 307.222 9.73681L284.173 9.54593C275.107 9.54593 265.992 9.54593 256.878 9.54593C253.823 9.54593 250.865 10.1663 247.858 10.1663C244.852 10.1663 242.418 9.54593 239.651 9.54593C233.889 9.57501 228.187 10.709 222.853 12.8863C220.861 13.8515 218.672 14.3415 216.459 14.3179C212.402 14.3179 209.587 10.3572 205.817 8.59153C197.037 4.39216 187.97 12.3614 179.046 9.16417C174.598 7.89958 169.964 7.41522 165.35 7.73256C159.385 7.73256 153.42 7.73256 147.455 7.73256C127.174 7.73256 106.941 8.49609 86.7556 10.548C76.6867 11.5979 66.7132 12.934 56.7397 14.6997C51.9677 15.5587 47.1957 16.9903 42.4237 17.5152C41.0256 17.4942 39.6508 17.8752 38.4629 18.6127C32.5456 22.7644 16.1299 46.0518 27.8214 54.2596C31.92 56.4783 36.598 57.3939 41.2307 56.8842L130.753 55.6435L34.025 63.2787C31.9314 63.2756 29.8627 63.7317 27.9645 64.6148C21.7609 67.9552 23.8606 75.7813 23.1925 81.46C22.5975 89.0917 22.934 96.7675 24.1946 104.318C25.149 113.862 26.2943 123.406 27.7259 132.95L23.3834 132.425C21.9814 132.446 20.6274 131.914 19.6135 130.946C19.0795 130.034 18.7994 128.996 18.8023 127.939C17.0843 110.044 18.7545 91.8153 17.7524 73.968Z" fill="#EB924D"/>
<path d="M955.786 324.068C648.819 337.016 346.592 337.016 49.1049 324.068C42.5383 323.778 36.1917 321.616 30.8141 317.836C25.4364 314.056 21.2521 308.817 18.755 302.737C16.7194 297.419 15.9198 291.708 16.4167 286.035C16.4314 285.031 16.5922 284.034 16.8939 283.077C17.4266 281.609 17.8727 280.111 18.23 278.591C18.9458 273.294 19.089 267.854 19.5662 262.509C20.0434 257.165 20.8546 251.009 25.1972 247.764C34.9798 240.415 54.1155 240.51 68.1452 240.224C79.7889 240.224 91.3849 240.224 103.219 241.083C99.9103 241.56 96.6289 242.213 93.3891 243.039C88.6171 243.469 84.1791 243.564 79.598 243.851L52.4453 245.425C46.2174 245.577 40.0314 246.491 34.0254 248.146C31.7071 248.756 29.5864 249.956 27.8695 251.629C26.1896 253.623 25.0261 255.999 24.4814 258.548C22.8088 263.621 22.1126 268.964 22.4294 274.296C22.668 275.823 23.2406 277.255 23.4315 278.782C23.5643 280.37 23.5643 281.966 23.4315 283.554C22.9993 289.179 23.8646 294.827 25.9607 300.065C31.4962 312.424 46.0031 317.817 59.3647 320.298C75.685 323.305 89.3806 326.12 105.844 323.877L177.901 324.641C192.217 324.641 206.008 324.975 220.038 325.022C222.424 325.022 224.571 324.307 226.862 324.259C230.25 324.259 233.734 324.879 237.074 325.118C243.994 325.643 250.913 326.025 257.832 326.215C274.821 326.788 291.793 326.534 308.75 325.452C312.662 324.736 316.672 324.736 320.584 325.452C326.31 326.78 332.173 327.421 338.05 327.361C351.984 327.981 365.966 328.029 379.9 327.361L389.921 326.931C395.297 326.909 400.633 326.007 405.717 324.259C408.202 323.071 410.751 322.019 413.352 321.109C420.939 319.01 428.67 322.875 436.067 325.595C445.611 329.126 456.109 327.456 466.083 328.124C479.506 329.46 493.03 329.46 506.454 328.124H506.836C513.27 327.635 519.585 326.12 525.542 323.639C528.441 321.857 531.702 320.748 535.086 320.394C539.09 321.026 542.868 322.668 546.061 325.166C557.085 331.751 570.78 331.608 583.569 329.938C594.364 328.269 605.303 327.725 616.21 328.315C620.982 328.745 625.133 328.315 629.715 328.315H646.751C693.612 328.315 740.521 328.697 787.334 327.122C807.09 326.518 826.862 325.532 846.65 324.164C857.085 323.464 867.535 322.684 878.002 321.825L893.654 320.441C909.402 318.962 925.34 319.057 941.135 317.912C950.688 317.948 960.094 315.568 968.479 310.993C973.052 307.928 976.423 303.376 978.023 298.108C978.943 295.559 979.237 292.826 978.882 290.139C978.503 288.925 978.232 287.679 978.071 286.417C978.071 281.931 978.071 277.35 978.071 272.864C978.429 265.771 978.334 258.662 977.785 251.581C977.747 250.798 977.463 250.046 976.973 249.434C976.487 249 975.894 248.704 975.255 248.575L967.334 246.332C971.08 245.056 974.179 242.368 975.971 238.84C976.475 237.155 976.653 235.39 976.496 233.639C976.64 229.404 975.992 225.181 974.587 221.184C972.917 217.318 972.631 214.169 968.575 213.024C947.769 207.297 925.149 201.857 903.294 197.658C927.822 199.471 952.318 201.937 976.782 205.054C978.219 205.043 979.644 205.32 980.972 205.869C982.3 206.418 983.504 207.228 984.513 208.252C985.602 210.179 986.069 212.396 985.849 214.598C985.849 224.142 985.849 234.02 986.183 243.708C986.883 258.055 987.758 272.371 988.808 286.656C989.171 291.296 988.598 295.962 987.122 300.377C985.647 304.792 983.299 308.865 980.219 312.355C977.139 315.844 973.389 318.68 969.191 320.692C964.994 322.704 960.435 323.852 955.786 324.068Z" fill="#EB924D"/>
<path d="M422.753 58.6973C390.209 64.275 356.927 63.9517 324.497 57.7429C357.233 55.9772 390.017 57.5997 422.753 58.6973Z" fill="#EB924D"/>
<path d="M687.79 85.4201C671.332 87.5212 654.699 87.9051 638.161 86.5654C592.779 84.4657 546.443 82.1751 504.259 66.5229C529.98 66.5229 555.462 70.7223 580.945 74.015C616.21 78.5961 652.525 82.0797 687.79 85.4201Z" fill="#EB924D"/>
<path d="M708.5 83.9413C696.427 83.5596 684.64 82.2711 672.472 80.935L510.224 63.1831C451.528 56.7409 392.451 50.3464 333.66 54.4026C325.833 54.4026 317.482 55.2616 309.8 55.1662C345.903 59.1736 382.26 60.418 418.554 58.8883C432.851 57.8579 447.204 57.8579 461.502 58.8883C472.859 60.3583 484.124 62.4774 495.24 65.2351C516.236 70.0071 537.472 73.3952 558.755 76.3061C618.249 84.1454 678.225 87.7494 738.23 87.0909C726.777 85.6115 719.572 84.3231 708.5 83.9413Z" fill="url(#paint7_linear_979_30171)"/>
<path d="M232.207 136.624C203.477 139.893 174.468 139.893 145.738 136.624C174.506 134.119 203.438 134.119 232.207 136.624Z" fill="#EB924D"/>
<path d="M254.874 136.863C214.217 136.067 173.527 135.908 132.806 136.385C137.751 136.077 142.674 135.487 147.552 134.62C152.61 133.999 157.668 133.331 162.727 132.806C172.868 131.702 183.087 131.478 193.267 132.138C194.869 132.176 196.47 132.032 198.039 131.709C200.445 131.59 202.857 131.685 205.245 131.995C210.463 132.281 215.664 132.663 220.85 133.14C231.205 133.999 241.608 135.145 251.915 136.481L254.874 136.863Z" fill="url(#paint8_linear_979_30171)"/>
<path d="M333.755 203.098L300.351 216.126C293.444 219.019 286.349 221.443 279.115 223.379C269.698 225.455 260.118 226.7 250.483 227.102C226.242 228.772 201.523 230.203 177.901 224.382C230.584 223.857 282.169 213.549 333.755 203.098Z" fill="#EB924D"/>
<path d="M383.193 190.881L298.92 212.928C285.546 216.653 271.992 219.695 258.31 222.043C241.307 224.332 224.166 225.432 207.011 225.335C191.804 225.526 176.597 225.526 161.39 225.335C167.26 224.429 173.13 223.665 179.047 223.045C181.433 223.045 183.819 223.045 186.396 222.52C198.618 221.276 210.904 220.75 223.188 220.945C236.398 219.719 249.516 217.647 262.461 214.741C282.981 211.401 303.453 207.488 323.877 203.336C344.301 199.185 363.294 195.176 383.193 190.881Z" fill="url(#paint9_linear_979_30171)"/>
<path d="M872.896 245.903C849.609 254.254 824.126 252.727 799.407 251.2C794.246 250.771 789.059 250.771 783.898 251.2C780.59 251.579 777.308 252.152 774.068 252.918C759.467 256.268 744.63 258.485 729.688 259.551C714.716 260.611 699.681 258.697 685.452 253.92C724.439 260.171 764.667 248.003 804.131 247.144C813.962 247.144 823.84 247.382 833.67 247.144C847.079 246.094 859.582 246.046 872.896 245.903Z" fill="#EB924D"/>
<path d="M670.372 252.251C691.693 255.995 713.357 257.419 734.984 256.498C748.871 255.4 762.567 252.346 776.406 250.819C792.869 249.006 809.475 249.387 826.034 249.149C855.745 248.674 885.386 246.139 914.746 241.561C906.538 241.561 898.282 241.561 890.075 241.561C882.869 241.848 875.759 241.561 868.41 241.561C852.28 241.895 836.199 242.945 820.165 244.281C804.131 245.617 788.145 247.192 772.111 248.672C756.077 250.151 740.138 251.487 724.104 252.251C708.07 253.014 691.941 253.205 675.907 252.251C674.094 252.441 672.185 252.489 670.372 252.251Z" fill="url(#paint10_linear_979_30171)"/>
</g>
<defs>
<linearGradient id="paint0_linear_979_30171" x1="709.429" y1="-444.767" x2="554.287" y2="-24.5439" gradientUnits="userSpaceOnUse">
<stop stop-color="#CF5C2B"/>
<stop offset="1" stop-color="#59173E"/>
</linearGradient>
<linearGradient id="paint1_linear_979_30171" x1="564.004" y1="-159.096" x2="407.196" y2="667.892" gradientUnits="userSpaceOnUse">
<stop stop-color="#CF5C2B"/>
<stop offset="1" stop-color="#59173E"/>
</linearGradient>
<linearGradient id="paint2_linear_979_30171" x1="561.427" y1="-133.424" x2="360.383" y2="893.464" gradientUnits="userSpaceOnUse">
<stop stop-color="#CF5C2B"/>
<stop offset="1" stop-color="#59173E"/>
</linearGradient>
<linearGradient id="paint3_linear_979_30171" x1="744.576" y1="-5.5334" x2="696.141" y2="123.979" gradientUnits="userSpaceOnUse">
<stop stop-color="#CF5C2B"/>
<stop offset="1" stop-color="#59173E"/>
</linearGradient>
<linearGradient id="paint4_linear_979_30171" x1="751.448" y1="-14.0757" x2="636.395" y2="252.727" gradientUnits="userSpaceOnUse">
<stop stop-color="#CF5C2B"/>
<stop offset="1" stop-color="#59173E"/>
</linearGradient>
<linearGradient id="paint5_linear_979_30171" x1="392.737" y1="130.659" x2="344.301" y2="260.124" gradientUnits="userSpaceOnUse">
<stop stop-color="#CF5C2B"/>
<stop offset="1" stop-color="#59173E"/>
</linearGradient>
<linearGradient id="paint6_linear_979_30171" x1="500.25" y1="-101.404" x2="218.654" y2="539.333" gradientUnits="userSpaceOnUse">
<stop stop-color="#CF5C2B"/>
<stop offset="1" stop-color="#59173E"/>
</linearGradient>
<linearGradient id="paint7_linear_979_30171" x1="648.278" y1="-164.728" x2="566.724" y2="-10.4489" gradientUnits="userSpaceOnUse">
<stop stop-color="#CF5C2B"/>
<stop offset="1" stop-color="#59173E"/>
</linearGradient>
<linearGradient id="paint8_linear_979_30171" x1="392.069" y1="-352.697" x2="270.669" y2="-52.9678" gradientUnits="userSpaceOnUse">
<stop stop-color="#CF5C2B"/>
<stop offset="1" stop-color="#59173E"/>
</linearGradient>
<linearGradient id="paint9_linear_979_30171" x1="484.36" y1="-315.285" x2="362.96" y2="-15.6033" gradientUnits="userSpaceOnUse">
<stop stop-color="#CF5C2B"/>
<stop offset="1" stop-color="#59173E"/>
</linearGradient>
<linearGradient id="paint10_linear_979_30171" x1="955.61" y1="-121.87" x2="825.217" y2="174.265" gradientUnits="userSpaceOnUse">
<stop stop-color="#CF5C2B"/>
<stop offset="1" stop-color="#59173E"/>
</linearGradient>
<clipPath id="clip0_979_30171">
<rect width="988.759" height="360" fill="white" transform="translate(0.620361)"/>
</clipPath>
</defs>
</svg>
