<svg width="38" height="41" viewBox="0 0 38 41" fill="none" xmlns="http://www.w3.org/2000/svg">
<g id="arrow-right" clip-path="url(#clip0_967_7021)">
<g id="Group">
<g id="Layer 2">
<g id="objects">
<path id="Vector" d="M8.87499 39.4C8.53745 39.4122 8.20006 39.3718 7.87499 39.28C6.90385 39.0453 6.0594 38.4478 5.51499 37.61C3.76499 35.07 4.26499 31.98 4.18499 29.12C4.09499 26.02 3.75499 22.82 3.75499 19.79L3.75499 19.55C3.75499 18.79 3.75499 18.04 3.75499 17.28L3.75499 17.18C3.83056 15.8112 4.40303 14.5169 5.36499 13.54C5.47621 13.43 5.54674 13.2854 5.56499 13.13C5.548 12.9763 5.48128 12.8324 5.37499 12.72C4.88559 12.2816 4.46429 11.7727 4.12499 11.21C4.01425 10.9273 3.97642 10.6212 4.01499 10.32C4.31499 7.48004 3.84499 4.24004 5.56499 1.74004C6.09423 0.903214 6.92481 0.30176 7.88499 0.060042C11.595 0.540042 14.825 2.36004 18.015 4.22004C22.015 6.56004 26.015 8.93004 29.765 11.61C32.655 13.61 36.465 15.97 37.365 19.67C36.305 23.99 30.495 27.06 27.245 29.52C27.065 29.65 26.865 29.8 26.685 29.95C25.3199 31.0004 23.8446 31.899 22.285 32.63C20.935 33.29 19.865 32.96 18.525 33.29C18.1604 33.4278 17.8654 33.7048 17.705 34.06C16.6898 35.9636 14.9934 37.4136 12.955 38.12C11.6766 38.773 10.2973 39.2057 8.87499 39.4Z" fill="url(#paint0_linear_967_7021)"/>
<path id="Vector_2" d="M8.24501 31.94L8.24501 29C8.24501 27.61 8.11501 26.21 8.03501 24.85C7.92501 23.07 7.82501 21.4 7.82501 19.79L7.82501 17.33C7.82501 16.97 7.90501 16.76 8.41501 16.14C9.15516 15.3194 9.56979 14.2565 9.58084 13.1514C9.59189 12.0463 9.1986 10.9753 8.47501 10.14L8.07501 9.69004L8.16501 8.17004C8.16501 7.33004 7.81501 5.25004 8.40501 4.58004C8.99501 3.91004 10.015 4.58004 10.765 4.90004C11.115 5.03004 11.435 5.18004 11.765 5.34004C13.225 6.03004 14.545 6.89004 15.975 7.73004C19.735 9.90004 23.715 12.29 27.425 14.92L28.305 15.53C29.535 16.39 32.445 17.94 32.465 19.82C32.485 21.7 28.645 23.58 27.295 24.51C26.405 25.13 25.555 25.7 24.775 26.3C24.595 26.44 24.345 26.62 24.125 26.81C23.0085 27.6636 21.8012 28.3913 20.525 28.98C20.2936 29.0418 20.0543 29.0688 19.815 29.06C19.0542 29.092 18.2978 29.1924 17.555 29.36C17.4967 29.3707 17.4398 29.3874 17.385 29.41C16.3655 29.7028 15.4654 30.3121 14.815 31.15C14.6531 31.3513 14.5029 31.5616 14.365 31.78L14.365 31.86C14.0729 32.4682 13.654 33.0068 13.1366 33.4397C12.6192 33.8726 12.0151 34.1898 11.365 34.37L10.995 34.55C8.86501 35.47 8.24501 33.77 8.24501 31.94Z" fill="url(#paint1_linear_967_7021)"/>
<path id="Vector_3" d="M17.555 29.36C17.4967 29.3707 17.4398 29.3874 17.385 29.41C18.1007 29.0043 18.8543 28.6694 19.635 28.41C20.333 28.2302 21.0179 28.003 21.685 27.73C22.5874 27.2951 23.4227 26.7327 24.165 26.06L30.815 20.24C31.0092 20.1119 31.1484 19.9157 31.205 19.69C31.2095 19.4807 31.1425 19.2761 31.015 19.11C29.8215 17.5391 28.3254 16.2232 26.615 15.24C24.745 14 22.905 12.72 21.055 11.46C20.4906 11.021 19.8546 10.6826 19.175 10.46C18.555 10.28 17.835 10.46 17.365 9.88004C17.1693 9.59851 17.0113 9.29258 16.895 8.97004C16.4812 8.27754 15.8578 7.73467 15.115 7.42004C14.378 7.11095 13.6772 6.72196 13.025 6.26004C13.505 5.89004 15.525 7.50004 15.975 7.77004C19.735 9.94004 23.715 12.33 27.425 14.96L28.305 15.57C29.535 16.43 32.445 17.98 32.465 19.86C32.485 21.74 28.645 23.62 27.295 24.55C26.405 25.17 25.555 25.74 24.775 26.34C24.595 26.48 24.345 26.66 24.125 26.85C23.0085 27.7036 21.8012 28.4313 20.525 29.02C20.2936 29.0818 20.0543 29.1088 19.815 29.1C19.0554 29.1189 18.299 29.2059 17.555 29.36Z" fill="#CCA5B3"/>
<path id="Vector_4" d="M14.3649 31.81C14.0312 32.0133 13.7224 32.2549 13.4449 32.53C13.8636 32.043 14.3218 31.5915 14.8149 31.18C14.653 31.3813 14.5028 31.5916 14.3649 31.81Z" fill="#CCA5B3"/>
<g id="Vector_5" style="mix-blend-mode:multiply">
<path d="M15.655 27.41C16.4238 27.3123 17.1578 27.0311 17.795 26.59C18.1486 26.3341 18.4281 25.9891 18.605 25.59C18.8417 25.018 18.9278 24.3948 18.855 23.78C18.7293 22.4416 18.2419 21.1626 17.445 20.08C17.1515 19.665 16.7456 19.3423 16.275 19.15C15.917 19.0366 15.5376 19.0074 15.1664 19.0647C14.7952 19.1219 14.4423 19.264 14.135 19.48C13.9355 19.6133 13.7481 19.7639 13.575 19.93C13.4059 19.9674 13.2389 20.0141 13.075 20.07C12.7466 20.1841 12.4416 20.3569 12.175 20.58C11.8472 20.8083 11.5851 21.1186 11.415 21.48C11.165 22.2263 11.165 23.0338 11.415 23.78C11.6661 24.9153 12.2349 25.9558 13.055 26.78C13.4101 27.0791 13.8297 27.2916 14.2809 27.4009C14.7321 27.5102 15.2024 27.5134 15.655 27.41Z" fill="#E8E6E8"/>
</g>
<g id="Vector_6" style="mix-blend-mode:multiply">
<path d="M15.3651 17.31C15.4251 17.31 15.4851 17.31 15.5351 17.31C15.5675 17.3207 15.6026 17.3207 15.6351 17.31C15.6631 17.2957 15.6898 17.2789 15.7151 17.26L15.8551 17.17C15.9141 17.1264 15.9709 17.0797 16.0251 17.03C16.0738 16.9813 16.1274 16.9378 16.1851 16.9C16.2351 16.9 16.1851 16.77 16.1851 16.71C16.1678 16.6085 16.1267 16.5126 16.0651 16.43C15.906 16.2427 15.7284 16.0718 15.5351 15.92L15.3651 15.76C15.3041 15.7138 15.2368 15.6767 15.1651 15.65C15.1651 15.65 15.0851 15.65 15.0451 15.65C14.9585 15.6451 14.8716 15.6451 14.7851 15.65C14.7352 15.645 14.6849 15.645 14.6351 15.65C14.6245 15.6471 14.6135 15.6463 14.6027 15.6477C14.5919 15.6491 14.5814 15.6528 14.5721 15.6584C14.5627 15.664 14.5546 15.6715 14.5482 15.6804C14.5419 15.6893 14.5374 15.6994 14.5351 15.71C14.5308 15.7264 14.5308 15.7436 14.5351 15.76C14.4284 15.92 14.3284 16.08 14.2351 16.24C14.175 16.3875 14.175 16.5526 14.2351 16.7C14.2851 16.83 14.3551 17.01 14.4951 17.07C14.6351 17.13 14.8051 17.21 14.9651 17.29C15.0461 17.3579 15.1494 17.3935 15.2551 17.39C15.2751 17.34 15.3651 17.32 15.3651 17.31Z" fill="#E8E6E8"/>
</g>
<g id="Vector_7" style="mix-blend-mode:multiply">
<path d="M22.365 23.25L22.455 23.25C22.4711 23.2562 22.4889 23.2562 22.505 23.25L22.725 22.8C22.7447 22.7145 22.7447 22.6256 22.725 22.54C22.7043 22.431 22.6742 22.3239 22.635 22.22C22.5948 22.1281 22.5445 22.0409 22.485 21.96C22.485 21.96 22.375 21.84 22.315 21.86L21.965 22.01C21.965 22.01 21.965 22.01 21.915 22.09L21.915 22.19L21.915 22.32L21.825 22.57L21.825 22.65L21.825 22.8C21.8433 22.8981 21.877 22.9926 21.925 23.08C21.9542 23.1443 21.9912 23.2047 22.035 23.26C22.0499 23.2861 22.072 23.3075 22.0985 23.3216C22.125 23.3358 22.155 23.3422 22.185 23.34L22.365 23.25Z" fill="#E8E6E8"/>
</g>
</g>
</g>
</g>
</g>
<defs>
<linearGradient id="paint0_linear_967_7021" x1="44.925" y1="19.3" x2="-14.295" y2="20" gradientUnits="userSpaceOnUse">
<stop stop-color="#965485"/>
<stop offset="1" stop-color="#2F2959"/>
</linearGradient>
<linearGradient id="paint1_linear_967_7021" x1="38.075" y1="19.23" x2="-23.825" y2="19.94" gradientUnits="userSpaceOnUse">
<stop stop-color="#A66F94"/>
<stop offset="1" stop-color="#362C54"/>
</linearGradient>
<clipPath id="clip0_967_7021">
<rect width="40.72" height="36.43" fill="white" transform="translate(37.365 0.0600433) rotate(90)"/>
</clipPath>
</defs>
</svg>
