<svg width="16" height="17" viewBox="0 0 16 17" fill="none" xmlns="http://www.w3.org/2000/svg">
<path d="M10 3.5H6L4.5 1.28125C4.28125 0.96875 4.53125 0.5 4.90625 0.5H11.0625C11.4375 0.5 11.6875 0.96875 11.4688 1.28125L10 3.5ZM6 4.5H10C10.0938 4.59375 10.25 4.6875 10.4062 4.78125C12.1562 5.90625 16 8.34375 16 13.5C16 15.1562 14.6562 16.5 13 16.5H3C1.34375 16.5 0 15.1562 0 13.5C0 8.34375 3.8125 5.90625 5.59375 4.78125C5.71875 4.6875 5.875 4.59375 6 4.5ZM8.625 7.25C8.625 6.90625 8.34375 6.625 8 6.625C7.65625 6.625 7.375 6.90625 7.375 7.25V7.6875C7.125 7.75 6.875 7.84375 6.65625 7.96875C6.21875 8.21875 5.84375 8.6875 5.875 9.34375C5.875 9.96875 6.25 10.375 6.625 10.625C6.96875 10.8125 7.40625 10.9375 7.75 11.0625H7.8125C8.1875 11.1875 8.46875 11.2812 8.6875 11.4062C8.84375 11.5 8.84375 11.5625 8.84375 11.6562C8.875 11.8125 8.8125 11.9062 8.6875 11.9688C8.53125 12.0938 8.28125 12.125 8 12.125C7.65625 12.125 7.34375 12 6.90625 11.875C6.84375 11.8438 6.75 11.8125 6.6875 11.7812C6.34375 11.6875 6 11.8438 5.90625 12.1875C5.78125 12.5 5.96875 12.875 6.28125 12.9688C6.34375 13 6.40625 13 6.46875 13.0312C6.75 13.125 7.03125 13.2188 7.34375 13.3125V13.75C7.34375 14.0938 7.625 14.375 7.96875 14.375C8.3125 14.375 8.59375 14.0938 8.59375 13.75V13.3438C8.84375 13.2812 9.09375 13.1875 9.34375 13.0625C9.78125 12.7812 10.125 12.3125 10.0938 11.6562C10.0938 11 9.75 10.5938 9.34375 10.3438C8.96875 10.125 8.53125 9.96875 8.1875 9.875H8.15625C7.75 9.75 7.46875 9.65625 7.28125 9.53125C7.125 9.4375 7.09375 9.375 7.09375 9.34375C7.09375 9.21875 7.15625 9.125 7.3125 9.03125C7.46875 8.9375 7.71875 8.875 7.96875 8.875C8.28125 8.875 8.59375 8.96875 8.9375 9.0625C9.28125 9.125 9.625 8.9375 9.71875 8.59375C9.8125 8.28125 9.59375 7.9375 9.28125 7.84375C9.0625 7.78125 8.84375 7.71875 8.625 7.6875V7.25Z" fill="white"/>
</svg>
