<svg width="16" height="17" viewBox="0 0 16 17" fill="none" xmlns="http://www.w3.org/2000/svg">
<path d="M15 1.5V5.5C15.5312 5.5 16 5.96875 16 6.5C16 7.0625 15.5312 7.5 15 7.5H14H13C12.4375 7.5 12 7.0625 12 6.5C12 5.96875 12.4375 5.5 13 5.5V3C12.625 3 12.2812 2.8125 12.0938 2.46875C11.8438 1.96875 12.0312 1.375 12.5312 1.125L13.5312 0.625C13.8438 0.46875 14.2188 0.46875 14.5 0.65625C14.8125 0.84375 15 1.15625 15 1.5ZM1 2.5H2C2.3125 2.5 2.625 2.6875 2.8125 2.9375L5.5 6.78125L8.15625 2.9375C8.34375 2.6875 8.65625 2.5 9 2.5H10C10.5312 2.5 11 2.96875 11 3.5C11 4.0625 10.5312 4.5 10 4.5H9.5L6.71875 8.5L9.5 12.5H10C10.5312 12.5 11 12.9688 11 13.5C11 14.0625 10.5312 14.5 10 14.5H9C8.65625 14.5 8.34375 14.3438 8.15625 14.0938L5.5 10.25L2.8125 14.0938C2.625 14.3438 2.3125 14.5 2 14.5H1C0.4375 14.5 0 14.0625 0 13.5C0 12.9688 0.4375 12.5 1 12.5H1.46875L4.25 8.5L1.46875 4.5H1C0.4375 4.5 0 4.0625 0 3.5C0 2.96875 0.4375 2.5 1 2.5Z" fill="white"/>
</svg>
