<svg width="16" height="17" viewBox="0 0 16 17" fill="none" xmlns="http://www.w3.org/2000/svg">
<path d="M7 0.5C7.53125 0.5 8 0.96875 8 1.5V5H6V1.5C6 0.96875 6.4375 0.5 7 0.5ZM3 2.5C3 1.96875 3.4375 1.5 4 1.5C4.53125 1.5 5 1.96875 5 2.5V5H3V2.5ZM9 2.5C9 1.96875 9.4375 1.5 10 1.5C10.5312 1.5 11 1.96875 11 2.5V5.5C11 6.0625 10.5312 6.5 10 6.5C9.4375 6.5 9 6.0625 9 5.5V2.5ZM12 4.5C12 3.96875 12.4375 3.5 13 3.5C13.5312 3.5 14 3.96875 14 4.5V6.5C14 7.0625 13.5312 7.5 13 7.5C12.4375 7.5 12 7.0625 12 6.5V4.5ZM9 7.25C9.28125 7.40625 9.625 7.5 10 7.5C10.4062 7.5 10.7812 7.375 11.0938 7.1875C11.375 7.96875 12.125 8.5 13 8.5C13.3438 8.5 13.6875 8.40625 14 8.25V8.5C14 10.1562 13.1875 11.5938 12 12.5V15.5C12 16.0625 11.5312 16.5 11 16.5H6C5.4375 16.5 5 16.0625 5 15.5V13.0625C4.4375 12.8125 3.9375 12.4688 3.53125 12.0625L3.15625 11.6875C2.40625 10.9375 2 9.90625 2 8.84375V8C2 6.90625 2.875 6 4 6H6.75C7.4375 6 8 6.5625 8 7.25C8 7.96875 7.4375 8.5 6.75 8.5H5C4.71875 8.5 4.5 8.75 4.5 9C4.5 9.28125 4.71875 9.5 5 9.5H6.75C7.96875 9.5 9 8.5 9 7.25Z" fill="white"/>
</svg>
