<svg width="12" height="17" viewBox="0 0 12 17" fill="none" xmlns="http://www.w3.org/2000/svg">
<path d="M5 0.5C5.53125 0.5 6 0.96875 6 1.5V5H4V1.5C4 0.96875 4.4375 0.5 5 0.5ZM1 2.5C1 1.96875 1.4375 1.5 2 1.5C2.53125 1.5 3 1.96875 3 2.5V5H1V2.5ZM7 2.5C7 1.96875 7.4375 1.5 8 1.5C8.53125 1.5 9 1.96875 9 2.5V5.5C9 6.0625 8.53125 6.5 8 6.5C7.4375 6.5 7 6.0625 7 5.5V2.5ZM10 4.5C10 3.96875 10.4375 3.5 11 3.5C11.5312 3.5 12 3.96875 12 4.5V6.5C12 7.0625 11.5312 7.5 11 7.5C10.4375 7.5 10 7.0625 10 6.5V4.5ZM7 7.25C7.28125 7.40625 7.625 7.5 8 7.5C8.40625 7.5 8.78125 7.375 9.09375 7.1875C9.375 7.96875 10.125 8.5 11 8.5C11.3438 8.5 11.6875 8.40625 12 8.25V8.5C12 10.1562 11.1875 11.5938 10 12.5V15.5C10 16.0625 9.53125 16.5 9 16.5H4C3.4375 16.5 3 16.0625 3 15.5V13.0625C2.4375 12.8125 1.9375 12.4688 1.53125 12.0625L1.15625 11.6875C0.40625 10.9375 0 9.90625 0 8.84375V8C0 6.90625 0.875 6 2 6H4.75C5.4375 6 6 6.5625 6 7.25C6 7.96875 5.4375 8.5 4.75 8.5H3C2.71875 8.5 2.5 8.75 2.5 9C2.5 9.28125 2.71875 9.5 3 9.5H4.75C5.96875 9.5 7 8.5 7 7.25Z" fill="#2DE481"/>
</svg>
