<svg width="164" height="173" viewBox="0 0 164 173" fill="none" xmlns="http://www.w3.org/2000/svg">
<g id="square" clip-path="url(#clip0_967_3376)">
<g id="Group">
<g id="Layer 2">
<g id="objects">
<g id="Vector" style="mix-blend-mode:multiply">
<path d="M2.87043 37.4731C11.0436 25.8179 19.9181 16.3872 29.8324 10.342C32.0976 8.96349 34.6786 8.18919 37.3285 8.09312L125.469 4.90122C128.822 4.79069 132.121 5.76603 134.875 7.68204C145.643 15.2575 154.643 25.0742 161.257 36.4575C162.694 38.8966 163.446 41.6787 163.433 44.5098L163.215 68.3524L162.998 90.6231C162.998 95.0241 164.594 106.873 161.208 110.258C160.096 111.346 158.186 111.83 157.775 113.353C157.968 112.676 161.644 115.385 161.91 115.771C163.36 117.682 162.587 119.592 162.708 121.841C162.877 124.743 162.708 127.693 162.708 130.57C162.673 133.914 161.553 137.156 159.516 139.807C150.195 152.659 138.019 163.171 123.945 170.517C121.867 171.557 119.571 172.088 117.247 172.065H50.483C47.8517 172.053 45.2656 171.379 42.9627 170.106C31.3638 163.51 20.7764 155.277 11.5273 145.659C8.89009 143.09 7.26751 139.656 6.95704 135.987C5.62708 122.615 4.03112 109.654 6.95704 96.4991C7.22984 95.6488 7.33656 94.754 7.27139 93.8634C7.07489 92.8797 6.70654 91.9384 6.18324 91.0826C0.0170601 79.0162 1.10521 60.953 0.0170601 47.605C-0.246919 43.9979 0.762829 40.4124 2.87043 37.4731Z" fill="#9c858c"/>
</g>
<path id="Vector_2" d="M3.98273 31.2102C11.8174 20.0627 20.305 11.0432 29.784 5.26393C31.9752 3.93105 34.4747 3.18952 37.0383 3.11181L121.285 0.0649989C124.502 -0.0280847 127.663 0.912678 130.305 2.7491C140.6 9.99315 149.204 19.381 155.526 30.2672C156.895 32.6067 157.613 35.2701 157.605 37.9809L157.388 60.7837C157.388 67.8607 157.323 74.9619 157.194 82.0872C157.194 86.2947 158.718 97.6357 155.477 100.852C154.413 101.916 152.6 102.375 152.213 103.826C152.382 103.197 155.913 105.785 156.154 106.099C157.533 107.913 156.807 109.775 156.928 111.902C157.073 114.683 156.928 117.488 156.928 120.269C156.871 123.459 155.805 126.549 153.881 129.095C144.951 141.4 133.288 151.465 119.81 158.499C117.83 159.493 115.641 159.998 113.426 159.974H49.5641C47.0252 159.971 44.5288 159.322 42.3098 158.088C31.2477 151.779 21.1565 143.903 12.3494 134.705C9.81171 132.224 8.25714 128.909 7.97261 125.371C6.69102 112.58 5.16761 100.199 7.97261 87.6005C8.18294 86.8128 8.2646 85.9962 8.21443 85.1824C8.05155 84.2415 7.73282 83.3343 7.27136 82.4983C1.27445 70.9639 2.43514 53.6744 1.32281 40.9068C1.04437 37.4627 1.98593 34.0303 3.98273 31.2102Z" fill="url(#paint0_linear_967_3376)"/>
<path id="Vector_3" d="M149.521 89.1384C149.689 93.5675 149.802 98.0246 149.773 102.454V111.957C149.773 116.638 149.773 121.347 149.773 125.973C141.487 137.326 130.8 146.724 118.469 153.5H45.3504C34.5431 147.221 24.6764 139.455 16.0412 130.43C16.0412 130.43 16.0412 130.177 16.0412 130.065C15.732 126.253 15.451 122.384 15.17 118.516C15.17 117.815 15.17 117.142 15.0014 116.414L14.6361 112.097C14.1303 106.07 13.1468 99.8467 13.1749 93.7918C13.1749 90.0074 15.5353 85.5503 15.1981 82.2145C15.0392 81.3598 14.6833 80.5537 14.1584 79.8598C9.07213 71.4502 10.4772 59.4525 9.74655 49.8375C9.60604 49.0246 9.60604 47.8473 9.18453 46.2214C8.4258 41.8204 7.24557 35.2609 8.45391 33.5509C9.66225 31.841 10.8144 30.2712 12.0227 28.7294C17.354 21.3786 23.9128 14.9971 31.4124 9.86384L127.911 6.5C132.21 6.5 141.343 18.6098 143.844 21.7494C147.249 26.5683 149.288 32.2142 149.745 38.0921C149.998 40.6087 149.998 43.1442 149.745 45.6608C149.612 47.0351 149.358 48.3952 148.987 49.7254C148.614 51.2487 148.047 52.7183 147.301 54.0984C146.177 56.1447 139.882 60.9943 140.022 63.1808C140.022 63.6808 140.213 64.162 140.556 64.5263C142.186 66.2643 147.048 64.6945 149.24 63.8816C149.071 67.1053 149.043 70.385 149.24 73.6648C149.127 78.8227 149.352 83.9806 149.521 89.1384Z" fill="url(#paint1_linear_967_3376)"/>
<path id="Vector_4" d="M149.711 45.6815C150.948 34.7993 136.812 21.9539 130.77 14.4934C130.342 13.8775 129.786 13.361 129.14 12.9788C128.363 12.6372 127.511 12.5019 126.667 12.5862C112.25 13.3995 98.2268 11.3241 83.6133 12.0252C68.241 12.7545 52.9249 14.4653 37.6369 16.2042C23.2763 17.831 21.0281 25.2914 12.3443 35.0237C11.4386 35.8764 10.7208 36.908 10.2366 38.0528C9.94575 39.1782 9.85069 40.345 9.95555 41.5025C10.1523 45.9901 10.3771 50.4495 10.5738 54.937C10.4725 59.9171 11.3016 64.8724 13.0188 69.5495C15.6323 75.5515 21.281 81.4694 19.0047 87.5556C18.1286 89.337 17.1236 91.0524 15.9977 92.6882C12.2038 100.317 16.1663 108.619 15.0422 116.5L14.5925 112.153C14.0867 106.123 13.1031 99.8962 13.1312 93.8381C13.1312 90.0518 15.4918 85.5923 15.1546 82.2547C14.9957 81.3996 14.6397 80.593 14.1148 79.8988C9.02815 71.4847 10.4333 59.4806 9.70262 49.8605C9.4778 47.0558 6.89233 35.9773 8.40989 33.6775C14.4913 24.3985 22.2826 16.3562 31.37 9.97782L127.875 6.5C132.175 6.5 141.309 18.6163 143.81 21.7575C148.568 28.7767 150.661 37.26 149.711 45.6815Z" fill="#CCA5B3"/>
<path id="Vector_5" d="M149.928 102.006V111.5C148.011 102.444 146.685 93.2772 145.959 84.0554C145.531 77.4743 145.16 70.0531 139.935 65.8804C140.103 65.2763 140.343 64.6936 140.649 64.1441C142.305 65.8804 147.244 64.3121 149.471 63.5C148.757 76.2141 150.042 89.1803 149.928 102.006Z" fill="#CCA5B3"/>
<g id="Vector_6" style="mix-blend-mode:multiply">
<path d="M28.417 41.0677C35.0786 34.3914 47.2733 34.2783 55.2838 37.7861C56.7274 38.2467 58.05 39.0388 59.1517 40.1023C60.2534 41.1659 61.1052 42.4731 61.6427 43.9249C61.986 45.1901 62.0276 46.5217 61.7641 47.8069C61.5006 49.0921 60.9396 50.2932 60.1286 51.3084C57.7613 54.5051 52.476 55.6367 48.8148 56.1176C45.5948 56.6275 42.3177 56.6275 39.0976 56.1176C35.4147 55.3683 31.8912 53.9505 28.6923 51.9308C27.3004 50.9477 26.3181 49.4637 25.9395 47.7722C25.902 46.542 26.1016 45.3164 26.5268 44.1657C26.952 43.0151 27.5943 41.9622 28.417 41.0677Z" fill="#E8E6E8"/>
</g>
<g id="Vector_7" style="mix-blend-mode:multiply">
<path d="M25.9506 63.9338C26.0643 63.3844 26.2887 62.8671 26.6088 62.4167C26.9289 61.9663 27.3372 61.5934 27.806 61.3231L28.1607 61.1509C29.3932 60.5902 30.6847 60.1857 32.0081 59.946C33.7984 59.5294 35.6388 59.4036 37.4653 59.573C39.3418 59.6885 41.1866 60.1346 42.9225 60.8927C44.8598 61.8969 48.3797 63.0731 47.8886 65.8847C47.643 67.7495 45.16 68.4381 43.7138 68.8971C41.3477 69.4938 38.9002 69.6492 36.483 69.3561C34.0484 69.2313 31.6548 68.6482 29.4159 67.6348C28.6434 67.2593 27.9116 66.7976 27.233 66.2577C26.6054 65.7126 25.8141 64.9379 25.9506 63.9338Z" fill="#E8E6E8"/>
</g>
<g id="Vector_8" style="mix-blend-mode:multiply">
<path d="M64.2265 26.6851L64.4973 26.5202H64.8696C65.2298 26.4933 65.5923 26.4933 65.9526 26.5202C66.8207 26.4827 67.6854 26.6346 68.457 26.9601C68.5544 26.9874 68.6438 27.0308 68.7196 27.0876C68.7953 27.1444 68.8557 27.2133 68.8969 27.2901C68.9217 27.3181 68.9351 27.3518 68.9351 27.3863C68.9351 27.4209 68.9217 27.4545 68.8969 27.4826C68.8824 27.5215 68.8562 27.557 68.8208 27.5857C68.7854 27.6145 68.7418 27.6358 68.6939 27.6476C68.4642 27.7776 68.1949 27.8537 67.9155 27.8676H67.6786H67.4078C67.2553 27.9731 67.119 28.0931 67.0017 28.225C67.0017 28.4725 66.3925 28.5 66.0879 28.5H65.4449C65.2044 28.4776 64.9732 28.4118 64.768 28.3075C64.4607 28.1349 64.2341 27.8829 64.125 27.5926C64.0565 27.5283 64.0046 27.4534 63.9725 27.3724C63.9404 27.2914 63.9288 27.206 63.9383 27.1213C63.9477 27.0366 63.9782 26.9543 64.0277 26.8794C64.0772 26.8044 64.1449 26.7384 64.2265 26.6851Z" fill="#E8E6E8"/>
</g>
<g id="Vector_9" style="mix-blend-mode:multiply">
<path d="M87.6538 128.704C87.3103 127.844 86.4229 126.873 86.6519 125.929C86.795 124.07 90.3734 123.155 91.7761 122.96C94.5508 122.526 97.3754 122.479 100.164 122.822C95.2361 121.508 90.984 118.474 88.2264 114.303C86.6691 111.862 85.6357 109.142 85.1881 106.305C84.7405 103.469 84.8878 100.573 85.6213 97.7932C87.5679 91.1615 93.0929 88.5532 99.7343 87.3878C110.441 85.4732 127.674 86.1114 135.489 94.7964C137.127 96.6918 138.23 98.9659 138.691 101.397C139.153 103.828 138.957 106.334 138.123 108.67C136.652 112.774 133.564 116.147 129.535 118.049C129.535 125.929 116.853 125.291 111.3 124.847C110.155 124.847 109.009 124.653 107.836 124.486C110.234 125.426 112.357 126.922 114.019 128.843C114.162 129.259 114.277 129.703 114.42 130.119L114.191 130.619C113.132 132.977 109.925 133.754 107.091 133.976C105.935 134.852 104.522 135.348 103.055 135.391C99.8954 135.711 96.7022 135.322 93.7227 134.254C92.451 133.852 91.2737 133.211 90.2589 132.367C89.5378 131.643 88.9302 130.82 88.4554 129.925C88.2321 129.755 88.0217 129.569 87.8256 129.37L87.6538 128.704Z" fill="#E8E6E8"/>
</g>
<g id="Vector_10" style="mix-blend-mode:multiply">
<path d="M121.94 71.0744C121.94 70.6513 121.94 70.2282 121.94 69.8051C121.94 69.382 123.644 69.3517 123.727 70.0166C123.81 70.6815 123.873 71.4068 123.935 72.1019L123.81 72.253C123.583 72.4386 123.323 72.5227 123.062 72.4948C122.755 72.5097 122.452 72.3942 122.189 72.1623C122.002 71.9508 121.94 71.8903 121.94 71.5579C121.933 71.3969 121.933 71.2354 121.94 71.0744Z" fill="#E8E6E8"/>
</g>
<g id="Vector_11" style="mix-blend-mode:multiply">
<path d="M40.5929 123.194C40.8856 122.915 41.1069 122.597 41.2453 122.256C41.6367 121.417 43.6917 121.491 44.5072 121.516C45.2268 121.468 45.9517 121.529 46.6403 121.694C47.3288 121.859 47.9674 122.126 48.5193 122.478C48.8894 122.793 49.2071 123.141 49.4653 123.514C49.7588 123.934 50.1503 124.452 49.7915 124.921C49.3 125.314 48.7131 125.633 48.0627 125.859C47.0562 126.259 45.9376 126.47 44.8008 126.475C43.4269 126.59 42.0475 126.299 40.9517 125.661C40.5694 125.326 40.251 124.953 40.0058 124.551C39.7774 123.934 40.1363 123.662 40.5929 123.194Z" fill="#E8E6E8"/>
</g>
</g>
</g>
</g>
</g>
<defs>
<linearGradient id="paint0_linear_967_3376" x1="78.0978" y1="-36.6661" x2="82.257" y2="199.269" gradientUnits="userSpaceOnUse">
<stop stop-color="#965485"/>
<stop offset="1" stop-color="#2F2959"/>
</linearGradient>
<linearGradient id="paint1_linear_967_3376" x1="77.9756" y1="19.3106" x2="94.3623" y2="350.821" gradientUnits="userSpaceOnUse">
<stop stop-color="#A66F94"/>
<stop offset="1" stop-color="#362C54"/>
</linearGradient>
<clipPath id="clip0_967_3376">
<rect width="163.416" height="172" fill="#9b848b" transform="translate(0.0170898 0.0650024)" opacity="0.5"/>
</clipPath>
</defs>
</svg>
