<svg width="425" height="49" viewBox="0 0 425 49" fill="none" xmlns="http://www.w3.org/2000/svg">
<g id="progress-bar-asset">
<g id="progress-bar">
<path id="Vector" d="M424.302 10.6095C424.018 7.84859 422.721 5.29076 420.663 3.42918C418.604 1.56759 415.929 0.534066 413.153 0.527867C278.47 -0.0431433 145.682 -0.0431433 14.7899 0.527867C13.2883 0.552447 11.8074 0.882072 10.4371 1.49671C9.33791 1.91269 8.32424 2.5266 7.44635 3.30803C6.62812 4.10462 5.88978 4.97934 5.24188 5.91971C4.49498 6.99681 3.83752 8.13327 3.27611 9.31769C2.39531 11.0866 1.79377 12.9812 1.49288 14.9342C0.762732 22.1736 0.819227 29.4709 1.66137 36.6981C1.94661 39.435 3.22652 41.972 5.25828 43.8277C7.29003 45.6835 9.93228 46.7289 12.6837 46.7657C143.248 48.5349 275.971 48.5349 410.851 46.7657C413.672 46.7181 416.375 45.6219 418.433 43.6907C418.748 43.3501 419.08 43.0267 419.43 42.7218C419.636 42.5317 419.803 42.3026 419.921 42.0478C420.272 41.4441 420.623 40.8262 420.96 40.2084C421.634 38.9588 422.28 37.695 422.856 36.4033C423.051 36.0663 423.206 35.7083 423.319 35.3361C423.384 35.042 423.464 34.7515 423.558 34.4656C423.803 33.7128 423.968 32.9362 424.049 32.1488C424.901 24.9985 424.985 17.7778 424.302 10.6095Z" fill="url(#paint0_linear_967_2332)"/>
<path id="Vector_2" d="M424.555 22.8955C424.618 26.0009 424.464 29.107 424.092 32.1908C423.968 33.375 423.655 34.5316 423.165 35.6168C422.786 36.4265 422.315 37.1898 421.761 37.8915C420.725 39.2202 419.403 40.2987 417.894 41.0473C416.384 41.796 414.726 42.1954 413.041 42.2162H408.267L396.332 42.3707L384.397 42.4971L372.56 42.6234L362.549 42.7358H360.653L348.76 42.834C347.567 42.834 346.359 42.9183 345.18 42.834C344 42.7498 342.737 42.6796 341.529 42.6796C341.311 42.6948 341.093 42.6511 340.897 42.5532C340.742 42.4243 340.617 42.2635 340.53 42.0817C340.443 41.9 340.396 41.7017 340.392 41.5001C340.298 40.8636 340.228 40.2317 340.181 39.6046C340.073 38.4237 340.036 37.2374 340.069 36.0521C339.993 37.7901 339.627 39.5032 338.988 41.121C338.988 41.2755 338.875 41.4159 338.805 41.5703C338.595 42.0477 338.286 42.5813 337.78 42.6515C337.275 42.7217 336.994 42.4971 336.587 42.5251C336.179 42.5532 336.179 42.6936 335.941 42.82C335.789 42.8803 335.627 42.9136 335.463 42.9183C334.313 42.9885 333.16 42.9885 332.009 42.9183H324.989L313.138 43.0025H303.084H301.273H295.263H289.436H277.599H265.791H260.539H253.982H243.156H234.732H231.839C229.761 43.0025 227.627 43.0727 225.591 43.0025C222.783 42.8762 219.048 44.1258 216.759 42.0899C216.529 41.8926 216.326 41.666 216.155 41.4159C215.611 40.586 215.199 39.6765 214.934 38.72C214.934 39.9416 214.863 41.1491 214.835 42.3566C214.835 42.6936 214.835 43.0306 214.835 43.3676C213.192 43.143 211.55 42.9604 209.893 42.806C208.868 42.7217 207.843 42.6375 206.818 42.5813H206.733C206.354 42.5813 205.961 42.5813 205.568 42.5813C205.532 42.5954 205.492 42.5954 205.456 42.5813C204.483 42.5476 203.517 42.7601 202.647 43.1991C201.735 41.6967 200.822 40.1943 199.923 38.6919L198.112 35.6871C198.66 37.5265 199.221 39.3659 199.769 41.1912C199.827 41.369 199.864 41.5527 199.881 41.7388C199.904 41.8557 199.902 41.9761 199.875 42.0921C199.849 42.2081 199.798 42.3174 199.727 42.4128C199.306 42.8902 198.561 42.5532 198.028 42.6375C197.795 42.7113 197.574 42.8152 197.368 42.9464C196.665 43.1461 195.929 43.1987 195.206 43.1008H183.285H171.546H164.427H159.836C155.932 43.1008 152.029 43.1008 148.125 43.1008H144.784H136.429H128.004H124.733L113.064 43.0306L101.396 42.9464L91.104 42.8762H85.2769C80.8258 42.8762 76.3747 42.7358 71.9237 42.6094C71.5305 42.6094 67.0794 42.8481 67.613 41.9354C67.7675 41.6967 68.1045 41.5001 68.287 41.2895C68.8033 40.7048 69.2728 40.0804 69.6911 39.422L70.1545 38.6638C70.7732 37.5764 71.4824 36.543 72.2747 35.5747C72.5164 35.284 72.7843 35.016 73.075 34.7744C73.1829 34.6518 73.3246 34.5639 73.4822 34.5216C73.5946 34.5216 73.8894 34.5216 73.9596 34.5216C74.0298 34.5216 72.9065 33.7774 72.7381 33.6932C72.036 34.4935 71.4743 35.4764 70.8565 36.333L68.8767 39.1272C68.2416 40.1106 67.487 41.0114 66.6301 41.809L66.5459 41.8792C66.0936 42.2398 65.5798 42.5157 65.0294 42.6936C62.4318 43.5782 58.9215 42.6936 56.38 42.6936C52.7012 42.6936 49.0224 42.6936 45.3436 42.6936H44.2484L14.8742 42.2864C12.1203 42.2531 9.47462 41.2092 7.43993 39.3531C5.40523 37.497 4.12331 34.9581 3.83778 32.2189C3.69737 30.8147 3.55695 29.4808 3.45867 28.1048C3.36038 26.7287 2.67236 24.3417 3.69737 22.9938C3.78401 22.8266 3.90339 22.6786 4.0484 22.5585C4.27306 22.39 4.63813 22.4602 4.91895 22.4321L10.7601 22.0249C10.8754 21.9969 10.9958 21.9969 11.1111 22.0249C11.3639 22.1232 11.4341 22.4462 11.4762 22.7129C11.5183 22.9797 11.4762 23.3448 11.5885 23.6537C11.5885 22.7129 11.5885 21.8143 11.5885 20.9157C11.5885 20.017 11.5885 19.5115 11.5885 18.8376C11.4998 19.0731 11.4386 19.3181 11.406 19.5677C11.3348 19.814 11.2096 20.0413 11.0396 20.2331C10.8696 20.425 10.659 20.5766 10.4231 20.677C10.1932 20.7808 9.94509 20.8381 9.69297 20.8455C9.27173 20.8455 8.86454 20.9437 8.4433 20.9718C7.50911 21.056 6.56924 21.056 5.63506 20.9718C5.31844 20.9409 5.00418 20.8893 4.69429 20.8174C4.38956 20.7331 4.10036 20.6003 3.83778 20.4242C3.65524 20.2838 3.65524 20.2136 3.59908 19.9889C3.54291 19.7643 3.41654 19.329 3.3323 18.992C3.11038 17.5967 3.11038 16.175 3.3323 14.7796C3.43058 13.3755 3.54291 11.8029 3.68333 10.4128C4.00869 7.69208 5.31731 5.1841 7.36287 3.36094C9.40843 1.53778 12.0498 0.525176 14.7899 0.513735H22.4143H28.1993H28.8733H42.6477H52.4766H59.4972H68.4274H77.3436H86.2878L95.1057 0.23291H104.064H211.957C224.978 0.23291 238.013 0.23291 251.062 0.23291H293.789H305.022H314.373L372.588 0.373323H385.562H390.687H396.304H413.153C415.679 0.393107 418.126 1.25639 420.106 2.82603C422.085 4.39568 423.483 6.58167 424.078 9.03677C424.133 9.54541 424.133 10.0586 424.078 10.5673C424.176 11.422 424.035 12.2875 423.67 13.0666C422.973 14.0663 422.074 14.9083 421.031 15.5379L418.559 17.293C417.648 17.8211 416.904 18.5947 416.411 19.5256C416.266 19.907 416.19 20.3111 416.186 20.7191C416.181 21.3077 416.233 21.8955 416.341 22.4742C416.303 21.6811 416.525 20.8974 416.973 20.2417C417.222 19.9524 417.505 19.6932 417.815 19.4694L422.954 15.4115C423.09 15.2672 423.256 15.1556 423.441 15.085C423.626 15.0145 423.824 14.9869 424.021 15.0043C424.864 15.257 424.527 22.0811 424.555 22.8955Z" fill="url(#paint1_linear_967_2332)"/>
<path id="Vector_3" d="M11.8132 18.3461V18.5708C11.8416 18.8039 11.8416 19.0397 11.8132 19.2728C11.8198 19.357 11.8198 19.4415 11.8132 19.5256C11.8132 19.5958 11.7149 19.6379 11.6588 19.6941C11.6026 19.7502 11.3077 20.3259 10.9848 20.5085C10.8571 20.5759 10.7197 20.6233 10.5776 20.6489L9.17346 21.0139C9.60874 20.7893 10.0581 20.5506 10.4933 20.2978C10.6399 20.2221 10.7653 20.1111 10.8584 19.9749C10.8776 19.8681 10.8776 19.7587 10.8584 19.6519C10.8584 19.5115 10.8584 19.3852 10.9567 19.2448C11.0385 18.7815 11.0668 18.3104 11.0409 17.8406C11.0269 17.7428 11.0269 17.6436 11.0409 17.5458C11.0774 17.4792 11.1057 17.4085 11.1252 17.3351C11.2805 16.7442 11.3977 16.1438 11.4762 15.5379C11.4762 15.229 11.4762 14.92 11.5745 14.6111C11.6728 14.3022 11.5745 14.0776 11.5745 13.8108C11.6728 15.3694 11.743 16.942 11.8132 18.3461Z" fill="#6D5873"/>
<path id="Vector_4" d="M424.555 22.8954C424.618 26.0008 424.464 29.1069 424.092 32.1907C423.968 33.3748 423.655 34.5315 423.165 35.6167C422.786 36.4264 422.315 37.1897 421.761 37.8914C422.079 36.609 422.346 35.3172 422.561 34.016C423.114 30.298 423.368 26.5416 423.319 22.783C423.319 20.9015 423.319 18.9919 423.319 17.1665C423.319 16.4785 422.828 16.7453 422.421 17.0402C420.912 17.9731 419.501 19.055 418.208 20.2696C417.632 20.867 417.158 21.5548 416.804 22.3056C416.282 23.4717 416.088 24.7582 416.242 26.0266C416.292 26.5847 416.263 27.147 416.158 27.6975C416.086 28.1001 415.992 28.4985 415.877 28.891C415.877 29.0876 415.751 29.2701 415.681 29.4667C415.595 29.6234 415.525 29.788 415.47 29.9581C415.358 27.9502 415.26 25.9564 415.189 23.9344C415.126 23.2696 415.208 22.599 415.428 21.9686C415.635 21.5582 415.899 21.1799 416.214 20.8453C416.209 21.434 416.261 22.0218 416.369 22.6005C416.331 21.8074 416.553 21.0236 417.001 20.3679C417.251 20.0786 417.533 19.8195 417.843 19.5957L422.982 15.5378C423.118 15.3935 423.284 15.2818 423.469 15.2113C423.654 15.1407 423.852 15.1131 424.049 15.1306C424.864 15.2569 424.527 22.081 424.555 22.8954Z" fill="#6D5873"/>
<path id="Vector_5" d="M65.0294 42.6937C62.4318 43.5783 58.9215 42.6937 56.38 42.6937C52.7012 42.6937 49.0224 42.6937 45.3436 42.6937L45.133 42.2163L45.0488 42.1039C41.4193 37.7805 38.217 33.1157 35.4867 28.175C30.6144 19.1044 27.9887 9.05084 22.4143 0.485684H28.1993C28.5363 0.864798 28.8592 1.24391 29.1822 1.63707C29.112 1.22987 28.9716 0.850757 28.8733 0.457602H42.6477C45.7929 8.22241 49.2752 15.903 53.0944 23.2746C56.3941 29.6494 61.1821 36.0802 65.0294 42.6937ZM71.6428 20.8736C65.6767 13.6482 59.2661 6.80151 52.4485 0.373354H48.7697C56.465 7.74125 63.6518 15.6224 70.2808 23.9626C75.1391 30.0425 79.9412 36.8244 85.2769 43.0868H91.1742C84.5046 35.8275 77.9473 28.5261 71.6428 20.8736ZM139.406 22.39C137.447 14.8496 135.056 7.42822 132.245 0.162736H129.015C131.183 7.98495 132.866 15.9333 134.056 23.9626C133.93 23.7239 133.789 23.4712 133.677 23.2185C130.054 16.0434 126.333 7.26761 121.236 0.176777H111.815C112.896 4.16449 114.623 8.03987 116.027 11.831C118.189 17.6581 120.591 23.401 122.851 29.186C124.564 33.5528 126.109 38.5515 128.06 43.3396H136.485H144.84C143.73 36.3049 141.231 29.1439 139.406 22.39ZM223.499 19.315C220.69 13.2211 217.714 6.67787 213.263 1.60898C212.813 1.1035 212.392 0.598014 211.971 0.0925293H197.298C197.972 2.74632 198.983 5.34396 199.629 8.40495C201.033 15.1026 203.56 21.6318 205.357 28.2874C206.535 33.3874 207.997 38.4174 209.738 43.3536C211.395 43.5081 213.038 43.6906 214.681 43.9153L214.807 39.2676C215.108 40.532 215.738 41.6944 216.632 42.6375C218.921 44.6735 222.712 43.4238 225.464 43.5502C227.543 43.6485 229.677 43.5502 231.713 43.5502C231.53 35.1956 226.026 24.7349 223.499 19.315ZM260.413 32.5419C260.624 22.3198 262.702 10.6375 261.059 0.120612H251.076C247.27 8.69981 246.021 18.8797 244.785 27.7257C243.795 32.9751 243.162 38.2855 242.89 43.6204H253.912H260.469C260.666 39.1132 260.371 34.8446 260.413 32.5419ZM305.008 0.246983C303.155 5.44224 301.933 11.0026 300.529 15.9732C297.889 25.3246 295.516 33.9319 295.193 43.4098H301.203H303.014C305.635 35.6686 307.75 27.7655 309.347 19.7503C310.751 13.5581 313.194 6.84637 314.359 0.204859L305.008 0.246983ZM390.659 0.499725C387.851 8.47515 384.818 16.4506 381.673 24.3698L383.358 15.58C384.2 11.1851 385.605 5.63882 385.534 0.513767H372.56C370.145 6.49534 368.994 13.6564 367.744 18.29C365.652 26.0969 362.731 34.648 362.451 42.9885L372.462 42.8762L384.299 42.7498C386.264 38.2566 387.795 33.5247 389.283 29.0596C392.38 19.7752 394.728 10.2576 396.304 0.598014L390.659 0.499725Z" fill="url(#paint2_linear_967_2332)"/>
<path id="Vector_6" d="M284.044 33.3142L285.448 33.4405L286.853 33.6371C287.24 33.6722 287.63 33.6722 288.018 33.6371C291.992 33.5388 295.979 33.5248 299.953 33.4546L311.902 33.272L323.837 33.0895L335.786 32.907L347.721 32.7244L359.67 32.5419L371.619 32.3594L383.555 32.1909L388.806 32.1066C394.324 32.0224 399.842 31.9381 405.346 31.6011C407.7 31.6284 410.032 31.1495 412.185 30.197C414.249 29.0878 416.551 26.5884 416.257 24.2576L416.088 30.885C416.158 31.5022 416.096 32.1272 415.904 32.7182C415.713 33.3091 415.397 33.8522 414.979 34.3111C413.992 34.8879 412.824 35.0733 411.707 34.8306C401.499 33.9601 391.249 35.8978 380.999 35.8837C375.06 35.8837 369.12 35.2378 363.181 35.1115C351.007 34.8728 339.311 34.6481 327.123 35.1115C316.55 35.5467 305.963 35.982 295.39 35.4765C293.91 35.3354 292.418 35.392 290.953 35.645C290.054 35.8556 289.183 36.2207 288.271 36.3471C287.268 36.4405 286.256 36.3933 285.266 36.2067L280.309 35.4906C279.516 35.3084 278.708 35.1957 277.894 35.1536L277.642 35.1957C277.087 35.2614 276.529 35.2849 275.971 35.2659C274.047 35.3361 272.109 35.3502 270.186 35.3782L245.305 35.6871C234.928 35.8135 224.566 33.9039 214.288 35.4063C205.652 36.67 196.834 34.8587 188.143 35.7012C186.739 35.8276 185.335 36.0382 183.93 36.0382C182.277 35.9979 180.627 35.8667 178.988 35.645C172.669 35.1724 166.321 35.2617 160.018 35.9118C159.945 36.4538 159.993 37.0052 160.159 37.5265C158.123 35.4063 154.823 35.3221 151.874 35.3782C149.263 35.4344 146.651 35.4625 144.039 35.4625C124.143 35.4625 104.232 34.9289 84.3361 35.0974C79.9483 35.038 75.5616 35.2819 71.2075 35.8276C72.6397 34.283 75.111 33.9601 77.3155 33.7916C87.0179 32.7244 96.8047 33.9601 106.549 34.2971C115.676 34.62 124.803 33.258 133.817 32.5419C138.326 32.1255 142.858 32.0176 147.381 32.219C149.459 32.3313 151.495 32.6542 153.559 32.8789C153.847 32.8974 154.135 32.8738 154.416 32.8087C155.321 32.7597 156.229 32.802 157.126 32.9351L160.103 33.0895C162.082 33.1738 164.062 33.244 166.042 33.2861C170.002 33.3844 173.975 33.3984 177.935 33.3844L189.828 33.3142C193.801 33.3142 197.761 33.3142 201.735 33.3142L204.768 33.3844C217.166 33.6792 229.635 34.7183 241.921 32.9912C242.767 32.7894 243.643 32.7466 244.504 32.8649C244.895 32.9202 245.293 32.9202 245.684 32.8649C246.681 32.8649 247.664 32.8649 248.66 32.8649C250.654 32.8649 252.634 32.8649 254.628 32.8649C257.436 32.8649 260.245 32.8649 263.053 32.9631L276.631 33.1597C278.568 33.1597 280.506 33.1597 282.444 33.3282L284.044 33.3142Z" fill="#6D5873"/>
<path id="Vector_7" d="M66.6301 41.809L66.5458 41.8792C66.0935 42.2398 65.5798 42.5157 65.0294 42.6936C62.4317 43.5782 58.9214 42.6936 56.38 42.6936C52.7012 42.6936 49.0224 42.6936 45.3436 42.6936H44.2484L14.8741 42.2864C12.5427 42.2478 10.2824 41.4773 8.4128 40.084C6.54319 38.6906 5.15886 36.7447 4.45554 34.5216C3.57512 31.4376 3.18191 28.2351 3.29011 25.0297C3.29011 24.1592 3.29011 23.1342 4.10451 22.6989C4.42587 22.5506 4.77561 22.474 5.12951 22.4742L9.45421 22.1372C9.99305 22.0431 10.5475 22.1015 11.0549 22.3057C11.1821 22.3625 11.2961 22.4448 11.39 22.5477C11.4838 22.6506 11.5554 22.7717 11.6002 22.9036C11.645 23.0354 11.6621 23.175 11.6504 23.3138C11.6388 23.4525 11.5985 23.5874 11.5323 23.7098L11.6587 21.0701L13.2032 20.9578C12.981 24.1638 12.9481 27.3802 13.1049 30.5901C13.0648 31.0403 13.1218 31.4939 13.2719 31.9202C13.4221 32.3465 13.662 32.7357 13.9755 33.0613C14.5562 33.4158 15.2357 33.5734 15.9132 33.5106C34.7752 33.8476 53.6326 34.1331 72.4853 34.3672L70.4914 36.8665C70.5936 36.7413 70.6679 36.5957 70.7094 36.4394C70.7509 36.2832 70.7586 36.12 70.732 35.9605C70.7055 35.8011 70.6452 35.6491 70.5553 35.5148C70.4654 35.3805 70.3479 35.2669 70.2106 35.1815C69.6285 34.8603 68.9626 34.7232 68.301 34.7884C50.9741 34.7884 33.6566 34.6667 16.3484 34.4233C15.014 34.5671 13.6736 34.212 12.5854 33.4264C11.7495 32.3875 11.3203 31.0798 11.3779 29.7476L10.9987 24.3979C11.0145 23.9942 10.8905 23.5974 10.6477 23.2746C10.4162 23.0698 10.1266 22.9422 9.81928 22.9095C8.14395 22.5824 6.40685 22.8769 4.93294 23.7379C4.68547 23.8619 4.47667 24.0513 4.32916 24.2855C4.25912 24.4556 4.21647 24.6357 4.20279 24.8191C3.85176 27.6274 3.30416 32.9771 5.36821 35.2518C6.77234 36.8244 7.78331 38.8323 9.58058 40.0819C11.7148 41.6405 14.7197 41.7528 17.2611 41.8792C19.8026 42.0056 21.993 42.0898 24.366 42.1741C25.0961 42.1741 25.7701 42.3145 26.5283 42.2724C26.8232 42.2724 27.104 42.1881 27.3989 42.2022C27.6112 42.2212 27.8247 42.1824 28.0167 42.0898C28.5006 41.8242 28.8923 41.4177 29.14 40.9244C29.434 40.2746 29.7965 39.658 30.2212 39.085C29.9488 39.7025 29.833 40.3778 29.8842 41.0508C29.8707 41.1627 29.8707 41.2759 29.8842 41.3878C29.9247 41.4695 29.9865 41.5387 30.0631 41.5882C30.1397 41.6376 30.2283 41.6654 30.3195 41.6686C31.0356 41.7669 31.7236 41.7388 32.5239 41.7809L36.989 41.9354C39.9658 42.0196 42.9425 42.0898 45.9193 42.1039C47.3234 42.1039 48.896 42.2162 50.3563 42.1039C50.5669 42.1039 50.7635 41.9916 50.9881 41.9775C51.3482 41.9565 51.7092 41.9565 52.0693 41.9775L54.3019 42.0618C56.2957 42.146 58.3036 42.3145 60.2975 42.3145L63.8078 42.469C64.7909 42.5086 65.7664 42.2805 66.6301 41.809Z" fill="#6D5873"/>
<path id="Vector_8" d="M210.019 35.1955C144.152 35.1955 78.5371 34.7322 15.0707 33.8616C14.3677 33.8645 13.6892 33.6035 13.1693 33.1304C12.6493 32.6572 12.3258 32.0063 12.2625 31.3061C11.4677 24.673 11.4018 17.9728 12.0659 11.3254C12.1644 10.6532 12.5032 10.0395 13.0196 9.598C13.5359 9.15651 14.1948 8.91718 14.8742 8.92435C34.3353 8.84947 53.7917 8.77458 73.2435 8.69969C92.7327 8.69969 112.236 8.61544 131.739 8.54524C134.856 8.54524 138.212 9.03668 141.161 7.96955C143.593 6.62156 145.88 5.02647 147.985 3.20956C146.932 4.34691 145.879 5.48425 144.91 6.70583C144.709 6.89957 144.525 7.11105 144.362 7.33769C144.025 7.91338 144.559 8.18017 145.05 8.20825L151.383 8.51716C152.318 8.57276 153.256 8.57276 154.191 8.51716C154.556 8.51716 154.921 8.51716 155.3 8.51716H156.789H162.728H258.63C259.099 8.46743 259.572 8.49112 260.034 8.58736C260.343 8.67941 260.666 8.71741 260.989 8.69969C261.9 8.71001 262.811 8.64898 263.713 8.51716C264.189 8.45528 264.659 8.35192 265.117 8.20825C265.886 7.92416 266.6 7.5058 267.223 6.97262C267.712 6.46872 268.276 6.04257 268.894 5.70891C269.58 5.38208 270.225 4.97686 270.818 4.50136L273.205 2.73216L275.311 1.17358C273.247 3.7993 270.172 5.6387 268.683 8.61544C268.768 8.47503 269.891 8.44695 270.087 8.43291C270.565 8.43291 271.042 8.34866 271.492 8.33462C272.457 8.30218 273.424 8.33972 274.384 8.44695C276.294 8.64353 278.231 8.54524 280.141 8.55928H291.95H303.786H315.637H327.516H339.409H351.316H363.223H375.158H387.093H399.042H410.991H413.083C413.782 8.55578 414.457 8.81279 414.976 9.28014C415.495 9.74748 415.822 10.3916 415.891 11.0867C416.527 17.6748 416.456 24.3118 415.681 30.8849C415.624 31.5901 415.304 32.2479 414.783 32.7269C414.262 33.2059 413.58 33.4707 412.873 33.4684C344.38 34.7322 276.097 35.1955 210.019 35.1955Z" fill="url(#paint3_linear_967_2332)"/>
<path id="Vector_9" d="M411.328 22.4181C411.801 23.5713 412.035 24.8085 412.016 26.0548C412.016 26.4199 411.665 29.6494 411.651 29.6494L405.332 29.7336L385.984 29.9442H381.462L364.501 30.1268L357.648 30.197H356.722H353.31L333.891 30.3514C326.126 30.3514 318.291 30.7446 310.54 30.3514C309.936 30.3514 309.22 30.225 308.953 29.6915C308.876 29.4614 308.848 29.2178 308.869 28.9762C308.891 28.7345 308.963 28.5 309.08 28.2874C309.768 26.5743 310.484 24.8613 311.116 23.1483C309.665 25.1231 308.084 26.9994 306.384 28.7648C305.768 29.474 305.031 30.0683 304.208 30.5199C304.051 30.599 303.886 30.6603 303.716 30.7024C303.119 30.8711 302.487 30.8711 301.891 30.7024C300.906 30.5501 299.907 30.5171 298.914 30.6042H295.895H292.427L264.583 30.7165H257.984C253.996 30.7165 250.008 30.7165 246.021 30.7165C239.056 30.7165 232.096 30.7165 225.141 30.7165H195.936H172.066H170.381C163.014 30.7165 155.647 30.6884 148.28 30.6322H142.34H139.42C138.816 30.6322 138.156 30.6322 137.524 30.6322C137.242 30.6395 136.96 30.6676 136.682 30.7165C135.054 30.9884 133.403 31.1059 131.753 31.0675H130.686H128.791C127.857 30.9693 126.916 30.9693 125.982 31.0675C126.864 29.5682 127.849 28.1325 128.931 26.7709C129.591 25.8723 130.335 25.0157 131.051 24.1873C130.136 24.6081 129.285 25.1565 128.524 25.8161C127.541 26.6305 126.628 27.5572 125.716 28.3997C124.293 29.8566 122.405 30.7705 120.38 30.9833C119.797 30.8967 119.221 30.7748 118.653 30.6182H118.526C117.928 30.5833 117.328 30.5833 116.729 30.6182H112.713C112.551 30.6452 112.385 30.6352 112.227 30.589C112.069 30.5428 111.923 30.4616 111.801 30.3514C111.576 30.0566 111.716 29.6213 111.885 29.2702C112.713 27.4642 113.675 25.7229 114.763 24.0609C112.854 25.2825 111.534 27.2343 109.835 28.7507C109.036 29.4729 108.107 30.0353 107.097 30.4076C106.113 30.7085 105.069 30.7521 104.064 30.534C103.498 30.499 102.931 30.499 102.365 30.534L92.9574 30.4497L79.6603 30.3655H74.1421H68.7222L59.6937 30.2672L44.7819 30.1127H38.1826L30.1931 30.0144C29.0136 30.0144 16.2783 30.0144 16.2502 29.8319C16.2299 28.9589 16.1312 28.0896 15.9553 27.2343C15.7497 26.7789 15.5761 26.3097 15.4358 25.8301C15.2871 25.1778 15.342 24.4956 15.5931 23.8755C15.8442 23.2554 16.2793 22.7271 16.8399 22.3619C17.2866 22.1826 17.7627 22.0873 18.244 22.0811L28.9856 21.1404C29.2334 21.1265 29.4819 21.1265 29.7297 21.1404L18.8338 20.9157C18.0074 20.8901 17.1989 20.6688 16.4748 20.2698C16.0536 20.0592 15.8991 19.9188 15.843 19.4975C15.8348 17.378 15.9379 15.2596 16.1519 13.1509H29.9263L48.7696 13.0245H57.4331H65.4085L113.149 12.8841H135.825H164.441H165.312H200.345H235.799C236.69 12.7935 237.591 12.8746 238.452 13.1228C239.128 13.4392 239.857 13.625 240.601 13.6704C240.966 13.6704 243.592 13.6704 243.676 13.2492C243.194 15.583 242.57 17.8853 241.808 20.1434C243.326 19.0386 244.542 17.571 245.347 15.8749C245.928 14.9062 246.669 14.0423 247.537 13.3194L247.762 13.1509C248.183 12.7991 248.703 12.588 249.25 12.5471C250.458 12.5471 251.693 12.7156 252.929 12.7437C253.814 12.7437 254.684 12.9122 255.555 12.9824C256.831 12.9329 258.102 13.1679 259.276 13.6704L250.963 24.3418C250.55 24.8285 250.2 25.3665 249.924 25.9425C253.106 23.1888 256.099 20.2241 258.882 17.0684C259.599 16.268 260.287 15.4537 260.975 14.6252C261.302 14.1582 261.729 13.7697 262.224 13.4879C262.674 13.3196 263.149 13.2294 263.628 13.2211C270.326 12.7297 277.333 12.7297 284.199 12.7297H301.329H308.223H331.448L355.205 12.7999H362.015H369.26H379.019H384.453H392.063H402.889H411.848C411.988 12.7999 412.016 16.4506 412.1 16.7876C412.185 17.1246 412.297 17.1526 412.339 17.3773C412.36 17.6713 412.302 17.9655 412.171 18.2296C412.04 18.4937 411.841 18.7181 411.595 18.8797C410.957 19.2456 410.238 19.4482 409.503 19.4695C402.813 20.3826 396.062 20.7722 389.311 20.6349C388.399 20.6349 387.5 20.5506 386.601 20.4664L389.269 20.7332C396.599 21.6973 403.952 22.259 411.328 22.4181Z" fill="url(#paint4_linear_967_2332)"/>
<path id="Vector_10" d="M424.148 10.7216C424.197 11.5316 424.032 12.3402 423.67 13.0665C424.099 10.9918 423.767 8.83217 422.736 6.98149C421.705 5.1308 420.044 3.71237 418.054 2.98489C416.631 2.59326 415.163 2.39027 413.687 2.38111C404.799 1.94584 395.911 1.51056 387.009 1.22973H386.882C382.904 1.09868 378.93 1.00039 374.961 0.934866C370.992 0.86934 367.014 0.817856 363.026 0.780412C359.048 0.780412 355.074 0.780412 351.105 0.780412C347.136 0.780412 343.158 0.808495 339.17 0.86466L327.235 1.0472C323.262 1.0472 319.274 1.18761 315.3 1.2859L303.365 1.56672L297.398 1.70713C296.187 1.77526 294.973 1.67603 293.789 1.41227L293.241 1.25781C292.706 1.06725 292.15 0.940012 291.585 0.878701C290.758 0.80638 289.928 0.782937 289.099 0.808495H281.657L252.171 0.52767C251.351 0.485611 250.529 0.513796 249.714 0.611918C249.556 0.640732 249.401 0.68301 249.25 0.738289C248.787 0.934866 248.324 1.13144 247.846 1.29994C246.709 1.73522 245.586 2.18454 244.448 2.70406C244.448 2.36707 244.448 2.01604 244.448 1.67905C244.47 1.61527 244.47 1.54625 244.448 1.48247C244.393 1.44708 244.331 1.42321 244.266 1.41227L242.188 1.10336C241.872 1.09222 241.558 1.05938 241.247 1.00507C241.05 1.00507 240.882 0.86466 240.699 0.822536C240.036 0.766394 239.369 0.766394 238.705 0.822536H236.613H227.669L218.668 0.86466H209.71H200.766H197.887C197.42 0.905295 196.951 0.905295 196.483 0.86466C196.076 0.86466 195.711 0.625959 195.318 0.569794C194.664 0.513617 194.006 0.513617 193.352 0.569794L188.087 0.654041L179.128 0.794454L170.17 0.906784L161.212 1.00507L152.254 1.08932H143.295L134.421 1.20165H125.463H111.955C111.39 1.24616 110.821 1.19874 110.27 1.06124C110.063 0.999627 109.852 0.952707 109.638 0.920825C108.234 0.794454 106.83 0.920825 105.426 0.920825L96.5099 0.822536C93.5191 0.822536 90.5424 0.822536 87.5516 0.822536C84.5608 0.822536 81.5841 0.822536 78.5933 0.822536C75.6025 0.822536 72.6398 1.03315 69.7333 1.13144L65.2541 1.27186L63.0216 1.34206H61.8983C61.5432 1.31197 61.1862 1.31197 60.8311 1.34206C60.7298 1.68396 60.6778 2.03857 60.6767 2.39516C60.0027 1.29994 58.2897 1.17357 56.8996 1.18761L52.4204 1.22973H43.4621L34.5038 1.3561H30.0107C29.7123 1.39326 29.4104 1.39326 29.112 1.3561C28.2466 1.1772 27.3688 1.06454 26.4863 1.01911C22.8686 0.483571 19.1969 0.417499 15.5622 0.822536C11.0129 1.49652 6.43544 3.99586 4.63817 8.23631C3.36042 11.2271 3.64124 14.6391 3.95015 17.8827C3.99527 18.4347 4.075 18.9834 4.18885 19.5255C4.28638 19.9939 4.45695 20.444 4.69433 20.8594C4.38695 20.7621 4.09761 20.6151 3.83782 20.4241C3.65528 20.2837 3.65528 20.2135 3.59912 19.9888C3.54295 19.7642 3.41658 19.3289 3.33233 18.9919C3.11041 17.5966 3.11041 16.1749 3.33233 14.7795C3.43062 13.3754 3.54295 11.8028 3.68336 10.4127C4.00873 7.69198 5.31735 5.18399 7.36291 3.36083C9.40847 1.53767 12.0499 0.525069 14.79 0.513629H22.4144H28.1993H28.8733H42.6478H52.4766H59.4972H68.4274H77.3436H86.2879L95.1058 0.232804H104.064H104.247C104.822 0.232804 105.398 0.232804 105.974 0.232804H106.226C106.432 0.211968 106.639 0.211968 106.844 0.232804L107.518 0.30301H188.452C189.196 0.30301 189.94 0.30301 190.698 0.30301C190.916 0.344866 191.137 0.373003 191.358 0.387258C191.533 0.372877 191.707 0.344707 191.878 0.30301H211.957C224.978 0.30301 238.013 0.30301 251.062 0.30301H287.92C288.704 0.376122 289.492 0.399571 290.279 0.373216C290.691 0.339609 291.1 0.269121 291.5 0.162598H293.789H305.022H314.373L372.588 0.373216H385.562H390.688H396.304H413.153C415.68 0.393 418.126 1.25628 420.106 2.82593C422.085 4.39557 423.483 6.58157 424.078 9.03666C424.169 9.59345 424.192 10.1592 424.148 10.7216Z" fill="#6D5873"/>
<path id="Vector_11" d="M144.138 7.19733C143.98 7.34775 143.864 7.5364 143.801 7.74493C143.801 7.88535 143.731 8.34871 143.801 8.46104C143.871 8.57337 144.685 8.46104 144.882 8.46104H147.129C148.448 8.46104 149.782 8.37679 151.102 8.30658C150.263 8.20116 149.414 8.20116 148.575 8.30658C147.222 8.25144 145.885 8.00563 144.601 7.57644L146.469 5.30176C146.224 5.54754 145.956 5.7686 145.668 5.9617L144.826 6.6778C144.657 6.79013 144.376 6.97267 144.138 7.19733Z" fill="#6D5873"/>
<path id="Vector_12" d="M270.537 6.88843C270.436 6.98588 270.357 7.10417 270.306 7.2351C270.255 7.36602 270.233 7.50645 270.242 7.64666C270.279 7.76398 270.345 7.87027 270.433 7.95604C270.521 8.0418 270.629 8.10436 270.747 8.1381C270.994 8.18055 271.245 8.18055 271.492 8.1381L275.255 7.87132C275.844 7.83627 276.435 7.83627 277.024 7.87132C277.965 7.87132 278.877 8.20831 279.832 8.34872C281.559 8.61551 283.328 8.43297 285.069 8.65763C285.069 8.65763 284.915 8.65763 284.859 8.65763H284.62H284.143C283.82 8.67859 283.496 8.67859 283.174 8.65763C282.5 8.65763 281.854 8.51722 281.208 8.51722C280.89 8.48898 280.571 8.48898 280.253 8.51722C280.123 8.53869 279.99 8.53869 279.86 8.51722H279.551C278.821 8.51722 278.077 8.51722 277.347 8.51722H275.676L272.502 8.69975L270.298 8.76996C270.163 8.74867 270.026 8.74867 269.891 8.76996C269.775 8.79102 269.656 8.79102 269.54 8.76996C269.307 8.7659 269.085 8.67002 268.922 8.50317C268.881 8.46526 268.852 8.41658 268.838 8.36276C268.825 8.31204 268.825 8.25904 268.838 8.20831C269.006 7.8394 269.208 7.48687 269.442 7.15522C269.543 6.99023 269.666 6.83919 269.807 6.7059L269.947 6.60761C270.061 6.48885 270.16 6.35685 270.242 6.21445C270.936 5.16731 271.828 4.26584 272.868 3.56066C272.994 3.47641 273.134 3.42024 273.261 3.35004C273.422 3.2328 273.568 3.09603 273.696 2.94284C273.991 2.63393 274.272 2.31099 274.538 1.98804C273.71 2.97092 272.882 3.95381 272.109 4.97882C271.975 5.12511 271.829 5.26122 271.674 5.38602C271.281 5.77917 270.944 6.21445 270.579 6.63569L270.537 6.88843Z" fill="#6D5873"/>
<path id="Vector_13" d="M164.427 43.508H159.836C155.932 43.508 152.029 43.508 148.125 43.508H144.784H136.429H128.004H124.733L113.064 43.4378L101.396 43.3535L91.104 43.2833H85.2769C80.8259 43.2833 76.3748 43.1429 71.9237 43.0165C71.5306 43.0165 67.0795 43.2552 67.6131 42.3426C68.6381 40.8682 69.8035 39.3237 70.7302 37.9055L70.1264 39.0709L68.6381 41.9634C71.0694 42.4223 73.5357 42.6713 76.0097 42.7076C105.229 43.9292 134.519 42.4408 163.753 43.3816C163.985 43.3674 164.217 43.4108 164.427 43.508Z" fill="#6D5873"/>
<path id="Vector_14" d="M199.699 42.2162C199.721 42.3331 199.719 42.4535 199.693 42.5695C199.666 42.6856 199.615 42.7948 199.544 42.8902C199.123 43.3676 198.379 43.0306 197.845 43.1149C197.613 43.1888 197.391 43.2926 197.185 43.4238C196.483 43.6235 195.747 43.6761 195.023 43.5782H183.285H171.546H164.427H164.104C164.4 43.4149 164.737 43.3416 165.073 43.3676C167.348 43.2834 169.622 43.1991 171.911 43.157C174.2 43.1149 176.446 43.0587 178.721 43.0447C180.996 43.0306 183.271 43.0447 185.559 43.0447C187.848 43.0447 190.095 43.1149 192.369 43.1851H193.17C195.318 43.2553 197.649 43.2834 199.362 41.9775C199.39 42.0447 199.437 42.1025 199.496 42.1447C199.556 42.1869 199.626 42.2116 199.699 42.2162Z" fill="#6D5873"/>
<path id="Vector_15" d="M202.282 42.2162C203.178 42.8125 204.226 43.139 205.301 43.157C204.328 43.1233 203.362 43.3358 202.493 43.7748C201.58 42.2724 200.668 40.77 199.769 39.2676C200.483 40.35 201.327 41.3403 202.282 42.2162Z" fill="#6D5873"/>
<path id="Vector_16" d="M214.695 42.9463C214.695 43.2833 214.695 43.6203 214.695 43.9573C213.052 43.7326 211.409 43.5501 209.752 43.3956C208.727 43.3114 207.702 43.2271 206.677 43.1709H207.253L214.695 42.9463Z" fill="#6D5873"/>
<path id="Vector_17" d="M243.086 43.6204H234.661H231.769C229.691 43.6204 227.557 43.6906 225.521 43.6204C222.712 43.494 218.977 44.7437 216.689 42.7077C216.459 42.5105 216.256 42.2839 216.085 42.0337C219.679 44.0416 224.243 43.5221 228.427 43.2272C233.315 42.8981 238.223 43.0297 243.086 43.6204Z" fill="#6D5873"/>
<path id="Vector_18" d="M336.853 42.5953C337.613 42.2797 338.312 41.8329 338.917 41.2754C338.917 41.4298 338.805 41.5703 338.735 41.7247C338.524 42.2021 338.215 42.7357 337.71 42.8059C337.204 42.8761 336.924 42.6514 336.516 42.6795C336.109 42.7076 336.109 42.848 335.871 42.9744C335.718 43.0347 335.557 43.068 335.393 43.0727C334.243 43.1429 333.089 43.1429 331.939 43.0727H324.918L313.068 43.1569H303.014H301.203H295.193H289.366H277.529H265.721H260.469H253.912H243.086H239.562C239.857 42.9857 240.19 42.8893 240.531 42.8761L249.405 42.4689C250.725 42.3987 252.058 42.3004 253.392 42.2864C253.663 42.2659 253.936 42.2659 254.207 42.2864C254.591 42.3437 254.971 42.4282 255.344 42.5391C256.501 42.7355 257.683 42.7355 258.84 42.5391C259.455 42.4133 260.085 42.3849 260.708 42.4549C261.009 42.5138 261.314 42.5514 261.621 42.5672C262.238 42.6234 262.856 42.6514 263.474 42.6514C264.732 42.6426 265.987 42.5205 267.223 42.2864C267.418 42.2514 267.618 42.2514 267.813 42.2864C268.023 42.3481 268.222 42.4429 268.402 42.5672C269.688 43.058 271.101 43.1074 272.418 42.7076C273.39 42.5624 274.37 42.4733 275.353 42.4408H276.855C279.06 42.5251 281.278 42.5251 283.497 42.5531C286.473 42.5531 289.464 42.5531 292.441 42.5531C295.418 42.5531 298.423 42.5531 301.399 42.5531C304.376 42.5531 307.367 42.4689 310.358 42.3987L315.146 42.2864C316.76 42.2864 318.375 42.1881 319.99 42.2864C321.605 42.3846 322.91 42.5251 324.385 42.5251C325.027 42.5633 325.671 42.5017 326.294 42.3425C326.673 42.2302 326.996 42.0055 327.362 41.8932C327.57 41.823 327.788 41.7805 328.007 41.7668C329.265 41.6756 330.527 41.6756 331.785 41.7668C333.54 41.7668 335.281 41.8932 337.036 42.0196C337.148 42.4408 336.741 42.5672 336.853 42.5953Z" fill="#6D5873"/>
<path id="Vector_19" d="M423.165 35.6169C422.282 37.5674 420.86 39.2248 419.066 40.394C417.272 41.5632 415.182 42.1955 413.041 42.2163H408.267L396.332 42.3708L384.397 42.4972L372.56 42.6235L362.549 42.7359H360.653L348.76 42.8341C347.567 42.8341 346.359 42.9184 345.18 42.8341C344 42.7499 342.737 42.6797 341.529 42.6797C341.311 42.6949 341.093 42.6512 340.897 42.5533C340.742 42.4244 340.617 42.2635 340.53 42.0818C340.443 41.9001 340.396 41.7018 340.392 41.5002C340.298 40.8637 340.228 40.2318 340.181 39.6047V39.5345C340.204 40.0632 340.383 40.5733 340.695 41.0006C341.008 41.4278 341.439 41.7531 341.936 41.9355C342.936 42.2867 343.997 42.4301 345.053 42.3567H366.228C366.695 42.386 367.164 42.386 367.632 42.3567C367.896 42.3046 368.163 42.2671 368.432 42.2444H369.541L374.006 42.0759L381.196 41.8653L388.216 41.7249L396.388 41.5845C399.07 41.5845 401.738 41.5002 404.42 41.5845C407.102 41.6687 410.149 41.8091 413.013 41.5845C414.463 41.4984 415.901 41.2775 417.31 40.9245C417.584 40.8284 417.866 40.7533 418.152 40.6999C418.152 40.6999 418.25 40.6999 418.321 40.6999C418.45 40.6678 418.571 40.6052 418.672 40.5173C419.514 39.8995 420.343 39.2536 421.129 38.5656C421.484 38.2993 421.789 37.9711 422.027 37.5968C422.168 37.344 422.252 37.0772 422.378 36.8104C422.58 36.3757 422.845 35.9735 423.165 35.6169Z" fill="#6D5873"/>
<path id="Vector_20" d="M59.7359 30.1689L44.8241 30.0144H38.2248L37.0453 27.8661C34.4139 23.0668 32.0285 18.1366 29.8983 13.0947L48.7697 13.0245C49.7947 14.5831 50.7917 16.1276 51.8026 17.6862C54.4564 21.8003 57.1945 25.9425 59.7359 30.1689ZM74.1843 23.5555C71.3761 19.9047 68.5678 16.3242 65.4086 12.9684H57.4332C60.4914 18.496 63.9403 23.7984 67.7535 28.835L68.7644 30.2391H74.1843H79.7025C77.807 28.0346 75.8833 25.7599 74.1843 23.5555ZM122.121 12.8139H113.149C114.29 18.9151 116.074 24.8784 118.47 30.6042H118.597C119.183 30.7678 119.778 30.8944 120.38 30.9833C122.421 30.751 124.316 29.8063 125.73 28.3155C126.684 27.473 127.597 26.5463 128.538 25.7319C126.656 21.3027 124.514 16.9891 122.121 12.8139ZM128.931 26.7709C127.847 28.1916 126.866 29.6886 125.996 31.2501C126.93 31.1519 127.871 31.1519 128.805 31.2501H130.7C130.209 29.6775 129.549 28.175 128.931 26.7709ZM135.825 12.7297H131.178C133.186 18.7393 135.264 24.7349 137.524 30.6603C138.156 30.6603 138.816 30.6603 139.42 30.6603H142.228C140.248 24.7349 138.044 18.7393 135.825 12.7297ZM220.325 20.1856C219.258 17.6301 218.121 15.1307 216.941 12.6595H200.303C201.199 18.0826 202.475 23.4361 204.122 28.6805L204.796 30.885H225.085C223.471 27.3326 221.758 23.7661 220.269 20.2417L220.325 20.1856ZM255.555 12.9262C254.684 12.9262 253.814 12.7156 252.929 12.6875C251.693 12.6875 250.458 12.5331 249.25 12.491C248.703 12.5318 248.183 12.743 247.762 13.0947L247.537 13.2632C247.313 16.591 247.172 19.7643 246.891 22.4603C246.611 25.1562 246.302 27.9785 246.021 30.885C250.009 30.885 253.996 30.885 257.984 30.885C258.124 28.512 258.237 26.1952 258.363 23.9346C258.489 21.6739 258.714 19.5537 258.953 17.0965C259.065 16.0153 259.177 14.892 259.262 13.7547C258.082 13.2171 256.795 12.9531 255.499 12.9824L255.555 12.9262ZM307.83 12.7718H301.385C299.184 18.6285 297.35 24.6171 295.895 30.7025H298.97C299.963 30.6154 300.962 30.6484 301.947 30.8008C302.544 30.9694 303.176 30.9694 303.772 30.8008C305.336 24.8379 306.838 18.8563 308.28 12.856L307.83 12.7718ZM384.509 12.9965C382.726 16.8859 380.929 20.7613 379.061 24.6226C379.061 24.5384 379.061 24.4541 379.132 24.3699C380.03 20.6489 381.154 16.8438 382.193 12.9824H379.019H369.261C368.559 15.7907 367.856 18.4866 367.14 21.1123C366.298 24.061 365.385 27.0939 364.501 30.1689L381.462 29.9864H385.984C386.082 29.7477 386.166 29.523 386.251 29.2983C387.271 26.5743 388.277 23.8503 389.269 21.1263V21.028C390.21 18.4023 391.137 15.7766 392.078 13.1228L384.509 12.9965ZM359.586 12.9122C357.55 18.6972 355.374 24.4541 353.366 30.2391H356.778C358.716 24.5243 360.443 18.7393 362.072 12.9403L359.586 12.9122ZM165.312 12.7297H164.427C166.421 18.7955 168.387 24.8613 170.465 30.885H171.673C169.524 24.8332 167.432 18.7814 165.312 12.7297Z" fill="url(#paint5_linear_967_2332)"/>
</g>
<g id="progress">
<path id="Vector_21" d="M412 15.903V26.771C412 27.8882 411.556 28.9596 410.765 29.7496C409.974 30.5395 408.902 30.9833 407.784 30.9833H18.5005C17.3823 30.9833 16.3099 30.5395 15.5193 29.7496C14.7286 28.9596 14.2844 27.8882 14.2844 26.771V15.903C14.2844 14.7859 14.7286 13.7144 15.5193 12.9244C16.3099 12.1345 17.3823 11.6907 18.5005 11.6907H407.784C408.902 11.6907 409.974 12.1345 410.765 12.9244C411.556 13.7144 412 14.7859 412 15.903Z" fill="#9EFC86"/>
<path id="Vector_22" d="M412 16.5771V26.1533C411.931 27.2029 411.449 28.1824 410.659 28.8773C409.868 29.5721 408.835 29.9256 407.784 29.8602H18.5005C17.4507 29.9218 16.419 29.5671 15.6295 28.873C14.84 28.1788 14.3567 27.2015 14.2844 26.1533V16.5771C14.3184 16.058 14.4544 15.5507 14.6847 15.0841C14.915 14.6175 15.235 14.2008 15.6266 13.8578C16.0181 13.5149 16.4734 13.2524 16.9666 13.0854C17.4597 12.9183 17.9809 12.85 18.5005 12.8843H407.784C408.304 12.8481 408.826 12.9151 409.32 13.0814C409.814 13.2478 410.27 13.5101 410.662 13.8534C411.054 14.1967 411.374 14.6142 411.603 15.0816C411.833 15.5491 411.968 16.0574 412 16.5771Z" fill="url(#paint6_linear_967_2332)"/>
<path id="Vector_23" style="mix-blend-mode:screen" d="M410.131 16.5489V16.9421C410.095 17.6623 409.783 18.341 409.26 18.8377C408.736 19.3343 408.042 19.6108 407.32 19.6099H18.5006C17.6531 19.6288 16.8326 19.3113 16.2189 18.7271C15.6052 18.1429 15.2482 17.3394 15.2261 16.4928C15.2352 16.1338 15.3152 15.7802 15.4616 15.4522C15.608 15.1243 15.8178 14.8284 16.079 14.5818C16.3402 14.3352 16.6477 14.1426 16.9837 14.0151C17.3197 13.8876 17.6776 13.8278 18.0368 13.839H407.32C408.049 13.8385 408.749 14.1209 409.274 14.6264C409.798 15.132 410.105 15.8213 410.131 16.5489Z" fill="url(#paint7_linear_967_2332)"/>
</g>
</g>
<defs>
<linearGradient id="paint0_linear_967_2332" x1="212.156" y1="-1.70566" x2="212.318" y2="57.7928" gradientUnits="userSpaceOnUse">
<stop stop-color="#BFA0A2"/>
<stop offset="0.26" stop-color="#8B7588"/>
<stop offset="0.56" stop-color="#493E66"/>
<stop offset="0.82" stop-color="#224569"/>
<stop offset="1" stop-color="#0A4A6B"/>
</linearGradient>
<linearGradient id="paint1_linear_967_2332" x1="213.333" y1="-21.517" x2="214.765" y2="92.4979" gradientUnits="userSpaceOnUse">
<stop stop-color="#CCAAAC"/>
<stop offset="1" stop-color="#6C6778"/>
</linearGradient>
<linearGradient id="paint2_linear_967_2332" x1="209.387" y1="-17.3607" x2="209.387" y2="136.321" gradientUnits="userSpaceOnUse">
<stop stop-color="#CCAAAC"/>
<stop offset="1" stop-color="#6C6778"/>
</linearGradient>
<linearGradient id="paint3_linear_967_2332" x1="213.979" y1="131.181" x2="213.979" y2="10.3706" gradientUnits="userSpaceOnUse">
<stop stop-color="#CCAAAC"/>
<stop offset="1" stop-color="#6C6778"/>
</linearGradient>
<linearGradient id="paint4_linear_967_2332" x1="213.684" y1="80.7595" x2="214.049" y2="-24.606" gradientUnits="userSpaceOnUse">
<stop stop-color="#CCAAAC"/>
<stop offset="1" stop-color="#6C6778"/>
</linearGradient>
<linearGradient id="paint5_linear_967_2332" x1="210.988" y1="78.3585" x2="210.988" y2="-39.5599" gradientUnits="userSpaceOnUse">
<stop stop-color="#CCAAAC"/>
<stop offset="1" stop-color="#6C6778"/>
</linearGradient>
<linearGradient id="paint6_linear_967_2332" x1="213.156" y1="12.0418" x2="213.156" y2="34.901" gradientUnits="userSpaceOnUse">
<stop stop-color="#41D163"/>
<stop offset="0.27" stop-color="#30B95A"/>
<stop offset="0.37" stop-color="#239D5F"/>
<stop offset="0.53" stop-color="#117966"/>
<stop offset="0.61" stop-color="#0B6B68"/>
<stop offset="0.66" stop-color="#107568"/>
<stop offset="0.73" stop-color="#1E8F66"/>
<stop offset="0.83" stop-color="#34B964"/>
<stop offset="0.88" stop-color="#41D163"/>
</linearGradient>
<linearGradient id="paint7_linear_967_2332" x1="405.465" y1="16.7736" x2="-44.4172" y2="16.7736" gradientUnits="userSpaceOnUse">
<stop stop-color="#A1C472"/>
<stop offset="1"/>
</linearGradient>
</defs>
</svg>
