<svg width="610" height="109" viewBox="0 0 610 109" fill="none" xmlns="http://www.w3.org/2000/svg">
<g filter="url(#filter0_d_967_3368)">
<mask id="path-1-outside-1_967_3368" maskUnits="userSpaceOnUse" x="-2" y="16.42" width="614" height="76" fill="black">
<rect fill="white" x="-2" y="16.42" width="614" height="76"/>
<path d="M59.1193 88.42H43.0873L40.2073 74.02H22.4473L19.5673 88.42H3.53525L18.8953 21.22H43.7593L59.1193 88.42ZM30.7993 32.788L24.7032 62.452H37.9513L31.8553 32.788H30.7993ZM70.4848 88.42V21.22H94.0048C95.8608 21.22 97.8928 21.412 100.101 21.796C102.341 22.18 104.565 22.868 106.773 23.86C108.981 24.852 110.997 26.228 112.821 27.988C114.677 29.748 116.165 32.004 117.285 34.756C118.405 37.476 118.965 40.788 118.965 44.692C118.965 48.596 118.405 51.94 117.285 54.724C116.165 57.476 114.677 59.748 112.821 61.54C110.997 63.3 108.981 64.692 106.773 65.716C104.565 66.74 102.341 67.46 100.101 67.876C97.8928 68.26 95.8608 68.452 94.0048 68.452H86.3728V88.42H70.4848ZM86.3728 56.884H92.5648C93.9088 56.884 95.1888 56.676 96.4048 56.26C97.6528 55.812 98.7568 55.124 99.7168 54.196C100.677 53.236 101.429 51.972 101.973 50.404C102.549 48.836 102.837 46.948 102.837 44.74C102.837 42.5 102.549 40.628 101.973 39.124C101.429 37.588 100.677 36.356 99.7168 35.428C98.7568 34.468 97.6528 33.796 96.4048 33.412C95.1888 32.996 93.9088 32.788 92.5648 32.788H86.3728V56.884ZM133.882 88.42V21.22H179.578V32.788H149.722V49.684H176.218V61.108H149.722V76.852H179.578V88.42H133.882ZM189.552 88.42L203.328 55.3L189.552 21.22H206.784L217.344 49.492H218.784L229.536 21.22H246.768L232.848 55.3L246.768 88.42H229.536L218.784 60.916H217.392L206.784 88.42H189.552ZM356.869 88.42H340.837L337.957 74.02H320.197L317.317 88.42H301.285L316.645 21.22H341.509L356.869 88.42ZM328.549 32.788L322.453 62.452H335.701L329.605 32.788H328.549ZM367.419 88.42V21.22H394.539C396.363 21.22 398.315 21.396 400.395 21.748C402.507 22.1 404.555 22.692 406.539 23.524C408.523 24.356 410.315 25.524 411.915 27.028C413.547 28.5 414.843 30.372 415.803 32.644C416.795 34.916 417.291 37.668 417.291 40.9C417.291 44.452 416.747 47.444 415.659 49.876C414.571 52.276 413.147 54.228 411.387 55.732C409.659 57.236 407.739 58.388 405.627 59.188C403.547 59.988 401.467 60.532 399.387 60.82C397.307 61.076 395.451 61.204 393.819 61.204H383.259V88.42H367.419ZM401.643 88.42L390.027 57.076L405.531 55.444L418.443 88.42H401.643ZM383.259 50.164H391.179C393.227 50.164 395.019 49.876 396.555 49.3C398.091 48.724 399.291 47.796 400.155 46.516C401.051 45.236 401.499 43.524 401.499 41.38C401.499 39.108 401.051 37.364 400.155 36.148C399.291 34.9 398.075 34.036 396.507 33.556C394.939 33.044 393.131 32.788 391.083 32.788H383.259V50.164ZM431.632 88.42V21.22H477.328V32.788H447.472V49.684H473.968V61.108H447.472V76.852H477.328V88.42H431.632ZM489.75 88.42V21.22H513.222L529.974 75.364H526.95V21.22H542.79V88.42H522.822L504.966 34.468H505.59V88.42H489.75ZM606.619 88.42H590.587L587.707 74.02H569.947L567.067 88.42H551.035L566.395 21.22H591.259L606.619 88.42ZM578.299 32.788L572.203 62.452H585.451L579.355 32.788H578.299Z"/>
</mask>
<path d="M59.1193 88.42H43.0873L40.2073 74.02H22.4473L19.5673 88.42H3.53525L18.8953 21.22H43.7593L59.1193 88.42ZM30.7993 32.788L24.7032 62.452H37.9513L31.8553 32.788H30.7993ZM70.4848 88.42V21.22H94.0048C95.8608 21.22 97.8928 21.412 100.101 21.796C102.341 22.18 104.565 22.868 106.773 23.86C108.981 24.852 110.997 26.228 112.821 27.988C114.677 29.748 116.165 32.004 117.285 34.756C118.405 37.476 118.965 40.788 118.965 44.692C118.965 48.596 118.405 51.94 117.285 54.724C116.165 57.476 114.677 59.748 112.821 61.54C110.997 63.3 108.981 64.692 106.773 65.716C104.565 66.74 102.341 67.46 100.101 67.876C97.8928 68.26 95.8608 68.452 94.0048 68.452H86.3728V88.42H70.4848ZM86.3728 56.884H92.5648C93.9088 56.884 95.1888 56.676 96.4048 56.26C97.6528 55.812 98.7568 55.124 99.7168 54.196C100.677 53.236 101.429 51.972 101.973 50.404C102.549 48.836 102.837 46.948 102.837 44.74C102.837 42.5 102.549 40.628 101.973 39.124C101.429 37.588 100.677 36.356 99.7168 35.428C98.7568 34.468 97.6528 33.796 96.4048 33.412C95.1888 32.996 93.9088 32.788 92.5648 32.788H86.3728V56.884ZM133.882 88.42V21.22H179.578V32.788H149.722V49.684H176.218V61.108H149.722V76.852H179.578V88.42H133.882ZM189.552 88.42L203.328 55.3L189.552 21.22H206.784L217.344 49.492H218.784L229.536 21.22H246.768L232.848 55.3L246.768 88.42H229.536L218.784 60.916H217.392L206.784 88.42H189.552ZM356.869 88.42H340.837L337.957 74.02H320.197L317.317 88.42H301.285L316.645 21.22H341.509L356.869 88.42ZM328.549 32.788L322.453 62.452H335.701L329.605 32.788H328.549ZM367.419 88.42V21.22H394.539C396.363 21.22 398.315 21.396 400.395 21.748C402.507 22.1 404.555 22.692 406.539 23.524C408.523 24.356 410.315 25.524 411.915 27.028C413.547 28.5 414.843 30.372 415.803 32.644C416.795 34.916 417.291 37.668 417.291 40.9C417.291 44.452 416.747 47.444 415.659 49.876C414.571 52.276 413.147 54.228 411.387 55.732C409.659 57.236 407.739 58.388 405.627 59.188C403.547 59.988 401.467 60.532 399.387 60.82C397.307 61.076 395.451 61.204 393.819 61.204H383.259V88.42H367.419ZM401.643 88.42L390.027 57.076L405.531 55.444L418.443 88.42H401.643ZM383.259 50.164H391.179C393.227 50.164 395.019 49.876 396.555 49.3C398.091 48.724 399.291 47.796 400.155 46.516C401.051 45.236 401.499 43.524 401.499 41.38C401.499 39.108 401.051 37.364 400.155 36.148C399.291 34.9 398.075 34.036 396.507 33.556C394.939 33.044 393.131 32.788 391.083 32.788H383.259V50.164ZM431.632 88.42V21.22H477.328V32.788H447.472V49.684H473.968V61.108H447.472V76.852H477.328V88.42H431.632ZM489.75 88.42V21.22H513.222L529.974 75.364H526.95V21.22H542.79V88.42H522.822L504.966 34.468H505.59V88.42H489.75ZM606.619 88.42H590.587L587.707 74.02H569.947L567.067 88.42H551.035L566.395 21.22H591.259L606.619 88.42ZM578.299 32.788L572.203 62.452H585.451L579.355 32.788H578.299Z" fill="url(#paint0_linear_967_3368)"/>
<path d="M59.1193 88.42V92.42H64.1367L63.0187 87.5287L59.1193 88.42ZM43.0872 88.42L39.1649 89.2045L39.808 92.42H43.0872V88.42ZM40.2073 74.02L44.1296 73.2356L43.4865 70.02H40.2073V74.02ZM22.4473 74.02V70.02H19.168L18.5249 73.2356L22.4473 74.02ZM19.5672 88.42V92.42H22.8465L23.4896 89.2045L19.5672 88.42ZM3.53525 88.42L-0.364184 87.5287L-1.48219 92.42H3.53525V88.42ZM18.8953 21.22V17.22H15.7064L14.9958 20.3287L18.8953 21.22ZM43.7593 21.22L47.6587 20.3287L46.9481 17.22H43.7593V21.22ZM30.7993 32.788V28.788H27.5377L26.8811 31.9829L30.7993 32.788ZM24.7033 62.452L20.7851 61.6469L19.7977 66.452H24.7033V62.452ZM37.9513 62.452V66.452H42.8568L41.8694 61.6469L37.9513 62.452ZM31.8553 32.788L35.7734 31.9829L35.1168 28.788H31.8553V32.788ZM59.1193 84.42H43.0872V92.42H59.1193V84.42ZM47.0096 87.6356L44.1296 73.2356L36.2849 74.8045L39.1649 89.2045L47.0096 87.6356ZM40.2073 70.02H22.4473V78.02H40.2073V70.02ZM18.5249 73.2356L15.6449 87.6356L23.4896 89.2045L26.3696 74.8045L18.5249 73.2356ZM19.5672 84.42H3.53525V92.42H19.5672V84.42ZM7.43468 89.3113L22.7947 22.1113L14.9958 20.3287L-0.364184 87.5287L7.43468 89.3113ZM18.8953 25.22H43.7593V17.22H18.8953V25.22ZM39.8598 22.1113L55.2198 89.3113L63.0187 87.5287L47.6587 20.3287L39.8598 22.1113ZM26.8811 31.9829L20.7851 61.6469L28.6214 63.2572L34.7174 33.5932L26.8811 31.9829ZM24.7033 66.452H37.9513V58.452H24.7033V66.452ZM41.8694 61.6469L35.7734 31.9829L27.9371 33.5932L34.0331 63.2572L41.8694 61.6469ZM31.8553 28.788H30.7993V36.788H31.8553V28.788ZM70.4847 88.42H66.4847V92.42H70.4847V88.42ZM70.4847 21.22V17.22H66.4847V21.22H70.4847ZM100.101 21.796L99.4154 25.7369L99.4249 25.7385L100.101 21.796ZM112.821 27.988L110.043 30.8665L110.056 30.8786L110.068 30.8905L112.821 27.988ZM117.285 34.756L113.58 36.2639L113.583 36.2715L113.586 36.279L117.285 34.756ZM117.285 54.724L120.99 56.2319L120.993 56.2244L120.996 56.217L117.285 54.724ZM112.821 61.54L115.598 64.4185L115.599 64.4176L112.821 61.54ZM106.773 65.716L105.09 62.0873V62.0873L106.773 65.716ZM100.101 67.876L100.786 71.8169L100.809 71.813L100.831 71.8088L100.101 67.876ZM86.3727 68.452V64.452H82.3727V68.452H86.3727ZM86.3727 88.42V92.42H90.3727V88.42H86.3727ZM86.3727 56.884H82.3727V60.884H86.3727V56.884ZM96.4048 56.26L97.6995 60.0447L97.7279 60.035L97.7562 60.0248L96.4048 56.26ZM99.7168 54.196L102.497 57.072L102.521 57.0484L102.545 57.0245L99.7168 54.196ZM101.973 50.404L98.2181 49.0248L98.2056 49.0588L98.1937 49.093L101.973 50.404ZM101.973 39.124L98.2022 40.4594L98.2192 40.5073L98.2373 40.5546L101.973 39.124ZM99.7168 35.428L96.8883 38.2565L96.9123 38.2804L96.9367 38.304L99.7168 35.428ZM96.4048 33.412L95.11 37.1967L95.1689 37.2169L95.2284 37.2352L96.4048 33.412ZM86.3727 32.788V28.788H82.3727V32.788H86.3727ZM74.4847 88.42V21.22H66.4847V88.42H74.4847ZM70.4847 25.22H94.0048V17.22H70.4847V25.22ZM94.0048 25.22C95.5896 25.22 97.3889 25.3845 99.4154 25.7369L100.786 17.8552C98.3966 17.4396 96.1319 17.22 94.0048 17.22V25.22ZM99.4249 25.7385C101.312 26.062 103.213 26.6459 105.133 27.5087L108.412 20.2114C105.916 19.0902 103.37 18.2981 100.777 17.8536L99.4249 25.7385ZM105.133 27.5087C106.901 28.3028 108.536 29.4117 110.043 30.8665L115.598 25.1096C113.458 23.0444 111.061 21.4013 108.412 20.2114L105.133 27.5087ZM110.068 30.8905C111.45 32.2004 112.64 33.9546 113.58 36.2639L120.99 33.2482C119.689 30.0535 117.904 27.2957 115.573 25.0855L110.068 30.8905ZM113.586 36.279C114.454 38.386 114.965 41.1487 114.965 44.692H122.965C122.965 40.4273 122.356 36.5661 120.983 33.233L113.586 36.279ZM114.965 44.692C114.965 48.231 114.455 51.041 113.574 53.2311L120.996 56.217C122.355 52.8391 122.965 48.9611 122.965 44.692H114.965ZM113.58 53.2162C112.638 55.5299 111.441 57.3119 110.042 58.6624L115.599 64.4176C117.912 62.1842 119.691 59.4222 120.99 56.2319L113.58 53.2162ZM110.043 58.6616C108.526 60.1252 106.877 61.2584 105.09 62.0873L108.456 69.3448C111.084 68.1257 113.467 66.4749 115.598 64.4185L110.043 58.6616ZM105.09 62.0873C103.165 62.9801 101.26 63.5924 99.3704 63.9433L100.831 71.8088C103.422 71.3277 105.965 70.5 108.456 69.3448L105.09 62.0873ZM99.4154 63.9352C97.3889 64.2876 95.5896 64.452 94.0048 64.452V72.452C96.1319 72.452 98.3966 72.2325 100.786 71.8169L99.4154 63.9352ZM94.0048 64.452H86.3727V72.452H94.0048V64.452ZM82.3727 68.452V88.42H90.3727V68.452H82.3727ZM86.3727 84.42H70.4847V92.42H86.3727V84.42ZM86.3727 60.884H92.5648V52.884H86.3727V60.884ZM92.5648 60.884C94.3289 60.884 96.0479 60.6097 97.6995 60.0447L95.11 52.4754C94.3296 52.7424 93.4886 52.884 92.5648 52.884V60.884ZM97.7562 60.0248C99.5419 59.3838 101.132 58.3914 102.497 57.072L96.9367 51.3201C96.3815 51.8567 95.7636 52.2403 95.0533 52.4953L97.7562 60.0248ZM102.545 57.0245C104.017 55.5525 105.053 53.7295 105.752 51.7151L98.1937 49.093C97.8046 50.2146 97.3364 50.9195 96.8883 51.3676L102.545 57.0245ZM105.727 51.7833C106.509 49.6569 106.837 47.2759 106.837 44.74H98.8368C98.8368 46.6202 98.589 48.0151 98.2181 49.0248L105.727 51.7833ZM106.837 44.74C106.837 42.1883 106.513 39.7947 105.708 37.6935L98.2373 40.5546C98.5846 41.4614 98.8368 42.8118 98.8368 44.74H106.837ZM105.743 37.7887C105.038 35.796 103.989 33.9946 102.497 32.5521L96.9367 38.304C97.3644 38.7175 97.82 39.3801 98.2022 40.4594L105.743 37.7887ZM102.545 32.5996C101.143 31.1973 99.4778 30.1725 97.5811 29.5889L95.2284 37.2352C95.8277 37.4195 96.3707 37.7388 96.8883 38.2565L102.545 32.5996ZM97.6995 29.6274C96.0479 29.0624 94.3289 28.788 92.5648 28.788V36.788C93.4886 36.788 94.3296 36.9297 95.11 37.1967L97.6995 29.6274ZM92.5648 28.788H86.3727V36.788H92.5648V28.788ZM82.3727 32.788V56.884H90.3727V32.788H82.3727ZM133.882 88.42H129.882V92.42H133.882V88.42ZM133.882 21.22V17.22H129.882V21.22H133.882ZM179.578 21.22H183.578V17.22H179.578V21.22ZM179.578 32.788V36.788H183.578V32.788H179.578ZM149.722 32.788V28.788H145.722V32.788H149.722ZM149.722 49.684H145.722V53.684H149.722V49.684ZM176.218 49.684H180.218V45.684H176.218V49.684ZM176.218 61.108V65.108H180.218V61.108H176.218ZM149.722 61.108V57.108H145.722V61.108H149.722ZM149.722 76.852H145.722V80.852H149.722V76.852ZM179.578 76.852H183.578V72.852H179.578V76.852ZM179.578 88.42V92.42H183.578V88.42H179.578ZM137.882 88.42V21.22H129.882V88.42H137.882ZM133.882 25.22H179.578V17.22H133.882V25.22ZM175.578 21.22V32.788H183.578V21.22H175.578ZM179.578 28.788H149.722V36.788H179.578V28.788ZM145.722 32.788V49.684H153.722V32.788H145.722ZM149.722 53.684H176.218V45.684H149.722V53.684ZM172.218 49.684V61.108H180.218V49.684H172.218ZM176.218 57.108H149.722V65.108H176.218V57.108ZM145.722 61.108V76.852H153.722V61.108H145.722ZM149.722 80.852H179.578V72.852H149.722V80.852ZM175.578 76.852V88.42H183.578V76.852H175.578ZM179.578 84.42H133.882V92.42H179.578V84.42ZM189.552 88.42L185.858 86.8839L183.556 92.42H189.552V88.42ZM203.328 55.3L207.021 56.8362L207.651 55.3217L207.036 53.801L203.328 55.3ZM189.552 21.22V17.22H183.62L185.843 22.7191L189.552 21.22ZM206.784 21.22L210.531 19.8204L209.56 17.22H206.784V21.22ZM217.344 49.492L213.597 50.8917L214.568 53.492H217.344V49.492ZM218.784 49.492V53.492H221.542L222.523 50.9139L218.784 49.492ZM229.536 21.22V17.22H226.777L225.797 19.7982L229.536 21.22ZM246.768 21.22L250.471 22.7325L252.722 17.22H246.768V21.22ZM232.848 55.3L229.145 53.7875L228.518 55.3219L229.16 56.8499L232.848 55.3ZM246.768 88.42V92.42H252.788L250.455 86.8702L246.768 88.42ZM229.536 88.42L225.81 89.8764L226.805 92.42H229.536V88.42ZM218.784 60.916L222.509 59.4597L221.515 56.916H218.784V60.916ZM217.392 60.916V56.916H214.647L213.66 59.4766L217.392 60.916ZM206.784 88.42V92.42H209.528L210.516 89.8595L206.784 88.42ZM193.245 89.9562L207.021 56.8362L199.634 53.7639L185.858 86.8839L193.245 89.9562ZM207.036 53.801L193.26 19.721L185.843 22.7191L199.619 56.7991L207.036 53.801ZM189.552 25.22H206.784V17.22H189.552V25.22ZM203.037 22.6197L213.597 50.8917L221.091 48.0924L210.531 19.8204L203.037 22.6197ZM217.344 53.492H218.784V45.492H217.344V53.492ZM222.523 50.9139L233.275 22.6419L225.797 19.7982L215.045 48.0702L222.523 50.9139ZM229.536 25.22H246.768V17.22H229.536V25.22ZM243.065 19.7075L229.145 53.7875L236.551 56.8125L250.471 22.7325L243.065 19.7075ZM229.16 56.8499L243.08 89.9699L250.455 86.8702L236.535 53.7502L229.16 56.8499ZM246.768 84.42H229.536V92.42H246.768V84.42ZM233.261 86.9637L222.509 59.4597L215.058 62.3724L225.81 89.8764L233.261 86.9637ZM218.784 56.916H217.392V64.916H218.784V56.916ZM213.66 59.4766L203.052 86.9806L210.516 89.8595L221.124 62.3554L213.66 59.4766ZM206.784 84.42H189.552V92.42H206.784V84.42ZM356.869 88.42V92.42H361.887L360.769 87.5287L356.869 88.42ZM340.837 88.42L336.915 89.2045L337.558 92.42H340.837V88.42ZM337.957 74.02L341.88 73.2356L341.236 70.02H337.957V74.02ZM320.197 74.02V70.02H316.918L316.275 73.2356L320.197 74.02ZM317.317 88.42V92.42H320.596L321.24 89.2045L317.317 88.42ZM301.285 88.42L297.386 87.5287L296.268 92.42H301.285V88.42ZM316.645 21.22V17.22H313.456L312.746 20.3287L316.645 21.22ZM341.509 21.22L345.409 20.3287L344.698 17.22H341.509V21.22ZM328.549 32.788V28.788H325.288L324.631 31.9829L328.549 32.788ZM322.453 62.452L318.535 61.6469L317.548 66.452H322.453V62.452ZM335.701 62.452V66.452H340.607L339.619 61.6469L335.701 62.452ZM329.605 32.788L333.523 31.9829L332.867 28.788H329.605V32.788ZM356.869 84.42H340.837V92.42H356.869V84.42ZM344.76 87.6356L341.88 73.2356L334.035 74.8045L336.915 89.2045L344.76 87.6356ZM337.957 70.02H320.197V78.02H337.957V70.02ZM316.275 73.2356L313.395 87.6356L321.24 89.2045L324.12 74.8045L316.275 73.2356ZM317.317 84.42H301.285V92.42H317.317V84.42ZM305.185 89.3113L320.545 22.1113L312.746 20.3287L297.386 87.5287L305.185 89.3113ZM316.645 25.22H341.509V17.22H316.645V25.22ZM337.61 22.1113L352.97 89.3113L360.769 87.5287L345.409 20.3287L337.61 22.1113ZM324.631 31.9829L318.535 61.6469L326.371 63.2572L332.467 33.5932L324.631 31.9829ZM322.453 66.452H335.701V58.452H322.453V66.452ZM339.619 61.6469L333.523 31.9829L325.687 33.5932L331.783 63.2572L339.619 61.6469ZM329.605 28.788H328.549V36.788H329.605V28.788ZM367.419 88.42H363.419V92.42H367.419V88.42ZM367.419 21.22V17.22H363.419V21.22H367.419ZM400.395 21.748L399.727 25.692L399.737 25.6936L400.395 21.748ZM406.539 23.524L408.086 19.8353V19.8353L406.539 23.524ZM411.915 27.028L409.175 29.9426L409.205 29.9707L409.236 29.9983L411.915 27.028ZM415.803 32.644L412.118 34.2009L412.127 34.2228L412.137 34.2446L415.803 32.644ZM415.659 49.876L419.302 51.5276L419.306 51.5186L419.31 51.5095L415.659 49.876ZM411.387 55.732L408.788 52.6911L408.774 52.7029L408.761 52.7148L411.387 55.732ZM405.627 59.188L404.21 55.4474L404.2 55.451L404.191 55.4547L405.627 59.188ZM399.387 60.82L399.875 64.7901L399.905 64.7864L399.935 64.7822L399.387 60.82ZM383.259 61.204V57.204H379.259V61.204H383.259ZM383.259 88.42V92.42H387.259V88.42H383.259ZM401.643 88.42L397.892 89.8101L398.859 92.42H401.643V88.42ZM390.027 57.076L389.608 53.098L384.486 53.6371L386.276 58.466L390.027 57.076ZM405.531 55.444L409.255 53.9856L408.144 51.1469L405.112 51.466L405.531 55.444ZM418.443 88.42V92.42H424.305L422.167 86.9616L418.443 88.42ZM383.259 50.164H379.259V54.164H383.259V50.164ZM396.555 49.3L395.15 45.5547L396.555 49.3ZM400.155 46.516L396.878 44.2222L396.858 44.25L396.839 44.2782L400.155 46.516ZM400.155 36.148L396.866 38.4249L396.9 38.4734L396.935 38.5208L400.155 36.148ZM396.507 33.556L395.265 37.3585L395.3 37.37L395.336 37.3808L396.507 33.556ZM383.259 32.788V28.788H379.259V32.788H383.259ZM371.419 88.42V21.22H363.419V88.42H371.419ZM367.419 25.22H394.539V17.22H367.419V25.22ZM394.539 25.22C396.108 25.22 397.834 25.3716 399.727 25.692L401.062 17.8041C398.795 17.4204 396.618 17.22 394.539 17.22V25.22ZM399.737 25.6936C401.542 25.9945 403.292 26.5 404.992 27.2128L408.086 19.8353C405.818 18.8841 403.471 18.2056 401.052 17.8025L399.737 25.6936ZM404.992 27.2128C406.526 27.8562 407.916 28.7589 409.175 29.9426L414.654 24.1135C412.714 22.2892 410.52 20.8559 408.086 19.8353L404.992 27.2128ZM409.236 29.9983C410.383 31.0329 411.358 32.4017 412.118 34.2009L419.487 31.0872C418.328 28.3424 416.711 25.9672 414.594 24.0578L409.236 29.9983ZM412.137 34.2446C412.852 35.8835 413.291 38.0591 413.291 40.9H421.291C421.291 37.277 420.737 33.9486 419.469 31.0435L412.137 34.2446ZM413.291 40.9C413.291 44.0671 412.803 46.4653 412.007 48.2426L419.31 51.5095C420.691 48.4228 421.291 44.8369 421.291 40.9H413.291ZM412.016 48.2245C411.136 50.1643 410.044 51.6175 408.788 52.6911L413.985 58.773C416.249 56.8386 418.005 54.3878 419.302 51.5276L412.016 48.2245ZM408.761 52.7148C407.385 53.9126 405.873 54.8175 404.21 55.4474L407.044 62.9287C409.605 61.9586 411.933 60.5595 414.013 58.7493L408.761 52.7148ZM404.191 55.4547C402.379 56.1514 400.597 56.6144 398.838 56.8578L399.935 64.7822C402.337 64.4497 404.714 63.8247 407.063 62.9214L404.191 55.4547ZM398.898 56.85C396.937 57.0913 395.249 57.204 393.819 57.204V65.204C395.652 65.204 397.676 65.0608 399.875 64.7901L398.898 56.85ZM393.819 57.204H383.259V65.204H393.819V57.204ZM379.259 61.204V88.42H387.259V61.204H379.259ZM383.259 84.42H367.419V92.42H383.259V84.42ZM405.393 87.03L393.777 55.686L386.276 58.466L397.892 89.8101L405.393 87.03ZM390.445 61.0541L405.949 59.4221L405.112 51.466L389.608 53.098L390.445 61.0541ZM401.806 56.9025L414.718 89.8785L422.167 86.9616L409.255 53.9856L401.806 56.9025ZM418.443 84.42H401.643V92.42H418.443V84.42ZM383.259 54.164H391.179V46.164H383.259V54.164ZM391.179 54.164C393.592 54.164 395.878 53.8258 397.959 53.0454L395.15 45.5547C394.159 45.9263 392.862 46.164 391.179 46.164V54.164ZM397.959 53.0454C400.222 52.1968 402.111 50.7668 403.47 48.7539L396.839 44.2782C396.47 44.8253 395.959 45.2513 395.15 45.5547L397.959 53.0454ZM403.432 48.8099C404.944 46.649 405.499 44.0468 405.499 41.38H397.499C397.499 43.0013 397.157 43.8231 396.878 44.2222L403.432 48.8099ZM405.499 41.38C405.499 38.6621 404.975 35.9471 403.375 33.7752L396.935 38.5208C397.126 38.781 397.499 39.554 397.499 41.38H405.499ZM403.444 33.8712C402.025 31.8228 400.032 30.4519 397.678 29.7312L395.336 37.3808C396.118 37.6202 396.556 37.9773 396.866 38.4249L403.444 33.8712ZM397.748 29.7536C395.696 29.0835 393.455 28.788 391.083 28.788V36.788C392.807 36.788 394.181 37.0046 395.265 37.3585L397.748 29.7536ZM391.083 28.788H383.259V36.788H391.083V28.788ZM379.259 32.788V50.164H387.259V32.788H379.259ZM431.632 88.42H427.632V92.42H431.632V88.42ZM431.632 21.22V17.22H427.632V21.22H431.632ZM477.328 21.22H481.328V17.22H477.328V21.22ZM477.328 32.788V36.788H481.328V32.788H477.328ZM447.472 32.788V28.788H443.472V32.788H447.472ZM447.472 49.684H443.472V53.684H447.472V49.684ZM473.968 49.684H477.968V45.684H473.968V49.684ZM473.968 61.108V65.108H477.968V61.108H473.968ZM447.472 61.108V57.108H443.472V61.108H447.472ZM447.472 76.852H443.472V80.852H447.472V76.852ZM477.328 76.852H481.328V72.852H477.328V76.852ZM477.328 88.42V92.42H481.328V88.42H477.328ZM435.632 88.42V21.22H427.632V88.42H435.632ZM431.632 25.22H477.328V17.22H431.632V25.22ZM473.328 21.22V32.788H481.328V21.22H473.328ZM477.328 28.788H447.472V36.788H477.328V28.788ZM443.472 32.788V49.684H451.472V32.788H443.472ZM447.472 53.684H473.968V45.684H447.472V53.684ZM469.968 49.684V61.108H477.968V49.684H469.968ZM473.968 57.108H447.472V65.108H473.968V57.108ZM443.472 61.108V76.852H451.472V61.108H443.472ZM447.472 80.852H477.328V72.852H447.472V80.852ZM473.328 76.852V88.42H481.328V76.852H473.328ZM477.328 84.42H431.632V92.42H477.328V84.42ZM489.75 88.42H485.75V92.42H489.75V88.42ZM489.75 21.22V17.22H485.75V21.22H489.75ZM513.222 21.22L517.043 20.0377L516.171 17.22H513.222V21.22ZM529.974 75.364V79.364H535.398L533.795 74.1817L529.974 75.364ZM526.95 75.364H522.95V79.364H526.95V75.364ZM526.95 21.22V17.22H522.95V21.22H526.95ZM542.79 21.22H546.79V17.22H542.79V21.22ZM542.79 88.42V92.42H546.79V88.42H542.79ZM522.822 88.42L519.024 89.6768L519.932 92.42H522.822V88.42ZM504.966 34.468V30.468H499.429L501.168 35.7248L504.966 34.468ZM505.59 34.468H509.59V30.468H505.59V34.468ZM505.59 88.42V92.42H509.59V88.42H505.59ZM493.75 88.42V21.22H485.75V88.42H493.75ZM489.75 25.22H513.222V17.22H489.75V25.22ZM509.4 22.4023L526.152 76.5463L533.795 74.1817L517.043 20.0377L509.4 22.4023ZM529.974 71.364H526.95V79.364H529.974V71.364ZM530.95 75.364V21.22H522.95V75.364H530.95ZM526.95 25.22H542.79V17.22H526.95V25.22ZM538.79 21.22V88.42H546.79V21.22H538.79ZM542.79 84.42H522.822V92.42H542.79V84.42ZM526.619 87.1632L508.763 33.2112L501.168 35.7248L519.024 89.6768L526.619 87.1632ZM504.966 38.468H505.59V30.468H504.966V38.468ZM501.59 34.468V88.42H509.59V34.468H501.59ZM505.59 84.42H489.75V92.42H505.59V84.42ZM606.619 88.42V92.42H611.637L610.519 87.5287L606.619 88.42ZM590.587 88.42L586.665 89.2045L587.308 92.42H590.587V88.42ZM587.707 74.02L591.63 73.2356L590.986 70.02H587.707V74.02ZM569.947 74.02V70.02H566.668L566.025 73.2356L569.947 74.02ZM567.067 88.42V92.42H570.346L570.99 89.2045L567.067 88.42ZM551.035 88.42L547.136 87.5287L546.018 92.42H551.035V88.42ZM566.395 21.22V17.22H563.206L562.496 20.3287L566.395 21.22ZM591.259 21.22L595.159 20.3287L594.448 17.22H591.259V21.22ZM578.299 32.788V28.788H575.038L574.381 31.9829L578.299 32.788ZM572.203 62.452L568.285 61.6469L567.298 66.452H572.203V62.452ZM585.451 62.452V66.452H590.357L589.369 61.6469L585.451 62.452ZM579.355 32.788L583.273 31.9829L582.617 28.788H579.355V32.788ZM606.619 84.42H590.587V92.42H606.619V84.42ZM594.51 87.6356L591.63 73.2356L583.785 74.8045L586.665 89.2045L594.51 87.6356ZM587.707 70.02H569.947V78.02H587.707V70.02ZM566.025 73.2356L563.145 87.6356L570.99 89.2045L573.87 74.8045L566.025 73.2356ZM567.067 84.42H551.035V92.42H567.067V84.42ZM554.935 89.3113L570.295 22.1113L562.496 20.3287L547.136 87.5287L554.935 89.3113ZM566.395 25.22H591.259V17.22H566.395V25.22ZM587.36 22.1113L602.72 89.3113L610.519 87.5287L595.159 20.3287L587.36 22.1113ZM574.381 31.9829L568.285 61.6469L576.121 63.2572L582.217 33.5932L574.381 31.9829ZM572.203 66.452H585.451V58.452H572.203V66.452ZM589.369 61.6469L583.273 31.9829L575.437 33.5932L581.533 63.2572L589.369 61.6469ZM579.355 28.788H578.299V36.788H579.355V28.788Z" fill="#6D5873" mask="url(#path-1-outside-1_967_3368)"/>
</g>
<defs>
<filter id="filter0_d_967_3368" x="3.53528" y="21.22" width="603.084" height="75.2" filterUnits="userSpaceOnUse" color-interpolation-filters="sRGB">
<feFlood flood-opacity="0" result="BackgroundImageFix"/>
<feColorMatrix in="SourceAlpha" type="matrix" values="0 0 0 0 0 0 0 0 0 0 0 0 0 0 0 0 0 0 127 0" result="hardAlpha"/>
<feOffset dy="8"/>
<feComposite in2="hardAlpha" operator="out"/>
<feColorMatrix type="matrix" values="0 0 0 0 0.133333 0 0 0 0 0.270588 0 0 0 0 0.411765 0 0 0 1 0"/>
<feBlend mode="normal" in2="BackgroundImageFix" result="effect1_dropShadow_967_3368"/>
<feBlend mode="normal" in="SourceGraphic" in2="effect1_dropShadow_967_3368" result="shape"/>
</filter>
<linearGradient id="paint0_linear_967_3368" x1="305" y1="24.3217" x2="305" y2="108.42" gradientUnits="userSpaceOnUse">
<stop stop-color="#F5E2DE"/>
<stop offset="1" stop-color="#EED7DA"/>
</linearGradient>
</defs>
</svg>
