<svg viewBox="0 0 365 785" fill="none" xmlns="http://www.w3.org/2000/svg">
<rect width="365" height="785" rx="16" fill="#EFEFEF" fill-opacity="0.1"/>
<path d="M152.5 428.5C150.9 428.5 149.5 427.9 148.3 426.7C147.1 425.5 146.5 424.1 146.5 422.5V362.5C146.5 360.9 147.1 359.5 148.3 358.3C149.5 357.1 150.9 356.5 152.5 356.5H212.5C214.1 356.5 215.5 357.1 216.7 358.3C217.9 359.5 218.5 360.9 218.5 362.5V422.5C218.5 424.1 217.9 425.5 216.7 426.7C215.5 427.9 214.1 428.5 212.5 428.5H152.5ZM158.1 412.8H207L192.3 393.2L179.1 410.3L169.8 397.6L158.1 412.8Z" fill="#CACACA" fill-opacity="0.2"/>
</svg>
