<svg width="16" height="17" viewBox="0 0 16 17" fill="none" xmlns="http://www.w3.org/2000/svg">
<path d="M1.33333 16.5C0.977778 16.5 0.666667 16.3667 0.4 16.1C0.133333 15.8333 0 15.5222 0 15.1667V1.83333C0 1.47778 0.133333 1.16667 0.4 0.9C0.666667 0.633333 0.977778 0.5 1.33333 0.5H14.6667C15.0222 0.5 15.3333 0.633333 15.6 0.9C15.8667 1.16667 16 1.47778 16 1.83333V15.1667C16 15.5222 15.8667 15.8333 15.6 16.1C15.3333 16.3667 15.0222 16.5 14.6667 16.5H1.33333ZM2.57778 13.0111H13.4444L10.1778 8.65556L7.24444 12.4556L5.17778 9.63333L2.57778 13.0111Z" fill="#CACACA"/>
</svg>
