<?xml version="1.0" encoding="utf-8"?>
<svg version="1.1" id="vector-small" data-name="vector-small" viewBox="0 0 72 72" fill="none" xmlns="http://www.w3.org/2000/svg" xmlns:xlink="http://www.w3.org/1999/xlink">
<g>
    <path id="vector-small" d="M6 72C4.4 72 3 71.4 1.8 70.2C0.6 69 0 67.6 0 66V6C0 4.4 0.6 3 1.8 1.8C3 0.6 4.4 0 6 0H66C67.6 0 69 0.6 70.2 1.8C71.4 3 72 4.4 72 6V66C72 67.6 71.4 69 70.2 70.2C69 71.4 67.6 72 66 72H6ZM11.6 56.3H60.5L45.8 36.7L32.6 53.8L23.3 41.1L11.6 56.3Z" fill="white"/>
</g>
</svg>
