<svg width="265" height="96" viewBox="0 0 265 96" fill="none" xmlns="http://www.w3.org/2000/svg">
<g clip-path="url(#clip0_967_4246)">
<path d="M261.234 84.2795C261.186 85.0702 260.946 85.8374 260.535 86.5147C258.222 90.1339 255.044 93.1201 251.287 95.2038C250.402 95.7243 249.394 95.9992 248.368 96.0001C244.749 96.0001 241.131 96.0001 237.513 96.0001C224.354 95.9163 211.138 96.1957 198.035 95.7207C197.948 95.7485 197.856 95.7485 197.769 95.7207C197.68 95.6735 197.607 95.6005 197.56 95.5112C197.224 95.0222 196.722 94.687 196.372 94.212C195.902 93.5442 195.535 92.8096 195.283 92.0327C194.822 93.2481 194.277 94.4495 193.746 95.6509C193.721 95.7291 193.672 95.7975 193.606 95.8464C193.548 95.8678 193.483 95.8678 193.425 95.8464C191.121 95.9721 188.813 95.9721 186.51 95.8464H179.301C174.412 95.8464 169.532 95.7999 164.661 95.7067C151.278 95.5251 137.895 95.2597 124.498 95.3435L60.5166 95.7347C59.2521 95.8395 57.9812 95.8395 56.7168 95.7347C55.0823 95.4832 53.6295 94.3377 51.9112 94.673C49.3661 95.285 46.7713 95.6683 44.158 95.8185H34.7284L15.8832 95.9303C14.8609 95.9296 13.8574 95.6546 12.9775 95.134C9.21729 93.0507 6.0344 90.0646 3.71559 86.4448C3.31109 85.7647 3.07185 84.9991 3.0171 84.2096C2.45831 77.0478 1.99266 69.8767 1.62013 62.6963C1.20104 56.0187 1.39661 49.0618 0.460642 42.3703C0.31641 41.5774 0.241621 40.7734 0.237126 39.9675C0.276229 38.9428 0.571644 37.9443 1.09635 37.0633C1.62105 36.1823 2.35829 35.4469 3.24062 34.9244C2.42641 35.2895 1.52784 35.4247 0.642248 35.3156C-0.307694 35.1899 0.0834587 17.7696 0.0694889 16.219C0.074469 14.9987 0.504192 13.8182 1.28486 12.8802C4.61728 8.87421 8.36331 5.2312 12.4606 2.01175C13.4577 1.22671 14.6986 0.816383 15.9671 0.852267L66.328 1.39709C70.5189 1.39709 74.7936 1.69045 79.0404 1.96985C79.3842 1.96535 79.7257 2.027 80.0462 2.15145C81.1918 2.79406 81.5829 4.74982 82.5329 5.58801C82.1928 4.33932 82.0052 3.05407 81.9741 1.7603C85.229 0.922115 89.3641 1.67648 92.7447 1.7603L104.549 1.9C116.815 2.03969 129.08 2.07229 141.345 1.99778C147.632 1.99778 153.909 1.95588 160.177 1.87206L169.592 1.77427C172.14 1.73883 174.674 2.15017 177.08 2.98964C177.23 3.03774 177.391 3.03774 177.541 2.98964C177.7 2.94537 177.842 2.8526 177.946 2.72421C179.902 0.768448 183.227 1.56472 185.867 1.52281L195.646 1.41106C213.178 1.27136 230.724 1.1596 248.27 0.852267C249.525 0.822685 250.75 1.23286 251.734 2.01175C255.832 5.2312 259.578 8.87421 262.91 12.8802C263.7 13.8292 264.13 15.0262 264.126 16.2609C264.126 20.8709 263.776 25.2993 263.427 29.8814C263.421 30.119 263.364 30.3525 263.259 30.5659C263.064 30.8732 262.687 30.9989 262.393 31.2225C260.521 32.6194 263.958 35.2038 263.595 37.0199C263.433 37.5011 263.232 37.9683 262.994 38.4169C262.393 39.9815 263.287 41.5321 263.427 43.0688C263.473 45.0183 263.394 46.9688 263.19 48.9081C263.022 52.8057 262.826 56.7172 262.631 60.6148C262.23 68.531 261.765 76.4192 261.234 84.2795Z" fill="#2E82A6"/>
<path d="M261.234 83.4273C261.188 84.2184 260.948 84.9859 260.535 85.6625C258.226 89.2851 255.047 92.2722 251.287 94.3516C250.403 94.8764 249.396 95.1561 248.368 95.1619C244.749 95.1619 241.131 95.1619 237.513 95.092C224.354 95.0082 211.138 95.3016 198.035 94.8126C197.947 94.834 197.856 94.834 197.769 94.8126C197.68 94.7654 197.607 94.6924 197.56 94.6031C197.224 94.1002 196.722 93.7649 196.372 93.3039C195.899 92.6329 195.531 91.8932 195.283 91.1107C194.822 92.326 194.277 93.5414 193.746 94.7288C193.725 94.8126 193.675 94.8866 193.606 94.9384C193.546 94.9463 193.485 94.9463 193.425 94.9384C191.121 95.0571 188.813 95.0571 186.51 94.9384C184.107 94.9384 181.704 94.9384 179.301 94.9384C174.412 94.9384 169.522 94.9384 164.661 94.7987C151.278 94.631 137.895 94.3656 124.498 94.4494L60.5165 94.8266C59.2518 94.9244 57.9815 94.9244 56.7168 94.8266C55.0823 94.5612 53.6295 93.4296 51.9112 93.7509C49.3645 94.3966 46.765 94.8127 44.144 94.9942H34.7144L15.8693 95.106C14.8457 95.1004 13.8423 94.8206 12.9636 94.2958C9.20018 92.2167 6.01632 89.2298 3.70162 85.6066C3.29518 84.9273 3.05579 84.1613 3.00313 83.3714C2.44434 76.2189 1.96937 69.0385 1.60616 61.872C1.20104 55.1665 1.39661 48.2236 0.460642 41.5321C0.316164 40.7345 0.241377 39.9259 0.237126 39.1153C0.282063 38.0958 0.580161 37.1034 1.10452 36.2279C1.62888 35.3523 2.36299 34.6211 3.24062 34.1002C2.42641 34.4652 1.52784 34.6005 0.642248 34.4913C-0.307694 34.3936 0.0834586 16.9593 0.0694889 15.3668C0.0753782 14.1509 0.505186 12.9751 1.28486 12.042C4.61306 8.0279 8.35947 4.37983 12.4606 1.15956C13.4605 0.379747 14.6994 -0.0299418 15.9671 7.47431e-05L66.328 0.600773C70.5189 0.600773 74.7936 0.908107 79.0404 1.17353C79.3861 1.18926 79.7264 1.26489 80.0462 1.39705C81.1918 1.9279 81.5829 3.93954 82.5329 4.81963C82.1916 3.56645 82.0039 2.27643 81.9741 0.977956C85.215 0.125802 89.406 0.880168 92.7447 0.922077L104.549 1.06177C116.815 1.21544 129.08 1.22941 141.345 1.17353C147.632 1.17353 153.909 1.12697 160.177 1.03383L169.592 0.936047C172.141 0.905379 174.675 1.32145 177.08 2.16538C177.232 2.19961 177.389 2.19961 177.541 2.16538C177.699 2.11068 177.839 2.01411 177.946 1.88599C179.902 -0.0697739 183.227 0.726501 185.867 0.698561L195.646 0.572834C213.178 0.419167 230.724 0.307409 248.27 7.47431e-05C249.524 -0.0225386 250.747 0.38687 251.734 1.15956C255.835 4.37983 259.582 8.0279 262.91 12.042C263.699 12.9861 264.129 14.1784 264.125 15.4087C264.125 20.0187 263.776 24.4611 263.427 29.0292C263.423 29.267 263.366 29.5009 263.259 29.7137C263.064 30.021 262.687 30.1468 262.393 30.3703C260.521 31.8371 263.958 34.3656 263.595 36.1817C263.433 36.6631 263.232 37.1303 262.994 37.5787C262.393 39.1433 263.287 40.6939 263.427 42.2306C263.473 44.1801 263.394 46.1306 263.19 48.0699C263.022 51.9814 262.826 55.879 262.631 59.7905C262.23 67.6881 261.765 75.567 261.234 83.4273Z" fill="url(#paint0_linear_967_4246)"/>
<path d="M258.565 19.5577C258.565 19.7393 258.565 19.907 258.565 20.0886C258.565 21.1084 258.565 22.1142 258.565 23.134C258.565 23.567 258.565 24.0001 258.565 24.4332C258.531 26.2691 258.128 28.0793 257.378 29.7556C257.085 30.51 256.735 31.2783 256.344 32.1165C256.344 32.2283 256.246 32.3261 256.205 32.4378C256.058 32.6986 255.977 32.9909 255.967 33.29C255.994 33.5203 256.065 33.7432 256.177 33.9465C257.191 35.6202 257.852 37.4839 258.118 39.4227C258.202 41.3784 257.979 43.3901 257.909 45.3458C257.755 49.2574 257.56 53.1829 257.364 57.0944C257.364 57.2481 257.364 57.4017 257.364 57.5554L257.238 60.0699L256.903 66.0769C256.833 67.1107 256.777 68.1584 256.721 69.1922C256.721 69.5275 256.721 69.8907 256.721 70.2259C256.721 70.5612 256.721 70.8127 256.721 71.12C256.61 72.992 256.484 74.8779 256.358 76.7079C256.274 78.1747 256.708 81.723 255.953 82.9524C254.108 85.7297 251.615 88.0166 248.689 89.6159H248.591L227.106 89.4902L207.799 89.4064H203.804C201.208 89.567 198.605 89.567 196.009 89.4064C195.841 88.4123 195.841 87.397 196.009 86.4029C196.109 85.6765 196.259 84.9578 196.456 84.2516C196.211 84.9543 195.932 85.6444 195.618 86.3191C195.223 87.4543 194.556 88.4758 193.676 89.2946C193.477 89.3751 193.262 89.4086 193.047 89.3924C174.57 89.1316 156.083 88.992 137.588 88.9733C133.22 88.9733 128.852 88.9733 124.484 88.9733L114.412 89.0432L84.3768 89.2108L66.3 89.3226C62.3549 89.5061 58.4015 89.3565 54.4816 88.8755L53.6574 88.7079C52.6515 88.4425 51.5619 88.0374 50.5421 87.8138C50.0033 87.681 49.4477 87.6293 48.8937 87.6602C47.6544 87.9374 46.5115 88.5402 45.5829 89.4064C44.591 90.1328 41.5735 89.4902 40.2744 89.5042H34.449H24.6702C21.7086 89.5042 18.761 89.5042 15.7994 89.5042H15.7295C12.7978 87.9121 10.3066 85.6178 8.47923 82.8266C7.7109 81.5973 8.11602 78.0769 8.00426 76.5961C8.00426 75.73 7.8925 74.8779 7.85059 74.0117C7.85059 73.3971 7.7528 72.7964 7.72487 72.1957C7.69693 71.595 7.61311 70.6869 7.5712 69.9186C7.52929 69.1503 7.48738 68.7312 7.45944 68.1305C7.20798 64.2469 6.99844 60.3773 6.80286 56.4937C6.80286 54.8872 6.6492 53.2946 6.57935 51.6741C6.57935 50.9617 6.57935 50.2772 6.48156 49.5507C6.38377 47.3715 6.29995 45.1922 6.21613 43.0269C6.21613 41.099 5.51765 38.2772 5.99262 36.4471C6.28741 35.5079 6.76185 34.6349 7.38959 33.8767C7.66899 33.5042 7.96235 33.141 8.26969 32.7871L8.98214 31.9209C9.17772 31.6695 9.38726 31.418 9.5549 31.1805C9.23825 31.3947 8.91695 31.5903 8.59099 31.7673L7.69693 32.2702C7.07315 32.5767 6.4344 32.8518 5.78307 33.0944C6.00659 33.0245 6.03453 31.9908 6.00659 30.6916C6.00659 28.5263 5.68528 25.5647 5.67131 25.1037C5.59681 21.8627 5.55024 18.6031 5.53162 15.3249C8.62152 11.6373 12.086 8.28056 15.8692 5.30859L35.3291 5.57402H39.0031L66.1882 5.92326L80.158 6.0909C81.0065 7.09398 81.9517 8.01109 82.9799 8.82897C83.1615 8.96866 83.3431 9.10836 83.4967 9.24806C83.4967 9.15027 83.4967 9.06645 83.4269 8.96866C83.1754 8.08857 82.9519 7.20848 82.7005 6.32838L104.479 6.59381L117.834 6.70557H129.01H129.192C137.071 6.70557 144.95 6.67297 152.829 6.60778L163.012 6.50999H164.843C166.239 6.50999 167.748 6.27251 169.187 6.31441C169.656 6.31 170.124 6.35211 170.584 6.44014C171.981 6.73351 173.378 8.11651 174.901 7.33421C178.798 5.42035 184.177 6.28648 188.563 6.2306L195.548 6.14678L213.122 5.9512C224.619 5.83944 236.507 5.72769 248.214 5.51814C251.964 8.47351 255.4 11.8065 258.468 15.4646C259.04 15.9954 258.579 18.7754 258.565 19.5577Z" fill="url(#paint1_radial_967_4246)"/>
<path d="M9.54096 32.5635C6.9845 35.9721 6.9845 40.5123 7.15213 44.787C7.31977 51.2503 7.48275 57.695 7.64108 64.1211C7.67654 65.4874 7.62522 66.8545 7.48741 68.2142C7.23595 64.3307 7.02641 60.461 6.83083 56.5774C6.60731 52.0932 6.41174 47.5949 6.2441 43.1106C6.2441 41.1828 5.54561 38.3609 6.02059 36.5309C6.55183 35.1637 7.355 33.9186 8.38147 32.8708C8.4763 32.9322 8.58292 32.973 8.69447 32.9908C8.80602 33.0085 8.92005 33.0027 9.02923 32.9738C9.13842 32.9448 9.24034 32.8934 9.32847 32.8227C9.41659 32.7521 9.48897 32.6638 9.54096 32.5635Z" fill="#E6C9C3"/>
<path d="M82.9799 8.82903C77.6295 7.27838 71.9577 7.1806 66.3838 7.08281L30.0625 6.53799C26.5561 6.53799 23.0776 6.53799 19.5293 6.21668C18.2956 5.98566 17.0206 6.14688 15.8832 6.67769C14.3605 7.58572 13.7179 9.47163 12.5025 10.7429C11.1056 12.1399 9.14979 13.0199 7.87855 14.6684C7.37904 15.2438 6.99063 15.907 6.73303 16.6241C6.58606 17.2934 6.54365 17.9814 6.6073 18.6637C6.73303 21.751 6.71906 24.8383 6.69112 27.9256C6.55709 29.0099 6.65713 30.1103 6.98448 31.1527C7.18264 31.5811 7.4312 31.9844 7.72488 32.3541C7.10111 32.6606 6.46235 32.9357 5.81103 33.1783C6.39775 32.9548 5.71324 25.914 5.69927 25.2155C5.62476 21.9745 5.5782 18.7149 5.55957 15.4367C8.64947 11.7491 12.1139 8.39237 15.8972 5.42041L66.1882 6.07699L80.158 6.24462C81.0139 7.19422 81.9589 8.05964 82.9799 8.82903Z" fill="#E6C9C3"/>
<path d="M258.565 19.5578C258.565 21.1783 258.496 22.7988 258.468 24.4332C258.303 27.2468 257.495 29.9852 256.107 32.4379C255.96 32.6987 255.879 32.991 255.869 33.2901C255.896 33.5204 255.967 33.7433 256.079 33.9466C257.093 35.6203 257.754 37.484 258.021 39.4228C258.104 41.3785 257.881 43.3902 257.811 45.3459C257.643 49.4251 257.453 53.4949 257.238 57.5555C257.043 61.4391 256.819 65.2947 256.596 69.1923C256.47 61.481 256.414 53.7417 256.596 46.0305C256.707 42.5101 257.155 37.1597 253.802 34.8547C253.983 32.1585 256.596 30.2307 257.308 27.6323C257.566 26.6057 257.665 25.5457 257.602 24.4891C257.546 22.2563 257.378 20.0276 257.099 17.8116C257.057 17.1262 256.891 16.4541 256.61 15.8279C256.225 15.1134 255.703 14.482 255.073 13.9699L251.245 10.6032C250.064 9.38325 248.635 8.43056 247.054 7.80927C245.932 7.52927 244.774 7.4163 243.618 7.47399C222.663 7.47399 201.499 7.36224 180.531 7.61369C179.162 7.62567 177.83 8.05987 176.717 8.857C176.214 9.31672 175.625 9.67275 174.985 9.90473C173.923 10.1422 172.917 9.44373 171.897 9.12242C171.245 8.93958 170.576 8.82718 169.9 8.78715L168.391 8.66142C155.161 7.44605 141.387 8.15851 128.06 7.94897L85.3966 7.26445C84.7978 7.18021 84.1892 7.32487 83.6923 7.66957C83.2732 8.03278 83.2872 8.87097 83.7621 9.06654L83.4269 8.96876C83.1754 8.08866 82.9519 7.20857 82.7004 6.32848L104.479 6.5939C112.246 6.67772 120.265 6.7336 128.954 6.7336C136.889 6.7336 144.805 6.701 152.703 6.63581L164.842 6.52405C166.775 6.33577 168.721 6.33577 170.654 6.52405C172.051 6.81742 173.448 8.20042 174.971 7.41812C178.868 5.50426 184.246 6.37039 188.633 6.31451L195.618 6.23069L213.192 6.03511C224.689 5.92335 236.577 5.8116 248.284 5.60205C252.033 8.55742 255.469 11.8904 258.538 15.5485C259.04 15.9955 258.579 18.7755 258.565 19.5578Z" fill="#E6C9C3"/>
<path d="M252.125 74.4168C251.734 74.0396 251.329 73.6764 250.91 73.3411C249.219 72.0254 247.243 71.1258 245.141 70.7148C245.022 70.6459 244.885 70.6166 244.749 70.631C244.307 70.6689 243.885 70.8339 243.534 71.1059C241.8 72.5318 240.375 74.2951 239.343 76.2887C239.078 76.7637 238.868 77.1688 239.245 77.6857C239.594 78.0748 240.01 78.3967 240.475 78.6356C241.486 79.2438 242.541 79.7761 243.632 80.2282C244.146 80.352 244.689 80.2666 245.141 79.9907C246.157 79.3187 247.019 78.4376 247.669 77.4063C247.731 77.3306 247.77 77.2383 247.781 77.1409C247.763 77.0146 247.698 76.8998 247.599 76.8196L246.971 76.2049C246.927 76.1451 246.862 76.1049 246.789 76.0931C246.691 76.0931 246.621 76.0931 246.552 76.2189L244.149 78.5937C243.716 78.3004 243.283 78.0489 242.752 77.7835C242.304 77.5664 241.882 77.2993 241.494 76.9872C241.397 76.9123 241.321 76.8142 241.272 76.7018C241.223 76.5895 241.204 76.4666 241.215 76.3446C241.292 76.107 241.41 75.8848 241.564 75.688C242.054 74.8453 242.595 74.0335 243.185 73.2573C243.604 72.7125 244.065 72.1956 244.582 71.6787C246.281 72.0908 247.881 72.8363 249.29 73.8719C249.29 73.9558 249.89 74.3469 249.974 74.4307C250.058 74.5146 250.449 74.8498 250.673 75.0733C250.925 75.2962 251.155 75.5443 251.357 75.8137C251.526 76.0174 251.659 76.2491 251.748 76.4983C251.748 76.7357 251.273 77.2666 251.12 77.4482L250.072 78.5937C249.373 79.362 248.675 80.1024 247.907 80.8149C247.613 81.1083 247.306 81.4016 247.013 81.709C246.414 82.3989 245.759 83.0389 245.057 83.6228C244.313 84.1664 243.407 84.4421 242.486 84.4051H239.273H226.519H213.778C209.588 84.4051 205.313 84.4051 201.08 84.4051L156.461 84.3213C126.929 84.3772 97.4013 84.4284 67.8785 84.475H58.4629C51.059 84.475 43.669 84.475 36.265 84.475C32.5398 84.475 28.8424 84.5076 25.1731 84.5728H22.3791C21.6108 84.5728 20.7726 84.7264 20.0182 84.6845C19.2994 84.5377 18.619 84.2427 18.0205 83.8184C17.3531 83.4076 16.7221 82.9402 16.1346 82.4214C15.7129 82.0463 15.325 81.635 14.9751 81.1921C14.8842 81.0612 14.7863 80.9353 14.6818 80.8149C14.3046 80.3679 14.4722 78.482 14.4164 77.9092C14.2767 76.149 14.1649 74.3888 14.0392 72.6286C13.7179 67.8929 13.4105 63.1711 13.1172 58.4354C12.754 52.7497 12.5724 47.078 12.251 41.4063C12.1114 38.5099 11.967 35.6135 11.818 32.7171C11.7202 31.0966 12.2371 27.1292 11.1335 25.7322C10.7982 25.3271 10.0578 25.2433 9.82031 25.7322C10.1556 35.9302 10.7004 46.2258 11.3151 56.4657C11.7062 63.0314 11.7062 69.7788 12.6143 76.3027C12.8098 77.6997 12.9914 79.0966 13.187 80.4238C13.407 81.4547 13.9561 82.3863 14.7516 83.078C15.5652 83.8215 16.4442 84.4901 17.3779 85.0757C18.0422 85.4411 18.8048 85.5878 19.5572 85.4948H22.3512H27.9391H39.0171C46.3651 85.4948 53.7132 85.383 61.0613 85.369H105.625C135.166 85.369 164.707 85.3038 194.249 85.1735C211.012 85.1735 227.776 84.908 244.54 84.8522C245.196 84.8522 245.937 84.1397 246.44 83.7625C247.06 83.2797 247.652 82.762 248.214 82.2119C249.01 81.3917 249.761 80.5289 250.463 79.6275C251.162 78.7334 251.86 77.9092 252.656 77.0431C252.656 76.9593 252.656 76.9034 252.656 76.8615C252.807 76.7219 252.92 76.5458 252.984 76.3501C253.047 76.1544 253.06 75.9457 253.019 75.7439C252.841 75.2318 252.533 74.7746 252.125 74.4168Z" fill="#E6C9C3"/>
<path d="M251.776 14.1375C251.13 13.3939 250.404 12.7239 249.611 12.1398C248.98 11.7386 248.228 11.5752 247.488 11.6788H244.694H239.106C235.418 11.6788 231.716 11.6788 228.014 11.6788C220.666 11.6788 208.456 11.7766 201.066 11.7906L156.503 11.8604C126.971 11.8604 97.4293 11.9256 67.8786 12.056C51.115 12.056 34.3513 12.3214 17.5876 12.3773C16.945 12.3773 16.1906 13.0898 15.6877 13.4669C15.0719 13.9499 14.4842 14.4676 13.9275 15.0176C13.1459 15.8152 12.4135 16.6596 11.7343 17.5461C11.0497 18.4402 10.3373 19.2504 9.55498 20.1165C9.47116 20.2143 9.55498 20.2702 9.55498 20.3121C9.4038 20.4517 9.29101 20.6278 9.22741 20.8235C9.16381 21.0192 9.15154 21.2279 9.19177 21.4297C9.39969 21.9248 9.72586 22.3613 10.1417 22.7009C10.5329 23.0781 10.938 23.4413 11.3571 23.7766C13.0491 25.09 15.0249 25.9894 17.1266 26.4029C17.2447 26.4718 17.3817 26.5011 17.5177 26.4867C17.9601 26.4488 18.3822 26.2839 18.7331 26.0118C20.4589 24.5781 21.8833 22.8166 22.924 20.829C23.1755 20.354 23.385 19.9489 23.0078 19.432C22.665 19.0429 22.2529 18.7208 21.7925 18.4821C20.7776 17.8711 19.7175 17.3387 18.6213 16.8895C18.1068 16.7657 17.5642 16.8511 17.1126 17.127C16.0969 17.7959 15.2388 18.6777 14.5981 19.7114C14.5314 19.7859 14.4877 19.8781 14.4723 19.9768C14.4805 20.0411 14.5022 20.103 14.5359 20.1583C14.5696 20.2137 14.6145 20.2613 14.6679 20.2981L15.2826 20.9128C15.3306 20.9674 15.3938 21.0063 15.4642 21.0246C15.5557 21.012 15.6398 20.9675 15.7017 20.8988L18.1603 18.5938C18.5813 18.8901 19.0198 19.1607 19.4735 19.4041C19.9207 19.6278 20.3423 19.8995 20.7308 20.2143C20.8275 20.2902 20.9046 20.3881 20.9557 20.4999C21.0067 20.6117 21.0302 20.7342 21.0241 20.8569C20.9364 21.0926 20.814 21.3139 20.6609 21.5135C20.1712 22.3562 19.63 23.168 19.0404 23.9442C18.6213 24.4891 18.1603 25.0059 17.6435 25.5228C15.9487 25.1107 14.3531 24.3651 12.9496 23.3296C12.9496 23.2458 12.335 22.8546 12.2511 22.7708L11.5527 22.1282C11.3075 21.9019 11.0831 21.6541 10.8821 21.3878C10.7843 21.2481 10.477 20.8569 10.477 20.7033C10.477 20.5496 10.952 19.9349 11.1056 19.7533L12.1534 18.6078C12.8658 17.8395 13.5503 17.0991 14.3187 16.3727C14.626 16.0793 14.9194 15.7999 15.2127 15.4926C15.8153 14.806 16.4691 14.1662 17.1685 13.5787C17.9124 13.0351 18.8183 12.7594 19.7389 12.7964C20.8146 12.7964 21.8903 12.7964 22.952 12.7964C27.1429 12.7964 31.4595 12.7964 35.7063 12.7964H48.4607C52.6516 12.7964 56.9124 12.7964 61.1452 12.7964L105.737 12.7126C135.269 12.6567 164.796 12.6055 194.319 12.5589H203.748C211.138 12.5589 223.166 12.6288 230.57 12.5589C234.296 12.5589 238.021 12.5263 241.746 12.4611H244.54C245.308 12.4611 246.188 12.2935 246.929 12.3354C247.586 12.5459 248.181 12.9154 248.661 13.4111C249.234 13.8153 249.759 14.284 250.226 14.808C250.578 15.1726 250.874 15.5868 251.106 16.0374L251.315 16.4146C251.231 22.7009 251.036 27.2271 251.12 32.5775C251.12 35.7906 251.218 39.0036 251.259 42.2167C251.259 45.1643 251.12 48.056 251.134 51.0176C251.148 53.9792 251.134 56.9547 250.994 59.9303C250.882 62.5985 250.435 65.1829 250.212 67.8511C250.017 69.0024 250.017 70.1783 250.212 71.3296C250.212 71.4972 250.868 71.3296 250.924 71.12C251.79 68.3214 252.201 65.4017 252.14 62.4728C252.279 59.0781 252.307 55.6835 252.335 52.2888V51.4227C252.335 45.5741 252.382 39.7207 252.475 33.8628C252.475 28.2749 252.251 22.4355 252.754 16.8057C252.793 15.8221 252.442 14.863 251.776 14.1375Z" fill="#E6C9C3"/>
<path d="M251.972 73.6625C251.587 73.2817 251.181 72.9225 250.757 72.5869C249.07 71.2612 247.092 70.3561 244.987 69.9466C244.869 69.8777 244.732 69.8484 244.596 69.8628C244.153 69.9007 243.731 70.0657 243.38 70.3377C241.649 71.7715 240.224 73.5388 239.19 75.5345C238.924 76.0094 238.729 76.4146 239.092 76.9314C239.444 77.3166 239.86 77.638 240.321 77.8814C241.333 78.4852 242.388 79.0128 243.478 79.46C243.732 79.5241 243.996 79.5374 244.255 79.499C244.514 79.4606 244.763 79.3714 244.987 79.2365C246.007 78.5628 246.87 77.6764 247.516 76.6381C247.58 76.5638 247.619 76.4708 247.627 76.3727C247.61 76.2464 247.545 76.1316 247.446 76.0514L246.817 75.4367C246.765 75.3865 246.703 75.3484 246.635 75.3249C246.544 75.3375 246.46 75.382 246.398 75.4507L243.995 77.8395C243.569 77.5431 243.126 77.2725 242.668 77.0292C242.22 76.8073 241.798 76.5355 241.411 76.219C241.315 76.1463 241.239 76.0505 241.19 75.9406C241.141 75.8307 241.121 75.7102 241.131 75.5904C241.211 75.3495 241.329 75.1231 241.481 74.9198C241.968 74.0685 242.5 73.2432 243.073 72.4472C243.492 71.9023 243.967 71.3994 244.47 70.8826C246.17 71.2836 247.772 72.025 249.178 73.0618C249.178 73.1456 249.779 73.5508 249.862 73.6206C249.946 73.6905 250.337 74.0397 250.561 74.2632C250.81 74.4894 251.039 74.7372 251.245 75.0036C251.415 75.2073 251.547 75.439 251.637 75.6881C251.637 75.9396 251.162 76.4704 251.008 76.6521L249.96 77.7976C249.262 78.5519 248.563 79.2923 247.795 80.0188L246.901 80.8989C246.302 81.5887 245.648 82.2288 244.945 82.8127C244.202 83.3573 243.295 83.6331 242.375 83.595C241.313 83.595 240.237 83.595 239.162 83.595H226.407L213.667 83.5252H200.968L156.377 83.609C126.864 83.6649 97.3408 83.7207 67.8088 83.7766H58.3094C50.9054 83.7766 43.5154 83.7766 36.1115 83.7766C32.3862 83.7766 28.6889 83.8092 25.0195 83.8744H22.2255C21.4572 83.8744 20.619 84.042 19.8647 84.0001C19.1314 83.8259 18.4419 83.5025 17.839 83.0502C17.1763 82.6388 16.5501 82.1715 15.9671 81.6532C15.5341 81.2855 15.1409 80.8735 14.7936 80.4239C14.6959 80.2982 14.612 80.1724 14.5003 80.0467C14.1231 79.5997 14.2907 77.7138 14.2349 77.141C14.0952 75.3948 13.9834 73.6346 13.8577 71.8744C13.5643 67.0548 13.2709 62.375 12.9636 57.6392C12.6004 52.0514 12.3489 46.3098 12.0975 40.6521C11.9578 37.765 11.8134 34.8686 11.6644 31.9629C11.5666 30.3284 12.0835 26.375 10.9799 24.978C10.6586 24.5729 9.90423 24.503 9.66675 24.978C10.002 35.1619 10.5468 45.4576 11.1615 55.7114C11.5527 62.2772 11.5527 69.0386 12.4607 75.5624C12.6563 76.9594 12.8518 78.3564 13.0335 79.7533C13.2534 80.7804 13.8028 81.7075 14.5981 82.3936C15.4117 83.1371 16.2907 83.8057 17.2244 84.3913C17.8959 84.78 18.6748 84.9417 19.4456 84.8523H22.2395H27.8274C31.5154 84.8523 35.2034 84.8523 38.9054 84.8523C46.2535 84.8523 53.6016 84.7405 60.9497 84.7266H105.513C135.054 84.7266 164.6 84.6567 194.151 84.517C210.915 84.517 227.678 84.2656 244.442 84.1957C245.099 84.1957 245.839 83.4833 246.342 83.1061C246.969 82.6309 247.561 82.1128 248.116 81.5554C248.936 80.7263 249.705 79.8493 250.421 78.9291C251.12 78.0351 251.818 77.2248 252.614 76.3587C252.684 76.2609 252.614 76.205 252.614 76.1631C252.764 76.0257 252.877 75.852 252.94 75.6588C253.004 75.4655 253.017 75.2592 252.978 75.0595C252.779 74.5093 252.431 74.0255 251.972 73.6625Z" fill="#6D5873"/>
<path d="M251.623 13.3692C250.977 12.6256 250.25 11.9556 249.457 11.3715C248.827 10.9703 248.074 10.8069 247.334 10.9105H244.54H238.952H227.874C220.512 10.9105 208.316 11.0223 200.912 11.0362H156.349C126.817 11.0362 97.2756 11.1061 67.7249 11.2458C50.9612 11.2458 34.1975 11.4972 17.4338 11.5671C16.7912 11.5671 16.0369 12.2795 15.5479 12.6428C14.9928 13.1194 14.4657 13.6278 13.9693 14.1655C13.1158 14.9728 12.322 15.8413 11.5945 16.7638C10.896 17.6439 10.1277 18.4681 9.40124 19.3343C9.31742 19.432 9.40124 19.4879 9.40124 19.5159C9.25011 19.6525 9.13715 19.8261 9.07346 20.0196C9.00978 20.2131 8.99757 20.4198 9.03803 20.6195C9.24629 21.1181 9.57799 21.5556 10.0019 21.8907C10.3671 22.3027 10.7591 22.69 11.1754 23.0502C12.8633 24.3731 14.8404 25.2779 16.9449 25.6905C17.0656 25.7525 17.2006 25.7814 17.3361 25.7743C17.7781 25.7249 18.1983 25.5559 18.5514 25.2854C20.2812 23.8557 21.7064 22.0933 22.7423 20.1026C22.9938 19.6276 23.2033 19.2225 22.8262 18.7056C22.4859 18.3138 22.0732 17.9913 21.6108 17.7557C20.5947 17.1557 19.54 16.6237 18.4536 16.1631C17.9346 16.0386 17.3874 16.1239 16.9309 16.4006C15.9215 17.0771 15.065 17.9575 14.4164 18.985C14.3497 19.0595 14.306 19.1517 14.2906 19.2504C14.2986 19.3167 14.3201 19.3807 14.3537 19.4383C14.3874 19.496 14.4325 19.5461 14.4862 19.5857L15.1009 20.1864C15.124 20.2176 15.1532 20.2436 15.1869 20.2629C15.2206 20.2821 15.2579 20.2941 15.2965 20.2982C15.3413 20.2978 15.3853 20.2861 15.4244 20.2641C15.4635 20.2421 15.4964 20.2106 15.52 20.1724L17.9368 17.7976C18.3597 18.0908 18.7981 18.3613 19.2499 18.6078C19.7 18.8264 20.1221 19.0985 20.5072 19.4181C20.6066 19.4882 20.686 19.5831 20.7374 19.6934C20.7889 19.8037 20.8106 19.9255 20.8005 20.0467C20.7214 20.2863 20.5982 20.509 20.4373 20.7033C19.9476 21.546 19.4064 22.3578 18.8168 23.134C18.3978 23.6928 17.9368 24.1957 17.4199 24.7126C15.7259 24.3054 14.1302 23.5646 12.726 22.5333C12.726 22.4355 12.1114 22.0444 12.0276 21.9745L11.3291 21.3319C11.0839 21.1056 10.8595 20.8579 10.6585 20.5915C10.5607 20.4518 10.2534 20.0607 10.2674 19.893C10.2813 19.7254 10.7284 19.1247 10.882 18.9431L11.9298 17.7976C12.6422 17.0432 13.3267 16.3028 14.0951 15.5764L14.9891 14.6963C15.5915 14.0053 16.2453 13.3608 16.9449 12.7685C17.7094 12.2386 18.6284 11.9782 19.5572 12.0281H22.7703H35.5247H48.279H60.9635L105.555 11.9443L194.179 11.9163H203.609C210.999 11.9163 223.026 11.9862 230.43 11.9163C234.132 11.9163 237.834 11.9163 241.606 11.8185H244.4C245.169 11.8185 246.035 11.6649 246.775 11.7068C247.449 11.86 248.07 12.1876 248.577 12.6567C249.114 13.0432 249.61 13.4832 250.058 13.9699C250.395 14.3436 250.685 14.7563 250.924 15.1992L251.134 15.5764C251.05 21.8768 250.854 26.389 250.938 31.7394C250.938 34.9524 251.036 38.1655 251.078 41.3785C251.078 44.3401 250.938 47.2178 250.952 50.1934C250.966 53.169 250.952 56.1305 250.812 59.0921C250.701 61.7743 250.253 64.3587 250.03 67.0269C249.835 68.1782 249.835 69.3541 250.03 70.5054C250.03 70.6591 250.687 70.5054 250.742 70.2958C251.609 67.4972 252.019 64.5775 251.958 61.6486C252.111 58.2539 252.125 54.8593 252.153 51.4646C252.153 51.1713 252.153 50.8779 252.153 50.5845L252.279 33.0386C252.279 27.3669 252.056 21.5974 252.559 15.9815C252.597 15.0223 252.261 14.0857 251.623 13.3692Z" fill="#6D5873"/>
<g style="mix-blend-mode:multiply">
<path d="M41.9787 50.78C38.4583 50.9057 33.8623 52.7218 32.1999 56.0745C30.5375 59.4272 32.3675 63.4505 34.4769 66.0908C35.3724 67.2674 36.6448 68.1008 38.0811 68.4517L38.598 68.7451C41.9647 70.3376 46.9798 68.1583 49.6061 65.9511C55.7947 60.7544 48.8937 50.5565 41.9787 50.78Z" fill="#E8E6E8"/>
</g>
<g style="mix-blend-mode:multiply">
<path d="M60.2232 58.5752C59.8262 58.2219 59.3452 57.9766 58.8262 57.8627C58.0054 57.7144 57.1736 57.635 56.3396 57.6252C55.9978 57.5877 55.6521 57.6372 55.3346 57.7691C55.0171 57.901 54.7381 58.111 54.5235 58.3796C54.2301 58.9244 53.6714 59.2317 53.4758 59.7766C53.3572 60.1444 53.3572 60.5402 53.4758 60.9081C53.7243 61.3483 54.08 61.7187 54.5098 61.9849C54.9396 62.251 55.4296 62.4044 55.9345 62.4308C57.4292 62.6823 60.4606 62.9337 60.5864 60.8103C60.783 60.4504 60.8541 60.0352 60.7883 59.6304C60.7225 59.2256 60.5236 58.8543 60.2232 58.5752Z" fill="#E8E6E8"/>
</g>
<g style="mix-blend-mode:multiply">
<path d="M27.4502 42.2586C27.1684 42.0596 26.8691 41.8866 26.5561 41.7417C26.3354 41.6901 26.1045 41.7036 25.8913 41.7805C25.6782 41.8573 25.4918 41.9943 25.3547 42.1747C25.215 42.4821 25.0194 42.7894 24.9077 43.1107C24.8643 43.2378 24.8506 43.373 24.8675 43.5062C24.8845 43.6394 24.9317 43.7669 25.0055 43.879C25.2988 44.4239 26.1091 44.4378 26.6399 44.2562C27.1708 44.0746 27.7575 43.5438 27.7296 42.971C27.7453 42.8384 27.728 42.704 27.6793 42.5797C27.6305 42.4554 27.5518 42.3451 27.4502 42.2586Z" fill="#E8E6E8"/>
</g>
<g style="mix-blend-mode:multiply">
<path d="M225.471 58.5891C223.362 56.0606 219.213 56.4238 217.005 58.7428C212.912 63.0455 222.09 68.9128 225.695 65.1829C227.706 63.1572 227.092 60.5309 225.471 58.5891Z" fill="#E8E6E8"/>
</g>
<g style="mix-blend-mode:multiply">
<path d="M212.731 62.2491C212.318 61.6626 211.746 61.2068 211.082 60.936C210.803 60.7683 209.825 61.0757 209.839 61.4668C209.723 62.1045 209.864 62.7622 210.23 63.2968C210.455 63.5564 210.759 63.7342 211.095 63.8025C211.431 63.8707 211.78 63.8255 212.088 63.674C212.235 63.6383 212.371 63.5696 212.487 63.4733C212.603 63.377 212.695 63.2556 212.757 63.1183C212.819 62.9809 212.849 62.8313 212.844 62.6807C212.84 62.5301 212.801 62.3825 212.731 62.2491Z" fill="#E8E6E8"/>
</g>
<g style="mix-blend-mode:multiply">
<path d="M238.114 21.276C235.04 18.6776 230.137 19.6974 227.343 22.184C225.359 23.9582 227.678 26.4867 229.075 27.6182C230.738 29.0152 233.336 29.0152 235.32 29.7416C235.804 29.8045 236.296 29.7396 236.747 29.5533C237.198 29.3671 237.592 29.066 237.89 28.6799C238.782 27.3812 239.435 25.9336 239.818 24.4052C239.814 23.7836 239.656 23.1726 239.359 22.6267C239.061 22.0807 238.634 21.6167 238.114 21.276Z" fill="#E8E6E8"/>
</g>
<g style="mix-blend-mode:multiply">
<path d="M225.36 27.1853C225.323 27.0072 225.229 26.8457 225.094 26.7243C224.908 26.6271 224.711 26.552 224.507 26.5008C224.326 26.5008 224.13 26.3471 223.949 26.3052C223.671 26.258 223.391 26.2254 223.11 26.2074C222.923 26.1854 222.733 26.2124 222.559 26.2859C222.385 26.3593 222.233 26.4767 222.119 26.6265C222.006 26.8218 221.912 27.0277 221.839 27.2412C221.818 27.4455 221.818 27.6515 221.839 27.8558C221.805 27.9554 221.805 28.0635 221.839 28.1632C221.911 28.2596 222.001 28.3404 222.105 28.4006C222.376 28.5547 222.69 28.6137 222.999 28.5683C223.433 28.6282 223.876 28.5752 224.284 28.4146C224.62 28.2892 224.895 28.039 225.052 27.7161C225.22 27.5904 225.429 27.3809 225.36 27.1853Z" fill="#E8E6E8"/>
</g>
<g style="mix-blend-mode:multiply">
<path d="M243.576 36.531C243.345 36.1893 243.041 35.9032 242.685 35.693C242.33 35.4829 241.933 35.354 241.522 35.3156C241.205 35.2793 240.883 35.3172 240.582 35.4263C240.282 35.5353 240.011 35.7127 239.79 35.9443C239.315 36.6008 238.784 37.4111 239.245 38.2353C239.456 38.5399 239.746 38.7814 240.084 38.9338C240.552 39.1877 241.064 39.3534 241.592 39.4227C241.922 39.4589 242.256 39.4099 242.562 39.2802C242.868 39.1506 243.135 38.9447 243.339 38.6823C243.55 38.3701 243.682 38.0109 243.724 37.6361C243.765 37.2612 243.714 36.8819 243.576 36.531Z" fill="#E8E6E8"/>
</g>
<g style="mix-blend-mode:multiply">
<path d="M76.4001 22.7149C75.1135 22.2344 73.7193 22.1184 72.371 22.3797C71.0227 22.6409 69.7727 23.2694 68.7587 24.1957C68.5989 24.3038 68.462 24.4423 68.3559 24.6034C68.2497 24.7644 68.1764 24.9449 68.14 25.1343C68.1037 25.3238 68.1051 25.5185 68.1441 25.7074C68.1832 25.8964 68.2591 26.0757 68.3675 26.2353C68.7797 26.7346 69.3525 27.0753 69.988 27.1992C71.4897 27.4718 73.0196 27.5563 74.5422 27.4506C74.9525 27.4545 75.3584 27.3647 75.7288 27.188C76.0992 27.0112 76.4244 26.7523 76.6795 26.4308C77.0056 25.8385 77.2321 25.1967 77.3501 24.5309C77.4398 24.1645 77.3928 23.7779 77.2179 23.4436C77.043 23.1093 76.7523 22.8502 76.4001 22.7149Z" fill="#E8E6E8"/>
</g>
<g style="mix-blend-mode:multiply">
<path d="M117.667 71.3576C117.572 71.2349 117.447 71.1387 117.304 71.0782L116.871 70.8127C116.633 70.673 116.228 70.8127 116.018 70.9245C115.809 71.0363 115.432 71.162 115.488 71.3995C115.543 71.637 115.488 71.9722 115.711 72.1259C115.802 72.2171 115.9 72.3011 116.004 72.3774C116.196 72.483 116.416 72.5269 116.633 72.5031C116.809 72.5255 116.987 72.5069 117.154 72.4487C117.322 72.3905 117.473 72.2944 117.597 72.1678C117.695 72.0419 117.77 71.9001 117.82 71.7487C117.796 71.6093 117.744 71.4762 117.667 71.3576Z" fill="#E8E6E8"/>
</g>
<g style="mix-blend-mode:multiply">
<path d="M128.996 74.9196C128.95 74.8224 128.877 74.74 128.787 74.6822L128.284 74.2491C128.102 74.0954 127.236 74.5005 127.348 74.6402L127.753 75.1152C127.807 75.1948 127.873 75.2655 127.948 75.3248L128.326 75.4924C128.475 75.5469 128.638 75.5469 128.787 75.4924C128.787 75.4924 129.108 75.3527 129.066 75.227C129.052 75.1226 129.029 75.0197 128.996 74.9196Z" fill="#E8E6E8"/>
</g>
<g style="mix-blend-mode:multiply">
<path d="M173.769 46.8966C173.614 46.5183 173.427 46.1538 173.21 45.8069C172.858 45.4633 172.458 45.1716 172.023 44.9408C171.646 44.6894 170.905 44.9408 170.626 45.1643C170.347 45.3878 169.69 45.6672 170.039 45.9187C170.396 46.2595 170.801 46.5466 171.241 46.7708C171.799 46.9944 172.4 47.1341 172.959 47.3157C173.043 47.3715 173.881 47.1341 173.769 46.8966Z" fill="#E8E6E8"/>
</g>
<g style="mix-blend-mode:multiply">
<path d="M97.3408 41.0291L96.8519 40.5122C96.6982 40.3306 96.0975 40.4144 95.9438 40.4284C95.5553 40.4975 95.1758 40.61 94.8123 40.7637C94.4748 40.8821 94.1621 41.0621 93.8903 41.2945C93.7785 41.3923 93.3874 41.7136 93.541 41.8952L93.9741 42.44C94.1266 42.6699 94.3392 42.8535 94.5888 42.9709C95.2808 43.2845 96.0681 43.3146 96.782 43.0547C97.0924 42.9352 97.3566 42.7199 97.5364 42.44C97.6481 42.2445 97.6062 42.2305 97.6342 42.0349C97.6553 41.9101 97.6553 41.7826 97.6342 41.6577C97.69 41.3783 97.5224 41.2386 97.3408 41.0291Z" fill="#E8E6E8"/>
</g>
<path d="M49.5364 66.0351C48.3445 67.1086 46.9669 67.956 45.4712 68.5356C41.7692 70.4914 36.7261 68.5356 34.2954 65.4902C32.822 63.4172 31.8642 61.0227 31.5014 58.5054C31.2221 61.6905 32.8984 64.5124 35.0498 66.8872C37.2011 69.2621 39.6179 71.3156 43.1522 70.659C44.6664 70.3974 46.1075 69.8161 47.3794 68.9537C48.6513 68.0913 49.7247 66.9678 50.5282 65.6579C51.1285 64.6357 51.5978 63.5422 51.9252 62.4029C52.0413 61.4763 52.0693 60.5408 52.009 59.609C51.9536 61.9727 51.0796 64.2439 49.5364 66.0351Z" fill="#E6C9C3"/>
<path d="M54.1044 59.3854C53.9004 59.4641 53.7344 59.6182 53.6408 59.8158C53.5472 60.0134 53.5331 60.2394 53.6015 60.4471C53.7653 60.8596 54.08 61.1943 54.4816 61.3831C55.3246 61.8083 56.23 62.096 57.1638 62.2353C57.7534 62.3763 58.3609 62.4281 58.9659 62.3889C60.6004 62.1934 60.754 60.517 60.5026 59.1479C60.7886 59.8853 60.8894 60.6816 60.7959 61.4669C60.834 61.8019 60.7496 62.1392 60.5585 62.4169C60.2507 62.7269 59.8356 62.9069 59.399 62.9198C57.5201 63.1662 55.6099 62.9847 53.8111 62.3889C53.6431 62.3412 53.4864 62.2605 53.3501 62.1514C53.2258 61.9794 53.1499 61.7773 53.1302 61.566C53.1106 61.3547 53.1479 61.142 53.2383 60.95C53.4747 60.4012 53.7648 59.8771 54.1044 59.3854Z" fill="#E6C9C3"/>
<path d="M69.2337 24.0559C68.7447 24.475 68.1999 25.0477 68.3676 25.6764C68.5352 26.305 69.0241 26.4307 69.4991 26.6403C70.1892 26.9526 70.9103 27.1914 71.6504 27.3527C72.6387 27.4716 73.6377 27.4716 74.626 27.3527C75.113 27.3508 75.5923 27.2309 76.023 27.0035C76.2343 26.8532 76.4145 26.6634 76.5538 26.4447C77.1126 25.6645 77.3479 24.6983 77.2104 23.7485C77.2872 24.599 77.2872 25.4546 77.2104 26.305C77.2104 26.6755 77.0632 27.0308 76.8012 27.2928C76.5393 27.5548 76.1839 27.702 75.8134 27.702C73.7599 28.0093 71.413 28.4843 69.4991 27.5204C67.3338 26.5425 67.6411 25.5227 69.2337 24.0559Z" fill="#E6C9C3"/>
<path d="M97.7879 41.7417C97.6562 42.1004 97.3978 42.3986 97.0614 42.5799C96.8194 42.752 96.5565 42.8928 96.2791 42.999C95.8661 43.1188 95.4269 43.1138 95.0167 42.9846C94.6065 42.8553 94.2438 42.6076 93.9741 42.2726C94.3882 42.8309 94.905 43.305 95.4968 43.6695C95.5887 43.7289 95.6948 43.7627 95.8042 43.7673C95.9097 43.7549 96.0105 43.7165 96.0975 43.6556C96.8285 43.1878 97.414 42.5248 97.7879 41.7417Z" fill="#E6C9C3"/>
<path d="M226.184 59.9302C226.771 60.7069 227.058 61.6689 226.994 62.6403C226.89 63.0384 226.72 63.4163 226.491 63.7579C226.049 64.7028 225.321 65.4848 224.41 65.993C224.02 66.1638 223.604 66.2677 223.18 66.3004C221.469 66.448 219.765 65.9496 218.403 64.9034C217.729 64.3859 217.164 63.7408 216.74 63.005C216.315 62.2691 216.04 61.4569 215.93 60.6147C216.115 62.2269 216.791 63.7434 217.865 64.9599C218.939 66.1764 220.36 67.0343 221.937 67.4179C222.486 67.5643 223.064 67.5643 223.613 67.4179C224.23 67.2096 224.79 66.8604 225.248 66.3982C225.772 65.9955 226.242 65.5259 226.645 65.0012C227.135 64.2226 227.356 63.3041 227.273 62.3876C227.189 61.4711 226.807 60.6076 226.184 59.9302Z" fill="#E6C9C3"/>
<path d="M226.868 22.9663C226.705 23.2911 226.635 23.6544 226.665 24.0166C226.694 24.3787 226.823 24.7257 227.036 25.0199C227.31 25.6016 227.658 26.1461 228.07 26.6403C229.507 28.0345 231.325 28.9726 233.294 29.3365C235.11 29.7277 237.094 30.1048 238.086 28.2189C238.843 26.913 239.399 25.5001 239.734 24.028C239.82 25.1964 239.613 26.3678 239.134 27.4366C239.02 28.0076 238.792 28.5496 238.463 29.0298C238.134 29.51 237.711 29.9185 237.22 30.2306C236.515 30.5143 235.74 30.5776 234.999 30.4122C232.343 30.1081 229.875 28.8937 228.014 26.9756C226.966 25.9 225.946 24.4471 226.868 22.9663Z" fill="#E6C9C3"/>
<path d="M243.8 36.95C243.562 37.4389 243.311 37.9278 243.073 38.4307C242.997 38.6048 242.894 38.7653 242.766 38.9057C242.579 39.047 242.363 39.1463 242.134 39.1969C241.905 39.2475 241.668 39.2483 241.439 39.1991C240.961 39.1805 240.49 39.0862 240.042 38.9197C239.826 38.8345 239.631 38.7045 239.47 38.5383C239.309 38.3722 239.185 38.1736 239.106 37.9558C239.2 38.3059 239.376 38.6288 239.619 38.8983C239.861 39.1677 240.164 39.3761 240.503 39.5064C241.174 39.7275 241.878 39.8314 242.584 39.8137C242.711 39.8563 242.848 39.8563 242.975 39.8137C243.105 39.726 243.203 39.5986 243.255 39.4505C243.644 38.6763 243.832 37.8161 243.8 36.95Z" fill="#E6C9C3"/>
</g>
<defs>
<linearGradient id="paint0_linear_967_4246" x1="131.329" y1="-46.2397" x2="133.285" y2="127.907" gradientUnits="userSpaceOnUse">
<stop stop-color="#BFA0A2"/>
<stop offset="0.29" stop-color="#8B7588"/>
<stop offset="0.62" stop-color="#493E66"/>
<stop offset="0.84" stop-color="#224569"/>
<stop offset="1" stop-color="#0A4A6B"/>
</linearGradient>
<radialGradient id="paint1_radial_967_4246" cx="0" cy="0" r="1" gradientUnits="userSpaceOnUse" gradientTransform="translate(133.914 -29.3503) scale(411.339 411.339)">
<stop stop-color="#CCAAAC"/>
<stop offset="1" stop-color="#6C6778"/>
</radialGradient>
<clipPath id="clip0_967_4246">
<rect width="264.154" height="96" fill="white" transform="translate(-0.000366211)"/>
</clipPath>
</defs>
</svg>
