<svg width="56" height="62" viewBox="0 0 56 62" fill="none" xmlns="http://www.w3.org/2000/svg">
<g clip-path="url(#clip0_1071_8728)">
<path d="M12.5875 59.01C12.0812 59.0283 11.5751 58.9676 11.0875 58.83C9.6308 58.4779 8.36413 57.5816 7.54751 56.325C4.92251 52.515 5.67251 47.88 5.55251 43.59C5.41751 38.94 4.90751 34.14 4.90751 29.595L4.90751 29.235C4.90751 28.095 4.90751 26.97 4.90751 25.83L4.90751 25.68C5.02087 23.6267 5.87957 21.6852 7.32251 20.22C7.48934 20.0549 7.59513 19.8381 7.62251 19.605C7.59702 19.3744 7.49695 19.1585 7.33751 18.99C6.60341 18.3324 5.97146 17.569 5.46251 16.725C5.29639 16.3009 5.23966 15.8418 5.29751 15.39C5.74751 11.13 5.04251 6.27 7.62251 2.52C8.41637 1.26476 9.66224 0.362576 11.1025 -1.93292e-06C16.6675 0.719998 21.5125 3.45 26.2975 6.24C32.2975 9.75 38.2975 13.305 43.9225 17.325C48.2575 20.325 53.9725 23.865 55.3225 29.415C53.7325 35.895 45.0175 40.5 40.1425 44.19C39.8725 44.385 39.5725 44.61 39.3025 44.835C37.2549 46.4106 35.0419 47.7585 32.7025 48.855C30.6775 49.845 29.0725 49.35 27.0625 49.845C26.5156 50.0517 26.0732 50.4672 25.8325 51C24.3098 53.8553 21.7651 56.0304 18.7075 57.09C16.7899 58.0694 14.7209 58.7185 12.5875 59.01Z" fill="url(#paint0_linear_1071_8728)"/>
<path d="M11.6425 47.8203L11.6425 43.4103C11.6425 41.3253 11.4475 39.2253 11.3275 37.1853C11.1625 34.5153 11.0125 32.0103 11.0125 29.5953L11.0125 25.9053C11.0125 25.3653 11.1325 25.0503 11.8975 24.1203C13.0078 22.8893 13.6297 21.2949 13.6463 19.6373C13.6629 17.9797 13.0729 16.3732 11.9875 15.1203L11.3875 14.4453L11.5225 12.1653C11.5225 10.9053 10.9975 7.7853 11.8825 6.7803C12.7675 5.7753 14.2975 6.7803 15.4225 7.2603C15.9475 7.4553 16.4275 7.6803 16.9225 7.9203C19.1125 8.9553 21.0925 10.2453 23.2375 11.5053C28.8775 14.7603 34.8475 18.3453 40.4125 22.2903L41.7325 23.2053C43.5775 24.4953 47.9425 26.8203 47.9725 29.6403C48.0025 32.4603 42.2425 35.2803 40.2175 36.6753C38.8825 37.6053 37.6075 38.4603 36.4375 39.3603C36.1675 39.5703 35.7925 39.8403 35.4625 40.1253C33.7877 41.4056 31.9768 42.4972 30.0625 43.3803C29.7155 43.473 29.3565 43.5134 28.9975 43.5003C27.8563 43.5483 26.7218 43.6989 25.6075 43.9503C25.5201 43.9662 25.4347 43.9914 25.3525 44.0253C23.8232 44.4644 22.4732 45.3784 21.4975 46.6353C21.2547 46.9372 21.0293 47.2527 20.8225 47.5803L20.8225 47.7003C20.3844 48.6125 19.7561 49.4204 18.98 50.0698C18.2038 50.7191 17.2977 51.195 16.3225 51.4653L15.7675 51.7353C12.5725 53.1153 11.6425 50.5653 11.6425 47.8203Z" fill="url(#paint1_linear_1071_8728)"/>
<path d="M25.6075 43.9502C25.5201 43.9661 25.4347 43.9913 25.3525 44.0252C26.426 43.4165 27.5564 42.9142 28.7275 42.5252C29.7745 42.2554 30.8019 41.9146 31.8025 41.5052C33.1562 40.8528 34.409 40.0092 35.5225 39.0002L45.4975 30.2702C45.7889 30.078 45.9976 29.7837 46.0825 29.4452C46.0893 29.1312 45.9888 28.8243 45.7975 28.5752C44.0073 26.2188 41.7632 24.245 39.1975 22.7702C36.3925 20.9102 33.6325 18.9902 30.8575 17.1002C30.0109 16.4416 29.0569 15.9341 28.0375 15.6002C27.1075 15.3302 26.0275 15.6002 25.3225 14.7302C25.029 14.3079 24.792 13.849 24.6175 13.3652C23.9969 12.3264 23.0618 11.5121 21.9475 11.0402C20.8421 10.5765 19.7908 9.99306 18.8125 9.30019C19.5325 8.74519 22.5625 11.1602 23.2375 11.5652C28.8775 14.8202 34.8475 18.4052 40.4125 22.3502L41.7325 23.2652C43.5775 24.5552 47.9425 26.8802 47.9725 29.7002C48.0025 32.5202 42.2425 35.3402 40.2175 36.7352C38.8825 37.6652 37.6075 38.5202 36.4375 39.4202C36.1675 39.6302 35.7925 39.9002 35.4625 40.1852C33.7877 41.4655 31.9768 42.5571 30.0625 43.4402C29.7155 43.5329 29.3565 43.5733 28.9975 43.5602C27.8581 43.5884 26.7236 43.719 25.6075 43.9502Z" fill="#EB924D"/>
<path d="M20.8223 47.6252C20.3217 47.93 19.8585 48.2925 19.4423 48.7052C20.0703 47.9746 20.7576 47.2973 21.4973 46.6802C21.2545 46.982 21.0291 47.2976 20.8223 47.6252Z" fill="#EB924D"/>
<g style="mix-blend-mode:multiply">
<path d="M22.7575 41.0252C23.9107 40.8786 25.0117 40.4568 25.9675 39.7952C26.498 39.4113 26.9172 38.8938 27.1825 38.2952C27.5376 37.4371 27.6667 36.5024 27.5575 35.5802C27.369 33.5726 26.6379 31.6541 25.4425 30.0302C25.0023 29.4076 24.3934 28.9236 23.6875 28.6352C23.1505 28.4651 22.5814 28.4213 22.0246 28.5071C21.4678 28.593 20.9384 28.8062 20.4775 29.1302C20.1783 29.3301 19.8972 29.556 19.6375 29.8052C19.3838 29.8612 19.1334 29.9313 18.8875 30.0152C18.3949 30.1863 17.9375 30.4455 17.5375 30.7802C17.0458 31.1226 16.6527 31.5881 16.3975 32.1302C16.0225 33.2496 16.0225 34.4608 16.3975 35.5802C16.7742 37.2831 17.6273 38.8438 18.8575 40.0802C19.3902 40.5287 20.0196 40.8475 20.6964 41.0115C21.3731 41.1755 22.0787 41.1801 22.7575 41.0252Z" fill="#E8E6E8"/>
</g>
<g style="mix-blend-mode:multiply">
<path d="M22.3224 25.875C22.4124 25.875 22.5024 25.875 22.5774 25.875C22.6261 25.8911 22.6786 25.8911 22.7274 25.875C22.7694 25.8535 22.8095 25.8284 22.8474 25.8L23.0574 25.665C23.146 25.5996 23.2311 25.5295 23.3124 25.455C23.3854 25.3819 23.4659 25.3166 23.5524 25.26C23.6274 25.26 23.5524 25.065 23.5524 24.975C23.5265 24.8228 23.4648 24.6788 23.3724 24.555C23.1337 24.274 22.8674 24.0177 22.5774 23.79L22.3224 23.55C22.231 23.4806 22.1299 23.425 22.0224 23.385C22.0224 23.385 21.9024 23.385 21.8424 23.385C21.7125 23.3776 21.5823 23.3776 21.4524 23.385C21.3775 23.3775 21.3022 23.3775 21.2274 23.385C21.2116 23.3806 21.1951 23.3794 21.1788 23.3815C21.1626 23.3837 21.1469 23.3892 21.1329 23.3976C21.1188 23.406 21.1067 23.4172 21.0971 23.4306C21.0876 23.4439 21.0808 23.459 21.0774 23.475C21.071 23.4996 21.071 23.5254 21.0774 23.55C20.9174 23.79 20.7674 24.03 20.6274 24.27C20.5373 24.4912 20.5373 24.7388 20.6274 24.96C20.7024 25.155 20.8074 25.425 21.0174 25.515C21.2274 25.605 21.4824 25.725 21.7224 25.845C21.844 25.9468 21.9988 26.0002 22.1574 25.995C22.1874 25.92 22.3224 25.89 22.3224 25.875Z" fill="#E8E6E8"/>
</g>
<g style="mix-blend-mode:multiply">
<path d="M32.8224 34.7852L32.9574 34.7852C32.9815 34.7944 33.0082 34.7944 33.0324 34.7852L33.3624 34.1102C33.3919 33.9818 33.3919 33.8485 33.3624 33.7202C33.3313 33.5565 33.2862 33.3959 33.2274 33.2402C33.1671 33.1022 33.0917 32.9714 33.0024 32.8502C33.0024 32.8502 32.8374 32.6702 32.7474 32.7002L32.2224 32.9252C32.2224 32.9252 32.2224 32.9252 32.1474 33.0452L32.1474 33.1951L32.1474 33.3902L32.0124 33.7652L32.0124 33.8852L32.0124 34.1102C32.0398 34.2572 32.0904 34.399 32.1624 34.5302C32.2062 34.6265 32.2616 34.7172 32.3274 34.8002C32.3498 34.8393 32.3828 34.8713 32.4226 34.8925C32.4624 34.9137 32.5074 34.9233 32.5524 34.9202L32.8224 34.7852Z" fill="#E8E6E8"/>
</g>
</g>
<defs>
<linearGradient id="paint0_linear_1071_8728" x1="69.775" y1="8.04" x2="30.775" y2="42.54" gradientUnits="userSpaceOnUse">
<stop stop-color="#CF5C2B"/>
<stop offset="1" stop-color="#59173E"/>
</linearGradient>
<linearGradient id="paint1_linear_1071_8728" x1="56.3875" y1="28.7553" x2="-56.225" y2="28.7553" gradientUnits="userSpaceOnUse">
<stop stop-color="#CF5C2B"/>
<stop offset="1" stop-color="#59173E"/>
</linearGradient>
<clipPath id="clip0_1071_8728">
<rect width="61.08" height="54.645" fill="white" transform="translate(55.3225) rotate(90)"/>
</clipPath>
</defs>
</svg>
